<?xml version="1.0" standalone="no"?>
<!DOCTYPE svg PUBLIC "-//W3C//DTD SVG 1.1//EN" "http://www.w3.org/Graphics/SVG/1.1/DTD/svg11.dtd" >
<svg xmlns="http://www.w3.org/2000/svg" xmlns:xlink="http://www.w3.org/1999/xlink" version="1.1">
<metadata>
Created by FontForge 20170731 at Tue Jun  1 13:50:10 2021
 By Aleksey,,,
Copyright (c) 2016 Commercial Type.
</metadata>
<defs>
<font id="LeJeuneText-Regular" horiz-adv-x="716" >
  <font-face 
    font-family="Le Jeune Text"
    font-weight="400"
    font-stretch="normal"
    units-per-em="2048"
    panose-1="0 0 0 0 0 0 0 0 0 0"
    ascent="1638"
    descent="-410"
    x-height="997"
    cap-height="1475"
    bbox="-479 -528 2474 2269"
    underline-thickness="18"
    underline-position="-333"
    unicode-range="U+000D-FB04"
  />
<missing-glyph horiz-adv-x="1024" 
 />
    <glyph glyph-name="f_b" unicode="fb" horiz-adv-x="1878" 
d="M1348 -27q-201 0 -279 162h-10v-135h-352v76h131v1204q-20 -14 -56 -14q-54 0 -84 30.5t-30 75.5q0 31 14.5 56.5t38.5 35.5q-3 35 -88 35q-97 0 -148 -69t-51 -203v-230h252v-75h-252v-846h150v-76h-523v76h152v846h-164v75h164v125q0 215 115.5 331t304.5 116
q162 0 227 -92v63h199v-696h10q23 73 100 128.5t189 55.5q87 0 167.5 -39.5t142 -107t98 -165.5t36.5 -208q0 -148 -59.5 -271t-164 -193.5t-230.5 -70.5zM1319 53q122 0 175.5 88.5t53.5 311.5v114q0 201 -53 291t-180 90q-44 0 -88.5 -20.5t-83.5 -59.5t-63.5 -104.5
t-24.5 -145.5v-231q0 -85 23.5 -151.5t62.5 -105t84.5 -58t93.5 -19.5z" />
    <glyph glyph-name="f_f_b" unicode="ffb" horiz-adv-x="2504" 
d="M434 1219v-222h406v125q0 68 14 140q-25 -5 -33 -5q-52 0 -81 28t-29 71q0 59 43 86q-9 28 -97 28q-107 0 -165 -62t-58 -189zM1974 -27q-198 0 -276 162h-12v-135h-351v76h131v1204q-20 -14 -57 -14q-54 0 -83.5 30.5t-29.5 75.5q0 31 14 56.5t38 35.5q0 35 -88 35
q-95 0 -147 -69.5t-52 -202.5v-230h252v-75h-252v-846h149v-76h-512v76h142v846h-406v-846h164v-76h-537v76h152v846h-164v75h164v113q0 208 123.5 319t322.5 111q106 0 173.5 -36.5t85.5 -96.5q55 79 143 120.5t199 41.5q164 0 229 -92v63h197v-696h12q19 73 97 128.5
t192 55.5q85 0 165.5 -39.5t141.5 -107t98 -165.5t37 -208q0 -148 -60 -271t-164.5 -193.5t-230.5 -70.5zM1946 53q81 0 130 36t75 124.5t26 239.5v114q0 201 -54 291t-181 90q-44 0 -88.5 -20.5t-84 -59.5t-64 -104.5t-24.5 -145.5v-231q0 -85 24 -152t63 -105t84.5 -57.5
t93.5 -19.5z" />
    <glyph glyph-name="f_f_h" unicode="ffh" horiz-adv-x="2533" 
d="M434 1219v-222h406v125q0 68 14 140q-25 -5 -33 -5q-52 0 -81 28t-29 71q0 59 43 86q-9 28 -97 28q-107 0 -165 -62t-58 -189zM598 76v-76h-537v76h152v846h-164v75h164v113q0 208 123.5 319t322.5 111q106 0 173.5 -36.5t85.5 -96.5q55 79 143 120.5t199 41.5
q164 0 229 -92v63h197v-719h12q16 38 39.5 71.5t59 65.5t86.5 51t112 19q149 0 240.5 -90.5t91.5 -257.5v-604h147v-76h-516v76h147v725q0 68 -36.5 106.5t-106.5 38.5q-91 0 -155 -62t-92.5 -159t-28.5 -219v-430h165v-76h-516v76h131v1204q-20 -14 -57 -14
q-54 0 -83.5 30.5t-29.5 75.5q0 31 14 56.5t38 35.5q0 35 -88 35q-95 0 -147 -69.5t-52 -202.5v-230h252v-75h-252v-846h149v-76h-512v76h142v846h-406v-846h164z" />
    <glyph glyph-name="f_f_j" unicode="ffj" horiz-adv-x="1880" 
d="M434 1219v-222h406v66q0 113 30 201q-21 -7 -36 -7q-52 0 -81.5 28t-29.5 71q0 59 43 86q-9 28 -100 28q-112 0 -172 -62t-60 -189zM598 76v-76h-537v76h152v846h-164v75h164v113q0 208 126 319t329 111q117 0 186 -41.5t80 -107.5q134 178 385 178q149 0 237.5 -58
t88.5 -157q0 -62 -32.5 -101t-92.5 -39q-57 0 -92 37.5t-35 87.5q0 37 19 65t48 36q-3 59 -139 59q-122 0 -191 -91.5t-69 -256.5v-154h180v-75h-180v-846h186v-76h-549v76h142v846h-406v-846h164zM1688 997v-1144q0 -167 -95.5 -267t-263.5 -100q-107 0 -172 44.5
t-65 127.5q0 44 32 77.5t84 33.5t81.5 -32t29.5 -77q0 -49 -41 -76q6 -22 53 -22q71 0 103 39t32 118v1203h-155v75h377z" />
    <glyph glyph-name="f_f_k" unicode="ffk" horiz-adv-x="2482" 
d="M434 1219v-222h406v125q0 68 14 140q-25 -5 -33 -5q-52 0 -81 28t-29 71q0 59 43 86q-9 28 -97 28q-107 0 -165 -62t-58 -189zM598 76v-76h-537v76h152v846h-164v75h164v113q0 208 123.5 319t322.5 111q106 0 173.5 -36.5t85.5 -96.5q55 79 143 120.5t199 41.5
q164 0 229 -92v63h197v-1046l403 428h-164v75h397v-75h-133l-250 -263l416 -583h80v-76h-477v76h145l-307 430l-110 -115v-315h149v-76h-500v76h131v1204q-20 -14 -57 -14q-54 0 -83.5 30.5t-29.5 75.5q0 31 14 56.5t38 35.5q0 35 -88 35q-95 0 -147 -69.5t-52 -202.5v-230
h252v-75h-252v-846h149v-76h-512v76h142v846h-406v-846h164z" />
    <glyph glyph-name="f_h" unicode="fh" horiz-adv-x="1906" 
d="M584 76v-76h-523v76h152v846h-164v75h164v125q0 215 115.5 331t304.5 116q162 0 227 -92v63h199v-719h10q16 38 40 71.5t59.5 65.5t87 51t112.5 19q148 0 240 -90.5t92 -257.5v-604h145v-76h-514v76h148v725q0 68 -37 106.5t-107 38.5q-91 0 -155 -62t-92.5 -159
t-28.5 -219v-430h166v-76h-518v76h131v1204q-20 -14 -56 -14q-54 0 -84 30.5t-30 75.5q0 31 14.5 56.5t38.5 35.5q-3 35 -88 35q-97 0 -148 -69t-51 -203v-230h252v-75h-252v-846h150z" />
    <glyph glyph-name="f_j" unicode="fj" horiz-adv-x="1251" 
d="M618 76v-76h-557v76h152v846h-164v75h164v66q0 240 132 373t347 133q149 0 237.5 -58t88.5 -157q0 -62 -32.5 -101t-92.5 -39q-57 0 -92 37.5t-35 87.5q0 37 19.5 65t48.5 36q-9 59 -140 59q-122 0 -191 -91.5t-69 -256.5v-154h178v-75h-178v-846h184zM1061 997v-1144
q0 -166 -96.5 -266.5t-262.5 -100.5q-107 0 -172 44.5t-65 127.5q0 44 32.5 77.5t84.5 33.5t81 -32t29 -77q0 -48 -43 -76q6 -22 53 -22q71 0 104.5 39t33.5 118v1203h-156v75h377z" />
    <glyph glyph-name="f_k" unicode="fk" horiz-adv-x="1853" 
d="M584 76v-76h-523v76h152v846h-164v75h164v125q0 215 115.5 331t304.5 116q162 0 227 -92v63h199v-1046l403 428h-164v75h398v-75h-133l-250 -263l416 -583h79v-76h-477v76h144l-306 430l-110 -115v-315h149v-76h-501v76h131v1204q-20 -14 -56 -14q-54 0 -84 30.5
t-30 75.5q0 31 14.5 56.5t38.5 35.5q-3 35 -88 35q-97 0 -148 -69t-51 -203v-230h252v-75h-252v-846h150z" />
    <glyph glyph-name="f_f" unicode="ff" horiz-adv-x="1376" 
d="M434 1219v-222h406v142q0 67 12 123q-6 -1 -12.5 -2t-11 -2t-7.5 -1q-52 0 -81 28t-29 71q0 59 43 86q-9 28 -97 28q-107 0 -165 -62t-58 -189zM598 76v-76h-537v76h152v846h-164v75h164v113q0 208 123.5 319t322.5 111q102 0 168.5 -34.5t87.5 -92.5q111 156 330 156
q118 0 181 -49t63 -125q0 -49 -28.5 -80t-80.5 -31t-82 29.5t-30 72.5q0 64 45 84q-1 13 -20.5 21t-49.5 8q-182 0 -182 -252v-250h252v-75h-252v-846h186v-76h-549v76h142v846h-406v-846h164z" />
    <glyph glyph-name="f_i" unicode="fi" horiz-adv-x="1255" 
d="M688 0v76h152v846h-156v75h377v-921h147v-76h-520zM584 76v-76h-523v76h152v846h-164v75h164v66q0 240 132 373t347 133q149 0 237.5 -58t88.5 -157q0 -62 -32.5 -101t-92.5 -39q-57 0 -92 37.5t-35 87.5q0 37 19.5 65t48.5 36q-9 59 -140 59q-122 0 -191 -91.5
t-69 -256.5v-154h178v-75h-178v-846h150z" />
    <glyph glyph-name="f_l" unicode="fl" horiz-adv-x="1265" 
d="M584 76v-76h-523v76h152v846h-164v75h164v125q0 215 115.5 331t304.5 116q162 0 227 -92v63h201v-1464h160v-76h-514v76h131v1204q-20 -14 -56 -14q-54 0 -84 30.5t-30 75.5q0 31 14.5 56.5t38.5 35.5q-3 35 -88 35q-97 0 -148 -69t-51 -203v-230h252v-75h-252v-846h150z
" />
    <glyph glyph-name="f_f_i" unicode="ffi" horiz-adv-x="1882" 
d="M434 1219v-222h406v66q0 113 30 201q-21 -7 -36 -7q-52 0 -81.5 28t-29.5 71q0 59 43 86q-9 28 -100 28q-112 0 -172 -62t-60 -189zM1315 0v76h151v846h-155v75h377v-921h149v-76h-522zM598 76v-76h-537v76h152v846h-164v75h164v113q0 208 126 319t329 111
q117 0 186 -41.5t80 -107.5q134 178 385 178q149 0 237.5 -58t88.5 -157q0 -62 -32.5 -101t-92.5 -39q-57 0 -92 37.5t-35 87.5q0 37 19 65t48 36q-3 59 -139 59q-122 0 -191 -91.5t-69 -256.5v-154h180v-75h-180v-846h149v-76h-512v76h142v846h-406v-846h164z" />
    <glyph glyph-name="f_f_l" unicode="ffl" horiz-adv-x="1894" 
d="M434 1219v-222h406v125q0 68 14 140q-25 -5 -33 -5q-52 0 -81 28t-29 71q0 59 43 86q-9 28 -97 28q-107 0 -165 -62t-58 -189zM598 76v-76h-537v76h152v846h-164v75h164v113q0 208 123.5 319t322.5 111q106 0 173.5 -36.5t85.5 -96.5q55 79 143 120.5t199 41.5
q164 0 229 -92v63h199v-1464h159v-76h-512v76h131v1204q-20 -14 -57 -14q-54 0 -83.5 30.5t-29.5 75.5q0 31 14 56.5t38 35.5q0 35 -88 35q-95 0 -147 -69.5t-52 -202.5v-230h252v-75h-252v-846h149v-76h-512v76h142v846h-406v-846h164z" />
    <glyph glyph-name=".notdef" horiz-adv-x="1024" 
 />
    <glyph glyph-name=".null" horiz-adv-x="0" 
 />
    <glyph glyph-name="nonmarkingreturn" unicode="&#xd;" horiz-adv-x="352" 
 />
    <glyph glyph-name="NULL" horiz-adv-x="0" 
 />
    <glyph glyph-name="NULL" horiz-adv-x="0" 
 />
    <glyph glyph-name="space" unicode=" " horiz-adv-x="352" 
 />
    <glyph glyph-name="exclam" unicode="!" horiz-adv-x="598" 
d="M336 469h-74q-7 190 -33 378.5t-48.5 313.5t-22.5 174q0 82 40 123t101 41q66 0 104.5 -39.5t38.5 -120.5q0 -48 -23 -173.5t-49.5 -315t-33.5 -381.5zM158 117q0 57 41 98t98 41q61 0 101 -40.5t40 -98.5t-40 -99t-101 -41q-57 0 -98 41.5t-41 98.5z" />
    <glyph glyph-name="quotedbl" unicode="&#x22;" horiz-adv-x="751" 
d="M240 950h-58q-5 97 -47.5 238t-42.5 188q0 59 34 92t81 33q50 0 81 -32t31 -93q0 -45 -38 -186.5t-41 -239.5zM565 950h-57q-5 96 -42.5 237.5t-37.5 188.5q0 61 31.5 93t81.5 32q47 0 80.5 -32.5t33.5 -90.5q0 -41 -21 -110.5t-43.5 -155t-25.5 -162.5z" />
    <glyph glyph-name="numbersign" unicode="#" horiz-adv-x="997" 
d="M582 600l51 291h-217l-51 -291h217zM473 -37l96 559h-217l-96 -559h-82l96 559h-202v78h215l51 291h-199v78h211l94 549h82l-94 -549h217l94 549h82l-94 -549h203v-78h-215l-51 -291h198v-78h-211l-96 -559h-82z" />
    <glyph glyph-name="dollar" unicode="$" horiz-adv-x="1144" 
d="M545 -49h-43v-191h-64v197q-180 23 -280.5 103.5t-100.5 187.5q0 65 37 103t99 38q59 0 90.5 -34.5t31.5 -86.5q0 -82 -88 -118q24 -94 211 -117v639q-73 29 -129 63t-105 83t-75.5 117.5t-26.5 151.5q0 79 28 147.5t76.5 117t107 82.5t124.5 53v149h64v-137q46 4 59 4
h37v133h61v-139q156 -21 252.5 -91t96.5 -181q0 -55 -33 -89t-92 -34q-55 0 -88 32t-33 78q0 39 20 69.5t60 43.5q-7 35 -55.5 60t-127.5 36v-569q75 -30 128.5 -56t109 -66t89.5 -85t55.5 -109.5t21.5 -142.5q0 -171 -115 -286t-289 -146v-201h-61v193q-18 -2 -53 -2z
M868 293q0 98 -48.5 163.5t-160.5 123.5v-539q99 23 154 88.5t55 163.5zM502 27h43q37 0 53 2v579q-12 5 -96 39v-620zM268 1200q0 -92 38.5 -149t131.5 -107v461q-74 -25 -122 -77.5t-48 -127.5zM598 1427h-37q-29 0 -59 -6v-506q50 -23 96 -41v553z" />
    <glyph glyph-name="percent" unicode="%" horiz-adv-x="1546" 
d="M410 1503q57 0 115.5 -28t106.5 -77t78.5 -122t30.5 -156t-29.5 -153t-77 -114t-106 -68.5t-118.5 -24.5t-118.5 25.5t-106.5 71.5t-77.5 117t-29.5 154t30 155.5t78 119.5t107 73.5t117 26.5zM1251 1501h115l-1077 -1548h-115zM410 1434q-73 0 -113.5 -74t-40.5 -213
v-43q0 -140 41.5 -206.5t112.5 -66.5t112 66.5t41 206.5v43q0 140 -40 213.5t-113 73.5zM1135 727q58 0 116.5 -28t106.5 -77t78 -123t30 -157t-29.5 -152.5t-77 -113.5t-106 -68t-118.5 -24q-61 0 -119.5 25t-105.5 70.5t-76 116.5t-29 154t30 155t77.5 120t106 75
t116.5 27zM1135 655q-73 0 -112.5 -73t-39.5 -213v-43q0 -137 41.5 -205t110.5 -68q71 0 113 68t42 205v43q0 139 -41 212.5t-114 73.5z" />
    <glyph glyph-name="ampersand" unicode="&#x26;" horiz-adv-x="1458" 
d="M639 1257q0 -59 17.5 -108t68.5 -150q211 69 211 240q0 73 -41.5 123.5t-106.5 50.5q-71 0 -110 -43.5t-39 -112.5zM631 47q77 0 140 23.5t118 87.5v2l-363 710q-60 -25 -99 -49.5t-74 -61.5t-51.5 -89.5t-16.5 -122.5q0 -129 59 -256q102 -244 287 -244zM1182 -16
q-168 0 -254 112q-130 -127 -334 -127q-232 0 -376 129.5t-144 347.5q0 154 113.5 276.5t312.5 203.5q-49 105 -49 200q0 150 103.5 253.5t231.5 103.5q99 0 167.5 -68.5t68.5 -173.5q0 -209 -272 -291l274 -542q3 10 12.5 38.5t14.5 45.5l129 430h-129v75h331v-75h-125
l-141 -471q-22 -75 -47 -134l76 -151q25 -47 48.5 -66.5t63.5 -19.5q76 0 105 100l59 -16q-41 -180 -239 -180z" />
    <glyph glyph-name="quotesingle" unicode="'" horiz-adv-x="413" 
d="M236 950h-60q-5 96 -44.5 237.5t-39.5 188.5q0 59 34 92t81 33q50 0 81 -32t31 -93q0 -45 -40 -186.5t-43 -239.5z" />
    <glyph glyph-name="parenleft" unicode="(" horiz-adv-x="667" 
d="M623 1565v-64q-46 -27 -89.5 -69.5t-91.5 -118t-83.5 -170.5t-59 -234.5t-23.5 -302.5v-8q0 -167 23 -307t58 -232.5t83.5 -165.5t91.5 -112.5t91 -67.5v-63q-65 26 -136 78.5t-144 139.5t-130.5 192t-94 247t-36.5 295q0 151 36.5 293.5t94 250t130.5 196t144 143
t136 80.5z" />
    <glyph glyph-name="parenright" unicode=")" horiz-adv-x="667" 
d="M45 1565q65 -26 136.5 -80.5t144.5 -143t131 -196t94.5 -250t36.5 -293.5q0 -153 -36.5 -295.5t-94 -248t-131 -191.5t-144.5 -138.5t-137 -78.5v63q48 28 91 67.5t91.5 112.5t83 165.5t57.5 232.5t23 307v8q0 163 -23 302.5t-58.5 234.5t-83.5 170.5t-92 118t-89 69.5
v64z" />
    <glyph glyph-name="asterisk" unicode="*" horiz-adv-x="878" 
d="M457 1085q0 -69 29.5 -149.5t29.5 -106.5q0 -45 -24 -65.5t-54 -20.5q-31 0 -55.5 19.5t-24.5 62.5q0 29 29.5 110.5t32.5 149.5q-45 -24 -112 -93t-95 -85q-30 -12 -51 -12q-31 0 -50.5 22t-19.5 54q0 48 47 67q26 16 123 35.5t146 42.5q-49 23 -146 44t-123 34
q-47 22 -47 66q0 32 19.5 54.5t50.5 22.5q28 0 51 -14q31 -15 97.5 -84t109.5 -90q-3 54 -32.5 140.5t-29.5 119.5q0 41 22.5 59.5t55.5 18.5q30 0 54 -19.5t24 -62.5q0 -28 -28.5 -113.5t-28.5 -142.5q40 20 108.5 89t100.5 85q23 14 47 14q31 0 51 -22.5t20 -54.5
q0 -40 -45 -66q-28 -13 -124 -34t-146 -44q48 -22 145 -42t125 -36q45 -23 45 -67q0 -32 -20 -54t-51 -22q-17 0 -47 12q-31 17 -99 86t-110 92z" />
    <glyph glyph-name="plus" unicode="+" horiz-adv-x="894" 
d="M815 598h-323v-348h-89v348h-325v80h325v348h89v-348h323v-80z" />
    <glyph glyph-name="comma" unicode="," horiz-adv-x="550" 
d="M127 -307l-33 55q46 17 86.5 41t77 56t57.5 75.5t21 91.5q0 17 -2 19q-35 -35 -90 -35q-47 0 -84 31.5t-37 87.5q0 59 41 96t102 37q86 0 133 -56.5t47 -154.5q0 -225 -319 -344z" />
    <glyph glyph-name="hyphen" unicode="-" horiz-adv-x="581" 
d="M86 657h410v-145h-410v145z" />
    <glyph glyph-name="period" unicode="." horiz-adv-x="534" 
d="M264 256q61 0 102.5 -40.5t41.5 -98.5t-41.5 -99t-102.5 -41q-57 0 -97 41.5t-40 98.5t40 98t97 41z" />
    <glyph glyph-name="slash" unicode="/" horiz-adv-x="868" 
d="M733 1575h86l-753 -1948h-86z" />
    <glyph glyph-name="zero" unicode="0" horiz-adv-x="1417" 
d="M709 1503q115 0 227 -64t197 -171t137.5 -257.5t52.5 -312.5q0 -165 -52 -307t-138 -237t-196.5 -149t-227.5 -54q-118 0 -229.5 56t-197 154t-137 242.5t-51.5 309.5q0 161 52 309t136.5 252.5t197 166.5t229.5 62zM709 1427q-61 0 -112 -21t-96.5 -70.5t-77 -126
t-49.5 -194t-18 -267.5v-84q0 -637 353 -637q350 0 350 637v84q0 679 -350 679z" />
    <glyph glyph-name="one" unicode="1" horiz-adv-x="833" 
d="M88 0v76h221v1208l-256 -352v125l303 418h191v-1399h221v-76h-680z" />
    <glyph glyph-name="two" unicode="2" horiz-adv-x="1058" 
d="M262 162h324q83 0 133.5 5t87.5 15t56 34t30 53.5t20 82.5h72v-352h-944v76l268 246q234 213 321 373.5t87 379.5v49q0 155 -63.5 229t-198.5 74q-96 0 -155 -30t-71 -84q52 -10 78.5 -42.5t26.5 -76.5q0 -56 -34 -90.5t-95 -34.5q-66 0 -104 42t-38 110q0 112 115 197
t283 85q148 0 261 -47t181 -146.5t68 -240.5q0 -74 -19.5 -144.5t-58 -135t-88 -126t-116 -125.5t-135 -124t-152.5 -131q-28 -23 -42 -35z" />
    <glyph glyph-name="three" unicode="3" horiz-adv-x="1050" 
d="M430 -37q-183 0 -284 76.5t-101 181.5q0 69 38.5 107.5t98.5 38.5q55 0 88 -35.5t33 -85.5q0 -38 -29 -71.5t-67 -41.5q8 -43 65 -68.5t158 -25.5q144 0 213.5 96.5t69.5 270.5v45q0 156 -74 234.5t-211 78.5h-113v76h74q158 0 220.5 72t62.5 218v27q0 139 -56 204.5
t-172 65.5q-79 0 -132.5 -23t-65.5 -61q44 -12 69 -42.5t25 -71.5q0 -47 -32.5 -81t-86.5 -34q-55 0 -88 36.5t-33 96.5q0 108 102.5 182t246.5 74q199 0 317.5 -104t118.5 -262q0 -88 -49 -160.5t-122.5 -113t-154.5 -48.5v-12q83 -6 155 -32t130 -71.5t91.5 -118.5
t33.5 -165q0 -191 -151 -322t-388 -131z" />
    <glyph glyph-name="four" unicode="4" horiz-adv-x="1230" 
d="M1155 76v-76h-682v76h221v231h-628v58l98 213q208 455 489 825q37 45 65 63.5t64 18.5q48 0 79.5 -28.5t31.5 -65.5q0 -70 -76 -125q-161 -115 -320.5 -305.5t-273.5 -438.5l-63 -139h534v463h240v-463h217v-76h-217v-231h221z" />
    <glyph glyph-name="five" unicode="5" horiz-adv-x="1064" 
d="M993 455q0 -95 -41.5 -185t-113.5 -160t-179.5 -112.5t-230.5 -42.5q-171 0 -276 79.5t-105 188.5q0 67 39 107.5t104 40.5q61 0 95 -34.5t34 -86.5q0 -46 -25 -79.5t-73 -43.5q8 -42 58.5 -69t148.5 -27q156 0 232.5 100t76.5 334v24q0 88 -22 155.5t-59 106t-81 57.5
t-92 19q-106 0 -173 -52t-91 -128h-84v850h84q64 -75 140.5 -103t183.5 -28q219 0 297 102l61 -26q-110 -250 -481 -250q-106 0 -201 27v-441q37 57 109 92t168 35q241 0 369 -125t128 -325z" />
    <glyph glyph-name="six" unicode="6" horiz-adv-x="1232" 
d="M797 1427q-130 0 -231.5 -91.5t-156.5 -252t-55 -360.5v-8h8q36 83 125 131.5t209 48.5q212 0 335.5 -127t123.5 -334q0 -91 -34.5 -177t-97 -154.5t-158 -110t-208.5 -41.5q-117 0 -220.5 51.5t-179 142t-119.5 221t-44 281.5q0 171 57 329.5t153 273.5t228 184t275 69
q128 0 192 -52.5t64 -131.5q0 -58 -33.5 -92.5t-95.5 -34.5q-55 0 -90 34.5t-35 86.5q0 66 51 96q-9 18 -63 18zM657 27q254 0 254 403v25q0 360 -233 360q-66 0 -119.5 -16t-100 -53t-72.5 -107t-26 -168v-31q0 -211 80.5 -312t216.5 -101z" />
    <glyph glyph-name="seven" unicode="7" horiz-adv-x="1021" 
d="M477 0h-272v12q468 610 643 1213l24 88h-448q-61 0 -101.5 -4.5t-76.5 -17.5t-58 -37t-37.5 -62t-23.5 -94h-70v377h928v-45l-57 -201q-202 -703 -451 -1229z" />
    <glyph glyph-name="eight" unicode="8" horiz-adv-x="1247" 
d="M625 -49q-143 0 -266.5 55.5t-200 158t-76.5 228.5q0 154 119.5 266t300.5 150q-153 32 -240.5 121.5t-87.5 212.5q0 140 130.5 250t320.5 110t320 -108.5t130 -247.5q0 -125 -88 -215.5t-242 -122.5q181 -38 300.5 -153.5t119.5 -270.5q0 -126 -76 -226.5t-199 -154
t-265 -53.5zM625 1430q-103 0 -163.5 -65t-60.5 -206v-37q0 -280 224 -280q108 0 165.5 65t57.5 213v37q0 142 -60 207.5t-163 65.5zM625 774q-136 0 -212.5 -90.5t-76.5 -261.5v-51q0 -185 76 -264.5t213 -79.5q138 0 212 79t74 265v51q0 171 -75.5 261.5t-210.5 90.5z" />
    <glyph glyph-name="nine" unicode="9" horiz-adv-x="1232" 
d="M557 639q52 0 96 9.5t86 33.5t71 62t46.5 99t17.5 140v31q0 211 -80 312t-216 101q-254 0 -254 -403v-25q0 -360 233 -360zM459 27q136 0 232.5 93t143 249.5t46.5 361.5v6h-9q-37 -81 -126.5 -129.5t-206.5 -48.5q-214 0 -336.5 127t-122.5 334q0 90 36 176.5t99.5 155
t158.5 110t204 41.5q117 0 220.5 -51.5t179 -142t119.5 -221t44 -281.5q0 -139 -31.5 -267.5t-92.5 -235t-144.5 -186t-192.5 -123.5t-231 -44q-148 0 -227 56.5t-79 146.5q0 58 33.5 92.5t95.5 34.5q55 0 90 -35.5t35 -87.5q0 -60 -53 -95q9 -36 115 -36z" />
    <glyph glyph-name="colon" unicode=":" horiz-adv-x="534" 
d="M270 967q61 0 102.5 -41t41.5 -99t-41.5 -98.5t-102.5 -40.5q-57 0 -97 41t-40 98t40 98.5t97 41.5zM270 256q61 0 102.5 -40.5t41.5 -98.5t-41.5 -99t-102.5 -41q-57 0 -97 41.5t-40 98.5t40 98t97 41z" />
    <glyph glyph-name="semicolon" unicode=";" horiz-adv-x="550" 
d="M117 -307l-33 55q46 17 86.5 41t77 56t57.5 75.5t21 91.5q0 17 -2 19q-35 -35 -91 -35q-47 0 -83.5 31.5t-36.5 87.5q0 59 41 96t102 37q86 0 133 -56.5t47 -154.5q0 -225 -319 -344zM270 967q61 0 102.5 -41t41.5 -99t-41.5 -98.5t-102.5 -40.5q-57 0 -97 41t-40 98
t40 98.5t97 41.5z" />
    <glyph glyph-name="less" unicode="&#x3c;" horiz-adv-x="878" 
d="M743 291l-647 327v41l647 328l31 -65l-563 -281l563 -283z" />
    <glyph glyph-name="equal" unicode="=" horiz-adv-x="972" 
d="M86 815h799v-80h-799v80zM86 541h799v-80h-799v80z" />
    <glyph glyph-name="greater" unicode="&#x3e;" horiz-adv-x="878" 
d="M135 291l-33 65l566 281l-566 281l33 69l647 -328v-41z" />
    <glyph glyph-name="question" unicode="?" horiz-adv-x="903" 
d="M227 436v377h72q30 -70 123 -70q85 0 132.5 76.5t47.5 231.5v34q0 177 -69.5 256.5t-188.5 79.5q-66 0 -76 -24q39 -24 39 -72q0 -52 -31 -85.5t-86 -33.5q-49 0 -82.5 33.5t-33.5 83.5q0 79 73 126.5t197 47.5q208 0 341.5 -120.5t133.5 -321.5q0 -119 -54.5 -208.5
t-140.5 -134t-188 -44.5q-87 0 -129 39v-271h-80zM272 -23q-57 0 -97 41.5t-40 98.5t40 98t97 41q61 0 102.5 -40.5t41.5 -98.5t-41.5 -99t-102.5 -41z" />
    <glyph glyph-name="at" unicode="@" horiz-adv-x="2066" 
d="M1049 -496q-157 0 -300 33t-266 103t-213.5 170t-142 241.5t-51.5 310.5q0 193 63.5 367t173.5 304.5t253 227t306.5 146t329.5 49.5q185 0 337 -56t250.5 -152.5t152 -222t53.5 -267.5q0 -159 -55.5 -295.5t-149 -229.5t-218.5 -145.5t-263 -52.5q-108 0 -160.5 38
t-52.5 91q0 34 8 65h-6q-60 -88 -137.5 -143t-167.5 -55q-118 0 -182 74t-64 190q0 99 43 199t114.5 180.5t158 144t178.5 98.5t171 35q141 0 152 -118h10l43 94h209l-278 -631q-50 -102 -50 -127q0 -53 72 -53q99 0 196.5 47t176 128.5t127.5 204t49 261.5
q0 128 -47.5 241.5t-136 201.5t-226.5 139t-307 51q-192 0 -367.5 -75.5t-307 -208.5t-209.5 -327t-78 -418q0 -195 60 -347t169 -248.5t255.5 -146.5t324.5 -50q218 0 397 68.5t295 179.5l45 -51q-129 -123 -315 -193t-422 -70zM1214 883q-96 0 -184.5 -84t-183.5 -271
q-105 -205 -105 -319q0 -94 80 -94q104 0 221.5 121.5t196.5 304.5l49 106q42 94 20 165t-94 71z" />
    <glyph glyph-name="A" unicode="A" horiz-adv-x="1456" 
d="M647 1100l-207 -574h416l-201 574h-8zM516 76v-76h-479v76h149l521 1429h57l504 -1429h151v-76h-602v76h199l-133 375h-469l-135 -375h237z" />
    <glyph glyph-name="B" unicode="B" horiz-adv-x="1411" 
d="M743 0h-671v76h221v1323h-221v76h600q82 0 157.5 -11.5t149 -39t127 -69t86.5 -107.5t33 -148q0 -60 -23.5 -110.5t-59.5 -84t-84.5 -59t-93 -39t-90.5 -21.5v-8q453 -59 453 -375q0 -127 -79.5 -220t-210 -138t-294.5 -45zM545 1399v-586h137q172 0 235.5 63t63.5 220
v28q0 82 -20.5 136.5t-64 84.5t-99.5 42t-138 12h-114zM545 76h184q100 0 167 20.5t104.5 63.5t53 99t15.5 136v29q0 178 -89.5 245.5t-320.5 67.5h-114v-661z" />
    <glyph glyph-name="C" unicode="C" horiz-adv-x="1427" 
d="M809 -47q-141 0 -270 55t-226 152t-155 240.5t-58 308.5t58.5 313t156 252.5t229 165.5t273.5 61q81 0 152 -19.5t117 -39t65 -19.5q27 0 39.5 13.5t17.5 40.5h70v-467h-70q-35 227 -132.5 321t-258.5 94q-69 0 -128 -17t-118 -64t-100 -121t-66.5 -197.5t-25.5 -284.5
v-53q0 -161 25.5 -282t65.5 -191.5t99 -113.5t115.5 -57.5t124.5 -14.5q170 0 279.5 106.5t144.5 349.5h72v-481h-70q-9 43 -61 43q-22 0 -59 -14.5t-74 -32.5t-100.5 -32.5t-131.5 -14.5z" />
    <glyph glyph-name="D" unicode="D" horiz-adv-x="1558" 
d="M72 1475h592q124 0 240 -31t216.5 -94t176 -152t118.5 -213t43 -268q0 -147 -43 -268t-116.5 -203t-173 -138.5t-209.5 -82t-230 -25.5h-614v76h221v1323h-221v76zM655 1399h-110v-1323h133q86 0 158.5 18.5t137 63t109.5 114t71 176t26 244.5v70q0 177 -36.5 302
t-107 197.5t-164 105t-217.5 32.5z" />
    <glyph glyph-name="E" unicode="E" horiz-adv-x="1400" 
d="M1311 473v-473h-1239v76h221v1323h-221v76h1118v-412h-70q-15 72 -29 119t-37.5 87.5t-52.5 63t-75.5 39t-105.5 22t-144 5.5h-131v-602h96q33 0 58.5 2.5t46 10.5t34.5 15t26 24.5t19 30.5t15 41.5t12 48.5l12 60h68v-510h-68q-10 41 -16 61t-15.5 46.5t-19.5 38t-25 25
t-35.5 18.5t-47.5 8.5t-64 3.5h-96v-645h162q110 0 187 7.5t134.5 28t92 47t59 76t37 102t24.5 136.5h70z" />
    <glyph glyph-name="F" unicode="F" horiz-adv-x="1329" 
d="M788 76v-76h-716v76h221v1323h-221v76h1171v-412h-72q-10 58 -20.5 100t-27 77.5t-35 59.5t-48.5 42.5t-62 28.5t-82 17t-102.5 9t-127.5 2h-121v-623h100q35 0 63 3t49.5 6.5t39 13.5t29.5 17.5t22.5 26t16.5 30t13 39t10.5 44.5t10.5 54h68v-535h-68q-12 55 -18.5 80
t-19.5 57t-27.5 44t-41 25t-61 16t-86.5 3h-100v-624h243z" />
    <glyph glyph-name="G" unicode="G" horiz-adv-x="1562" 
d="M1208 53q-31 0 -74.5 -15.5t-84 -34.5t-109.5 -34.5t-145 -15.5q-138 0 -265 56t-222 154.5t-151.5 242t-56.5 309.5q0 163 58 309.5t155 250.5t226.5 165t269.5 61q66 0 124.5 -11t91 -24.5t65.5 -24.5t55 -11q27 0 39.5 12t19.5 35h68v-488h-70q-52 237 -148 336.5
t-245 99.5q-67 0 -124.5 -16.5t-115.5 -62.5t-98.5 -119.5t-66 -195.5t-25.5 -283v-70q0 -114 14 -209t38 -161t58 -116.5t70 -80.5t78.5 -49t80 -26t77.5 -7q142 0 227.5 54.5t85.5 174.5v215h-252v76h664v-76h-162v-154q0 -83 8 -182.5t16 -130.5h-69q-35 47 -105 47z" />
    <glyph glyph-name="H" unicode="H" horiz-adv-x="1695" 
d="M748 76v-76h-676v76h221v1323h-221v76h676v-76h-203v-606h606v606h-205v76h678v-76h-221v-1323h221v-76h-678v76h205v639h-606v-639h203z" />
    <glyph glyph-name="I" unicode="I" horiz-adv-x="837" 
d="M72 0v76h221v1323h-221v76h694v-76h-221v-1323h221v-76h-694z" />
    <glyph glyph-name="J" unicode="J" horiz-adv-x="1073" 
d="M797 399q0 -213 -127.5 -337.5t-331.5 -124.5q-131 0 -213 59.5t-82 155.5q0 59 38 101t101 42q61 0 96 -38.5t35 -100.5q0 -73 -65 -111q14 -33 82 -33q98 0 156.5 63.5t58.5 196.5v1127h-221v76h692v-76h-219v-1000z" />
    <glyph glyph-name="K" unicode="K" horiz-adv-x="1626" 
d="M766 76v-76h-694v76h221v1323h-221v76h694v-76h-221v-719l635 719h-181v76h443v-76h-160l-446 -502l626 -821h123v-76h-586v76h162l-487 641l-129 -144v-497h221z" />
    <glyph glyph-name="L" unicode="L" horiz-adv-x="1429" 
d="M72 0v76h221v1323h-221v76h700v-76h-227v-1323h207q81 0 132 1.5t102.5 9.5t80.5 18.5t59 34.5t45 50.5t32 74.5t28 99t24 130h70v-494h-1253z" />
    <glyph glyph-name="M" unicode="M" horiz-adv-x="1832" 
d="M563 76v-76h-491v76h217v1323h-217v76h510l338 -1072h8l311 1072h520v-76h-219v-1323h219v-76h-674v76h203v1282l-401 -1344h-86l-428 1340v-1278h190z" />
    <glyph glyph-name="N" unicode="N" horiz-adv-x="1619" 
d="M1356 -14h-86l-879 1384h-10v-1294h229v-76h-538v76h221v1323h-221v76h532l662 -1049h4v973h-230v76h516v-76h-200v-1413z" />
    <glyph glyph-name="O" unicode="O" horiz-adv-x="1595" 
d="M799 1503q104 0 206.5 -38.5t190 -111t155 -169.5t106 -222t38.5 -260q0 -171 -59.5 -315t-157.5 -238t-222.5 -146t-256.5 -52q-133 0 -258.5 54.5t-223.5 151t-157.5 243t-59.5 317.5q0 167 59.5 315.5t157 250.5t224 161t258.5 59zM799 1427q-78 0 -141.5 -22.5
t-116 -73t-88 -128.5t-55 -192.5t-19.5 -262.5v-78q0 -147 21.5 -259.5t58 -184t91 -117t115 -64t134.5 -18.5q75 0 135.5 18.5t114 63.5t90 117t57.5 184.5t21 259.5v78q0 184 -29.5 316.5t-85.5 211t-131 115t-172 36.5z" />
    <glyph glyph-name="P" unicode="P" horiz-adv-x="1366" 
d="M745 657q156 0 224.5 81t68.5 272v55q0 96 -21.5 161.5t-67 103t-107 53.5t-150.5 16h-147v-709q101 -33 200 -33zM788 76v-76h-716v76h221v1323h-221v76h633q122 0 227.5 -29.5t185.5 -85t126 -143t46 -195.5q0 -111 -43.5 -197.5t-118.5 -138.5t-168.5 -78t-201.5 -26
q-115 0 -213 32v-538h243z" />
    <glyph glyph-name="Q" unicode="Q" horiz-adv-x="1595" 
d="M1284 -465q-107 0 -180 28.5t-122 79.5t-108 146q-45 69 -103 111.5t-185 89.5q-97 33 -183.5 97.5t-154.5 155t-108 214t-40 262.5q0 135 38.5 258t106 217.5t155.5 165t191 107t208 36.5q130 0 256 -61t223.5 -165t157 -254.5t59.5 -317.5q0 -163 -53 -301.5
t-142.5 -231t-205 -147.5t-242.5 -64h-10v-10q76 -11 122 -24t91 -38q30 -16 52 -32.5t44 -44.5t34 -45.5t42 -63.5q32 -49 63.5 -68.5t75.5 -19.5q57 0 113 29l28 -56q-35 -21 -95 -37t-128 -16zM799 27q75 0 135.5 18.5t114 64.5t90 118.5t57.5 185t21 258.5v78
q0 183 -29.5 315.5t-85.5 210.5t-131 114.5t-172 36.5q-78 0 -141.5 -22.5t-116 -72.5t-88 -128t-55 -192.5t-19.5 -261.5v-78q0 -146 21.5 -258.5t58 -185t91 -118.5t115 -64.5t134.5 -18.5z" />
    <glyph glyph-name="R" unicode="R" horiz-adv-x="1507" 
d="M1323 -4q-147 0 -222.5 84t-86.5 231q-3 36 -4 94t-4 91q-6 128 -72.5 178.5t-202.5 50.5h-186v-649h241v-76h-714v76h221v1323h-221v76h579q162 0 287.5 -41.5t200.5 -126.5t75 -203q0 -68 -30 -125.5t-81 -97t-109.5 -65t-123.5 -38.5v-8q180 -14 281 -105.5
t111 -256.5l12 -218q4 -59 27 -84.5t67 -25.5q49 0 80 39l45 -53q-48 -70 -170 -70zM545 1399v-598h143q145 0 214 66t69 220v29q0 151 -76.5 217t-257.5 66h-92z" />
    <glyph glyph-name="S" unicode="S" horiz-adv-x="1234" 
d="M580 1501q65 0 118.5 -10.5t81 -23t55 -23t46.5 -10.5q41 0 51 43h67v-412h-69q-31 182 -124.5 271t-223.5 89q-122 0 -201.5 -59.5t-79.5 -171.5t85 -181t273 -136q74 -28 124 -49t110.5 -52.5t99 -65t73 -77.5t51 -100t16.5 -123q0 -206 -134 -330.5t-368 -124.5
q-70 0 -136 15.5t-105.5 33.5t-79 33.5t-62.5 15.5q-54 0 -76 -53h-68v516h70q29 -235 149 -360t308 -125q149 0 232 71t83 199q0 54 -15 96t-41 73.5t-75 62t-102 54t-138 56.5q-71 26 -124.5 50.5t-114 64.5t-99 84.5t-64.5 109t-26 140.5q0 98 36 177.5t96.5 129
t137.5 76t163 26.5z" />
    <glyph glyph-name="T" unicode="T" horiz-adv-x="1490" 
d="M94 1475h1301v-467h-70q-19 119 -46.5 193t-75.5 119t-113 62t-164 17h-54v-1323h232v-76h-719v76h236v1323h-64q-99 0 -162 -16.5t-111 -60.5t-75 -119t-43 -195h-72v467z" />
    <glyph glyph-name="U" unicode="U" horiz-adv-x="1650" 
d="M901 -49q-159 0 -280 41.5t-193.5 115t-108.5 167t-36 204.5v920h-220v76h693v-76h-221v-983q0 -114 24 -191t73.5 -119.5t113 -59.5t155.5 -17q209 0 301 117t92 339v914h-221v76h512v-76h-207v-914q0 -94 -15.5 -172.5t-51 -146t-90 -115t-136 -74t-184.5 -26.5z" />
    <glyph glyph-name="V" unicode="V" horiz-adv-x="1499" 
d="M709 -31l-523 1430h-149v76h571v-76h-170l385 -1075h8l390 1075h-201v76h442v-76h-149l-520 -1430h-84z" />
    <glyph glyph-name="W" unicode="W" horiz-adv-x="2213" 
d="M688 -37l-510 1436h-141v76h565v-76h-166l377 -1088h8l262 711l-133 377h-147v76h573v-76h-176l371 -1088h10l365 1088h-222v76h453v-76h-139l-492 -1436h-92l-330 938l-342 -938h-94z" />
    <glyph glyph-name="X" unicode="X" horiz-adv-x="1488" 
d="M440 76v-76h-381v76h136l442 655l-395 668h-168v76h637v-76h-201l299 -504l342 504h-178v76h389v-76h-123l-389 -574l444 -749h136v-76h-607v76h201l-348 588l-391 -588h155z" />
    <glyph glyph-name="Y" unicode="Y" horiz-adv-x="1394" 
d="M1065 0h-709v76h230v583l-430 740h-121v76h563v-76h-172l365 -627l360 627h-205v76h414v-76h-119l-405 -705v-618h229v-76z" />
    <glyph glyph-name="Z" unicode="Z" horiz-adv-x="1288" 
d="M928 1399h-262q-105 0 -179 -12.5t-121.5 -35t-77.5 -64t-45 -88t-26 -118.5h-70v394h1053v-76l-874 -1323h249q109 0 188 8t137.5 27t96 45t62.5 68.5t37.5 91t19.5 118.5h70v-434h-1131v76z" />
    <glyph glyph-name="bracketleft" unicode="[" horiz-adv-x="620" 
d="M569 -324h-448v1905h448v-76h-266v-1753h266v-76z" />
    <glyph glyph-name="backslash" unicode="\" horiz-adv-x="868" 
d="M135 1575l756 -1948h-88l-754 1948h86z" />
    <glyph glyph-name="bracketright" unicode="]" horiz-adv-x="620" 
d="M51 -324v76h264v1753h-264v76h447v-1905h-447z" />
    <glyph glyph-name="asciicircum" unicode="^" horiz-adv-x="878" 
d="M721 823l-283 568l-284 -568h-84l331 652h78l330 -652h-88z" />
    <glyph glyph-name="underscore" unicode="_" horiz-adv-x="759" 
d="M-10 -285h778v-80h-778v80z" />
    <glyph glyph-name="grave" unicode="`" 
d="M428 1495q7 -86 41.5 -184t75.5 -152h-56q-88 53 -165 145t-105 191h209z" />
    <glyph glyph-name="a" unicode="a" horiz-adv-x="1085" 
d="M422 49q110 0 172.5 89.5t62.5 209.5v246q-22 -35 -66.5 -62.5t-125.5 -60.5q-72 -30 -107.5 -55t-54 -66.5t-18.5 -109.5v-7q0 -97 30.5 -140.5t106.5 -43.5zM377 -33q-147 0 -226 70.5t-79 198.5q0 49 12.5 88.5t38 67.5t53.5 48t68.5 36t73 26.5t77.5 23.5t72 23
q79 28 125 57.5t65 69.5v80q0 105 -38.5 152.5t-143.5 47.5q-137 0 -137 -59q49 -25 49 -88q0 -50 -34 -81.5t-89 -31.5q-58 0 -90.5 35t-32.5 82q0 92 97 153.5t243 61.5q396 0 396 -377v-493q0 -57 12 -77t49 -20t82 29l22 -51q-84 -59 -188 -59q-80 0 -130 35.5
t-62 103.5h-11q-35 -73 -99.5 -112.5t-174.5 -39.5z" />
    <glyph glyph-name="b" unicode="b" horiz-adv-x="1247" 
d="M61 0v76h146v1388h-174v76h395v-696h10q23 73 100 128.5t189 55.5q117 0 218.5 -66.5t162.5 -186.5t61 -267q0 -148 -59 -271t-163 -193.5t-230 -70.5q-201 0 -279 162h-10v-135h-367zM688 53q122 0 176 88.5t54 311.5v114q0 201 -53.5 291t-180.5 90q-44 0 -88.5 -20.5
t-83.5 -59.5t-63.5 -104.5t-24.5 -145.5v-231q0 -85 23.5 -151.5t62.5 -105t84.5 -58t93.5 -19.5z" />
    <glyph glyph-name="c" unicode="c" horiz-adv-x="1034" 
d="M602 1036q159 0 248.5 -61.5t89.5 -157.5q0 -58 -34 -95.5t-93 -37.5q-58 0 -93.5 36t-35.5 85q0 73 55 98q-10 62 -147 62q-41 0 -78 -12t-74 -43.5t-63.5 -80t-43 -128.5t-16.5 -183v-39q0 -432 285 -432q213 0 295 203l74 -29q-97 -252 -389 -252q-121 0 -218.5 41.5
t-160 113t-96 167t-33.5 205.5q0 148 69.5 272t191 196t267.5 72z" />
    <glyph glyph-name="d" unicode="d" horiz-adv-x="1255" 
d="M557 942q-120 0 -173.5 -89.5t-53.5 -307.5v-115q0 -201 53 -291t180 -90q45 0 89.5 20.5t83.5 59.5t63 106.5t24 151.5v231q0 82 -23.5 146.5t-63 102t-85 56.5t-94.5 19zM631 1540h409v-1464h154v-76h-375v152h-10q-23 -74 -99.5 -128.5t-189.5 -54.5
q-117 0 -218.5 66.5t-162.5 186.5t-61 267q0 148 59.5 271t164 193.5t230.5 70.5q199 0 277 -162h10v602h-188v76z" />
    <glyph glyph-name="e" unicode="e" horiz-adv-x="1056" 
d="M317 602v-6h420v33q0 169 -42 250.5t-150 81.5q-106 0 -167 -94t-61 -265zM924 233l67 -34q-46 -102 -146 -166t-257 -64q-129 0 -230.5 45.5t-161.5 122.5t-91 171t-31 198q0 117 41.5 217.5t109 166t151 102t169.5 36.5q198 0 313 -128.5t115 -328.5q0 -26 -8.5 -37.5
t-32.5 -11.5h-615v-76q0 -187 72.5 -293t226.5 -106q215 0 308 186z" />
    <glyph glyph-name="f" unicode="f" horiz-adv-x="749" 
d="M618 76v-76h-557v76h152v846h-164v75h164v142q0 105 31 188t86 135t128 79.5t160 27.5q118 0 181 -49t63 -125q0 -49 -28 -80t-80 -31t-82.5 29.5t-30.5 72.5q0 63 43 84q0 13 -19 21t-49 8q-182 0 -182 -252v-250h252v-75h-252v-846h184z" />
    <glyph glyph-name="g" unicode="g" horiz-adv-x="1105" 
d="M510 969q-168 0 -168 -238v-47q0 -262 168 -262q166 0 166 260v47q0 240 -166 240zM1012 -109q0 -99 -39.5 -177.5t-107 -126.5t-152 -73.5t-178.5 -25.5q-124 0 -226.5 28.5t-168.5 91t-66 148.5q0 150 252 219v11q-118 4 -188 69.5t-70 171.5q0 165 147 258
q-86 99 -86 213q0 131 112.5 236.5t268.5 105.5q165 0 287 -122q13 46 56 79t101 33q67 0 96 -33t29 -75t-26.5 -67.5t-65.5 -25.5q-42 0 -65 25t-23 59q0 38 25 54q-36 -7 -58.5 -36t-27.5 -69q49 -76 49 -164q0 -64 -29 -126.5t-78 -111t-120 -78.5t-150 -30
q-140 0 -254 92q-86 -54 -86 -151q0 -56 38 -91.5t105 -35.5q63 0 178.5 6t210.5 6q152 0 231 -73t79 -214zM535 -438q86 0 159.5 25t122.5 80.5t49 131.5q0 95 -51 134.5t-160 39.5q-168 0 -239 -14q-25 -6 -42.5 -12t-41 -20.5t-38.5 -33t-25.5 -51.5t-10.5 -75
q0 -205 277 -205z" />
    <glyph glyph-name="h" unicode="h" horiz-adv-x="1275" 
d="M594 76v-76h-533v76h146v1388h-174v76h395v-719h10q16 38 40 71.5t59.5 65.5t87 51t112.5 19q148 0 240 -90.5t92 -257.5v-604h145v-76h-514v76h148v725q0 68 -36.5 106.5t-106.5 38.5q-69 0 -123 -35t-87 -96.5t-50 -140t-17 -168.5v-430h166z" />
    <glyph glyph-name="i" unicode="i" horiz-adv-x="624" 
d="M303 1520q56 0 93.5 -36.5t37.5 -92.5q0 -59 -37 -95t-94 -36q-55 0 -92 36t-37 95q0 56 37 92.5t92 36.5zM61 0v76h146v846h-174v75h395v-921h150v-76h-517z" />
    <glyph glyph-name="j" unicode="j" horiz-adv-x="616" 
d="M305 1520q57 0 94 -36t37 -93q0 -59 -36.5 -95t-94.5 -36q-55 0 -92 36t-37 95q0 56 37 92.5t92 36.5zM428 997v-1144q0 -167 -95 -267t-263 -100q-107 0 -171.5 44.5t-64.5 127.5q0 44 31.5 77.5t83.5 33.5t81 -32t29 -77q0 -49 -41 -76q3 -22 54 -22q71 0 103 39
t32 118v1203h-174v75h395z" />
    <glyph glyph-name="k" unicode="k" horiz-adv-x="1222" 
d="M578 76v-76h-517v76h146v1388h-174v76h395v-1046l403 428h-163v75h397v-75h-133l-250 -263l416 -583h80v-76h-478v76h146l-307 430l-111 -115v-315h150z" />
    <glyph glyph-name="l" unicode="l" horiz-adv-x="645" 
d="M61 0v76h156v1388h-190v76h413v-1464h160v-76h-539z" />
    <glyph glyph-name="m" unicode="m" horiz-adv-x="1880" 
d="M586 76v-76h-525v76h146v846h-174v75h395v-176h10q35 83 111 145t186 62q225 0 291 -207h10q33 84 114 145.5t193 61.5q145 0 237.5 -91t92.5 -257v-604h148v-76h-508v76h139v725q0 68 -36.5 106.5t-104.5 38.5q-95 0 -162.5 -65.5t-99.5 -175.5q2 -23 2 -70v-559h139
v-76h-500v76h139v725q0 145 -127 145q-88 0 -151 -61.5t-93 -159.5t-30 -219v-430h158z" />
    <glyph glyph-name="n" unicode="n" horiz-adv-x="1261" 
d="M594 76v-76h-533v76h146v846h-174v75h395v-176h10q16 38 40 71.5t59.5 65.5t87 51t112.5 19q148 0 240 -90.5t92 -257.5v-604h145v-76h-514v76h148v725q0 68 -36.5 106.5t-106.5 38.5q-69 0 -123 -35t-87 -96.5t-50 -140t-17 -168.5v-430h166z" />
    <glyph glyph-name="o" unicode="o" horiz-adv-x="1148" 
d="M573 1036q97 0 189 -42t161.5 -113.5t111.5 -175.5t42 -220t-43 -216t-114 -166.5t-161.5 -104t-185.5 -37.5t-184.5 37.5t-159.5 104t-112.5 166.5t-42.5 216t41.5 220t110.5 175.5t159.5 113.5t187.5 42zM573 961q-135 0 -191 -95t-56 -313v-117q0 -207 56.5 -303
t190.5 -96q136 0 193 96t57 303v117q0 217 -57.5 312.5t-192.5 95.5z" />
    <glyph glyph-name="p" unicode="p" horiz-adv-x="1247" 
d="M688 53q122 0 176 88.5t54 311.5v114q0 201 -53.5 291t-180.5 90q-44 0 -88.5 -20.5t-83.5 -59.5t-63.5 -104.5t-24.5 -145.5v-231q0 -85 23.5 -151.5t62.5 -105t84.5 -58t93.5 -19.5zM43 -508v76h164v1354h-174v75h395v-153h10q23 73 100 128.5t189 55.5
q117 0 218.5 -66.5t162.5 -186.5t61 -267q0 -148 -59 -271t-163 -193.5t-230 -70.5q-202 0 -279 164h-10v-569h186v-76h-571z" />
    <glyph glyph-name="q" unicode="q" horiz-adv-x="1265" 
d="M821 862v135h377v-75h-156v-1354h164v-76h-571v76h186v586h-10q-23 -74 -100 -129.5t-189 -55.5q-117 0 -218.5 66.5t-162.5 186.5t-61 267q0 148 60 271t164.5 193.5t230.5 70.5q198 0 276 -162h10zM559 942q-120 0 -173.5 -89.5t-53.5 -307.5v-115q0 -201 53 -291
t180 -90q45 0 89.5 20.5t83.5 59.5t63 106.5t24 151.5v231q0 82 -23.5 146.5t-63 102t-85 56.5t-94.5 19z" />
    <glyph glyph-name="r" unicode="r" horiz-adv-x="948" 
d="M594 76v-76h-533v76h146v846h-174v75h395v-163h12q23 78 95 136t178 58q84 0 132 -43t48 -111q0 -58 -31.5 -92t-87.5 -34q-55 0 -88 33.5t-33 78.5q0 46 29 72q-3 14 -31 14q-87 0 -155 -112t-68 -314v-444h166z" />
    <glyph glyph-name="s" unicode="s" horiz-adv-x="923" 
d="M111 758q0 131 91.5 204.5t225.5 73.5q58 0 104 -13t73.5 -26.5t41.5 -13.5q30 0 39 35h72v-303h-72q-20 118 -90 182t-166 64q-85 0 -135.5 -36t-50.5 -112q0 -64 56 -99t187 -71q182 -46 273.5 -127.5t91.5 -218.5q0 -151 -106.5 -239.5t-262.5 -88.5q-61 0 -115 18
t-93 36t-62 18t-34.5 -12.5t-18.5 -38.5h-58v387h78q21 -152 101 -242t202 -90q104 0 161.5 43.5t57.5 122.5q0 84 -63.5 136t-202.5 91q-162 45 -243.5 117.5t-81.5 202.5z" />
    <glyph glyph-name="t" unicode="t" horiz-adv-x="790" 
d="M737 197q-61 -213 -262 -213q-278 0 -278 295v643h-154v75h154v199q128 9 194 84l29 -8v-275h254v-75h-254v-744q0 -64 22.5 -88t69.5 -24q55 0 95 41t61 112z" />
    <glyph glyph-name="u" unicode="u" horiz-adv-x="1271" 
d="M512 -31q-149 0 -240.5 90.5t-91.5 257.5v605h-147v75h366v-800q0 -68 37 -107t107 -39q91 0 155 62t92.5 159.5t28.5 219.5v430h-149v75h370v-921h170v-76h-391v176h-10q-36 -84 -109.5 -145.5t-187.5 -61.5z" />
    <glyph glyph-name="v" unicode="v" horiz-adv-x="1122" 
d="M637 -14h-98l-416 936h-94v75h475v-75h-158l295 -670h10l250 670h-170v75h361v-75h-101z" />
    <glyph glyph-name="w" unicode="w" horiz-adv-x="1660" 
d="M1071 -18l-233 581l-222 -581h-98l-403 940h-86v75h454v-75h-143l281 -670h12l158 428l-99 242h-102v75h495v-75h-170l259 -668h10l262 668h-170v75h356v-75h-96l-365 -940h-100z" />
    <glyph glyph-name="x" unicode="x" horiz-adv-x="1144" 
d="M375 76v-76h-324v76h94l301 430l-290 416h-103v75h494v-75h-148l219 -314l220 314h-140v75h324v-75h-92l-266 -379l327 -467h103v-76h-506v76h160l-254 364l-256 -364h137z" />
    <glyph glyph-name="y" unicode="y" horiz-adv-x="1118" 
d="M211 -516q-95 0 -148 41.5t-53 105.5q0 52 32.5 85.5t86.5 33.5q49 0 82 -30t33 -78q0 -45 -37 -66q11 -8 26 -8q77 0 142 78t137 264l31 78l-420 934h-94v75h475v-75h-156l295 -668l254 668h-166v75h359v-75h-103l-395 -1035q-86 -224 -171.5 -313.5t-209.5 -89.5z" />
    <glyph glyph-name="z" unicode="z" horiz-adv-x="1005" 
d="M680 922h-172q-64 0 -109.5 -5.5t-79 -20.5t-54.5 -32t-36 -49t-23.5 -63t-17.5 -82h-71v327h790v-75l-624 -846h184q76 0 131.5 7t96.5 24.5t67 40.5t44 60.5t27.5 78t16.5 100.5h70v-387h-865v76z" />
    <glyph glyph-name="braceleft" unicode="{" horiz-adv-x="591" 
d="M229 633v-10q88 -24 138.5 -88t50.5 -140q0 -62 -47 -240t-47 -259q0 -151 211 -170v-58q-85 4 -155.5 23.5t-127 56t-88 96t-31.5 136.5q0 67 34.5 168.5t68.5 190.5t34 126q0 125 -170 125h-80v76h80q170 0 170 122q0 37 -34 125t-68.5 189t-34.5 168q0 77 31.5 136.5
t87.5 96.5t127 57.5t156 24.5v-61q-113 -10 -162 -54.5t-49 -121.5t47 -251.5t47 -238.5q0 -92 -48 -144.5t-141 -80.5z" />
    <glyph glyph-name="bar" unicode="|" horiz-adv-x="423" 
d="M172 1556h78v-1904h-78v1904z" />
    <glyph glyph-name="braceright" unicode="}" horiz-adv-x="591" 
d="M174 395q0 77 49.5 140.5t138.5 87.5v10q-93 28 -140.5 80.5t-47.5 144.5q0 64 47 238.5t47 251.5t-50 121.5t-163 54.5v61q85 -4 156.5 -24.5t128 -57.5t88 -96.5t31.5 -136.5q0 -67 -34.5 -168t-68.5 -189t-34 -125q0 -122 170 -122h77v-76h-77q-170 0 -170 -125
q0 -37 34 -126t68.5 -190.5t34.5 -168.5q0 -77 -31.5 -136.5t-88 -96t-127.5 -56t-157 -23.5v58q213 19 213 170q0 81 -47 259t-47 240z" />
    <glyph glyph-name="asciitilde" unicode="~" horiz-adv-x="649" 
d="M434 518q-45 0 -137.5 13.5t-112.5 13.5q-28 0 -45.5 -19.5t-36.5 -70.5l-55 16q29 113 68 165t94 52q48 0 135 -14.5t113 -14.5q36 0 55.5 22.5t32.5 70.5l57 -17q-50 -217 -168 -217z" />
    <glyph glyph-name="uni00A0" unicode="&#xa0;" horiz-adv-x="352" 
 />
    <glyph glyph-name="exclamdown" unicode="&#xa1;" horiz-adv-x="604" 
d="M252 553h74q7 -190 33 -378.5t48.5 -313.5t22.5 -174q0 -82 -40 -123t-101 -41q-66 0 -105 39.5t-39 120.5q0 48 23 173.5t50 315t34 381.5zM430 905q0 -57 -41 -98t-98 -41q-61 0 -101 40.5t-40 98.5t40 98.5t101 40.5q57 0 98 -41t41 -98z" />
    <glyph glyph-name="cent" unicode="&#xa2;" horiz-adv-x="1048" 
d="M913 250l74 -29q-44 -118 -140.5 -182t-238.5 -70v-209h-71v211q-218 17 -341.5 164t-123.5 361q0 208 133.5 359.5t331.5 176.5v174h71v-170q158 -1 253 -63t95 -156q0 -58 -34 -95.5t-93 -37.5q-58 0 -94.5 36t-36.5 85q0 69 56 96q-5 30 -43 47t-103 17v-918
q120 1 195.5 57.5t109.5 145.5zM317 518v-39q0 -377 220 -426v905q-220 -53 -220 -440z" />
    <glyph glyph-name="sterling" unicode="&#xa3;" horiz-adv-x="1116" 
d="M793 -16q-40 0 -80.5 12t-93 43.5t-75 47t-85.5 60.5q-33 -74 -95 -115.5t-145 -41.5q-82 0 -136 43t-54 121q0 83 59 127.5t154 44.5q59 0 159 -29q-3 53 -21.5 116.5t-33.5 99.5t-51 118h-227v76h194q-86 199 -86 354q0 99 41 183.5t109 140t157 87t185 31.5
q170 0 266 -78.5t96 -191.5q0 -76 -34.5 -119t-96.5 -43q-59 0 -93 36t-34 91q0 43 25 74t73 41q-4 53 -59 83.5t-135 30.5q-130 0 -188 -73t-58 -238v-22q0 -153 25 -387h389v-76h-383q18 -187 18 -324q0 -25 -2 -35q79 -27 110.5 -37t94 -23t111.5 -13q96 0 142 33.5
t46 117.5v39h76v-37q0 -368 -264 -368zM219 57q140 0 178 131q-96 66 -170 66q-121 0 -121 -102q0 -95 113 -95z" />
    <glyph glyph-name="yen" unicode="&#xa5;" horiz-adv-x="1271" 
d="M991 76v-76h-678v76h215v393h-368v76h368v137h-368v76h348l-346 641h-121v76h528v-76h-145l307 -578l281 578h-150v76h369v-76h-123l-313 -641h350v-76h-367v-137h367v-76h-367v-393h213z" />
    <glyph glyph-name="brokenbar" unicode="&#xa6;" horiz-adv-x="423" 
d="M172 1556h78v-819h-78v819zM172 498h78v-846h-78v846z" />
    <glyph glyph-name="section" unicode="&#xa7;" horiz-adv-x="985" 
d="M436 543q139 -98 209 -174q117 43 117 153q0 71 -56.5 136.5t-201.5 172.5q-88 62 -152 121q-127 -35 -127 -153q0 -68 47.5 -122.5t163.5 -133.5zM436 -195q-126 0 -204 60t-78 145q0 59 31 93t79 34q52 0 79.5 -29t27.5 -73q0 -31 -19.5 -58t-48.5 -34q11 -62 133 -62
q87 0 127.5 42t40.5 110q0 71 -56.5 135.5t-199.5 169.5q-84 62 -137.5 115t-89 122.5t-35.5 145.5q0 109 63 182.5t156 100.5q-78 98 -78 208q0 136 89.5 217.5t222.5 81.5q136 0 208 -56.5t72 -145.5q0 -54 -29.5 -86.5t-76.5 -32.5q-49 0 -77 28.5t-28 71.5q0 29 19 54.5
t45 31.5q-9 60 -133 60q-75 0 -118.5 -38t-43.5 -104q0 -67 51.5 -124.5t173.5 -143.5q151 -113 225 -212t74 -214q0 -107 -61 -181.5t-150 -101.5q74 -99 74 -204q0 -141 -89.5 -224.5t-238.5 -83.5z" />
    <glyph glyph-name="dieresis" unicode="&#xa8;" 
d="M166 1448q54 0 87.5 -33.5t33.5 -87.5t-33.5 -88.5t-87.5 -34.5q-50 0 -84.5 35t-34.5 88t34.5 87t84.5 34zM549 1448q54 0 87.5 -33.5t33.5 -87.5t-33.5 -88.5t-87.5 -34.5q-50 0 -84.5 35t-34.5 88t34.5 87t84.5 34z" />
    <glyph glyph-name="copyright" unicode="&#xa9;" horiz-adv-x="1517" 
d="M84 725q0 182 90 338t246 248t340 92q182 0 338 -92t247 -248t91 -338t-91 -338t-247 -248t-338 -92q-184 0 -340 92t-246 248t-90 338zM1356 725q0 165 -78.5 304.5t-216 221.5t-301.5 82q-166 0 -303.5 -82t-216 -221.5t-78.5 -304.5t78.5 -304.5t216 -221.5t303.5 -82
q164 0 301.5 82t216 221.5t78.5 304.5zM758 356q-149 0 -253 104t-104 261q0 159 106 270t255 111q53 0 103.5 -18.5t56.5 -18.5q22 0 28 25h45v-228h-45q-22 100 -69.5 143.5t-118.5 43.5q-184 0 -184 -312v-28q0 -299 180 -299q177 0 207 202h45v-231h-45q-6 20 -31 20
q-9 0 -64.5 -22.5t-111.5 -22.5z" />
    <glyph glyph-name="ordfeminine" unicode="&#xaa;" horiz-adv-x="909" 
d="M356 686q86 0 136.5 70.5t50.5 167.5v206q-16 -29 -50.5 -51t-101.5 -51q-84 -33 -114.5 -70.5t-30.5 -117.5v-6q0 -77 24.5 -112.5t85.5 -35.5zM307 608q-122 0 -187 59t-65 164q0 47 16 84.5t37.5 60t60 42t67.5 29t76 23.5t71 22q71 27 107.5 48.5t52.5 53.5v74
q0 84 -32 124t-114 40q-109 0 -112 -50q43 -24 43 -77q0 -44 -28 -71.5t-77 -27.5q-53 0 -80.5 30.5t-27.5 74.5q0 79 83.5 130.5t207.5 51.5q175 0 255 -83t80 -230v-406q0 -48 10 -65t40 -17q26 0 67 25l16 -43q-66 -51 -165 -51q-142 0 -162 114h-8q-32 -62 -86 -95.5
t-146 -33.5z" />
    <glyph glyph-name="guillemotleft" unicode="&#xab;" horiz-adv-x="854" 
d="M375 117l-295 346v31l295 348h82l-191 -359v-10l191 -356h-82zM713 117l-293 346v31l293 348h82l-191 -359v-10l191 -356h-82z" />
    <glyph glyph-name="registered" unicode="&#xae;" horiz-adv-x="1116" 
d="M82 1049q0 131 63 240t172.5 172t241.5 63q202 0 337.5 -137.5t135.5 -337.5q0 -128 -61 -237t-170.5 -174t-241.5 -65q-199 0 -338 140.5t-139 335.5zM961 1049q0 178 -113 295.5t-289 117.5t-288.5 -117.5t-112.5 -295.5q0 -111 50.5 -205t143 -150.5t207.5 -56.5
t208 56.5t143.5 150.5t50.5 205zM752 821q-101 0 -111 94l-4 64q-3 18 -5 26t-9 17.5t-21 12.5t-37 3h-47v-168h55v-47h-235v47h65v379h-65v47h211q95 0 147 -31.5t52 -93.5q0 -42 -31 -70t-76 -36v-6q53 -6 74 -25.5t28 -58.5l13 -74q2 -16 7 -22.5t21 -6.5q18 0 33 15
l21 -29q-29 -37 -86 -37zM518 1249v-166h43q74 0 74 80v8q0 44 -17.5 61t-72.5 17h-27z" />
    <glyph glyph-name="macron" unicode="&#xaf;" 
d="M109 1319h499v-102h-499v102z" />
    <glyph glyph-name="degree" unicode="&#xb0;" horiz-adv-x="733" 
d="M78 1200q0 121 83.5 205t205.5 84t206 -84t84 -205t-84 -206t-206 -85t-205.5 85t-83.5 206zM575 1200q0 98 -58 159.5t-150 61.5q-91 0 -149 -61.5t-58 -159.5t58 -160.5t149 -62.5q92 0 150 62.5t58 160.5z" />
    <glyph glyph-name="two.sup" unicode="&#xb2;" horiz-adv-x="714" 
d="M201 907h161q95 0 137.5 9t59 28.5t29.5 67.5h65v-226h-610v82l141 121q81 74 121.5 115t78.5 93t51.5 100t13.5 110v25q0 78 -38.5 116.5t-107.5 38.5q-54 0 -83 -17t-34 -44q70 -18 70 -88q0 -39 -25.5 -65.5t-72.5 -26.5q-53 0 -82 30.5t-29 81.5q0 81 80.5 140
t206.5 59q140 0 228.5 -67.5t88.5 -190.5q0 -54 -25.5 -105.5t-75 -100.5t-96 -86.5t-116.5 -89.5t-109 -85z" />
    <glyph glyph-name="three.sup" unicode="&#xb3;" horiz-adv-x="729" 
d="M297 756q-125 0 -196.5 52t-71.5 128q0 52 28.5 80t71.5 28q41 0 65.5 -24.5t24.5 -63.5q0 -30 -16.5 -52t-36.5 -27q2 -20 30 -36t83 -16q87 0 135.5 53.5t48.5 147.5v21q0 165 -172 165h-76v70h59q172 0 172 148v24q0 68 -38.5 100.5t-102.5 32.5q-46 0 -75.5 -14.5
t-34.5 -30.5q53 -17 53 -74q0 -35 -22.5 -59.5t-63.5 -24.5q-39 0 -65.5 27.5t-26.5 71.5q0 74 70 124t188 50q134 0 211 -59.5t77 -153.5q0 -72 -56.5 -120t-143.5 -62v-11q250 -29 250 -231q0 -112 -103.5 -188t-265.5 -76z" />
    <glyph glyph-name="acute" unicode="&#xb4;" horiz-adv-x="860" 
d="M344 1159q41 54 75.5 152t41.5 184h209q-27 -97 -105 -188t-166 -148h-55z" />
    <glyph glyph-name="uni03BC" unicode="&#xb5;" horiz-adv-x="1271" 
d="M291 -489q-135 0 -135 145q0 36 12 225t12 330v711h-147v75h366v-800q0 -68 37 -107t107 -39q91 0 155 62t92.5 159.5t28.5 219.5v430h-149v75h370v-839q0 -57 12.5 -77t47.5 -20q40 0 82 29l22 -53q-86 -57 -188 -57q-94 0 -145.5 46t-51.5 138v18h-10
q-22 -55 -56.5 -99.5t-98 -79t-142.5 -34.5q-95 0 -164 42.5t-92 119.5h-10q0 -71 26 -148t57 -131.5t57 -115t26 -101.5q0 -64 -34 -94t-87 -30z" />
    <glyph glyph-name="paragraph" unicode="&#xb6;" horiz-adv-x="1239" 
d="M555 715q76 0 139 18v666h-78q-148 0 -215 -80.5t-67 -239.5v-35q0 -169 48 -249t173 -80zM924 354v1045h-142v-1145q0 -188 -86 -270q228 95 228 370zM530 -102q-137 0 -224 60t-87 167q0 62 35.5 102.5t99.5 40.5q60 0 93.5 -38t33.5 -95q0 -43 -24.5 -73.5
t-61.5 -38.5q4 -25 37.5 -39.5t79.5 -14.5q97 0 139.5 60.5t42.5 191.5v438q-56 -20 -143 -20q-72 0 -136.5 11.5t-127.5 40t-108 72.5t-73 114.5t-28 160.5q0 87 30.5 160.5t82 123.5t119.5 85.5t141 51.5t149 16h567v-76h-157v-1051q0 -110 -40 -198t-108 -142t-153 -82
t-179 -28z" />
    <glyph glyph-name="periodcentered" unicode="&#xb7;" horiz-adv-x="534" 
d="M264 752q61 0 102.5 -40.5t41.5 -97.5q0 -60 -41 -99.5t-103 -39.5q-58 0 -97.5 39.5t-39.5 99.5q0 57 40 97.5t97 40.5z" />
    <glyph glyph-name="cedilla" unicode="&#xb8;" horiz-adv-x="1024" 
d="M717 -303q0 -90 -83 -143.5t-198 -53.5q-97 0 -143.5 33t-46.5 88q0 37 21 60.5t61 23.5q32 0 51.5 -20t19.5 -50q0 -35 -26 -49q5 -11 16.5 -14.5t40.5 -3.5q57 0 88 32t31 89v6q0 54 -22 77t-70 23q-57 0 -86 -33l-6 -6l-48 49l201 195h96l-145 -141q20 4 51 4
q85 0 141 -42t56 -124z" />
    <glyph glyph-name="one.sup" unicode="&#xb9;" horiz-adv-x="593" 
d="M61 786v70h148v592l-162 -184v102l227 268h125v-778h150v-70h-488z" />
    <glyph glyph-name="ordmasculine" unicode="&#xba;" horiz-adv-x="956" 
d="M481 1499q79 0 155 -34.5t135 -94t94.5 -147t35.5 -185.5q0 -96 -36 -179t-95.5 -138t-134.5 -86t-154 -31q-108 0 -204 53t-158 154.5t-62 228.5q0 196 126 327.5t298 131.5zM481 1436q-108 0 -154 -80.5t-46 -257.5v-103q0 -168 46 -247.5t154 -79.5q103 0 149 81
t46 246v103q0 176 -45.5 257t-149.5 81z" />
    <glyph glyph-name="guillemotright" unicode="&#xbb;" horiz-adv-x="854" 
d="M481 842l293 -348v-31l-293 -346h-82l189 356v10l-189 359h82zM141 842l295 -348v-31l-295 -346h-82l191 356v10l-191 359h82z" />
    <glyph glyph-name="onequarter" unicode="&#xbc;" horiz-adv-x="1619" 
d="M72 627v69h147v592l-162 -184v102l228 269h125v-779h149v-69h-487zM1421 1544h92l-1259 -1657h-92zM1550 70v-70h-444v70h129v125h-375v53l49 104q139 288 289 445q37 38 63.5 53.5t55.5 15.5q36 0 57 -25.5t21 -58.5q0 -31 -19 -53t-73 -51q-95 -51 -186.5 -146.5
t-151.5 -218.5l-25 -49h295v228h190v-228h123v-69h-123v-125h125z" />
    <glyph glyph-name="onehalf" unicode="&#xbd;" horiz-adv-x="1699" 
d="M1397 1544h92l-1260 -1657h-92zM72 627v69h147v592l-162 -184v102l228 269h125v-779h149v-69h-487zM1176 121h161q95 0 137.5 8.5t59 28t29.5 67.5h65v-225h-610v82l141 121q65 59 100 93.5t72 77.5t54 77.5t27.5 77t10.5 92.5v24q0 78 -38 117t-107 39q-54 0 -83 -17.5
t-34 -44.5q70 -18 70 -88q0 -39 -25.5 -65.5t-72.5 -26.5q-53 0 -82 31t-29 82q0 81 80 139.5t207 58.5q140 0 228.5 -67.5t88.5 -190.5q0 -54 -25.5 -105.5t-75 -100.5t-96 -86.5t-116.5 -89.5t-109 -85z" />
    <glyph glyph-name="threequarters" unicode="&#xbe;" horiz-adv-x="1671" 
d="M307 596q-125 0 -196.5 52t-71.5 128q0 52 28.5 80.5t71.5 28.5q41 0 65.5 -24.5t24.5 -63.5q0 -30 -16.5 -52.5t-36.5 -27.5q2 -20 30 -35.5t83 -15.5q87 0 135.5 53t48.5 147v21q0 166 -172 166h-76v69h60q172 0 172 148v24q0 68 -39 100.5t-103 32.5
q-46 0 -75.5 -14.5t-34.5 -30.5q53 -17 53 -73q0 -35 -22.5 -59.5t-63.5 -24.5q-39 0 -65.5 27.5t-26.5 70.5q0 74 70 124t188 50q134 0 211.5 -59.5t77.5 -153.5q0 -72 -57 -120t-144 -62v-10q250 -29 250 -232q0 -112 -103.5 -188t-265.5 -76zM1464 1544h92l-1259 -1657
h-92zM1599 70v-70h-444v70h129v125h-375v53l49 104q139 288 289 445q37 38 63.5 53.5t55.5 15.5q36 0 57 -25.5t21 -58.5q0 -31 -19 -53t-73 -51q-95 -51 -186.5 -146.5t-151.5 -218.5l-25 -49h295v228h191v-228h122v-69h-122v-125h124z" />
    <glyph glyph-name="questiondown" unicode="&#xbf;" horiz-adv-x="903" 
d="M657 586v-377h-71q-30 70 -123 70q-85 0 -132.5 -76.5t-47.5 -231.5v-34q0 -177 69.5 -256.5t188.5 -79.5q65 0 75 24q-38 23 -38 72q0 52 30.5 85.5t85.5 33.5q50 0 83.5 -34t33.5 -83q0 -79 -73 -126.5t-197 -47.5q-208 0 -341.5 120.5t-133.5 321.5q0 119 54.5 208.5
t140.5 134t188 44.5q87 0 129 -39v271h79zM612 1044q57 0 97.5 -41t40.5 -98t-40.5 -98t-97.5 -41q-61 0 -102 40.5t-41 98.5t41 98.5t102 40.5z" />
    <glyph glyph-name="Agrave" unicode="&#xc0;" horiz-adv-x="1456" 
d="M647 1100l-207 -574h416l-201 574h-8zM516 76v-76h-479v76h149l521 1429h57l504 -1429h151v-76h-602v76h199l-133 375h-469l-135 -375h237zM723 1868q5 -63 29.5 -149.5t58.5 -143.5h-57q-81 49 -152.5 132.5t-99.5 160.5h221z" />
    <glyph glyph-name="Aacute" unicode="&#xc1;" horiz-adv-x="1456" 
d="M647 1100l-207 -574h416l-201 574h-8zM516 76v-76h-479v76h149l521 1429h57l504 -1429h151v-76h-602v76h199l-133 375h-469l-135 -375h237zM664 1575q64 105 88 293h221q-29 -76 -100.5 -159t-151.5 -134h-57z" />
    <glyph glyph-name="Acircumflex" unicode="&#xc2;" horiz-adv-x="1456" 
d="M647 1100l-207 -574h416l-201 574h-8zM516 76v-76h-479v76h149l521 1429h57l504 -1429h151v-76h-602v76h199l-133 375h-469l-135 -375h237zM823 1575l-141 176l-139 -176h-82l231 291h84l236 -291h-189z" />
    <glyph glyph-name="Atilde" unicode="&#xc3;" horiz-adv-x="1456" 
d="M647 1100l-207 -574h416l-201 574h-8zM516 76v-76h-479v76h149l521 1429h57l504 -1429h151v-76h-602v76h199l-133 375h-469l-135 -375h237zM868 1640q-47 0 -149.5 13.5t-126.5 13.5q-33 0 -53 -20.5t-37 -73.5l-62 18q19 105 64 164.5t108 59.5q48 0 149.5 -14.5
t127.5 -14.5q33 0 53.5 18.5t36.5 75.5l61 -20q-18 -107 -66 -163.5t-106 -56.5z" />
    <glyph glyph-name="Adieresis" unicode="&#xc4;" horiz-adv-x="1456" 
d="M647 1100l-207 -574h416l-201 574h-8zM516 76v-76h-479v76h149l521 1429h57l504 -1429h151v-76h-602v76h199l-133 375h-469l-135 -375h237zM522 1825q54 0 87.5 -33.5t33.5 -87.5t-33.5 -88.5t-87.5 -34.5q-52 0 -86.5 34.5t-34.5 88.5q0 53 34.5 87t86.5 34zM948 1825
q54 0 87.5 -33.5t33.5 -87.5t-33.5 -88.5t-87.5 -34.5q-52 0 -86.5 34.5t-34.5 88.5q0 53 34.5 87t86.5 34z" />
    <glyph glyph-name="Aring" unicode="&#xc5;" horiz-adv-x="1456" 
d="M647 1100l-207 -574h416l-201 574h-8zM516 76v-76h-479v76h149l521 1429h57l504 -1429h151v-76h-602v76h199l-133 375h-469l-135 -375h237zM530 1765q0 85 56.5 140t148.5 55t148.5 -55t56.5 -140q0 -83 -57 -138.5t-148 -55.5t-148 55.5t-57 138.5zM829 1765
q0 140 -94 140t-94 -140q0 -139 94 -139t94 139z" />
    <glyph glyph-name="AE" unicode="&#xc6;" horiz-adv-x="2023" 
d="M948 1399h-8l-317 -602h325v602zM438 76v-76h-401v76h113l698 1323h-156v76h1139v-412h-70q-17 73 -31.5 119t-38 87.5t-52 63.5t-75 38.5t-105.5 22t-144 5.5h-115v-602h84q33 0 58.5 2.5t46 10.5t34.5 15t26 24.5t19 30.5t15 41.5t12 48.5l12 60h66v-510h-66
q-10 41 -16 61t-15.5 46.5t-19.5 38t-25 25t-35.5 18.5t-47.5 8.5t-64 3.5h-84v-645h129q110 0 187 7.5t134.5 28t92.5 47t59.5 76t37 102t24.5 136.5h69v-473h-1206v76h221v645h-366l-340 -645h196z" />
    <glyph glyph-name="Ccedilla" unicode="&#xc7;" horiz-adv-x="1427" 
d="M809 -47q-141 0 -270 55t-226 152t-155 240.5t-58 308.5t58.5 313t156 252.5t229 165.5t273.5 61q81 0 152 -19.5t117 -39t65 -19.5q27 0 39.5 13.5t17.5 40.5h70v-467h-70q-35 227 -132.5 321t-258.5 94q-69 0 -128 -17t-118 -64t-100 -121t-66.5 -197.5t-25.5 -284.5
v-53q0 -161 25.5 -282t65.5 -191.5t99 -113.5t115.5 -57.5t124.5 -14.5q170 0 279.5 106.5t144.5 349.5h72v-481h-70q-9 43 -61 43q-22 0 -59 -14.5t-74 -32.5t-100.5 -32.5t-131.5 -14.5zM934 -307q0 -90 -83 -143.5t-198 -53.5q-97 0 -143.5 33t-46.5 88q0 37 21 60.5
t61 23.5q32 0 51.5 -20t19.5 -50q0 -35 -26 -49q5 -11 16.5 -14.5t40.5 -3.5q57 0 88 32t31 89v6q0 54 -22 77t-70 23q-57 0 -86 -33l-6 -6l-47 49l200 195h96l-145 -141q20 4 51 4q85 0 141 -42t56 -124z" />
    <glyph glyph-name="Egrave" unicode="&#xc8;" horiz-adv-x="1400" 
d="M1311 473v-473h-1239v76h221v1323h-221v76h1118v-412h-70q-15 72 -29 119t-37.5 87.5t-52.5 63t-75.5 39t-105.5 22t-144 5.5h-131v-602h96q33 0 58.5 2.5t46 10.5t34.5 15t26 24.5t19 30.5t15 41.5t12 48.5l12 60h68v-510h-68q-10 41 -16 61t-15.5 46.5t-19.5 38t-25 25
t-35.5 18.5t-47.5 8.5t-64 3.5h-96v-645h162q110 0 187 7.5t134.5 28t92 47t59 76t37 102t24.5 136.5h70zM745 1868q5 -63 30 -149t59 -144h-58q-81 49 -152.5 132.5t-99.5 160.5h221z" />
    <glyph glyph-name="Eacute" unicode="&#xc9;" horiz-adv-x="1400" 
d="M1311 473v-473h-1239v76h221v1323h-221v76h1118v-412h-70q-15 72 -29 119t-37.5 87.5t-52.5 63t-75.5 39t-105.5 22t-144 5.5h-131v-602h96q33 0 58.5 2.5t46 10.5t34.5 15t26 24.5t19 30.5t15 41.5t12 48.5l12 60h68v-510h-68q-10 41 -16 61t-15.5 46.5t-19.5 38t-25 25
t-35.5 18.5t-47.5 8.5t-64 3.5h-96v-645h162q110 0 187 7.5t134.5 28t92 47t59 76t37 102t24.5 136.5h70zM625 1575q64 105 88 293h221q-29 -76 -100.5 -159t-151.5 -134h-57z" />
    <glyph glyph-name="Ecircumflex" unicode="&#xca;" horiz-adv-x="1400" 
d="M1311 473v-473h-1239v76h221v1323h-221v76h1118v-412h-70q-15 72 -29 119t-37.5 87.5t-52.5 63t-75.5 39t-105.5 22t-144 5.5h-131v-602h96q33 0 58.5 2.5t46 10.5t34.5 15t26 24.5t19 30.5t15 41.5t12 48.5l12 60h68v-510h-68q-10 41 -16 61t-15.5 46.5t-19.5 38t-25 25
t-35.5 18.5t-47.5 8.5t-64 3.5h-96v-645h162q110 0 187 7.5t134.5 28t92 47t59 76t37 102t24.5 136.5h70zM811 1575l-141 176l-140 -176h-81l231 291h84l235 -291h-188z" />
    <glyph glyph-name="Edieresis" unicode="&#xcb;" horiz-adv-x="1400" 
d="M1311 473v-473h-1239v76h221v1323h-221v76h1118v-412h-70q-15 72 -29 119t-37.5 87.5t-52.5 63t-75.5 39t-105.5 22t-144 5.5h-131v-602h96q33 0 58.5 2.5t46 10.5t34.5 15t26 24.5t19 30.5t15 41.5t12 48.5l12 60h68v-510h-68q-10 41 -16 61t-15.5 46.5t-19.5 38t-25 25
t-35.5 18.5t-47.5 8.5t-64 3.5h-96v-645h162q110 0 187 7.5t134.5 28t92 47t59 76t37 102t24.5 136.5h70zM506 1825q54 0 87.5 -33.5t33.5 -87.5t-33.5 -88.5t-87.5 -34.5q-52 0 -86.5 34.5t-34.5 88.5q0 53 34.5 87t86.5 34zM932 1825q54 0 87.5 -33.5t33.5 -87.5
t-33.5 -88.5t-87.5 -34.5q-52 0 -86.5 34.5t-34.5 88.5q0 53 34.5 87t86.5 34z" />
    <glyph glyph-name="Igrave" unicode="&#xcc;" horiz-adv-x="837" 
d="M72 0v76h221v1323h-221v76h694v-76h-221v-1323h221v-76h-694zM444 1868q5 -63 29.5 -149.5t58.5 -143.5h-57q-81 49 -152.5 132.5t-99.5 160.5h221z" />
    <glyph glyph-name="Iacute" unicode="&#xcd;" horiz-adv-x="837" 
d="M72 0v76h221v1323h-221v76h694v-76h-221v-1323h221v-76h-694zM324 1575q64 105 88 293h221q-29 -76 -100.5 -159t-151.5 -134h-57z" />
    <glyph glyph-name="Icircumflex" unicode="&#xce;" horiz-adv-x="837" 
d="M72 0v76h221v1323h-221v76h694v-76h-221v-1323h221v-76h-694zM508 1575l-141 176l-140 -176h-82l232 291h84l235 -291h-188z" />
    <glyph glyph-name="Idieresis" unicode="&#xcf;" horiz-adv-x="837" 
d="M72 0v76h221v1323h-221v76h694v-76h-221v-1323h221v-76h-694zM205 1825q54 0 87.5 -33.5t33.5 -87.5t-33.5 -88.5t-87.5 -34.5q-51 0 -86 34.5t-35 88.5q0 53 34.5 87t86.5 34zM631 1825q54 0 87.5 -33.5t33.5 -87.5t-33.5 -88.5t-87.5 -34.5q-51 0 -86 34.5t-35 88.5
q0 53 34.5 87t86.5 34z" />
    <glyph glyph-name="Eth" unicode="&#xd0;" horiz-adv-x="1558" 
d="M686 0h-614v76h221v655h-213v76h213v592h-221v76h592q124 0 240 -31t216.5 -94t176 -152t118.5 -213t43 -268q0 -147 -43 -268t-116.5 -203t-173 -138.5t-209.5 -82t-230 -25.5zM545 76h133q86 0 158.5 18.5t137 63t109.5 114t71 176t26 244.5v70q0 177 -36.5 302
t-107 197.5t-164 105t-217.5 32.5h-110v-592h321v-76h-321v-655z" />
    <glyph glyph-name="Ntilde" unicode="&#xd1;" horiz-adv-x="1619" 
d="M1356 -14h-86l-879 1384h-10v-1294h229v-76h-538v76h221v1323h-221v76h532l662 -1049h4v973h-230v76h516v-76h-200v-1413zM1006 1640q-47 0 -150 13.5t-127 13.5q-33 0 -53 -20.5t-37 -73.5l-61 18q19 105 64 164.5t108 59.5q48 0 149 -14.5t127 -14.5q33 0 53.5 18.5
t36.5 75.5l62 -20q-18 -107 -66 -163.5t-106 -56.5z" />
    <glyph glyph-name="Ograve" unicode="&#xd2;" horiz-adv-x="1595" 
d="M799 1503q104 0 206.5 -38.5t190 -111t155 -169.5t106 -222t38.5 -260q0 -171 -59.5 -315t-157.5 -238t-222.5 -146t-256.5 -52q-133 0 -258.5 54.5t-223.5 151t-157.5 243t-59.5 317.5q0 167 59.5 315.5t157 250.5t224 161t258.5 59zM799 1427q-78 0 -141.5 -22.5
t-116 -73t-88 -128.5t-55 -192.5t-19.5 -262.5v-78q0 -147 21.5 -259.5t58 -184t91 -117t115 -64t134.5 -18.5q75 0 135.5 18.5t114 63.5t90 117t57.5 184.5t21 259.5v78q0 184 -29.5 316.5t-85.5 211t-131 115t-172 36.5zM821 1868q5 -63 29.5 -149.5t58.5 -143.5h-57
q-81 49 -152.5 132.5t-99.5 160.5h221z" />
    <glyph glyph-name="Oacute" unicode="&#xd3;" horiz-adv-x="1595" 
d="M799 1503q104 0 206.5 -38.5t190 -111t155 -169.5t106 -222t38.5 -260q0 -171 -59.5 -315t-157.5 -238t-222.5 -146t-256.5 -52q-133 0 -258.5 54.5t-223.5 151t-157.5 243t-59.5 317.5q0 167 59.5 315.5t157 250.5t224 161t258.5 59zM799 1427q-78 0 -141.5 -22.5
t-116 -73t-88 -128.5t-55 -192.5t-19.5 -262.5v-78q0 -147 21.5 -259.5t58 -184t91 -117t115 -64t134.5 -18.5q75 0 135.5 18.5t114 63.5t90 117t57.5 184.5t21 259.5v78q0 184 -29.5 316.5t-85.5 211t-131 115t-172 36.5zM702 1575q65 107 89 293h221q-29 -76 -100.5 -159
t-151.5 -134h-58z" />
    <glyph glyph-name="Ocircumflex" unicode="&#xd4;" horiz-adv-x="1595" 
d="M799 1503q104 0 206.5 -38.5t190 -111t155 -169.5t106 -222t38.5 -260q0 -171 -59.5 -315t-157.5 -238t-222.5 -146t-256.5 -52q-133 0 -258.5 54.5t-223.5 151t-157.5 243t-59.5 317.5q0 167 59.5 315.5t157 250.5t224 161t258.5 59zM799 1427q-78 0 -141.5 -22.5
t-116 -73t-88 -128.5t-55 -192.5t-19.5 -262.5v-78q0 -147 21.5 -259.5t58 -184t91 -117t115 -64t134.5 -18.5q75 0 135.5 18.5t114 63.5t90 117t57.5 184.5t21 259.5v78q0 184 -29.5 316.5t-85.5 211t-131 115t-172 36.5zM887 1575l-142 176l-139 -176h-82l232 291h84
l235 -291h-188z" />
    <glyph glyph-name="Otilde" unicode="&#xd5;" horiz-adv-x="1595" 
d="M799 1503q104 0 206.5 -38.5t190 -111t155 -169.5t106 -222t38.5 -260q0 -171 -59.5 -315t-157.5 -238t-222.5 -146t-256.5 -52q-133 0 -258.5 54.5t-223.5 151t-157.5 243t-59.5 317.5q0 167 59.5 315.5t157 250.5t224 161t258.5 59zM799 1427q-78 0 -141.5 -22.5
t-116 -73t-88 -128.5t-55 -192.5t-19.5 -262.5v-78q0 -147 21.5 -259.5t58 -184t91 -117t115 -64t134.5 -18.5q75 0 135.5 18.5t114 63.5t90 117t57.5 184.5t21 259.5v78q0 184 -29.5 316.5t-85.5 211t-131 115t-172 36.5zM932 1640q-47 0 -150 13.5t-127 13.5
q-33 0 -53 -20.5t-37 -73.5l-61 18q19 105 64 164.5t108 59.5q48 0 149 -14.5t127 -14.5q33 0 53.5 18.5t36.5 75.5l62 -20q-18 -107 -66 -163.5t-106 -56.5z" />
    <glyph glyph-name="Odieresis" unicode="&#xd6;" horiz-adv-x="1595" 
d="M799 1503q104 0 206.5 -38.5t190 -111t155 -169.5t106 -222t38.5 -260q0 -171 -59.5 -315t-157.5 -238t-222.5 -146t-256.5 -52q-133 0 -258.5 54.5t-223.5 151t-157.5 243t-59.5 317.5q0 167 59.5 315.5t157 250.5t224 161t258.5 59zM799 1427q-78 0 -141.5 -22.5
t-116 -73t-88 -128.5t-55 -192.5t-19.5 -262.5v-78q0 -147 21.5 -259.5t58 -184t91 -117t115 -64t134.5 -18.5q75 0 135.5 18.5t114 63.5t90 117t57.5 184.5t21 259.5v78q0 184 -29.5 316.5t-85.5 211t-131 115t-172 36.5zM584 1825q54 0 87.5 -33.5t33.5 -87.5t-33.5 -88.5
t-87.5 -34.5q-52 0 -86.5 34.5t-34.5 88.5q0 53 34.5 87t86.5 34zM1010 1825q54 0 87 -33.5t33 -87.5t-33 -88.5t-87 -34.5q-52 0 -86.5 34.5t-34.5 88.5q0 53 34.5 87t86.5 34z" />
    <glyph glyph-name="multiply" unicode="&#xd7;" horiz-adv-x="835" 
d="M676 301l-262 277l-262 -277l-58 57l264 279l-264 278l62 60l262 -277l262 277l57 -57l-264 -279l264 -279z" />
    <glyph glyph-name="Oslash" unicode="&#xd8;" horiz-adv-x="1595" 
d="M379 743v-77q0 -245 45 -379l684 995q-53 77 -128 111t-181 34q-420 0 -420 -684zM799 27q75 0 135.5 18t114.5 63t90 116.5t57 183.5t21 258v77q0 309 -74 474l-690 -1002q52 -102 135.5 -145t210.5 -43zM799 -49q-234 0 -424 151l-125 -180h-78l154 223
q-226 219 -226 568q0 169 59.5 318.5t157 251.5t224 161t258.5 59q194 0 370 -131l107 154h80l-135 -195q127 -114 200.5 -277.5t73.5 -355.5q0 -171 -59.5 -314.5t-157.5 -236.5t-222.5 -144.5t-256.5 -51.5z" />
    <glyph glyph-name="Ugrave" unicode="&#xd9;" horiz-adv-x="1650" 
d="M901 -49q-159 0 -280 41.5t-193.5 115t-108.5 167t-36 204.5v920h-220v76h693v-76h-221v-983q0 -114 24 -191t73.5 -119.5t113 -59.5t155.5 -17q209 0 301 117t92 339v914h-221v76h512v-76h-207v-914q0 -94 -15.5 -172.5t-51 -146t-90 -115t-136 -74t-184.5 -26.5z
M922 1868q5 -63 29.5 -149.5t58.5 -143.5h-58q-81 49 -152.5 132.5t-99.5 160.5h222z" />
    <glyph glyph-name="Uacute" unicode="&#xda;" horiz-adv-x="1650" 
d="M901 -49q-159 0 -280 41.5t-193.5 115t-108.5 167t-36 204.5v920h-220v76h693v-76h-221v-983q0 -114 24 -191t73.5 -119.5t113 -59.5t155.5 -17q209 0 301 117t92 339v914h-221v76h512v-76h-207v-914q0 -94 -15.5 -172.5t-51 -146t-90 -115t-136 -74t-184.5 -26.5z
M801 1575q64 105 88 293h221q-29 -76 -100.5 -159t-151.5 -134h-57z" />
    <glyph glyph-name="Ucircumflex" unicode="&#xdb;" horiz-adv-x="1650" 
d="M901 -49q-159 0 -280 41.5t-193.5 115t-108.5 167t-36 204.5v920h-220v76h693v-76h-221v-983q0 -114 24 -191t73.5 -119.5t113 -59.5t155.5 -17q209 0 301 117t92 339v914h-221v76h512v-76h-207v-914q0 -94 -15.5 -172.5t-51 -146t-90 -115t-136 -74t-184.5 -26.5z
M987 1575l-141 176l-139 -176h-82l231 291h84l236 -291h-189z" />
    <glyph glyph-name="Udieresis" unicode="&#xdc;" horiz-adv-x="1650" 
d="M901 -49q-159 0 -280 41.5t-193.5 115t-108.5 167t-36 204.5v920h-220v76h693v-76h-221v-983q0 -114 24 -191t73.5 -119.5t113 -59.5t155.5 -17q209 0 301 117t92 339v914h-221v76h512v-76h-207v-914q0 -94 -15.5 -172.5t-51 -146t-90 -115t-136 -74t-184.5 -26.5z
M684 1825q54 0 87.5 -33.5t33.5 -87.5t-33.5 -88.5t-87.5 -34.5q-52 0 -86.5 34.5t-34.5 88.5q0 53 34.5 87t86.5 34zM1110 1825q54 0 87.5 -33.5t33.5 -87.5t-33.5 -88.5t-87.5 -34.5q-52 0 -86.5 34.5t-34.5 88.5q0 53 34.5 87t86.5 34z" />
    <glyph glyph-name="Yacute" unicode="&#xdd;" horiz-adv-x="1394" 
d="M1065 0h-709v76h230v583l-430 740h-121v76h563v-76h-172l365 -627l360 627h-205v76h414v-76h-119l-405 -705v-618h229v-76zM707 1575q64 105 88 293h221q-29 -76 -100.5 -159t-151.5 -134h-57z" />
    <glyph glyph-name="Thorn" unicode="&#xde;" horiz-adv-x="1366" 
d="M745 457q155 0 224 69.5t69 223.5v49q0 153 -84.5 216.5t-261.5 63.5h-147v-590q98 -32 200 -32zM788 76v-76h-716v76h221v1323h-221v76h716v-76h-243v-244h160q161 0 293.5 -47.5t212 -138t79.5 -207.5q0 -92 -43.5 -166t-117 -120t-165 -70.5t-190.5 -24.5
q-128 0 -229 33v-338h243z" />
    <glyph glyph-name="germandbls" unicode="&#xdf;" horiz-adv-x="1140" 
d="M705 -31q-107 0 -165.5 44t-58.5 118q0 49 31 79t74 30q44 0 70 -26.5t26 -68.5q0 -64 -55 -77q2 -13 18 -23t41 -10q55 0 83 29.5t40 101.5t12 211v104q0 106 -11.5 184t-32 127t-53.5 78.5t-70.5 40.5t-88.5 11h-65v75h53q197 0 197 238v22q0 230 -177 230
q-93 0 -136.5 -58t-43.5 -186v-1167h56v-76h-418v76h141v846h-131v75h131v103q0 118 36.5 210t96 145.5t128 80.5t140.5 27q158 0 264.5 -86.5t106.5 -225.5q0 -109 -71 -180t-168 -94v-8q164 -49 263 -189t99 -368q0 -104 -31.5 -190t-83 -140t-115.5 -83.5t-132 -29.5z
" />
    <glyph glyph-name="agrave" unicode="&#xe0;" horiz-adv-x="1085" 
d="M422 49q110 0 172.5 89.5t62.5 209.5v246q-22 -35 -66.5 -62.5t-125.5 -60.5q-72 -30 -107.5 -55t-54 -66.5t-18.5 -109.5v-7q0 -97 30.5 -140.5t106.5 -43.5zM377 -33q-147 0 -226 70.5t-79 198.5q0 49 12.5 88.5t38 67.5t53.5 48t68.5 36t73 26.5t77.5 23.5t72 23
q79 28 125 57.5t65 69.5v80q0 105 -38.5 152.5t-143.5 47.5q-137 0 -137 -59q49 -25 49 -88q0 -50 -34 -81.5t-89 -31.5q-58 0 -90.5 35t-32.5 82q0 92 97 153.5t243 61.5q396 0 396 -377v-493q0 -57 12 -77t49 -20t82 29l22 -51q-84 -59 -188 -59q-80 0 -130 35.5
t-62 103.5h-11q-35 -73 -99.5 -112.5t-174.5 -39.5zM487 1495q7 -86 41.5 -184t75.5 -152h-55q-88 53 -165 145t-105 191h208z" />
    <glyph glyph-name="aacute" unicode="&#xe1;" horiz-adv-x="1085" 
d="M422 49q110 0 172.5 89.5t62.5 209.5v246q-22 -35 -66.5 -62.5t-125.5 -60.5q-72 -30 -107.5 -55t-54 -66.5t-18.5 -109.5v-7q0 -97 30.5 -140.5t106.5 -43.5zM377 -33q-147 0 -226 70.5t-79 198.5q0 49 12.5 88.5t38 67.5t53.5 48t68.5 36t73 26.5t77.5 23.5t72 23
q79 28 125 57.5t65 69.5v80q0 105 -38.5 152.5t-143.5 47.5q-137 0 -137 -59q49 -25 49 -88q0 -50 -34 -81.5t-89 -31.5q-58 0 -90.5 35t-32.5 82q0 92 97 153.5t243 61.5q396 0 396 -377v-493q0 -57 12 -77t49 -20t82 29l22 -51q-84 -59 -188 -59q-80 0 -130 35.5
t-62 103.5h-11q-35 -73 -99.5 -112.5t-174.5 -39.5zM412 1159q41 54 74.5 151.5t41.5 184.5h209q-27 -97 -104.5 -188.5t-165.5 -147.5h-55z" />
    <glyph glyph-name="acircumflex" unicode="&#xe2;" horiz-adv-x="1085" 
d="M422 49q110 0 172.5 89.5t62.5 209.5v246q-22 -35 -66.5 -62.5t-125.5 -60.5q-72 -30 -107.5 -55t-54 -66.5t-18.5 -109.5v-7q0 -97 30.5 -140.5t106.5 -43.5zM377 -33q-147 0 -226 70.5t-79 198.5q0 49 12.5 88.5t38 67.5t53.5 48t68.5 36t73 26.5t77.5 23.5t72 23
q79 28 125 57.5t65 69.5v80q0 105 -38.5 152.5t-143.5 47.5q-137 0 -137 -59q49 -25 49 -88q0 -50 -34 -81.5t-89 -31.5q-58 0 -90.5 35t-32.5 82q0 92 97 153.5t243 61.5q396 0 396 -377v-493q0 -57 12 -77t49 -20t82 29l22 -51q-84 -59 -188 -59q-80 0 -130 35.5
t-62 103.5h-11q-35 -73 -99.5 -112.5t-174.5 -39.5zM604 1159l-137 199l-137 -199h-80l221 322h84l221 -322h-172z" />
    <glyph glyph-name="atilde" unicode="&#xe3;" horiz-adv-x="1085" 
d="M422 49q110 0 172.5 89.5t62.5 209.5v246q-22 -35 -66.5 -62.5t-125.5 -60.5q-72 -30 -107.5 -55t-54 -66.5t-18.5 -109.5v-7q0 -97 30.5 -140.5t106.5 -43.5zM377 -33q-147 0 -226 70.5t-79 198.5q0 49 12.5 88.5t38 67.5t53.5 48t68.5 36t73 26.5t77.5 23.5t72 23
q79 28 125 57.5t65 69.5v80q0 105 -38.5 152.5t-143.5 47.5q-137 0 -137 -59q49 -25 49 -88q0 -50 -34 -81.5t-89 -31.5q-58 0 -90.5 35t-32.5 82q0 92 97 153.5t243 61.5q396 0 396 -377v-493q0 -57 12 -77t49 -20t82 29l22 -51q-84 -59 -188 -59q-80 0 -130 35.5
t-62 103.5h-11q-35 -73 -99.5 -112.5t-174.5 -39.5zM625 1227q-47 0 -137 20.5t-115 20.5q-32 0 -51.5 -21t-36.5 -76l-62 21q17 105 62 164t108 59q46 0 136 -21.5t116 -21.5q33 0 52.5 18.5t35.5 75.5l62 -20q-18 -107 -65 -163t-105 -56z" />
    <glyph glyph-name="adieresis" unicode="&#xe4;" horiz-adv-x="1085" 
d="M422 49q110 0 172.5 89.5t62.5 209.5v246q-22 -35 -66.5 -62.5t-125.5 -60.5q-72 -30 -107.5 -55t-54 -66.5t-18.5 -109.5v-7q0 -97 30.5 -140.5t106.5 -43.5zM377 -33q-147 0 -226 70.5t-79 198.5q0 49 12.5 88.5t38 67.5t53.5 48t68.5 36t73 26.5t77.5 23.5t72 23
q79 28 125 57.5t65 69.5v80q0 105 -38.5 152.5t-143.5 47.5q-137 0 -137 -59q49 -25 49 -88q0 -50 -34 -81.5t-89 -31.5q-58 0 -90.5 35t-32.5 82q0 92 97 153.5t243 61.5q396 0 396 -377v-493q0 -57 12 -77t49 -20t82 29l22 -51q-84 -59 -188 -59q-80 0 -130 35.5
t-62 103.5h-11q-35 -73 -99.5 -112.5t-174.5 -39.5zM311 1448q54 0 87.5 -33.5t33.5 -87.5t-33.5 -88.5t-87.5 -34.5q-50 0 -84 35t-34 88t34 87t84 34zM694 1448q54 0 87.5 -33.5t33.5 -87.5t-33.5 -88.5t-87.5 -34.5q-50 0 -84.5 35t-34.5 88t34.5 87t84.5 34z" />
    <glyph glyph-name="aring" unicode="&#xe5;" horiz-adv-x="1085" 
d="M422 49q110 0 172.5 89.5t62.5 209.5v246q-22 -35 -66.5 -62.5t-125.5 -60.5q-72 -30 -107.5 -55t-54 -66.5t-18.5 -109.5v-7q0 -97 30.5 -140.5t106.5 -43.5zM377 -33q-147 0 -226 70.5t-79 198.5q0 49 12.5 88.5t38 67.5t53.5 48t68.5 36t73 26.5t77.5 23.5t72 23
q79 28 125 57.5t65 69.5v80q0 105 -38.5 152.5t-143.5 47.5q-137 0 -137 -59q49 -25 49 -88q0 -50 -34 -81.5t-89 -31.5q-58 0 -90.5 35t-32.5 82q0 92 97 153.5t243 61.5q396 0 396 -377v-493q0 -57 12 -77t49 -20t82 29l22 -51q-84 -59 -188 -59q-80 0 -130 35.5
t-62 103.5h-11q-35 -73 -99.5 -112.5t-174.5 -39.5zM299 1335q0 85 56.5 140t148.5 55t148.5 -55t56.5 -140q0 -83 -57 -138.5t-148 -55.5t-148 55.5t-57 138.5zM598 1335q0 140 -94 140t-94 -140q0 -139 94 -139t94 139z" />
    <glyph glyph-name="ae" unicode="&#xe6;" horiz-adv-x="1613" 
d="M893 602v-6h399v33q0 171 -37.5 251.5t-136.5 80.5q-104 0 -164.5 -94t-60.5 -265zM434 49q101 0 162.5 63t91.5 185q-31 105 -31 213v84q-22 -35 -66.5 -62.5t-125.5 -60.5q-72 -30 -107.5 -55t-54 -66.5t-18.5 -109.5v-7q0 -94 36 -139t113 -45zM1153 -31
q-294 0 -422 230q-38 -111 -126 -171.5t-208 -60.5q-154 0 -239.5 71t-85.5 198q0 49 12.5 88.5t38 67.5t53.5 48t68.5 36t73 26.5t77.5 23.5t72 23q79 28 125 57.5t65 69.5v80q0 105 -38.5 152.5t-143.5 47.5q-137 0 -137 -59q49 -25 49 -88q0 -50 -34 -81.5t-89 -31.5
q-58 0 -90.5 35t-32.5 82q0 92 97 153.5t243 61.5q236 0 322 -170q54 82 135 126t180 44q187 0 298.5 -129t111.5 -328q0 -26 -8.5 -37.5t-32.5 -11.5h-594v-76q0 -187 70.5 -293t218.5 -106q206 0 299 186l65 -34q-46 -102 -143.5 -166t-249.5 -64z" />
    <glyph glyph-name="ccedilla" unicode="&#xe7;" horiz-adv-x="1034" 
d="M602 1036q159 0 248.5 -61.5t89.5 -157.5q0 -58 -34 -95.5t-93 -37.5q-58 0 -93.5 36t-35.5 85q0 73 55 98q-10 62 -147 62q-41 0 -78 -12t-74 -43.5t-63.5 -80t-43 -128.5t-16.5 -183v-39q0 -432 285 -432q213 0 295 203l74 -29q-97 -252 -389 -252q-121 0 -218.5 41.5
t-160 113t-96 167t-33.5 205.5q0 148 69.5 272t191 196t267.5 72zM758 -307q0 -90 -83 -143.5t-198 -53.5q-97 0 -143.5 33t-46.5 88q0 37 21 60.5t61 23.5q32 0 51.5 -20t19.5 -50q0 -35 -26 -49q5 -11 16.5 -14.5t40.5 -3.5q57 0 88 32t31 89v6q0 54 -22 77t-70 23
q-57 0 -86 -33l-6 -6l-48 49l201 195h96l-145 -141q20 4 51 4q85 0 141 -42t56 -124z" />
    <glyph glyph-name="egrave" unicode="&#xe8;" horiz-adv-x="1056" 
d="M317 602v-6h420v33q0 169 -42 250.5t-150 81.5q-106 0 -167 -94t-61 -265zM924 233l67 -34q-46 -102 -146 -166t-257 -64q-129 0 -230.5 45.5t-161.5 122.5t-91 171t-31 198q0 117 41.5 217.5t109 166t151 102t169.5 36.5q198 0 313 -128.5t115 -328.5q0 -26 -8.5 -37.5
t-32.5 -11.5h-615v-76q0 -187 72.5 -293t226.5 -106q215 0 308 186zM535 1495q8 -87 41.5 -184.5t74.5 -151.5h-55q-88 53 -165 145t-105 191h209z" />
    <glyph glyph-name="eacute" unicode="&#xe9;" horiz-adv-x="1056" 
d="M317 602v-6h420v33q0 169 -42 250.5t-150 81.5q-106 0 -167 -94t-61 -265zM924 233l67 -34q-46 -102 -146 -166t-257 -64q-129 0 -230.5 45.5t-161.5 122.5t-91 171t-31 198q0 117 41.5 217.5t109 166t151 102t169.5 36.5q198 0 313 -128.5t115 -328.5q0 -26 -8.5 -37.5
t-32.5 -11.5h-615v-76q0 -187 72.5 -293t226.5 -106q215 0 308 186zM459 1159q41 54 74.5 151.5t41.5 184.5h209q-27 -97 -104.5 -188.5t-165.5 -147.5h-55z" />
    <glyph glyph-name="ecircumflex" unicode="&#xea;" horiz-adv-x="1056" 
d="M317 602v-6h420v33q0 169 -42 250.5t-150 81.5q-106 0 -167 -94t-61 -265zM924 233l67 -34q-46 -102 -146 -166t-257 -64q-129 0 -230.5 45.5t-161.5 122.5t-91 171t-31 198q0 117 41.5 217.5t109 166t151 102t169.5 36.5q198 0 313 -128.5t115 -328.5q0 -26 -8.5 -37.5
t-32.5 -11.5h-615v-76q0 -187 72.5 -293t226.5 -106q215 0 308 186zM651 1159l-137 199l-137 -199h-80l221 322h84l221 -322h-172z" />
    <glyph glyph-name="edieresis" unicode="&#xeb;" horiz-adv-x="1056" 
d="M317 602v-6h420v33q0 169 -42 250.5t-150 81.5q-106 0 -167 -94t-61 -265zM924 233l67 -34q-46 -102 -146 -166t-257 -64q-129 0 -230.5 45.5t-161.5 122.5t-91 171t-31 198q0 117 41.5 217.5t109 166t151 102t169.5 36.5q198 0 313 -128.5t115 -328.5q0 -26 -8.5 -37.5
t-32.5 -11.5h-615v-76q0 -187 72.5 -293t226.5 -106q215 0 308 186zM360 1448q54 0 87.5 -33.5t33.5 -87.5t-33.5 -88.5t-87.5 -34.5q-50 0 -84 35t-34 88t34 87t84 34zM743 1448q54 0 87.5 -33.5t33.5 -87.5t-33.5 -88.5t-87.5 -34.5q-50 0 -84 35t-34 88t34 87t84 34z" />
    <glyph glyph-name="igrave" unicode="&#xec;" horiz-adv-x="636" 
d="M61 0v76h146v846h-174v75h395v-921h150v-76h-517zM279 1495q8 -87 41.5 -184.5t74.5 -151.5h-55q-88 53 -165 145t-105 191h209z" />
    <glyph glyph-name="iacute" unicode="&#xed;" horiz-adv-x="636" 
d="M61 0v76h146v846h-174v75h395v-921h150v-76h-517zM203 1159q41 54 74.5 151.5t41.5 184.5h209q-27 -97 -104.5 -188.5t-165.5 -147.5h-55z" />
    <glyph glyph-name="icircumflex" unicode="&#xee;" horiz-adv-x="636" 
d="M61 0v76h146v846h-174v75h395v-921h150v-76h-517zM395 1159l-137 199l-137 -199h-80l221 322h84l221 -322h-172z" />
    <glyph glyph-name="idieresis" unicode="&#xef;" horiz-adv-x="636" 
d="M61 0v76h146v846h-174v75h395v-921h150v-76h-517zM104 1448q54 0 87.5 -33.5t33.5 -87.5t-33.5 -88.5t-87.5 -34.5q-50 0 -84 35t-34 88t34 87t84 34zM487 1448q54 0 87.5 -33.5t33.5 -87.5t-33.5 -88.5t-87.5 -34.5q-50 0 -84 35t-34 88t34 87t84 34z" />
    <glyph glyph-name="eth" unicode="&#xf0;" horiz-adv-x="1161" 
d="M571 -39q-97 0 -187 37.5t-159 104t-110 166.5t-41 216q0 119 42.5 224t111.5 175.5t155.5 111t175.5 40.5q82 0 140 -33t87 -85h13q-63 229 -234 380l-319 -168l-31 60l293 153q-91 68 -266 130v67q218 -37 381 -137l258 135l30 -57l-225 -119q182 -130 286.5 -327
t104.5 -457q0 -152 -39.5 -271.5t-109 -194t-160.5 -113t-197 -38.5zM571 961q-126 0 -185.5 -96.5t-59.5 -313.5v-113q0 -209 55 -305t186 -96q142 0 202 96t60 299v127q0 110 -21.5 191t-59 125.5t-81.5 65t-96 20.5z" />
    <glyph glyph-name="ntilde" unicode="&#xf1;" horiz-adv-x="1261" 
d="M594 76v-76h-533v76h146v846h-174v75h395v-176h10q16 38 40 71.5t59.5 65.5t87 51t112.5 19q148 0 240 -90.5t92 -257.5v-604h145v-76h-514v76h148v725q0 68 -36.5 106.5t-106.5 38.5q-69 0 -123 -35t-87 -96.5t-50 -140t-17 -168.5v-430h166zM756 1227q-47 0 -137 20.5
t-115 20.5q-32 0 -51.5 -21t-36.5 -76l-62 21q17 105 62 164t108 59q46 0 136 -21.5t116 -21.5q33 0 52.5 18.5t35.5 75.5l62 -20q-18 -107 -65 -163t-105 -56z" />
    <glyph glyph-name="ograve" unicode="&#xf2;" horiz-adv-x="1148" 
d="M573 1036q97 0 189 -42t161.5 -113.5t111.5 -175.5t42 -220t-43 -216t-114 -166.5t-161.5 -104t-185.5 -37.5t-184.5 37.5t-159.5 104t-112.5 166.5t-42.5 216t41.5 220t110.5 175.5t159.5 113.5t187.5 42zM573 961q-135 0 -191 -95t-56 -313v-117q0 -207 56.5 -303
t190.5 -96q136 0 193 96t57 303v117q0 217 -57.5 312.5t-192.5 95.5zM557 1495q7 -86 41.5 -184t75.5 -152h-56q-88 53 -165 145t-105 191h209z" />
    <glyph glyph-name="oacute" unicode="&#xf3;" horiz-adv-x="1148" 
d="M573 1036q97 0 189 -42t161.5 -113.5t111.5 -175.5t42 -220t-43 -216t-114 -166.5t-161.5 -104t-185.5 -37.5t-184.5 37.5t-159.5 104t-112.5 166.5t-42.5 216t41.5 220t110.5 175.5t159.5 113.5t187.5 42zM573 961q-135 0 -191 -95t-56 -313v-117q0 -207 56.5 -303
t190.5 -96q136 0 193 96t57 303v117q0 217 -57.5 312.5t-192.5 95.5zM481 1159q41 54 75.5 152t41.5 184h209q-27 -97 -104.5 -188.5t-165.5 -147.5h-56z" />
    <glyph glyph-name="ocircumflex" unicode="&#xf4;" horiz-adv-x="1148" 
d="M573 1036q97 0 189 -42t161.5 -113.5t111.5 -175.5t42 -220t-43 -216t-114 -166.5t-161.5 -104t-185.5 -37.5t-184.5 37.5t-159.5 104t-112.5 166.5t-42.5 216t41.5 220t110.5 175.5t159.5 113.5t187.5 42zM573 961q-135 0 -191 -95t-56 -313v-117q0 -207 56.5 -303
t190.5 -96q136 0 193 96t57 303v117q0 217 -57.5 312.5t-192.5 95.5zM674 1159l-137 199l-138 -199h-80l222 322h84l221 -322h-172z" />
    <glyph glyph-name="otilde" unicode="&#xf5;" horiz-adv-x="1148" 
d="M573 1036q97 0 189 -42t161.5 -113.5t111.5 -175.5t42 -220t-43 -216t-114 -166.5t-161.5 -104t-185.5 -37.5t-184.5 37.5t-159.5 104t-112.5 166.5t-42.5 216t41.5 220t110.5 175.5t159.5 113.5t187.5 42zM573 961q-135 0 -191 -95t-56 -313v-117q0 -207 56.5 -303
t190.5 -96q136 0 193 96t57 303v117q0 217 -57.5 312.5t-192.5 95.5zM694 1227q-47 0 -137 20.5t-115 20.5q-32 0 -51.5 -21t-36.5 -76l-61 21q17 105 62 164t108 59q46 0 136 -21.5t116 -21.5q33 0 52.5 18.5t35.5 75.5l61 -20q-18 -107 -65 -163t-105 -56z" />
    <glyph glyph-name="odieresis" unicode="&#xf6;" horiz-adv-x="1148" 
d="M573 1036q97 0 189 -42t161.5 -113.5t111.5 -175.5t42 -220t-43 -216t-114 -166.5t-161.5 -104t-185.5 -37.5t-184.5 37.5t-159.5 104t-112.5 166.5t-42.5 216t41.5 220t110.5 175.5t159.5 113.5t187.5 42zM573 961q-135 0 -191 -95t-56 -313v-117q0 -207 56.5 -303
t190.5 -96q136 0 193 96t57 303v117q0 217 -57.5 312.5t-192.5 95.5zM381 1448q54 0 87.5 -33.5t33.5 -87.5t-33.5 -88.5t-87.5 -34.5q-50 0 -84.5 35t-34.5 88t34.5 87t84.5 34zM764 1448q54 0 87.5 -33.5t33.5 -87.5t-33.5 -88.5t-87.5 -34.5q-50 0 -84.5 35t-34.5 88
t34.5 87t84.5 34z" />
    <glyph glyph-name="divide" unicode="&#xf7;" horiz-adv-x="894" 
d="M446 1053q54 0 86.5 -32.5t32.5 -86.5q0 -51 -33 -86t-86 -35q-49 0 -83.5 35.5t-34.5 85.5q0 53 34 86t84 33zM78 678h737v-80h-737v80zM446 463q53 0 86 -35t33 -86q0 -52 -33 -85.5t-86 -33.5q-50 0 -84 34t-34 85q0 50 34.5 85.5t83.5 35.5z" />
    <glyph glyph-name="oslash" unicode="&#xf8;" horiz-adv-x="1146" 
d="M326 553v-117q0 -137 12 -203l434 641q-52 87 -199 87q-135 -1 -191 -95.5t-56 -312.5zM573 37q136 0 193 96t57 303v117q0 171 -20 250l-441 -651q25 -60 75 -87.5t136 -27.5zM573 -39q-152 0 -280 90l-86 -129h-80l115 170q-78 70 -123 171t-45 222q0 116 41.5 220
t110.5 175.5t159.5 113.5t187.5 42q135 0 256 -78l84 123h78l-108 -161q90 -75 142 -188.5t52 -246.5q0 -116 -43 -216t-114 -166.5t-161.5 -104t-185.5 -37.5z" />
    <glyph glyph-name="ugrave" unicode="&#xf9;" horiz-adv-x="1271" 
d="M512 -31q-149 0 -240.5 90.5t-91.5 257.5v605h-147v75h366v-800q0 -68 37 -107t107 -39q91 0 155 62t92.5 159.5t28.5 219.5v430h-149v75h370v-921h170v-76h-391v176h-10q-36 -84 -109.5 -145.5t-187.5 -61.5zM573 1495q7 -86 41.5 -184t75.5 -152h-55q-88 53 -165 145
t-105 191h208z" />
    <glyph glyph-name="uacute" unicode="&#xfa;" horiz-adv-x="1271" 
d="M512 -31q-149 0 -240.5 90.5t-91.5 257.5v605h-147v75h366v-800q0 -68 37 -107t107 -39q91 0 155 62t92.5 159.5t28.5 219.5v430h-149v75h370v-921h170v-76h-391v176h-10q-36 -84 -109.5 -145.5t-187.5 -61.5zM498 1159q41 54 74.5 151.5t41.5 184.5h209
q-27 -97 -104.5 -188.5t-165.5 -147.5h-55z" />
    <glyph glyph-name="ucircumflex" unicode="&#xfb;" horiz-adv-x="1271" 
d="M512 -31q-149 0 -240.5 90.5t-91.5 257.5v605h-147v75h366v-800q0 -68 37 -107t107 -39q91 0 155 62t92.5 159.5t28.5 219.5v430h-149v75h370v-921h170v-76h-391v176h-10q-36 -84 -109.5 -145.5t-187.5 -61.5zM690 1159l-137 199l-137 -199h-80l221 322h84l221 -322h-172
z" />
    <glyph glyph-name="udieresis" unicode="&#xfc;" horiz-adv-x="1271" 
d="M512 -31q-149 0 -240.5 90.5t-91.5 257.5v605h-147v75h366v-800q0 -68 37 -107t107 -39q91 0 155 62t92.5 159.5t28.5 219.5v430h-149v75h370v-921h170v-76h-391v176h-10q-36 -84 -109.5 -145.5t-187.5 -61.5zM399 1448q54 0 87.5 -33.5t33.5 -87.5t-33.5 -88.5
t-87.5 -34.5q-50 0 -84 35t-34 88t34 87t84 34zM782 1448q54 0 87.5 -33.5t33.5 -87.5t-33.5 -88.5t-87.5 -34.5q-50 0 -84 35t-34 88t34 87t84 34z" />
    <glyph glyph-name="yacute" unicode="&#xfd;" horiz-adv-x="1118" 
d="M211 -516q-95 0 -148 41.5t-53 105.5q0 52 32.5 85.5t86.5 33.5q49 0 82 -30t33 -78q0 -45 -37 -66q11 -8 26 -8q77 0 142 78t137 264l31 78l-420 934h-94v75h475v-75h-156l295 -668l254 668h-166v75h359v-75h-103l-395 -1035q-86 -224 -171.5 -313.5t-209.5 -89.5z
M559 1159q41 54 75.5 152t41.5 184h209q-27 -97 -105 -188t-166 -148h-55z" />
    <glyph glyph-name="thorn" unicode="&#xfe;" horiz-adv-x="1212" 
d="M651 53q81 0 130.5 36t75.5 124.5t26 239.5v114q0 201 -54.5 291t-181.5 90q-44 0 -88 -20.5t-83 -59.5t-63 -104t-24 -146v-231q0 -85 23.5 -151.5t62 -105t83.5 -58t93 -19.5zM8 -508v76h164v1896h-176v76h397v-698h10q24 76 100 131t189 55q85 0 165.5 -39.5t142 -107
t98.5 -165.5t37 -208q0 -148 -60 -271t-164.5 -193.5t-230.5 -70.5q-200 0 -277 164h-10v-569h185v-76h-570z" />
    <glyph glyph-name="ydieresis" unicode="&#xff;" horiz-adv-x="1118" 
d="M211 -516q-95 0 -148 41.5t-53 105.5q0 52 32.5 85.5t86.5 33.5q49 0 82 -30t33 -78q0 -45 -37 -66q11 -8 26 -8q77 0 142 78t137 264l31 78l-420 934h-94v75h475v-75h-156l295 -668l254 668h-166v75h359v-75h-103l-395 -1035q-86 -224 -171.5 -313.5t-209.5 -89.5z
M424 1448q54 0 87.5 -33.5t33.5 -87.5t-33.5 -88.5t-87.5 -34.5q-50 0 -84.5 35t-34.5 88t34.5 87t84.5 34zM807 1448q54 0 87.5 -33.5t33.5 -87.5t-33.5 -88.5t-87.5 -34.5q-50 0 -84.5 35t-34.5 88t34.5 87t84.5 34z" />
    <glyph glyph-name="Amacron" unicode="&#x100;" horiz-adv-x="1456" 
d="M647 1100l-207 -574h416l-201 574h-8zM516 76v-76h-479v76h149l521 1429h57l504 -1429h151v-76h-602v76h199l-133 375h-469l-135 -375h237zM453 1737h565v-103h-565v103z" />
    <glyph glyph-name="amacron" unicode="&#x101;" horiz-adv-x="1085" 
d="M422 49q110 0 172.5 89.5t62.5 209.5v246q-22 -35 -66.5 -62.5t-125.5 -60.5q-72 -30 -107.5 -55t-54 -66.5t-18.5 -109.5v-7q0 -97 30.5 -140.5t106.5 -43.5zM377 -33q-147 0 -226 70.5t-79 198.5q0 49 12.5 88.5t38 67.5t53.5 48t68.5 36t73 26.5t77.5 23.5t72 23
q79 28 125 57.5t65 69.5v80q0 105 -38.5 152.5t-143.5 47.5q-137 0 -137 -59q49 -25 49 -88q0 -50 -34 -81.5t-89 -31.5q-58 0 -90.5 35t-32.5 82q0 92 97 153.5t243 61.5q396 0 396 -377v-493q0 -57 12 -77t49 -20t82 29l22 -51q-84 -59 -188 -59q-80 0 -130 35.5
t-62 103.5h-11q-35 -73 -99.5 -112.5t-174.5 -39.5zM254 1319h500v-102h-500v102z" />
    <glyph glyph-name="Abreve" unicode="&#x102;" horiz-adv-x="1456" 
d="M647 1100l-207 -574h416l-201 574h-8zM516 76v-76h-479v76h149l521 1429h57l504 -1429h151v-76h-602v76h199l-133 375h-469l-135 -375h237zM735 1585q-100 0 -167.5 61.5t-84.5 182.5l70 18q10 -49 36.5 -75.5t59.5 -33.5t86 -7q81 0 125 23t60 93l69 -18
q-20 -121 -87 -182.5t-167 -61.5z" />
    <glyph glyph-name="abreve" unicode="&#x103;" horiz-adv-x="1085" 
d="M422 49q110 0 172.5 89.5t62.5 209.5v246q-22 -35 -66.5 -62.5t-125.5 -60.5q-72 -30 -107.5 -55t-54 -66.5t-18.5 -109.5v-7q0 -97 30.5 -140.5t106.5 -43.5zM377 -33q-147 0 -226 70.5t-79 198.5q0 49 12.5 88.5t38 67.5t53.5 48t68.5 36t73 26.5t77.5 23.5t72 23
q79 28 125 57.5t65 69.5v80q0 105 -38.5 152.5t-143.5 47.5q-137 0 -137 -59q49 -25 49 -88q0 -50 -34 -81.5t-89 -31.5q-58 0 -90.5 35t-32.5 82q0 92 97 153.5t243 61.5q396 0 396 -377v-493q0 -57 12 -77t49 -20t82 29l22 -51q-84 -59 -188 -59q-80 0 -130 35.5
t-62 103.5h-11q-35 -73 -99.5 -112.5t-174.5 -39.5zM504 1171q-94 0 -158.5 69t-81.5 196l68 16q31 -141 172 -141q142 0 174 141l67 -16q-20 -127 -84 -196t-157 -69z" />
    <glyph glyph-name="Aogonek" unicode="&#x104;" horiz-adv-x="1456" 
d="M647 1100l-207 -574h416l-201 574h-8zM1051 -397l45 -39q-30 -37 -79 -64.5t-110 -27.5q-99 0 -155 45.5t-56 134.5q0 42 17 81.5t54.5 81t71 72.5t92.5 82t93 82l-141 400h-469l-135 -375h237v-76h-479v76h149l521 1429h57l504 -1429h151v-76h-358q-91 -108 -131.5 -181
t-40.5 -153v-8q0 -98 78 -98q50 0 84 43z" />
    <glyph glyph-name="aogonek" unicode="&#x105;" horiz-adv-x="1085" 
d="M805 -528q-99 0 -156 45.5t-57 134.5q0 40 17 78t50.5 74t62.5 62t75.5 63t66.5 55q-12 -4 -18 -4q-74 0 -122.5 36t-61.5 103h-11q-35 -73 -99.5 -112.5t-174.5 -39.5q-147 0 -226 70.5t-79 198.5q0 49 12.5 88.5t38 67.5t53.5 48t68.5 36t73 26.5t77.5 23.5t72 23
q79 28 125 57.5t65 69.5v80q0 105 -38.5 152.5t-143.5 47.5q-137 0 -137 -59q49 -25 49 -88q0 -50 -34 -81.5t-89 -31.5q-58 0 -90.5 35t-32.5 82q0 92 97 153.5t243 61.5q396 0 396 -377v-493q0 -57 12 -77t49 -20q30 0 82 29l20 -53q-35 -21 -55 -35t-50.5 -42t-60.5 -66
q-88 -109 -88 -228v-8q0 -98 78 -98q50 0 84 43l43 -39q-28 -37 -76.5 -64.5t-109.5 -27.5zM422 49q110 0 172.5 89.5t62.5 209.5v246q-22 -35 -66.5 -62.5t-125.5 -60.5q-72 -30 -107.5 -55t-54 -66.5t-18.5 -109.5v-7q0 -97 30.5 -140.5t106.5 -43.5z" />
    <glyph glyph-name="Cacute" unicode="&#x106;" horiz-adv-x="1427" 
d="M809 -47q-141 0 -270 55t-226 152t-155 240.5t-58 308.5t58.5 313t156 252.5t229 165.5t273.5 61q81 0 152 -19.5t117 -39t65 -19.5q27 0 39.5 13.5t17.5 40.5h70v-467h-70q-35 227 -132.5 321t-258.5 94q-69 0 -128 -17t-118 -64t-100 -121t-66.5 -197.5t-25.5 -284.5
v-53q0 -161 25.5 -282t65.5 -191.5t99 -113.5t115.5 -57.5t124.5 -14.5q170 0 279.5 106.5t144.5 349.5h72v-481h-70q-9 43 -61 43q-22 0 -59 -14.5t-74 -32.5t-100.5 -32.5t-131.5 -14.5zM709 1575q64 105 88 293h221q-29 -76 -100.5 -159t-151.5 -134h-57z" />
    <glyph glyph-name="cacute" unicode="&#x107;" horiz-adv-x="1034" 
d="M602 1036q159 0 248.5 -61.5t89.5 -157.5q0 -58 -34 -95.5t-93 -37.5q-58 0 -93.5 36t-35.5 85q0 73 55 98q-10 62 -147 62q-41 0 -78 -12t-74 -43.5t-63.5 -80t-43 -128.5t-16.5 -183v-39q0 -432 285 -432q213 0 295 203l74 -29q-97 -252 -389 -252q-121 0 -218.5 41.5
t-160 113t-96 167t-33.5 205.5q0 148 69.5 272t191 196t267.5 72zM481 1159q41 54 75.5 152t41.5 184h209q-27 -97 -104.5 -188.5t-165.5 -147.5h-56z" />
    <glyph glyph-name="Ccircumflex" unicode="&#x108;" horiz-adv-x="1427" 
d="M809 -47q-141 0 -270 55t-226 152t-155 240.5t-58 308.5t58.5 313t156 252.5t229 165.5t273.5 61q81 0 152 -19.5t117 -39t65 -19.5q27 0 39.5 13.5t17.5 40.5h70v-467h-70q-35 227 -132.5 321t-258.5 94q-69 0 -128 -17t-118 -64t-100 -121t-66.5 -197.5t-25.5 -284.5
v-53q0 -161 25.5 -282t65.5 -191.5t99 -113.5t115.5 -57.5t124.5 -14.5q170 0 279.5 106.5t144.5 349.5h72v-481h-70q-9 43 -61 43q-22 0 -59 -14.5t-74 -32.5t-100.5 -32.5t-131.5 -14.5zM893 1575l-141 176l-140 -176h-82l232 291h84l235 -291h-188z" />
    <glyph glyph-name="ccircumflex" unicode="&#x109;" horiz-adv-x="1034" 
d="M602 1036q159 0 248.5 -61.5t89.5 -157.5q0 -58 -34 -95.5t-93 -37.5q-58 0 -93.5 36t-35.5 85q0 73 55 98q-10 62 -147 62q-41 0 -78 -12t-74 -43.5t-63.5 -80t-43 -128.5t-16.5 -183v-39q0 -432 285 -432q213 0 295 203l74 -29q-97 -252 -389 -252q-121 0 -218.5 41.5
t-160 113t-96 167t-33.5 205.5q0 148 69.5 272t191 196t267.5 72zM674 1159l-137 199l-138 -199h-80l222 322h84l221 -322h-172z" />
    <glyph glyph-name="Cdotaccent" unicode="&#x10a;" horiz-adv-x="1427" 
d="M809 -47q-141 0 -270 55t-226 152t-155 240.5t-58 308.5t58.5 313t156 252.5t229 165.5t273.5 61q81 0 152 -19.5t117 -39t65 -19.5q27 0 39.5 13.5t17.5 40.5h70v-467h-70q-35 227 -132.5 321t-258.5 94q-69 0 -128 -17t-118 -64t-100 -121t-66.5 -197.5t-25.5 -284.5
v-53q0 -161 25.5 -282t65.5 -191.5t99 -113.5t115.5 -57.5t124.5 -14.5q170 0 279.5 106.5t144.5 349.5h72v-481h-70q-9 43 -61 43q-22 0 -59 -14.5t-74 -32.5t-100.5 -32.5t-131.5 -14.5zM803 1841q57 0 94 -37t37 -94t-37 -94t-94 -37q-55 0 -92 37.5t-37 93.5t37 93.5
t92 37.5z" />
    <glyph glyph-name="cdotaccent" unicode="&#x10b;" horiz-adv-x="1034" 
d="M602 1036q159 0 248.5 -61.5t89.5 -157.5q0 -58 -34 -95.5t-93 -37.5q-58 0 -93.5 36t-35.5 85q0 73 55 98q-10 62 -147 62q-41 0 -78 -12t-74 -43.5t-63.5 -80t-43 -128.5t-16.5 -183v-39q0 -432 285 -432q213 0 295 203l74 -29q-97 -252 -389 -252q-121 0 -218.5 41.5
t-160 113t-96 167t-33.5 205.5q0 148 69.5 272t191 196t267.5 72zM573 1456q57 0 94.5 -37t37.5 -94t-37.5 -94t-94.5 -37q-55 0 -92 37t-37 94t37 94t92 37z" />
    <glyph glyph-name="Ccaron" unicode="&#x10c;" horiz-adv-x="1427" 
d="M809 -47q-141 0 -270 55t-226 152t-155 240.5t-58 308.5t58.5 313t156 252.5t229 165.5t273.5 61q81 0 152 -19.5t117 -39t65 -19.5q27 0 39.5 13.5t17.5 40.5h70v-467h-70q-35 227 -132.5 321t-258.5 94q-69 0 -128 -17t-118 -64t-100 -121t-66.5 -197.5t-25.5 -284.5
v-53q0 -161 25.5 -282t65.5 -191.5t99 -113.5t115.5 -57.5t124.5 -14.5q170 0 279.5 106.5t144.5 349.5h72v-481h-70q-9 43 -61 43q-22 0 -59 -14.5t-74 -32.5t-100.5 -32.5t-131.5 -14.5zM764 1575l-236 291h189l141 -176l139 176h82l-231 -291h-84z" />
    <glyph glyph-name="ccaron" unicode="&#x10d;" horiz-adv-x="1034" 
d="M602 1036q159 0 248.5 -61.5t89.5 -157.5q0 -58 -34 -95.5t-93 -37.5q-58 0 -93.5 36t-35.5 85q0 73 55 98q-10 62 -147 62q-41 0 -78 -12t-74 -43.5t-63.5 -80t-43 -128.5t-16.5 -183v-39q0 -432 285 -432q213 0 295 203l74 -29q-97 -252 -389 -252q-121 0 -218.5 41.5
t-160 113t-96 167t-33.5 205.5q0 148 69.5 272t191 196t267.5 72zM526 1157l-221 322h172l137 -199l138 199h79l-221 -322h-84z" />
    <glyph glyph-name="Dcaron" unicode="&#x10e;" horiz-adv-x="1558" 
d="M72 1475h592q124 0 240 -31t216.5 -94t176 -152t118.5 -213t43 -268q0 -147 -43 -268t-116.5 -203t-173 -138.5t-209.5 -82t-230 -25.5h-614v76h221v1323h-221v76zM655 1399h-110v-1323h133q86 0 158.5 18.5t137 63t109.5 114t71 176t26 244.5v70q0 177 -36.5 302
t-107 197.5t-164 105t-217.5 32.5zM672 1575l-236 291h189l141 -176l139 176h82l-231 -291h-84z" />
    <glyph glyph-name="dcaron" unicode="&#x10f;" horiz-adv-x="1255" 
d="M557 942q-120 0 -173.5 -89.5t-53.5 -307.5v-115q0 -201 53 -291t180 -90q45 0 89.5 20.5t83.5 59.5t63 106.5t24 151.5v231q0 82 -23.5 146.5t-63 102t-85 56.5t-94.5 19zM631 1540h409v-1464h154v-76h-375v152h-10q-23 -74 -99.5 -128.5t-189.5 -54.5
q-117 0 -218.5 66.5t-162.5 186.5t-61 267q0 148 59.5 271t164 193.5t230.5 70.5q199 0 277 -162h10v602h-188v76zM1137 1182l34 358h158v-20l-151 -338h-41z" />
    <glyph glyph-name="Dcroat" unicode="&#x110;" horiz-adv-x="1558" 
d="M686 0h-614v76h221v655h-213v76h213v592h-221v76h592q124 0 240 -31t216.5 -94t176 -152t118.5 -213t43 -268q0 -147 -43 -268t-116.5 -203t-173 -138.5t-209.5 -82t-230 -25.5zM545 76h133q86 0 158.5 18.5t137 63t109.5 114t71 176t26 244.5v70q0 177 -36.5 302
t-107 197.5t-164 105t-217.5 32.5h-110v-592h321v-76h-321v-655z" />
    <glyph glyph-name="dcroat" unicode="&#x111;" horiz-adv-x="1255" 
d="M631 1540h409v-254h162v-76h-162v-1134h154v-76h-375v152h-10q-23 -74 -99.5 -128.5t-189.5 -54.5q-117 0 -218.5 66.5t-162.5 186.5t-61 267q0 148 59.5 271t164 193.5t230.5 70.5q199 0 277 -162h10v348h-360v76h360v178h-188v76zM557 942q-120 0 -173.5 -89.5
t-53.5 -307.5v-115q0 -201 53 -291t180 -90q45 0 89.5 20.5t83.5 59.5t63 106.5t24 151.5v231q0 82 -23.5 146.5t-63 102t-85 56.5t-94.5 19z" />
    <glyph glyph-name="Emacron" unicode="&#x112;" horiz-adv-x="1400" 
d="M1311 473v-473h-1239v76h221v1323h-221v76h1118v-412h-70q-15 72 -29 119t-37.5 87.5t-52.5 63t-75.5 39t-105.5 22t-144 5.5h-131v-602h96q33 0 58.5 2.5t46 10.5t34.5 15t26 24.5t19 30.5t15 41.5t12 48.5l12 60h68v-510h-68q-10 41 -16 61t-15.5 46.5t-19.5 38t-25 25
t-35.5 18.5t-47.5 8.5t-64 3.5h-96v-645h162q110 0 187 7.5t134.5 28t92 47t59 76t37 102t24.5 136.5h70zM436 1737h565v-103h-565v103z" />
    <glyph glyph-name="emacron" unicode="&#x113;" horiz-adv-x="1056" 
d="M317 602v-6h420v33q0 169 -42 250.5t-150 81.5q-106 0 -167 -94t-61 -265zM924 233l67 -34q-46 -102 -146 -166t-257 -64q-129 0 -230.5 45.5t-161.5 122.5t-91 171t-31 198q0 117 41.5 217.5t109 166t151 102t169.5 36.5q198 0 313 -128.5t115 -328.5q0 -26 -8.5 -37.5
t-32.5 -11.5h-615v-76q0 -187 72.5 -293t226.5 -106q215 0 308 186zM303 1319h500v-102h-500v102z" />
    <glyph glyph-name="Ebreve" unicode="&#x114;" horiz-adv-x="1400" 
d="M1311 473v-473h-1239v76h221v1323h-221v76h1118v-412h-70q-15 72 -29 119t-37.5 87.5t-52.5 63t-75.5 39t-105.5 22t-144 5.5h-131v-602h96q33 0 58.5 2.5t46 10.5t34.5 15t26 24.5t19 30.5t15 41.5t12 48.5l12 60h68v-510h-68q-10 41 -16 61t-15.5 46.5t-19.5 38t-25 25
t-35.5 18.5t-47.5 8.5t-64 3.5h-96v-645h162q110 0 187 7.5t134.5 28t92 47t59 76t37 102t24.5 136.5h70zM719 1585q-100 0 -167.5 61.5t-84.5 182.5l70 18q10 -49 36.5 -75.5t59.5 -33.5t86 -7q81 0 124.5 23t59.5 93l70 -18q-20 -121 -87 -182.5t-167 -61.5z" />
    <glyph glyph-name="ebreve" unicode="&#x115;" horiz-adv-x="1056" 
d="M317 602v-6h420v33q0 169 -42 250.5t-150 81.5q-106 0 -167 -94t-61 -265zM924 233l67 -34q-46 -102 -146 -166t-257 -64q-129 0 -230.5 45.5t-161.5 122.5t-91 171t-31 198q0 117 41.5 217.5t109 166t151 102t169.5 36.5q198 0 313 -128.5t115 -328.5q0 -26 -8.5 -37.5
t-32.5 -11.5h-615v-76q0 -187 72.5 -293t226.5 -106q215 0 308 186zM553 1171q-94 0 -158.5 69t-81.5 196l68 16q31 -141 172 -141q142 0 174 141l68 -16q-20 -127 -84 -196t-158 -69z" />
    <glyph glyph-name="Edotaccent" unicode="&#x116;" horiz-adv-x="1400" 
d="M1311 473v-473h-1239v76h221v1323h-221v76h1118v-412h-70q-15 72 -29 119t-37.5 87.5t-52.5 63t-75.5 39t-105.5 22t-144 5.5h-131v-602h96q33 0 58.5 2.5t46 10.5t34.5 15t26 24.5t19 30.5t15 41.5t12 48.5l12 60h68v-510h-68q-10 41 -16 61t-15.5 46.5t-19.5 38t-25 25
t-35.5 18.5t-47.5 8.5t-64 3.5h-96v-645h162q110 0 187 7.5t134.5 28t92 47t59 76t37 102t24.5 136.5h70zM719 1841q57 0 94 -37t37 -94t-37 -94t-94 -37q-55 0 -92 37.5t-37 93.5t37 93.5t92 37.5z" />
    <glyph glyph-name="edotaccent" unicode="&#x117;" horiz-adv-x="1056" 
d="M317 602v-6h420v33q0 169 -42 250.5t-150 81.5q-106 0 -167 -94t-61 -265zM924 233l67 -34q-46 -102 -146 -166t-257 -64q-129 0 -230.5 45.5t-161.5 122.5t-91 171t-31 198q0 117 41.5 217.5t109 166t151 102t169.5 36.5q198 0 313 -128.5t115 -328.5q0 -26 -8.5 -37.5
t-32.5 -11.5h-615v-76q0 -187 72.5 -293t226.5 -106q215 0 308 186zM551 1456q57 0 94 -37t37 -94t-37 -94t-94 -37q-55 0 -92 37t-37 94t37 94t92 37z" />
    <glyph glyph-name="Eogonek" unicode="&#x118;" horiz-adv-x="1400" 
d="M1311 473v-473h-1239v76h221v1323h-221v76h1118v-412h-70q-15 72 -29 119t-37.5 87.5t-52.5 63t-75.5 39t-105.5 22t-144 5.5h-131v-602h96q33 0 58.5 2.5t46 10.5t34.5 15t26 24.5t19 30.5t15 41.5t12 48.5l12 60h68v-510h-68q-10 41 -16 61t-15.5 46.5t-19.5 38t-25 25
t-35.5 18.5t-47.5 8.5t-64 3.5h-96v-645h162q110 0 187 7.5t134.5 28t92 47t59 76t37 102t24.5 136.5h70zM723 -348q0 43 20 84t55 78t69.5 66t78.5 64t66 56h78q-91 -108 -131.5 -181t-40.5 -153v-8q0 -98 77 -98q41 0 84 43l43 -39q-28 -37 -77 -64.5t-111 -27.5
q-97 0 -154 46t-57 134z" />
    <glyph glyph-name="eogonek" unicode="&#x119;" horiz-adv-x="1056" 
d="M317 602v-6h420v33q0 169 -42 250.5t-150 81.5q-106 0 -167 -94t-61 -265zM780 -397l43 -39q-28 -36 -77 -64t-109 -28q-99 0 -156 45.5t-57 134.5q0 40 16.5 78t49.5 74.5t61.5 62t76 63t68.5 56.5q-60 -17 -108 -17q-129 0 -230.5 45.5t-161.5 122.5t-91 171t-31 198
q0 117 41.5 217.5t109 166t151 102t169.5 36.5q198 0 313 -128.5t115 -328.5q0 -26 -8.5 -37.5t-32.5 -11.5h-615v-76q0 -187 72.5 -293t226.5 -106q215 0 308 186l67 -34q-38 -88 -160 -185q-101 -85 -157 -167t-56 -181v-8q0 -98 78 -98q41 0 84 43z" />
    <glyph glyph-name="Ecaron" unicode="&#x11a;" horiz-adv-x="1400" 
d="M1311 473v-473h-1239v76h221v1323h-221v76h1118v-412h-70q-15 72 -29 119t-37.5 87.5t-52.5 63t-75.5 39t-105.5 22t-144 5.5h-131v-602h96q33 0 58.5 2.5t46 10.5t34.5 15t26 24.5t19 30.5t15 41.5t12 48.5l12 60h68v-510h-68q-10 41 -16 61t-15.5 46.5t-19.5 38t-25 25
t-35.5 18.5t-47.5 8.5t-64 3.5h-96v-645h162q110 0 187 7.5t134.5 28t92 47t59 76t37 102t24.5 136.5h70zM678 1575l-236 291h189l141 -176l139 176h82l-231 -291h-84z" />
    <glyph glyph-name="ecaron" unicode="&#x11b;" horiz-adv-x="1056" 
d="M317 602v-6h420v33q0 169 -42 250.5t-150 81.5q-106 0 -167 -94t-61 -265zM924 233l67 -34q-46 -102 -146 -166t-257 -64q-129 0 -230.5 45.5t-161.5 122.5t-91 171t-31 198q0 117 41.5 217.5t109 166t151 102t169.5 36.5q198 0 313 -128.5t115 -328.5q0 -26 -8.5 -37.5
t-32.5 -11.5h-615v-76q0 -187 72.5 -293t226.5 -106q215 0 308 186zM504 1157l-221 322h172l137 -199l137 199h80l-221 -322h-84z" />
    <glyph glyph-name="Gcircumflex" unicode="&#x11c;" horiz-adv-x="1562" 
d="M1208 53q-31 0 -74.5 -15.5t-84 -34.5t-109.5 -34.5t-145 -15.5q-138 0 -265 56t-222 154.5t-151.5 242t-56.5 309.5q0 163 58 309.5t155 250.5t226.5 165t269.5 61q66 0 124.5 -11t91 -24.5t65.5 -24.5t55 -11q27 0 39.5 12t19.5 35h68v-488h-70q-52 237 -148 336.5
t-245 99.5q-67 0 -124.5 -16.5t-115.5 -62.5t-98.5 -119.5t-66 -195.5t-25.5 -283v-70q0 -114 14 -209t38 -161t58 -116.5t70 -80.5t78.5 -49t80 -26t77.5 -7q142 0 227.5 54.5t85.5 174.5v215h-252v76h664v-76h-162v-154q0 -83 8 -182.5t16 -130.5h-69q-35 47 -105 47z
M905 1575l-141 176l-139 -176h-82l231 291h84l236 -291h-189z" />
    <glyph glyph-name="gcircumflex" unicode="&#x11d;" horiz-adv-x="1105" 
d="M510 969q-168 0 -168 -238v-47q0 -262 168 -262q166 0 166 260v47q0 240 -166 240zM1012 -109q0 -99 -39.5 -177.5t-107 -126.5t-152 -73.5t-178.5 -25.5q-124 0 -226.5 28.5t-168.5 91t-66 148.5q0 150 252 219v11q-118 4 -188 69.5t-70 171.5q0 165 147 258
q-86 99 -86 213q0 131 112.5 236.5t268.5 105.5q165 0 287 -122q13 46 56 79t101 33q67 0 96 -33t29 -75t-26.5 -67.5t-65.5 -25.5q-42 0 -65 25t-23 59q0 38 25 54q-36 -7 -58.5 -36t-27.5 -69q49 -76 49 -164q0 -64 -29 -126.5t-78 -111t-120 -78.5t-150 -30
q-140 0 -254 92q-86 -54 -86 -151q0 -56 38 -91.5t105 -35.5q63 0 178.5 6t210.5 6q152 0 231 -73t79 -214zM535 -438q86 0 159.5 25t122.5 80.5t49 131.5q0 95 -51 134.5t-160 39.5q-168 0 -239 -14q-25 -6 -42.5 -12t-41 -20.5t-38.5 -33t-25.5 -51.5t-10.5 -75
q0 -205 277 -205zM623 1159l-138 199l-137 -199h-80l221 322h84l222 -322h-172z" />
    <glyph glyph-name="Gbreve" unicode="&#x11e;" horiz-adv-x="1562" 
d="M1208 53q-31 0 -74.5 -15.5t-84 -34.5t-109.5 -34.5t-145 -15.5q-138 0 -265 56t-222 154.5t-151.5 242t-56.5 309.5q0 163 58 309.5t155 250.5t226.5 165t269.5 61q66 0 124.5 -11t91 -24.5t65.5 -24.5t55 -11q27 0 39.5 12t19.5 35h68v-488h-70q-52 237 -148 336.5
t-245 99.5q-67 0 -124.5 -16.5t-115.5 -62.5t-98.5 -119.5t-66 -195.5t-25.5 -283v-70q0 -114 14 -209t38 -161t58 -116.5t70 -80.5t78.5 -49t80 -26t77.5 -7q142 0 227.5 54.5t85.5 174.5v215h-252v76h664v-76h-162v-154q0 -83 8 -182.5t16 -130.5h-69q-35 47 -105 47z
M815 1585q-100 0 -167.5 61.5t-84.5 182.5l70 18q10 -49 36.5 -75.5t59.5 -33.5t86 -7q81 0 124.5 23t59.5 93l70 -18q-20 -121 -87 -182.5t-167 -61.5z" />
    <glyph glyph-name="gbreve" unicode="&#x11f;" horiz-adv-x="1105" 
d="M510 969q-168 0 -168 -238v-47q0 -262 168 -262q166 0 166 260v47q0 240 -166 240zM1012 -109q0 -99 -39.5 -177.5t-107 -126.5t-152 -73.5t-178.5 -25.5q-124 0 -226.5 28.5t-168.5 91t-66 148.5q0 150 252 219v11q-118 4 -188 69.5t-70 171.5q0 165 147 258
q-86 99 -86 213q0 131 112.5 236.5t268.5 105.5q165 0 287 -122q13 46 56 79t101 33q67 0 96 -33t29 -75t-26.5 -67.5t-65.5 -25.5q-42 0 -65 25t-23 59q0 38 25 54q-36 -7 -58.5 -36t-27.5 -69q49 -76 49 -164q0 -64 -29 -126.5t-78 -111t-120 -78.5t-150 -30
q-140 0 -254 92q-86 -54 -86 -151q0 -56 38 -91.5t105 -35.5q63 0 178.5 6t210.5 6q152 0 231 -73t79 -214zM535 -438q86 0 159.5 25t122.5 80.5t49 131.5q0 95 -51 134.5t-160 39.5q-168 0 -239 -14q-25 -6 -42.5 -12t-41 -20.5t-38.5 -33t-25.5 -51.5t-10.5 -75
q0 -205 277 -205zM524 1171q-94 0 -158 69t-81 196l67 16q31 -141 172 -141q142 0 174 141l68 -16q-20 -127 -84 -196t-158 -69z" />
    <glyph glyph-name="Gdotaccent" unicode="&#x120;" horiz-adv-x="1562" 
d="M1208 53q-31 0 -74.5 -15.5t-84 -34.5t-109.5 -34.5t-145 -15.5q-138 0 -265 56t-222 154.5t-151.5 242t-56.5 309.5q0 163 58 309.5t155 250.5t226.5 165t269.5 61q66 0 124.5 -11t91 -24.5t65.5 -24.5t55 -11q27 0 39.5 12t19.5 35h68v-488h-70q-52 237 -148 336.5
t-245 99.5q-67 0 -124.5 -16.5t-115.5 -62.5t-98.5 -119.5t-66 -195.5t-25.5 -283v-70q0 -114 14 -209t38 -161t58 -116.5t70 -80.5t78.5 -49t80 -26t77.5 -7q142 0 227.5 54.5t85.5 174.5v215h-252v76h664v-76h-162v-154q0 -83 8 -182.5t16 -130.5h-69q-35 47 -105 47z
M815 1841q57 0 94 -37t37 -94t-37 -94t-94 -37q-55 0 -92 37.5t-37 93.5t37 93.5t92 37.5z" />
    <glyph glyph-name="gdotaccent" unicode="&#x121;" horiz-adv-x="1105" 
d="M510 969q-168 0 -168 -238v-47q0 -262 168 -262q166 0 166 260v47q0 240 -166 240zM1012 -109q0 -99 -39.5 -177.5t-107 -126.5t-152 -73.5t-178.5 -25.5q-124 0 -226.5 28.5t-168.5 91t-66 148.5q0 150 252 219v11q-118 4 -188 69.5t-70 171.5q0 165 147 258
q-86 99 -86 213q0 131 112.5 236.5t268.5 105.5q165 0 287 -122q13 46 56 79t101 33q67 0 96 -33t29 -75t-26.5 -67.5t-65.5 -25.5q-42 0 -65 25t-23 59q0 38 25 54q-36 -7 -58.5 -36t-27.5 -69q49 -76 49 -164q0 -64 -29 -126.5t-78 -111t-120 -78.5t-150 -30
q-140 0 -254 92q-86 -54 -86 -151q0 -56 38 -91.5t105 -35.5q63 0 178.5 6t210.5 6q152 0 231 -73t79 -214zM535 -438q86 0 159.5 25t122.5 80.5t49 131.5q0 95 -51 134.5t-160 39.5q-168 0 -239 -14q-25 -6 -42.5 -12t-41 -20.5t-38.5 -33t-25.5 -51.5t-10.5 -75
q0 -205 277 -205zM522 1456q57 0 94 -37t37 -94t-37 -94t-94 -37q-54 0 -91.5 37t-37.5 94t37.5 94t91.5 37z" />
    <glyph glyph-name="uni0122" unicode="&#x122;" horiz-adv-x="1562" 
d="M1208 53q-31 0 -74.5 -15.5t-84 -34.5t-109.5 -34.5t-145 -15.5q-138 0 -265 56t-222 154.5t-151.5 242t-56.5 309.5q0 163 58 309.5t155 250.5t226.5 165t269.5 61q66 0 124.5 -11t91 -24.5t65.5 -24.5t55 -11q27 0 39.5 12t19.5 35h68v-488h-70q-52 237 -148 336.5
t-245 99.5q-67 0 -124.5 -16.5t-115.5 -62.5t-98.5 -119.5t-66 -195.5t-25.5 -283v-70q0 -114 14 -209t38 -161t58 -116.5t70 -80.5t78.5 -49t80 -26t77.5 -7q142 0 227.5 54.5t85.5 174.5v215h-252v76h664v-76h-162v-154q0 -83 8 -182.5t16 -130.5h-69q-35 47 -105 47z
M686 -504l-20 58q87 30 119 66.5t32 94.5v9q-28 -31 -65 -31q-43 0 -70 24t-27 70t33 74t82 28q62 0 100.5 -41.5t38.5 -117.5q0 -178 -223 -234z" />
    <glyph glyph-name="uni0123" unicode="&#x123;" horiz-adv-x="1105" 
d="M510 969q-168 0 -168 -238v-47q0 -262 168 -262q166 0 166 260v47q0 240 -166 240zM1012 -109q0 -99 -39.5 -177.5t-107 -126.5t-152 -73.5t-178.5 -25.5q-124 0 -226.5 28.5t-168.5 91t-66 148.5q0 150 252 219v11q-118 4 -188 69.5t-70 171.5q0 165 147 258
q-86 99 -86 213q0 131 112.5 236.5t268.5 105.5q165 0 287 -122q13 46 56 79t101 33q67 0 96 -33t29 -75t-26.5 -67.5t-65.5 -25.5q-42 0 -65 25t-23 59q0 38 25 54q-36 -7 -58.5 -36t-27.5 -69q49 -76 49 -164q0 -64 -29 -126.5t-78 -111t-120 -78.5t-150 -30
q-140 0 -254 92q-86 -54 -86 -151q0 -56 38 -91.5t105 -35.5q63 0 178.5 6t210.5 6q152 0 231 -73t79 -214zM535 -438q86 0 159.5 25t122.5 80.5t49 131.5q0 95 -51 134.5t-160 39.5q-168 0 -239 -14q-25 -6 -42.5 -12t-41 -20.5t-38.5 -33t-25.5 -51.5t-10.5 -75
q0 -205 277 -205zM539 1169q-62 0 -101 42t-39 118q0 178 224 234l20 -58q-87 -29 -119 -66t-32 -96v-8q28 31 65 31q43 0 69.5 -24t26.5 -70t-33 -74.5t-81 -28.5z" />
    <glyph glyph-name="Hcircumflex" unicode="&#x124;" horiz-adv-x="1695" 
d="M748 76v-76h-676v76h221v1323h-221v76h676v-76h-203v-606h606v606h-205v76h678v-76h-221v-1323h221v-76h-678v76h205v639h-606v-639h203zM938 1575l-141 176l-140 -176h-82l232 291h84l235 -291h-188z" />
    <glyph glyph-name="hcircumflex" unicode="&#x125;" horiz-adv-x="1275" 
d="M594 76v-76h-533v76h146v1388h-174v76h395v-719h10q16 38 40 71.5t59.5 65.5t87 51t112.5 19q148 0 240 -90.5t92 -257.5v-604h145v-76h-514v76h148v725q0 68 -36.5 106.5t-106.5 38.5q-69 0 -123 -35t-87 -96.5t-50 -140t-17 -168.5v-430h166zM735 1634l-141 176
l-139 -176h-82l231 291h84l236 -291h-189z" />
    <glyph glyph-name="Hbar" unicode="&#x126;" horiz-adv-x="1695" 
d="M748 76v-76h-676v76h221v962h-236v76h236v285h-221v76h676v-76h-203v-285h606v285h-205v76h678v-76h-221v-285h219v-76h-219v-962h221v-76h-678v76h205v639h-606v-639h203zM545 793h606v245h-606v-245z" />
    <glyph glyph-name="hbar" unicode="&#x127;" horiz-adv-x="1275" 
d="M594 76v-76h-533v76h146v1134h-195v76h195v178h-174v76h395v-254h330v-76h-330v-389h10q16 38 40 71.5t59.5 65.5t87 51t112.5 19q148 0 240 -90.5t92 -257.5v-604h145v-76h-514v76h148v725q0 68 -36.5 106.5t-106.5 38.5q-69 0 -123 -35t-87 -96.5t-50 -140t-17 -168.5
v-430h166z" />
    <glyph glyph-name="Itilde" unicode="&#x128;" horiz-adv-x="837" 
d="M72 0v76h221v1323h-221v76h694v-76h-221v-1323h221v-76h-694zM553 1640q-47 0 -150 13.5t-127 13.5q-33 0 -53 -20.5t-37 -73.5l-61 18q19 105 64 164.5t108 59.5q48 0 149 -14.5t127 -14.5q33 0 54 18.5t37 75.5l61 -20q-18 -107 -66 -163.5t-106 -56.5z" />
    <glyph glyph-name="itilde" unicode="&#x129;" horiz-adv-x="636" 
d="M61 0v76h146v846h-174v75h395v-921h150v-76h-517zM416 1227q-47 0 -137 20.5t-115 20.5q-32 0 -51.5 -21t-36.5 -76l-62 21q17 105 62 164t108 59q46 0 136 -21.5t116 -21.5q33 0 52.5 18.5t35.5 75.5l62 -20q-18 -107 -65 -163t-105 -56z" />
    <glyph glyph-name="Imacron" unicode="&#x12a;" horiz-adv-x="837" 
d="M72 0v76h221v1323h-221v76h694v-76h-221v-1323h221v-76h-694zM135 1737h565v-103h-565v103z" />
    <glyph glyph-name="imacron" unicode="&#x12b;" horiz-adv-x="636" 
d="M61 0v76h146v846h-174v75h395v-921h150v-76h-517zM47 1319h500v-102h-500v102z" />
    <glyph glyph-name="Ibreve" unicode="&#x12c;" horiz-adv-x="837" 
d="M72 0v76h221v1323h-221v76h694v-76h-221v-1323h221v-76h-694zM418 1585q-100 0 -167.5 61.5t-84.5 182.5l70 18q10 -49 36.5 -75.5t59.5 -33.5t86 -7q81 0 124.5 23t59.5 93l70 -18q-20 -121 -87 -182.5t-167 -61.5z" />
    <glyph glyph-name="ibreve" unicode="&#x12d;" horiz-adv-x="636" 
d="M61 0v76h146v846h-174v75h395v-921h150v-76h-517zM297 1171q-94 0 -158.5 69t-81.5 196l68 16q31 -141 172 -141q142 0 174 141l68 -16q-20 -127 -84 -196t-158 -69z" />
    <glyph glyph-name="Iogonek" unicode="&#x12e;" horiz-adv-x="837" 
d="M72 0v76h221v1323h-221v76h694v-76h-221v-1323h221v-76h-225q-85 -114 -121.5 -184.5t-36.5 -149.5v-8q0 -98 78 -98q50 0 84 43l45 -39q-30 -37 -79 -64.5t-110 -27.5q-96 0 -153.5 47t-57.5 133q0 53 32.5 107t71.5 89t92.5 80.5t76.5 71.5h-391z" />
    <glyph glyph-name="iogonek" unicode="&#x12f;" horiz-adv-x="624" 
d="M61 0v76h146v846h-174v75h395v-921h150v-76h-150q-84 -108 -121 -181t-37 -153v-8q0 -98 78 -98q50 0 84 43l45 -39q-30 -37 -78.5 -64.5t-109.5 -27.5q-96 0 -154.5 47t-58.5 133q0 53 32 106.5t70.5 88.5t93.5 81.5t78 71.5h-289zM303 1520q56 0 93.5 -36.5t37.5 -92.5
q0 -59 -37 -95t-94 -36q-55 0 -92 36t-37 95q0 56 37 92.5t92 36.5z" />
    <glyph glyph-name="Idotaccent" unicode="&#x130;" horiz-adv-x="837" 
d="M72 0v76h221v1323h-221v76h694v-76h-221v-1323h221v-76h-694zM418 1841q57 0 94 -37t37 -94t-37 -94t-94 -37q-54 0 -91.5 37.5t-37.5 93.5t37.5 93.5t91.5 37.5z" />
    <glyph glyph-name="dotlessi" unicode="&#x131;" horiz-adv-x="636" 
d="M61 0v76h146v846h-174v75h395v-921h150v-76h-517z" />
    <glyph glyph-name="IJ" unicode="&#x132;" horiz-adv-x="1812" 
d="M72 0v76h221v1323h-221v76h694v-76h-221v-1323h184v-76h-657zM1536 1399v-961q0 -213 -127.5 -338t-331.5 -125q-131 0 -213 59.5t-82 155.5q0 58 38.5 100t101.5 42q62 0 96.5 -38t34.5 -99q0 -38 -18 -67.5t-48 -43.5q12 -33 82 -33q98 0 156.5 63.5t58.5 196.5v1088
h-221v76h692v-76h-219z" />
    <glyph glyph-name="ij" unicode="&#x133;" horiz-adv-x="1212" 
d="M303 1520q56 0 93.5 -36.5t37.5 -92.5q0 -59 -37 -95t-94 -36q-55 0 -92 36t-37 95q0 56 37 92.5t92 36.5zM61 0v76h146v846h-174v75h395v-921h150v-76h-517zM901 1520q57 0 94 -36t37 -93q0 -59 -36.5 -95t-94.5 -36q-55 0 -92 36t-37 95q0 56 37 92.5t92 36.5z
M1024 997v-1144q0 -167 -95 -267t-263 -100q-107 0 -171.5 44.5t-64.5 127.5q0 44 31.5 77.5t83.5 33.5t81 -32t29 -77q0 -49 -41 -76q3 -22 54 -22q71 0 103 39t32 118v1203h-174v75h395z" />
    <glyph glyph-name="Jcircumflex" unicode="&#x134;" horiz-adv-x="1073" 
d="M797 399q0 -213 -127.5 -337.5t-331.5 -124.5q-131 0 -213 59.5t-82 155.5q0 59 38 101t101 42q61 0 96 -38.5t35 -100.5q0 -73 -65 -111q14 -33 82 -33q98 0 156.5 63.5t58.5 196.5v1127h-221v76h692v-76h-219v-1000zM762 1575l-141 176l-140 -176h-82l232 291h84
l235 -291h-188z" />
    <glyph glyph-name="jcircumflex" unicode="&#x135;" horiz-adv-x="616" 
d="M207 -281v1203h-174v75h395v-1144q0 -167 -95 -267t-263 -100q-107 0 -171.5 44.5t-64.5 127.5q0 44 31.5 77.5t83.5 33.5t81 -32t29 -77q0 -49 -41 -76q3 -22 54 -22q71 0 103 39t32 118zM395 1159l-137 199l-137 -199h-80l221 322h84l221 -322h-172z" />
    <glyph glyph-name="uni0136" unicode="&#x136;" horiz-adv-x="1626" 
d="M766 76v-76h-694v76h221v1323h-221v76h694v-76h-221v-719l635 719h-181v76h443v-76h-160l-446 -502l626 -821h123v-76h-586v76h162l-487 641l-129 -144v-497h221zM752 -504l-21 58q87 30 119.5 66.5t32.5 94.5v9q-28 -31 -66 -31q-43 0 -69.5 24t-26.5 70t33 74t82 28
q62 0 100.5 -41.5t38.5 -117.5q0 -178 -223 -234z" />
    <glyph glyph-name="uni0137" unicode="&#x137;" horiz-adv-x="1222" 
d="M578 76v-76h-517v76h146v1388h-174v76h395v-1046l403 428h-163v75h397v-75h-133l-250 -263l416 -583h80v-76h-478v76h146l-307 430l-111 -115v-315h150zM524 -504l-20 58q87 30 119 66.5t32 94.5v9q-28 -31 -65 -31q-43 0 -69.5 24t-26.5 70t32.5 74t81.5 28
q62 0 101 -41.5t39 -117.5q0 -178 -224 -234z" />
    <glyph glyph-name="Lacute" unicode="&#x139;" horiz-adv-x="1429" 
d="M72 0v76h221v1323h-221v76h700v-76h-227v-1323h207q81 0 132 1.5t102.5 9.5t80.5 18.5t59 34.5t45 50.5t32 74.5t28 99t24 130h70v-494h-1253zM332 1575q64 105 88 293h221q-29 -76 -100.5 -159t-151.5 -134h-57z" />
    <glyph glyph-name="lacute" unicode="&#x13a;" horiz-adv-x="645" 
d="M61 0v76h156v1388h-190v76h413v-1464h160v-76h-539zM229 1636q64 105 88 293h222q-29 -76 -100.5 -159t-151.5 -134h-58z" />
    <glyph glyph-name="uni013B" unicode="&#x13b;" horiz-adv-x="1429" 
d="M72 0v76h221v1323h-221v76h700v-76h-227v-1323h207q81 0 132 1.5t102.5 9.5t80.5 18.5t59 34.5t45 50.5t32 74.5t28 99t24 130h70v-494h-1253zM659 -504l-20 58q87 30 119.5 66.5t32.5 94.5v9q-28 -31 -66 -31q-43 0 -69.5 24t-26.5 70t32.5 74t81.5 28q62 0 101 -41.5
t39 -117.5q0 -178 -224 -234z" />
    <glyph glyph-name="uni013C" unicode="&#x13c;" horiz-adv-x="645" 
d="M61 0v76h156v1388h-190v76h413v-1464h160v-76h-539zM236 -504l-21 58q87 30 119.5 66.5t32.5 94.5v9q-28 -31 -66 -31q-43 0 -69.5 24t-26.5 70t32.5 74t81.5 28q62 0 101 -41.5t39 -117.5q0 -178 -223 -234z" />
    <glyph glyph-name="Lcaron" unicode="&#x13d;" horiz-adv-x="1429" 
d="M846 1161l35 359h170v-21l-164 -338h-41zM72 0v76h221v1323h-221v76h700v-76h-227v-1323h207q81 0 132 1.5t102.5 9.5t80.5 18.5t59 34.5t45 50.5t32 74.5t28 99t24 130h70v-494h-1253z" />
    <glyph glyph-name="lcaron" unicode="&#x13e;" horiz-adv-x="645" 
d="M61 0v76h156v1388h-190v76h413v-1464h160v-76h-539zM535 1182l34 358h158v-20l-152 -338h-40z" />
    <glyph glyph-name="Ldot" unicode="&#x13f;" horiz-adv-x="1429" 
d="M63 0v76h222v1323h-222v76h701v-76h-229v-1323h206q81 0 132.5 1.5t103 9t81 17t59.5 31.5t45.5 47t32.5 68.5t28 90t24 118.5h70v-459h-1254zM1257 946q61 0 101.5 -40.5t40.5 -98.5t-40.5 -98.5t-101.5 -40.5q-57 0 -98 41t-41 98t41 98t98 41z" />
    <glyph glyph-name="ldot" unicode="&#x140;" horiz-adv-x="798" 
d="M61 0v76h156v1388h-190v76h413v-1464h160v-76h-539zM723 885q59 0 97 -38t38 -93q0 -56 -38 -94.5t-97 -38.5q-55 0 -94 38.5t-39 94.5q0 54 39 92.5t94 38.5z" />
    <glyph glyph-name="Lslash" unicode="&#x141;" horiz-adv-x="1429" 
d="M72 0v76h221v428l-203 -156l-41 58l244 186v807h-221v76h700v-76h-227v-613l477 367l43 -57l-520 -400v-620h207q81 0 132 1.5t102.5 9.5t80.5 18.5t59 34.5t45 50.5t32 74.5t28 99t24 130h70v-494h-1253z" />
    <glyph glyph-name="lslash" unicode="&#x142;" horiz-adv-x="659" 
d="M61 0v76h156v596l-147 -103l-41 58l188 129v708h-190v76h413v-629l142 99l39 -58l-181 -125v-751h160v-76h-539z" />
    <glyph glyph-name="Nacute" unicode="&#x143;" horiz-adv-x="1619" 
d="M1356 -14h-86l-879 1384h-10v-1294h229v-76h-538v76h221v1323h-221v76h532l662 -1049h4v973h-230v76h516v-76h-200v-1413zM774 1575q64 105 88 293h221q-29 -76 -100.5 -159t-151.5 -134h-57z" />
    <glyph glyph-name="nacute" unicode="&#x144;" horiz-adv-x="1261" 
d="M594 76v-76h-533v76h146v846h-174v75h395v-176h10q16 38 40 71.5t59.5 65.5t87 51t112.5 19q148 0 240 -90.5t92 -257.5v-604h145v-76h-514v76h148v725q0 68 -36.5 106.5t-106.5 38.5q-69 0 -123 -35t-87 -96.5t-50 -140t-17 -168.5v-430h166zM545 1159q41 54 75.5 152
t41.5 184h208q-27 -97 -104.5 -188.5t-165.5 -147.5h-55z" />
    <glyph glyph-name="uni0145" unicode="&#x145;" horiz-adv-x="1619" 
d="M1356 -14h-86l-879 1384h-10v-1294h229v-76h-538v76h221v1323h-221v76h532l662 -1049h4v973h-230v76h516v-76h-200v-1413zM770 -504l-20 58q87 30 119 66.5t32 94.5v9q-28 -31 -65 -31q-43 0 -70 24t-27 70t33 74t82 28q62 0 100.5 -41.5t38.5 -117.5q0 -178 -223 -234z
" />
    <glyph glyph-name="uni0146" unicode="&#x146;" horiz-adv-x="1261" 
d="M594 76v-76h-533v76h146v846h-174v75h395v-176h10q16 38 40 71.5t59.5 65.5t87 51t112.5 19q148 0 240 -90.5t92 -257.5v-604h145v-76h-514v76h148v725q0 68 -36.5 106.5t-106.5 38.5q-69 0 -123 -35t-87 -96.5t-50 -140t-17 -168.5v-430h166zM547 -504l-21 58
q87 30 119.5 66.5t32.5 94.5v9q-28 -31 -66 -31q-43 0 -69.5 24t-26.5 70t33 74t82 28q62 0 100.5 -41.5t38.5 -117.5q0 -178 -223 -234z" />
    <glyph glyph-name="Ncaron" unicode="&#x147;" horiz-adv-x="1619" 
d="M1356 -14h-86l-879 1384h-10v-1294h229v-76h-538v76h221v1323h-221v76h532l662 -1049h4v973h-230v76h516v-76h-200v-1413zM829 1575l-235 291h188l142 -176l139 176h82l-232 -291h-84z" />
    <glyph glyph-name="ncaron" unicode="&#x148;" horiz-adv-x="1261" 
d="M594 76v-76h-533v76h146v846h-174v75h395v-176h10q16 38 40 71.5t59.5 65.5t87 51t112.5 19q148 0 240 -90.5t92 -257.5v-604h145v-76h-514v76h148v725q0 68 -36.5 106.5t-106.5 38.5q-69 0 -123 -35t-87 -96.5t-50 -140t-17 -168.5v-430h166zM590 1157l-221 322h172
l137 -199l137 199h80l-221 -322h-84z" />
    <glyph glyph-name="napostrophe" unicode="&#x149;" horiz-adv-x="1413" 
d="M745 76v-76h-532v76h145v846h-174v75h396v-176h10q16 38 40 71.5t59.5 65.5t87 51t112.5 19q148 0 240 -90.5t92 -257.5v-604h145v-76h-514v76h147v725q0 68 -36.5 106.5t-106.5 38.5q-91 0 -155 -62t-92.5 -159t-28.5 -219v-430h165zM-23 971l-30 55q82 45 131 108
t49 134q0 10 -4 30q-35 -41 -90 -41q-45 0 -80 30.5t-35 84.5q0 55 40.5 91t100.5 36q76 0 125 -50.5t49 -133.5q0 -62 -20.5 -115.5t-59 -95t-80 -72.5t-96.5 -61z" />
    <glyph glyph-name="Eng" unicode="&#x14a;" horiz-adv-x="1622" 
d="M1047 -481q-132 0 -213.5 63.5t-81.5 157.5q0 59 37 100t100 41q64 0 97.5 -37.5t33.5 -99.5q0 -83 -66 -111q10 -39 93 -39q105 0 165 70t60 217v105l-881 1384h-10v-1294h231v-76h-540v76h223v1323h-223v76h532l662 -1049h6v973h-232v76h516v-76h-200v-1518
q0 -165 -79.5 -263.5t-229.5 -98.5z" />
    <glyph glyph-name="eng" unicode="&#x14b;" horiz-adv-x="1224" 
d="M711 -514q-107 0 -172.5 44.5t-65.5 127.5q0 44 32.5 77.5t84.5 33.5q51 0 79.5 -31.5t28.5 -77.5q0 -49 -41 -76q6 -22 54 -22q78 0 107.5 33.5t29.5 123.5v1082q0 68 -36.5 106.5t-106.5 38.5q-69 0 -123 -35t-87 -96.5t-50 -140t-17 -168.5v-430h166v-76h-533v76h146
v846h-174v75h395v-176h10q16 38 40 71.5t59.5 65.5t87 51t112.5 19q148 0 240 -90.5t92 -257.5v-823q0 -165 -96.5 -268t-261.5 -103z" />
    <glyph glyph-name="Omacron" unicode="&#x14c;" horiz-adv-x="1595" 
d="M799 1503q104 0 206.5 -38.5t190 -111t155 -169.5t106 -222t38.5 -260q0 -171 -59.5 -315t-157.5 -238t-222.5 -146t-256.5 -52q-133 0 -258.5 54.5t-223.5 151t-157.5 243t-59.5 317.5q0 167 59.5 315.5t157 250.5t224 161t258.5 59zM799 1427q-78 0 -141.5 -22.5
t-116 -73t-88 -128.5t-55 -192.5t-19.5 -262.5v-78q0 -147 21.5 -259.5t58 -184t91 -117t115 -64t134.5 -18.5q75 0 135.5 18.5t114 63.5t90 117t57.5 184.5t21 259.5v78q0 184 -29.5 316.5t-85.5 211t-131 115t-172 36.5zM514 1737h565v-103h-565v103z" />
    <glyph glyph-name="omacron" unicode="&#x14d;" horiz-adv-x="1148" 
d="M573 1036q97 0 189 -42t161.5 -113.5t111.5 -175.5t42 -220t-43 -216t-114 -166.5t-161.5 -104t-185.5 -37.5t-184.5 37.5t-159.5 104t-112.5 166.5t-42.5 216t41.5 220t110.5 175.5t159.5 113.5t187.5 42zM573 961q-135 0 -191 -95t-56 -313v-117q0 -207 56.5 -303
t190.5 -96q136 0 193 96t57 303v117q0 217 -57.5 312.5t-192.5 95.5zM324 1319h499v-102h-499v102z" />
    <glyph glyph-name="Obreve" unicode="&#x14e;" horiz-adv-x="1595" 
d="M799 1503q104 0 206.5 -38.5t190 -111t155 -169.5t106 -222t38.5 -260q0 -171 -59.5 -315t-157.5 -238t-222.5 -146t-256.5 -52q-133 0 -258.5 54.5t-223.5 151t-157.5 243t-59.5 317.5q0 167 59.5 315.5t157 250.5t224 161t258.5 59zM799 1427q-78 0 -141.5 -22.5
t-116 -73t-88 -128.5t-55 -192.5t-19.5 -262.5v-78q0 -147 21.5 -259.5t58 -184t91 -117t115 -64t134.5 -18.5q75 0 135.5 18.5t114 63.5t90 117t57.5 184.5t21 259.5v78q0 184 -29.5 316.5t-85.5 211t-131 115t-172 36.5zM797 1585q-100 0 -167.5 61.5t-84.5 182.5l69 18
q14 -70 58 -93t125 -23t124.5 23t59.5 93l70 -18q-20 -121 -87 -182.5t-167 -61.5z" />
    <glyph glyph-name="obreve" unicode="&#x14f;" horiz-adv-x="1148" 
d="M573 1036q97 0 189 -42t161.5 -113.5t111.5 -175.5t42 -220t-43 -216t-114 -166.5t-161.5 -104t-185.5 -37.5t-184.5 37.5t-159.5 104t-112.5 166.5t-42.5 216t41.5 220t110.5 175.5t159.5 113.5t187.5 42zM573 961q-135 0 -191 -95t-56 -313v-117q0 -207 56.5 -303
t190.5 -96q136 0 193 96t57 303v117q0 217 -57.5 312.5t-192.5 95.5zM573 1171q-94 0 -158 69t-81 196l67 16q31 -141 172 -141q143 0 175 141l67 -16q-20 -127 -84 -196t-158 -69z" />
    <glyph glyph-name="Ohungarumlaut" unicode="&#x150;" horiz-adv-x="1595" 
d="M799 1503q104 0 206.5 -38.5t190 -111t155 -169.5t106 -222t38.5 -260q0 -171 -59.5 -315t-157.5 -238t-222.5 -146t-256.5 -52q-133 0 -258.5 54.5t-223.5 151t-157.5 243t-59.5 317.5q0 167 59.5 315.5t157 250.5t224 161t258.5 59zM799 1427q-78 0 -141.5 -22.5
t-116 -73t-88 -128.5t-55 -192.5t-19.5 -262.5v-78q0 -147 21.5 -259.5t58 -184t91 -117t115 -64t134.5 -18.5q75 0 135.5 18.5t114 63.5t90 117t57.5 184.5t21 259.5v78q0 184 -29.5 316.5t-85.5 211t-131 115t-172 36.5zM954 1575h-57q27 54 46 139.5t24 153.5h198
q-26 -81 -83.5 -163.5t-127.5 -129.5zM664 1575h-58q27 53 45 138t23 155h200q-26 -82 -83 -164t-127 -129z" />
    <glyph glyph-name="ohungarumlaut" unicode="&#x151;" horiz-adv-x="1148" 
d="M573 1036q97 0 189 -42t161.5 -113.5t111.5 -175.5t42 -220t-43 -216t-114 -166.5t-161.5 -104t-185.5 -37.5t-184.5 37.5t-159.5 104t-112.5 166.5t-42.5 216t41.5 220t110.5 175.5t159.5 113.5t187.5 42zM573 961q-135 0 -191 -95t-56 -313v-117q0 -207 56.5 -303
t190.5 -96q136 0 193 96t57 303v117q0 217 -57.5 312.5t-192.5 95.5zM432 1159h-49q29 55 53.5 151.5t32.5 184.5h178q-21 -96 -83 -190t-132 -146zM715 1159h-49q29 55 53.5 151.5t32.5 184.5h178q-21 -96 -83 -190t-132 -146z" />
    <glyph glyph-name="OE" unicode="&#x152;" horiz-adv-x="2054" 
d="M881 76h100v1323h-78q-99 0 -177.5 -20t-144.5 -66t-110 -118.5t-68 -181.5t-24 -251v-70q0 -138 26 -244.5t71 -176t109.5 -114t137 -63t158.5 -18.5zM1962 0h-1090q-120 0 -230 25.5t-209.5 82t-173 138.5t-116.5 203t-43 268q0 144 43.5 268t118.5 213t176 152t217 94
t240 31h958v-412h-69q-17 73 -31.5 119t-38 87.5t-52.5 63.5t-75.5 38.5t-105.5 22t-144 5.5h-104v-602h92q33 0 58.5 2.5t46 10.5t34.5 15t26 24.5t19 30.5t15 41.5t12 48.5l12 60h66v-510h-66q-10 41 -16 61t-15.5 46.5t-19.5 38t-25 25t-35.5 18.5t-47.5 8.5t-64 3.5h-92
v-645h125q110 0 187 7.5t134.5 28t92 47t59 76t37 102t24.5 136.5h70v-473z" />
    <glyph glyph-name="oe" unicode="&#x153;" horiz-adv-x="1810" 
d="M573 961q-135 0 -191 -95t-56 -313v-117q0 -207 56.5 -303t190.5 -96q136 0 193 96t57 303v117q0 217 -57.5 312.5t-192.5 95.5zM1071 602v-6h418v33q0 171 -41.5 251.5t-151.5 80.5q-104 0 -164.5 -94t-60.5 -265zM1341 -31q-272 0 -393 197q-63 -98 -160.5 -151.5
t-214.5 -53.5q-95 0 -184.5 37.5t-159.5 104t-112.5 166.5t-42.5 216t41.5 220t110.5 175.5t159.5 113.5t187.5 42q117 0 214 -57t159 -160q61 99 153 154t197 55q197 0 313.5 -128.5t116.5 -328.5q0 -49 -40 -49h-615v-76q0 -187 72.5 -293t226.5 -106q214 0 307 186
l66 -34q-46 -102 -145 -166t-257 -64z" />
    <glyph glyph-name="Racute" unicode="&#x154;" horiz-adv-x="1507" 
d="M1323 -4q-147 0 -222.5 84t-86.5 231q-3 36 -4 94t-4 91q-6 128 -72.5 178.5t-202.5 50.5h-186v-649h241v-76h-714v76h221v1323h-221v76h579q162 0 287.5 -41.5t200.5 -126.5t75 -203q0 -68 -30 -125.5t-81 -97t-109.5 -65t-123.5 -38.5v-8q180 -14 281 -105.5
t111 -256.5l12 -218q4 -59 27 -84.5t67 -25.5q49 0 80 39l45 -53q-48 -70 -170 -70zM545 1399v-598h143q145 0 214 66t69 220v29q0 151 -76.5 217t-257.5 66h-92zM604 1575q64 105 88 293h221q-29 -76 -100 -159t-151 -134h-58z" />
    <glyph glyph-name="racute" unicode="&#x155;" horiz-adv-x="948" 
d="M594 76v-76h-533v76h146v846h-174v75h395v-163h12q23 78 95 136t178 58q84 0 132 -43t48 -111q0 -58 -31.5 -92t-87.5 -34q-55 0 -88 33.5t-33 78.5q0 46 29 72q-3 14 -31 14q-87 0 -155 -112t-68 -314v-444h166zM432 1159q41 54 75.5 152t41.5 184h209
q-27 -97 -105 -188t-166 -148h-55z" />
    <glyph glyph-name="uni0156" unicode="&#x156;" horiz-adv-x="1507" 
d="M1323 -4q-147 0 -222.5 84t-86.5 231q-3 36 -4 94t-4 91q-6 128 -72.5 178.5t-202.5 50.5h-186v-649h241v-76h-714v76h221v1323h-221v76h579q162 0 287.5 -41.5t200.5 -126.5t75 -203q0 -68 -30 -125.5t-81 -97t-109.5 -65t-123.5 -38.5v-8q180 -14 281 -105.5
t111 -256.5l12 -218q4 -59 27 -84.5t67 -25.5q49 0 80 39l45 -53q-48 -70 -170 -70zM545 1399v-598h143q145 0 214 66t69 220v29q0 151 -76.5 217t-257.5 66h-92zM719 -504l-21 58q87 30 119.5 66.5t32.5 94.5v9q-28 -31 -66 -31q-43 0 -69.5 24t-26.5 70t33 74t82 28
q62 0 100.5 -41.5t38.5 -117.5q0 -178 -223 -234z" />
    <glyph glyph-name="uni0157" unicode="&#x157;" horiz-adv-x="948" 
d="M594 76v-76h-533v76h146v846h-174v75h395v-163h12q23 78 95 136t178 58q84 0 132 -43t48 -111q0 -58 -31.5 -92t-87.5 -34q-55 0 -88 33.5t-33 78.5q0 46 29 72q-3 14 -31 14q-87 0 -155 -112t-68 -314v-444h166zM217 -504l-20 58q87 30 119 66.5t32 94.5v9
q-28 -31 -65 -31q-43 0 -70 24t-27 70t33 74t82 28q62 0 100.5 -41.5t38.5 -117.5q0 -178 -223 -234z" />
    <glyph glyph-name="Rcaron" unicode="&#x158;" horiz-adv-x="1507" 
d="M1323 -4q-147 0 -222.5 84t-86.5 231q-3 36 -4 94t-4 91q-6 128 -72.5 178.5t-202.5 50.5h-186v-649h241v-76h-714v76h221v1323h-221v76h579q162 0 287.5 -41.5t200.5 -126.5t75 -203q0 -68 -30 -125.5t-81 -97t-109.5 -65t-123.5 -38.5v-8q180 -14 281 -105.5
t111 -256.5l12 -218q4 -59 27 -84.5t67 -25.5q49 0 80 39l45 -53q-48 -70 -170 -70zM545 1399v-598h143q145 0 214 66t69 220v29q0 151 -76.5 217t-257.5 66h-92zM657 1575l-235 291h188l142 -176l139 176h82l-232 -291h-84z" />
    <glyph glyph-name="rcaron" unicode="&#x159;" horiz-adv-x="948" 
d="M594 76v-76h-533v76h146v846h-174v75h395v-163h12q23 78 95 136t178 58q84 0 132 -43t48 -111q0 -58 -31.5 -92t-87.5 -34q-55 0 -88 33.5t-33 78.5q0 46 29 72q-3 14 -31 14q-87 0 -155 -112t-68 -314v-444h166zM479 1157l-221 322h172l137 -199l138 199h79l-221 -322
h-84z" />
    <glyph glyph-name="Sacute" unicode="&#x15a;" horiz-adv-x="1234" 
d="M580 1501q65 0 118.5 -10.5t81 -23t55 -23t46.5 -10.5q41 0 51 43h67v-412h-69q-31 182 -124.5 271t-223.5 89q-122 0 -201.5 -59.5t-79.5 -171.5t85 -181t273 -136q74 -28 124 -49t110.5 -52.5t99 -65t73 -77.5t51 -100t16.5 -123q0 -206 -134 -330.5t-368 -124.5
q-70 0 -136 15.5t-105.5 33.5t-79 33.5t-62.5 15.5q-54 0 -76 -53h-68v516h70q29 -235 149 -360t308 -125q149 0 232 71t83 199q0 54 -15 96t-41 73.5t-75 62t-102 54t-138 56.5q-71 26 -124.5 50.5t-114 64.5t-99 84.5t-64.5 109t-26 140.5q0 98 36 177.5t96.5 129
t137.5 76t163 26.5zM522 1575q64 105 88 293h221q-29 -76 -100 -159t-151 -134h-58z" />
    <glyph glyph-name="sacute" unicode="&#x15b;" horiz-adv-x="923" 
d="M111 758q0 131 91.5 204.5t225.5 73.5q58 0 104 -13t73.5 -26.5t41.5 -13.5q30 0 39 35h72v-303h-72q-20 118 -90 182t-166 64q-85 0 -135.5 -36t-50.5 -112q0 -64 56 -99t187 -71q182 -46 273.5 -127.5t91.5 -218.5q0 -151 -106.5 -239.5t-262.5 -88.5q-61 0 -115 18
t-93 36t-62 18t-34.5 -12.5t-18.5 -38.5h-58v387h78q21 -152 101 -242t202 -90q104 0 161.5 43.5t57.5 122.5q0 84 -63.5 136t-202.5 91q-162 45 -243.5 117.5t-81.5 202.5zM373 1159q41 54 74.5 151.5t41.5 184.5h209q-27 -97 -104.5 -188.5t-165.5 -147.5h-55z" />
    <glyph glyph-name="Scircumflex" unicode="&#x15c;" horiz-adv-x="1234" 
d="M580 1501q65 0 118.5 -10.5t81 -23t55 -23t46.5 -10.5q41 0 51 43h67v-412h-69q-31 182 -124.5 271t-223.5 89q-122 0 -201.5 -59.5t-79.5 -171.5t85 -181t273 -136q74 -28 124 -49t110.5 -52.5t99 -65t73 -77.5t51 -100t16.5 -123q0 -206 -134 -330.5t-368 -124.5
q-70 0 -136 15.5t-105.5 33.5t-79 33.5t-62.5 15.5q-54 0 -76 -53h-68v516h70q29 -235 149 -360t308 -125q149 0 232 71t83 199q0 54 -15 96t-41 73.5t-75 62t-102 54t-138 56.5q-71 26 -124.5 50.5t-114 64.5t-99 84.5t-64.5 109t-26 140.5q0 98 36 177.5t96.5 129
t137.5 76t163 26.5zM707 1575l-142 176l-139 -176h-82l231 291h84l236 -291h-188z" />
    <glyph glyph-name="scircumflex" unicode="&#x15d;" horiz-adv-x="923" 
d="M111 758q0 131 91.5 204.5t225.5 73.5q58 0 104 -13t73.5 -26.5t41.5 -13.5q30 0 39 35h72v-303h-72q-20 118 -90 182t-166 64q-85 0 -135.5 -36t-50.5 -112q0 -64 56 -99t187 -71q182 -46 273.5 -127.5t91.5 -218.5q0 -151 -106.5 -239.5t-262.5 -88.5q-61 0 -115 18
t-93 36t-62 18t-34.5 -12.5t-18.5 -38.5h-58v387h78q21 -152 101 -242t202 -90q104 0 161.5 43.5t57.5 122.5q0 84 -63.5 136t-202.5 91q-162 45 -243.5 117.5t-81.5 202.5zM555 1159l-137 199l-137 -199h-80l221 322h84l221 -322h-172z" />
    <glyph glyph-name="uni015E" unicode="&#x15e;" horiz-adv-x="1234" 
d="M580 1501q65 0 118.5 -10.5t81 -23t55 -23t46.5 -10.5q41 0 51 43h67v-412h-69q-31 182 -124.5 271t-223.5 89q-122 0 -201.5 -59.5t-79.5 -171.5t85 -181t273 -136q74 -28 124 -49t110.5 -52.5t99 -65t73 -77.5t51 -100t16.5 -123q0 -206 -134 -330.5t-368 -124.5
q-70 0 -136 15.5t-105.5 33.5t-79 33.5t-62.5 15.5q-54 0 -76 -53h-68v516h70q29 -235 149 -360t308 -125q149 0 232 71t83 199q0 54 -15 96t-41 73.5t-75 62t-102 54t-138 56.5q-71 26 -124.5 50.5t-114 64.5t-99 84.5t-64.5 109t-26 140.5q0 98 36 177.5t96.5 129
t137.5 76t163 26.5zM754 -307q0 -90 -83 -143.5t-198 -53.5q-97 0 -143.5 33t-46.5 88q0 37 21 60.5t61 23.5q32 0 51.5 -20t19.5 -50q0 -35 -26 -49q5 -11 16.5 -14.5t40.5 -3.5q57 0 88 32t31 89v6q0 54 -22 77t-70 23q-57 0 -86 -33l-7 -6l-47 49l201 195h96l-145 -141
q20 4 51 4q85 0 141 -42t56 -124z" />
    <glyph glyph-name="uni015F" unicode="&#x15f;" horiz-adv-x="923" 
d="M111 758q0 131 91.5 204.5t225.5 73.5q58 0 104 -13t73.5 -26.5t41.5 -13.5q30 0 39 35h72v-303h-72q-20 118 -90 182t-166 64q-85 0 -135.5 -36t-50.5 -112q0 -64 56 -99t187 -71q182 -46 273.5 -127.5t91.5 -218.5q0 -151 -106.5 -239.5t-262.5 -88.5q-61 0 -115 18
t-93 36t-62 18t-34.5 -12.5t-18.5 -38.5h-58v387h78q21 -152 101 -242t202 -90q104 0 161.5 43.5t57.5 122.5q0 84 -63.5 136t-202.5 91q-162 45 -243.5 117.5t-81.5 202.5zM649 -307q0 -90 -82.5 -143.5t-197.5 -53.5q-98 0 -144.5 33t-46.5 88q0 37 21 60.5t61 23.5
q32 0 52 -20t20 -50q0 -34 -27 -49q5 -11 16.5 -14.5t40.5 -3.5q57 0 88 32t31 89v6q0 54 -22 77t-70 23q-57 0 -86 -33l-6 -6l-47 49l201 195h96l-146 -141q20 4 52 4q85 0 140.5 -42t55.5 -124z" />
    <glyph glyph-name="Scaron" unicode="&#x160;" horiz-adv-x="1234" 
d="M580 1501q65 0 118.5 -10.5t81 -23t55 -23t46.5 -10.5q41 0 51 43h67v-412h-69q-31 182 -124.5 271t-223.5 89q-122 0 -201.5 -59.5t-79.5 -171.5t85 -181t273 -136q74 -28 124 -49t110.5 -52.5t99 -65t73 -77.5t51 -100t16.5 -123q0 -206 -134 -330.5t-368 -124.5
q-70 0 -136 15.5t-105.5 33.5t-79 33.5t-62.5 15.5q-54 0 -76 -53h-68v516h70q29 -235 149 -360t308 -125q149 0 232 71t83 199q0 54 -15 96t-41 73.5t-75 62t-102 54t-138 56.5q-71 26 -124.5 50.5t-114 64.5t-99 84.5t-64.5 109t-26 140.5q0 98 36 177.5t96.5 129
t137.5 76t163 26.5zM575 1575l-235 291h188l142 -176l139 176h82l-232 -291h-84z" />
    <glyph glyph-name="scaron" unicode="&#x161;" horiz-adv-x="923" 
d="M111 758q0 131 91.5 204.5t225.5 73.5q58 0 104 -13t73.5 -26.5t41.5 -13.5q30 0 39 35h72v-303h-72q-20 118 -90 182t-166 64q-85 0 -135.5 -36t-50.5 -112q0 -64 56 -99t187 -71q182 -46 273.5 -127.5t91.5 -218.5q0 -151 -106.5 -239.5t-262.5 -88.5q-61 0 -115 18
t-93 36t-62 18t-34.5 -12.5t-18.5 -38.5h-58v387h78q21 -152 101 -242t202 -90q104 0 161.5 43.5t57.5 122.5q0 84 -63.5 136t-202.5 91q-162 45 -243.5 117.5t-81.5 202.5zM416 1157l-221 322h172l137 -199l137 199h80l-221 -322h-84z" />
    <glyph glyph-name="Tcommaaccent" unicode="&#x162;" horiz-adv-x="1490" 
d="M94 1475h1301v-467h-70q-19 119 -46.5 193t-75.5 119t-113 62t-164 17h-54v-1323h232v-76h-719v76h236v1323h-64q-99 0 -162 -16.5t-111 -60.5t-75 -119t-43 -195h-72v467zM655 -504l-20 58q87 30 119 66.5t32 94.5v9q-28 -31 -65 -31q-43 0 -69.5 24t-26.5 70t32.5 74
t81.5 28q62 0 101 -41.5t39 -117.5q0 -178 -224 -234z" />
    <glyph glyph-name="tcommaaccent" unicode="&#x163;" horiz-adv-x="790" 
d="M737 197q-61 -213 -262 -213q-278 0 -278 295v643h-154v75h154v199q128 9 194 84l29 -8v-275h254v-75h-254v-744q0 -64 22.5 -88t69.5 -24q55 0 95 41t61 112zM332 -504l-21 58q87 30 119.5 66.5t32.5 94.5v9q-28 -31 -66 -31q-43 0 -69.5 24t-26.5 70t33 74t82 28
q62 0 100.5 -41.5t38.5 -117.5q0 -178 -223 -234z" />
    <glyph glyph-name="Tcaron" unicode="&#x164;" horiz-adv-x="1490" 
d="M94 1475h1301v-467h-70q-19 119 -46.5 193t-75.5 119t-113 62t-164 17h-54v-1323h232v-76h-719v76h236v1323h-64q-99 0 -162 -16.5t-111 -60.5t-75 -119t-43 -195h-72v467zM705 1575l-236 291h188l142 -176l139 176h82l-232 -291h-83z" />
    <glyph glyph-name="tcaron" unicode="&#x165;" horiz-adv-x="790" 
d="M737 197q-61 -213 -262 -213q-278 0 -278 295v643h-154v75h154v199q128 9 194 84l29 -8v-275h254v-75h-254v-744q0 -64 22.5 -88t69.5 -24q55 0 95 41t61 112zM522 1163l35 359h158v-21l-152 -338h-41z" />
    <glyph glyph-name="Tbar" unicode="&#x166;" horiz-adv-x="1490" 
d="M94 1475h1301v-467h-70q-19 119 -46.5 193t-75.5 119t-113 62t-164 17h-54v-584h347v-74h-347v-665h232v-76h-719v76h236v665h-367v74h367v584h-64q-99 0 -162 -16.5t-111 -60.5t-75 -119t-43 -195h-72v467z" />
    <glyph glyph-name="tbar" unicode="&#x167;" horiz-adv-x="790" 
d="M668 219l69 -22q-61 -213 -262 -213q-278 0 -278 295v348h-154v75h154v220h-154v75h154v199q128 9 194 84l29 -8v-275h254v-75h-254v-220h254v-75h-254v-449q0 -64 22.5 -88t69.5 -24q55 0 95 41t61 112z" />
    <glyph glyph-name="Utilde" unicode="&#x168;" horiz-adv-x="1650" 
d="M901 -49q-159 0 -280 41.5t-193.5 115t-108.5 167t-36 204.5v920h-220v76h693v-76h-221v-983q0 -114 24 -191t73.5 -119.5t113 -59.5t155.5 -17q209 0 301 117t92 339v914h-221v76h512v-76h-207v-914q0 -94 -15.5 -172.5t-51 -146t-90 -115t-136 -74t-184.5 -26.5z
M1032 1640q-47 0 -149.5 13.5t-126.5 13.5q-33 0 -53 -20.5t-37 -73.5l-62 18q19 105 64 164.5t108 59.5q48 0 149.5 -14.5t127.5 -14.5q33 0 53.5 18.5t36.5 75.5l61 -20q-18 -107 -66 -163.5t-106 -56.5z" />
    <glyph glyph-name="utilde" unicode="&#x169;" horiz-adv-x="1271" 
d="M512 -31q-149 0 -240.5 90.5t-91.5 257.5v605h-147v75h366v-800q0 -68 37 -107t107 -39q91 0 155 62t92.5 159.5t28.5 219.5v430h-149v75h370v-921h170v-76h-391v176h-10q-36 -84 -109.5 -145.5t-187.5 -61.5zM711 1227q-47 0 -137 20.5t-115 20.5q-32 0 -51.5 -21
t-36.5 -76l-62 21q17 105 62 164t108 59q46 0 136 -21.5t116 -21.5q33 0 52.5 18.5t35.5 75.5l62 -20q-18 -107 -65 -163t-105 -56z" />
    <glyph glyph-name="Umacron" unicode="&#x16a;" horiz-adv-x="1650" 
d="M901 -49q-159 0 -280 41.5t-193.5 115t-108.5 167t-36 204.5v920h-220v76h693v-76h-221v-983q0 -114 24 -191t73.5 -119.5t113 -59.5t155.5 -17q209 0 301 117t92 339v914h-221v76h512v-76h-207v-914q0 -94 -15.5 -172.5t-51 -146t-90 -115t-136 -74t-184.5 -26.5z
M614 1737h566v-103h-566v103z" />
    <glyph glyph-name="umacron" unicode="&#x16b;" horiz-adv-x="1271" 
d="M512 -31q-149 0 -240.5 90.5t-91.5 257.5v605h-147v75h366v-800q0 -68 37 -107t107 -39q91 0 155 62t92.5 159.5t28.5 219.5v430h-149v75h370v-921h170v-76h-391v176h-10q-36 -84 -109.5 -145.5t-187.5 -61.5zM342 1319h500v-102h-500v102z" />
    <glyph glyph-name="Ubreve" unicode="&#x16c;" horiz-adv-x="1650" 
d="M901 -49q-159 0 -280 41.5t-193.5 115t-108.5 167t-36 204.5v920h-220v76h693v-76h-221v-983q0 -114 24 -191t73.5 -119.5t113 -59.5t155.5 -17q209 0 301 117t92 339v914h-221v76h512v-76h-207v-914q0 -94 -15.5 -172.5t-51 -146t-90 -115t-136 -74t-184.5 -26.5z
M897 1585q-100 0 -167.5 61.5t-84.5 182.5l70 18q10 -49 36.5 -75.5t59.5 -33.5t86 -7q81 0 124.5 23t59.5 93l70 -18q-20 -121 -87 -182.5t-167 -61.5z" />
    <glyph glyph-name="ubreve" unicode="&#x16d;" horiz-adv-x="1271" 
d="M512 -31q-149 0 -240.5 90.5t-91.5 257.5v605h-147v75h366v-800q0 -68 37 -107t107 -39q91 0 155 62t92.5 159.5t28.5 219.5v430h-149v75h370v-921h170v-76h-391v176h-10q-36 -84 -109.5 -145.5t-187.5 -61.5zM592 1171q-94 0 -158.5 69t-81.5 196l68 16
q31 -141 172 -141q142 0 174 141l68 -16q-20 -127 -84 -196t-158 -69z" />
    <glyph glyph-name="Uring" unicode="&#x16e;" horiz-adv-x="1650" 
d="M901 -49q-159 0 -280 41.5t-193.5 115t-108.5 167t-36 204.5v920h-220v76h693v-76h-221v-983q0 -114 24 -191t73.5 -119.5t113 -59.5t155.5 -17q209 0 301 117t92 339v914h-221v76h512v-76h-207v-914q0 -94 -15.5 -172.5t-51 -146t-90 -115t-136 -74t-184.5 -26.5z
M700 1712q0 85 56.5 140t148.5 55t148.5 -55t56.5 -140q0 -83 -57 -138.5t-148 -55.5t-148 55.5t-57 138.5zM999 1712q0 139 -94 139t-94 -139t94 -139t94 139z" />
    <glyph glyph-name="uring" unicode="&#x16f;" horiz-adv-x="1271" 
d="M512 -31q-149 0 -240.5 90.5t-91.5 257.5v605h-147v75h366v-800q0 -68 37 -107t107 -39q91 0 155 62t92.5 159.5t28.5 219.5v430h-149v75h370v-921h170v-76h-391v176h-10q-36 -84 -109.5 -145.5t-187.5 -61.5zM387 1335q0 85 56.5 140t148.5 55t148.5 -55t56.5 -140
q0 -83 -57 -138.5t-148 -55.5t-148 55.5t-57 138.5zM686 1335q0 140 -94 140t-94 -140q0 -139 94 -139t94 139z" />
    <glyph glyph-name="Uhungarumlaut" unicode="&#x170;" horiz-adv-x="1650" 
d="M901 -49q-159 0 -280 41.5t-193.5 115t-108.5 167t-36 204.5v920h-220v76h693v-76h-221v-983q0 -114 24 -191t73.5 -119.5t113 -59.5t155.5 -17q209 0 301 117t92 339v914h-221v76h512v-76h-207v-914q0 -94 -15.5 -172.5t-51 -146t-90 -115t-136 -74t-184.5 -26.5z
M1055 1575h-58q27 54 46 139.5t24 153.5h199q-26 -81 -83.5 -163.5t-127.5 -129.5zM764 1575h-57q27 53 44.5 137.5t22.5 155.5h201q-26 -81 -83.5 -163.5t-127.5 -129.5z" />
    <glyph glyph-name="uhungarumlaut" unicode="&#x171;" horiz-adv-x="1271" 
d="M512 -31q-149 0 -240.5 90.5t-91.5 257.5v605h-147v75h366v-800q0 -68 37 -107t107 -39q91 0 155 62t92.5 159.5t28.5 219.5v430h-149v75h370v-921h170v-76h-391v176h-10q-36 -84 -109.5 -145.5t-187.5 -61.5zM449 1159h-50q29 55 53.5 151.5t32.5 184.5h179
q-21 -96 -83 -190t-132 -146zM731 1159h-49q29 55 53.5 151.5t32.5 184.5h178q-21 -96 -83 -190t-132 -146z" />
    <glyph glyph-name="Uogonek" unicode="&#x172;" horiz-adv-x="1650" 
d="M969 -528q-99 0 -155 45.5t-56 134.5q0 24 7 48t17 43.5t28.5 42.5t33 38.5t40.5 38t40.5 34t43.5 33.5t40 31q-55 -10 -107 -10q-159 0 -280 41.5t-193.5 115t-108.5 167t-36 204.5v920h-220v76h693v-76h-221v-983q0 -114 24 -191t73.5 -119.5t113 -59.5t155.5 -17
q209 0 301 117t92 339v914h-221v76h512v-76h-207v-914q0 -326 -182 -450q-113 -80 -179.5 -175t-66.5 -194v-8q0 -98 78 -98q50 0 84 43l45 -39q-30 -37 -78.5 -64.5t-109.5 -27.5z" />
    <glyph glyph-name="uogonek" unicode="&#x173;" horiz-adv-x="1271" 
d="M512 -31q-149 0 -240.5 90.5t-91.5 257.5v605h-147v75h366v-800q0 -68 37 -107t107 -39q91 0 155 62t92.5 159.5t28.5 219.5v430h-149v75h370v-921h170v-76h-325q-91 -108 -131.5 -181t-40.5 -153v-8q0 -98 78 -98q49 0 83 43l44 -39q-27 -36 -77 -64t-110 -28
q-99 0 -156 45.5t-57 134.5q0 41 16.5 79.5t53.5 78t64 63.5t79 66q71 57 88 73v164h-10q-36 -84 -109.5 -145.5t-187.5 -61.5z" />
    <glyph glyph-name="Wcircumflex" unicode="&#x174;" horiz-adv-x="2213" 
d="M688 -37l-510 1436h-141v76h565v-76h-166l377 -1088h8l262 711l-133 377h-147v76h573v-76h-176l371 -1088h10l365 1088h-222v76h453v-76h-139l-492 -1436h-92l-330 938l-342 -938h-94zM1182 1575l-142 176l-139 -176h-82l232 291h84l235 -291h-188z" />
    <glyph glyph-name="wcircumflex" unicode="&#x175;" horiz-adv-x="1660" 
d="M1071 -18l-233 581l-222 -581h-98l-403 940h-86v75h454v-75h-143l281 -670h12l158 428l-99 242h-102v75h495v-75h-170l259 -668h10l262 668h-170v75h356v-75h-96l-365 -940h-100zM944 1159l-137 199l-137 -199h-80l221 322h84l221 -322h-172z" />
    <glyph glyph-name="Ycircumflex" unicode="&#x176;" horiz-adv-x="1394" 
d="M1065 0h-709v76h230v583l-430 740h-121v76h563v-76h-172l365 -627l360 627h-205v76h414v-76h-119l-405 -705v-618h229v-76zM874 1575l-141 176l-139 -176h-82l231 291h84l236 -291h-189z" />
    <glyph glyph-name="ycircumflex" unicode="&#x177;" horiz-adv-x="1118" 
d="M211 -516q-95 0 -148 41.5t-53 105.5q0 52 32.5 85.5t86.5 33.5q49 0 82 -30t33 -78q0 -45 -37 -66q11 -8 26 -8q77 0 142 78t137 264l31 78l-420 934h-94v75h475v-75h-156l295 -668l254 668h-166v75h359v-75h-103l-395 -1035q-86 -224 -171.5 -313.5t-209.5 -89.5z
M717 1159l-137 199l-138 -199h-80l222 322h84l221 -322h-172z" />
    <glyph glyph-name="Ydieresis" unicode="&#x178;" horiz-adv-x="1394" 
d="M1065 0h-709v76h230v583l-430 740h-121v76h563v-76h-172l365 -627l360 627h-205v76h414v-76h-119l-405 -705v-618h229v-76zM559 1825q54 0 87.5 -33.5t33.5 -87.5t-33.5 -88.5t-87.5 -34.5q-51 0 -86 34.5t-35 88.5q0 53 34.5 87t86.5 34zM985 1825q54 0 87.5 -33.5
t33.5 -87.5t-33.5 -88.5t-87.5 -34.5q-51 0 -86 34.5t-35 88.5q0 53 34.5 87t86.5 34z" />
    <glyph glyph-name="Zacute" unicode="&#x179;" horiz-adv-x="1288" 
d="M928 1399h-262q-105 0 -179 -12.5t-121.5 -35t-77.5 -64t-45 -88t-26 -118.5h-70v394h1053v-76l-874 -1323h249q109 0 188 8t137.5 27t96 45t62.5 68.5t37.5 91t19.5 118.5h70v-434h-1131v76zM582 1575q64 105 88 293h221q-29 -76 -100.5 -159t-151.5 -134h-57z" />
    <glyph glyph-name="zacute" unicode="&#x17a;" horiz-adv-x="1005" 
d="M680 922h-172q-64 0 -109.5 -5.5t-79 -20.5t-54.5 -32t-36 -49t-23.5 -63t-17.5 -82h-71v327h790v-75l-624 -846h184q76 0 131.5 7t96.5 24.5t67 40.5t44 60.5t27.5 78t16.5 100.5h70v-387h-865v76zM412 1159q41 54 74.5 151.5t41.5 184.5h209q-27 -97 -104.5 -188.5
t-165.5 -147.5h-55z" />
    <glyph glyph-name="Zdotaccent" unicode="&#x17b;" horiz-adv-x="1288" 
d="M928 1399h-262q-105 0 -179 -12.5t-121.5 -35t-77.5 -64t-45 -88t-26 -118.5h-70v394h1053v-76l-874 -1323h249q109 0 188 8t137.5 27t96 45t62.5 68.5t37.5 91t19.5 118.5h70v-434h-1131v76zM676 1841q57 0 94 -37t37 -94t-37 -94t-94 -37q-54 0 -91.5 37.5t-37.5 93.5
t37.5 93.5t91.5 37.5z" />
    <glyph glyph-name="zdotaccent" unicode="&#x17c;" horiz-adv-x="1005" 
d="M680 922h-172q-64 0 -109.5 -5.5t-79 -20.5t-54.5 -32t-36 -49t-23.5 -63t-17.5 -82h-71v327h790v-75l-624 -846h184q76 0 131.5 7t96.5 24.5t67 40.5t44 60.5t27.5 78t16.5 100.5h70v-387h-865v76zM504 1456q57 0 94 -37t37 -94t-37 -94t-94 -37q-54 0 -91.5 37
t-37.5 94t37.5 94t91.5 37z" />
    <glyph glyph-name="Zcaron" unicode="&#x17d;" horiz-adv-x="1288" 
d="M928 1399h-262q-105 0 -179 -12.5t-121.5 -35t-77.5 -64t-45 -88t-26 -118.5h-70v394h1053v-76l-874 -1323h249q109 0 188 8t137.5 27t96 45t62.5 68.5t37.5 91t19.5 118.5h70v-434h-1131v76zM635 1575l-236 291h189l141 -176l139 176h82l-231 -291h-84z" />
    <glyph glyph-name="zcaron" unicode="&#x17e;" horiz-adv-x="1005" 
d="M680 922h-172q-64 0 -109.5 -5.5t-79 -20.5t-54.5 -32t-36 -49t-23.5 -63t-17.5 -82h-71v327h790v-75l-624 -846h184q76 0 131.5 7t96.5 24.5t67 40.5t44 60.5t27.5 78t16.5 100.5h70v-387h-865v76zM459 1157l-221 322h172l137 -199l137 199h80l-221 -322h-84z" />
    <glyph glyph-name="uni0192" unicode="&#x192;" horiz-adv-x="944" 
d="M10 -358q-96 0 -154.5 45.5t-58.5 128.5q0 48 30 79t77 31q46 0 74 -27t28 -69q0 -64 -49 -88q3 -25 55 -25q63 0 91.5 39.5t46.5 137.5l151 909h-197v76h209l47 280q29 172 135 269.5t267 97.5q109 0 175.5 -53.5t66.5 -139.5q0 -59 -30.5 -94t-88.5 -35q-53 0 -84 32
t-31 81q0 77 64 104q-4 13 -24 21t-46 8q-66 0 -101.5 -45.5t-54.5 -155.5l-61 -370h276v-76h-288l-107 -633q-48 -281 -152 -404.5t-266 -123.5z" />
    <glyph glyph-name="Aringacute" unicode="&#x1fa;" horiz-adv-x="1456" 
d="M647 1100l-207 -574h416l-201 574h-8zM516 76v-76h-479v76h149l521 1429h57l504 -1429h151v-76h-602v76h199l-133 375h-469l-135 -375h237zM530 1747q0 85 56.5 140t148.5 55t148.5 -55t56.5 -140q0 -83 -57 -139t-148 -56t-148 56t-57 139zM829 1747q0 139 -94 139
t-94 -139t94 -139t94 139zM674 1976q64 105 88 293h221q-29 -76 -100.5 -159t-151.5 -134h-57z" />
    <glyph glyph-name="aringacute" unicode="&#x1fb;" horiz-adv-x="1085" 
d="M422 49q110 0 172.5 89.5t62.5 209.5v246q-22 -35 -66.5 -62.5t-125.5 -60.5q-72 -30 -107.5 -55t-54 -66.5t-18.5 -109.5v-7q0 -97 30.5 -140.5t106.5 -43.5zM377 -33q-147 0 -226 70.5t-79 198.5q0 49 12.5 88.5t38 67.5t53.5 48t68.5 36t73 26.5t77.5 23.5t72 23
q79 28 125 57.5t65 69.5v80q0 105 -38.5 152.5t-143.5 47.5q-137 0 -137 -59q49 -25 49 -88q0 -50 -34 -81.5t-89 -31.5q-58 0 -90.5 35t-32.5 82q0 92 97 153.5t243 61.5q396 0 396 -377v-493q0 -57 12 -77t49 -20t82 29l22 -51q-84 -59 -188 -59q-80 0 -130 35.5
t-62 103.5h-11q-35 -73 -99.5 -112.5t-174.5 -39.5zM299 1335q0 85 56.5 140t148.5 55t148.5 -55t56.5 -140q0 -83 -57 -138.5t-148 -55.5t-148 55.5t-57 138.5zM598 1335q0 140 -94 140t-94 -140q0 -139 94 -139t94 139zM410 1616q64 105 88 293h221q-29 -76 -100.5 -159
t-151.5 -134h-57z" />
    <glyph glyph-name="AEacute" unicode="&#x1fc;" horiz-adv-x="2023" 
d="M948 1399h-8l-317 -602h325v602zM438 76v-76h-401v76h113l698 1323h-156v76h1139v-412h-70q-17 73 -31.5 119t-38 87.5t-52 63.5t-75 38.5t-105.5 22t-144 5.5h-115v-602h84q33 0 58.5 2.5t46 10.5t34.5 15t26 24.5t19 30.5t15 41.5t12 48.5l12 60h66v-510h-66
q-10 41 -16 61t-15.5 46.5t-19.5 38t-25 25t-35.5 18.5t-47.5 8.5t-64 3.5h-84v-645h129q110 0 187 7.5t134.5 28t92.5 47t59.5 76t37 102t24.5 136.5h69v-473h-1206v76h221v645h-366l-340 -645h196zM1223 1575q64 105 88 293h221q-29 -76 -100.5 -159t-151.5 -134h-57z" />
    <glyph glyph-name="aeacute" unicode="&#x1fd;" horiz-adv-x="1613" 
d="M893 602v-6h399v33q0 171 -37.5 251.5t-136.5 80.5q-104 0 -164.5 -94t-60.5 -265zM434 49q101 0 162.5 63t91.5 185q-31 105 -31 213v84q-22 -35 -66.5 -62.5t-125.5 -60.5q-72 -30 -107.5 -55t-54 -66.5t-18.5 -109.5v-7q0 -94 36 -139t113 -45zM1153 -31
q-294 0 -422 230q-38 -111 -126 -171.5t-208 -60.5q-154 0 -239.5 71t-85.5 198q0 49 12.5 88.5t38 67.5t53.5 48t68.5 36t73 26.5t77.5 23.5t72 23q79 28 125 57.5t65 69.5v80q0 105 -38.5 152.5t-143.5 47.5q-137 0 -137 -59q49 -25 49 -88q0 -50 -34 -81.5t-89 -31.5
q-58 0 -90.5 35t-32.5 82q0 92 97 153.5t243 61.5q236 0 322 -170q54 82 135 126t180 44q187 0 298.5 -129t111.5 -328q0 -26 -8.5 -37.5t-32.5 -11.5h-594v-76q0 -187 70.5 -293t218.5 -106q206 0 299 186l65 -34q-46 -102 -143.5 -166t-249.5 -64zM741 1159
q41 54 75.5 152t41.5 184h209q-27 -97 -104.5 -188.5t-165.5 -147.5h-56z" />
    <glyph glyph-name="Oslashacute" unicode="&#x1fe;" horiz-adv-x="1595" 
d="M379 743v-77q0 -245 45 -379l684 995q-53 77 -128 111t-181 34q-420 0 -420 -684zM799 27q75 0 135.5 18t114.5 63t90 116.5t57 183.5t21 258v77q0 309 -74 474l-690 -1002q52 -102 135.5 -145t210.5 -43zM799 -49q-234 0 -424 151l-125 -180h-78l154 223
q-226 219 -226 568q0 169 59.5 318.5t157 251.5t224 161t258.5 59q194 0 370 -131l107 154h80l-135 -195q127 -114 200.5 -277.5t73.5 -355.5q0 -171 -59.5 -314.5t-157.5 -236.5t-222.5 -144.5t-256.5 -51.5zM702 1575q65 107 89 293h221q-29 -76 -100.5 -159t-151.5 -134
h-58z" />
    <glyph glyph-name="oslashacute" unicode="&#x1ff;" horiz-adv-x="1146" 
d="M326 553v-117q0 -137 12 -203l434 641q-52 87 -199 87q-135 -1 -191 -95.5t-56 -312.5zM573 37q136 0 193 96t57 303v117q0 171 -20 250l-441 -651q25 -60 75 -87.5t136 -27.5zM573 -39q-152 0 -280 90l-86 -129h-80l115 170q-78 70 -123 171t-45 222q0 116 41.5 220
t110.5 175.5t159.5 113.5t187.5 42q135 0 256 -78l84 123h78l-108 -161q90 -75 142 -188.5t52 -246.5q0 -116 -43 -216t-114 -166.5t-161.5 -104t-185.5 -37.5zM481 1159q41 54 75.5 152t41.5 184h209q-27 -97 -104.5 -188.5t-165.5 -147.5h-56z" />
    <glyph glyph-name="uni0218" unicode="&#x218;" horiz-adv-x="1234" 
d="M580 1501q65 0 118.5 -10.5t81 -23t55 -23t46.5 -10.5q41 0 51 43h67v-412h-69q-31 182 -124.5 271t-223.5 89q-122 0 -201.5 -59.5t-79.5 -171.5t85 -181t273 -136q74 -28 124 -49t110.5 -52.5t99 -65t73 -77.5t51 -100t16.5 -123q0 -206 -134 -330.5t-368 -124.5
q-70 0 -136 15.5t-105.5 33.5t-79 33.5t-62.5 15.5q-54 0 -76 -53h-68v516h70q29 -235 149 -360t308 -125q149 0 232 71t83 199q0 54 -15 96t-41 73.5t-75 62t-102 54t-138 56.5q-71 26 -124.5 50.5t-114 64.5t-99 84.5t-64.5 109t-26 140.5q0 98 36 177.5t96.5 129
t137.5 76t163 26.5zM528 -504l-20 58q87 30 119 66.5t32 94.5v9q-28 -31 -65 -31q-43 0 -69.5 24t-26.5 70t32.5 74t81.5 28q62 0 101 -41.5t39 -117.5q0 -178 -224 -234z" />
    <glyph glyph-name="uni0219" unicode="&#x219;" horiz-adv-x="923" 
d="M111 758q0 131 91.5 204.5t225.5 73.5q58 0 104 -13t73.5 -26.5t41.5 -13.5q30 0 39 35h72v-303h-72q-20 118 -90 182t-166 64q-85 0 -135.5 -36t-50.5 -112q0 -64 56 -99t187 -71q182 -46 273.5 -127.5t91.5 -218.5q0 -151 -106.5 -239.5t-262.5 -88.5q-61 0 -115 18
t-93 36t-62 18t-34.5 -12.5t-18.5 -38.5h-58v387h78q21 -152 101 -242t202 -90q104 0 161.5 43.5t57.5 122.5q0 84 -63.5 136t-202.5 91q-162 45 -243.5 117.5t-81.5 202.5zM358 -504l-20 58q87 30 119 66.5t32 94.5v9q-28 -31 -65 -31q-43 0 -69.5 24t-26.5 70t32.5 74
t81.5 28q62 0 101 -41.5t39 -117.5q0 -178 -224 -234z" />
    <glyph glyph-name="uni021A" unicode="&#x21a;" horiz-adv-x="1490" 
d="M94 1475h1301v-467h-70q-19 119 -46.5 193t-75.5 119t-113 62t-164 17h-54v-1323h232v-76h-719v76h236v1323h-64q-99 0 -162 -16.5t-111 -60.5t-75 -119t-43 -195h-72v467zM655 -504l-20 58q87 30 119 66.5t32 94.5v9q-28 -31 -65 -31q-43 0 -69.5 24t-26.5 70t32.5 74
t81.5 28q62 0 101 -41.5t39 -117.5q0 -178 -224 -234z" />
    <glyph glyph-name="uni021B" unicode="&#x21b;" horiz-adv-x="790" 
d="M737 197q-61 -213 -262 -213q-278 0 -278 295v643h-154v75h154v199q128 9 194 84l29 -8v-275h254v-75h-254v-744q0 -64 22.5 -88t69.5 -24q55 0 95 41t61 112zM332 -504l-21 58q87 30 119.5 66.5t32.5 94.5v9q-28 -31 -66 -31q-43 0 -69.5 24t-26.5 70t33 74t82 28
q62 0 100.5 -41.5t38.5 -117.5q0 -178 -223 -234z" />
    <glyph glyph-name="uni0237" unicode="&#x237;" horiz-adv-x="616" 
d="M207 -281v1203h-174v75h395v-1144q0 -167 -95 -267t-263 -100q-107 0 -171.5 44.5t-64.5 127.5q0 44 31.5 77.5t83.5 33.5t81 -32t29 -77q0 -49 -41 -76q3 -22 54 -22q71 0 103 39t32 118z" />
    <glyph glyph-name="circumflex" unicode="&#x2c6;" horiz-adv-x="1026" 
d="M602 1159l-137 199l-137 -199h-80l221 322h84l221 -322h-172z" />
    <glyph glyph-name="caron" unicode="&#x2c7;" horiz-adv-x="1026" 
d="M469 1157l-221 322h172l137 -199l137 199h80l-221 -322h-84z" />
    <glyph glyph-name="breve" unicode="&#x2d8;" horiz-adv-x="1026" 
d="M512 1171q-94 0 -158.5 69t-81.5 196l68 16q31 -141 172 -141q142 0 174 141l68 -16q-20 -127 -84 -196t-158 -69z" />
    <glyph glyph-name="dotaccent" unicode="&#x2d9;" 
d="M354 1456q57 0 94 -37t37 -94t-37 -94t-94 -37q-54 0 -91.5 37t-37.5 94t37.5 94t91.5 37z" />
    <glyph glyph-name="ring" unicode="&#x2da;" 
d="M154 1335q0 86 56.5 140.5t147.5 54.5q92 0 148.5 -55t56.5 -140q0 -83 -57 -138.5t-148 -55.5t-147.5 55.5t-56.5 138.5zM453 1335q0 140 -95 140q-94 0 -94 -140q0 -139 94 -139q95 0 95 139z" />
    <glyph glyph-name="ogonek" unicode="&#x2db;" 
d="M266 -348q0 43 20 84t55 78t69.5 66t78.5 64t66 56h78q-91 -108 -131.5 -181t-40.5 -153v-8q0 -98 78 -98q41 0 84 43l43 -39q-28 -36 -77.5 -64t-111.5 -28q-97 0 -154 46t-57 134z" />
    <glyph glyph-name="tilde" unicode="&#x2dc;" horiz-adv-x="1026" 
d="M629 1227q-47 0 -137 20.5t-115 20.5q-32 0 -51.5 -21t-36.5 -76l-62 21q17 105 62 164t108 59q46 0 136 -21.5t116 -21.5q33 0 52.5 18.5t35.5 75.5l62 -20q-18 -107 -65 -163t-105 -56z" />
    <glyph glyph-name="hungarumlaut" unicode="&#x2dd;" 
d="M199 1159h-49q29 55 53.5 151.5t32.5 184.5h178q-21 -96 -83 -190t-132 -146zM481 1159h-49q29 55 53.5 151.5t32.5 184.5h178q-21 -96 -83 -190t-132 -146z" />
    <glyph glyph-name="Wgrave" unicode="&#x1e80;" horiz-adv-x="2213" 
d="M688 -37l-510 1436h-141v76h565v-76h-166l377 -1088h8l262 711l-133 377h-147v76h573v-76h-176l371 -1088h10l365 1088h-222v76h453v-76h-139l-492 -1436h-92l-330 938l-342 -938h-94zM1116 1868q5 -63 29.5 -149.5t58.5 -143.5h-57q-81 49 -152.5 132.5t-99.5 160.5h221
z" />
    <glyph glyph-name="wgrave" unicode="&#x1e81;" horiz-adv-x="1660" 
d="M1071 -18l-233 581l-222 -581h-98l-403 940h-86v75h454v-75h-143l281 -670h12l158 428l-99 242h-102v75h495v-75h-170l259 -668h10l262 668h-170v75h356v-75h-96l-365 -940h-100zM827 1495q7 -86 41.5 -184t75.5 -152h-55q-88 53 -165.5 145t-105.5 191h209z" />
    <glyph glyph-name="Wacute" unicode="&#x1e82;" horiz-adv-x="2213" 
d="M688 -37l-510 1436h-141v76h565v-76h-166l377 -1088h8l262 711l-133 377h-147v76h573v-76h-176l371 -1088h10l365 1088h-222v76h453v-76h-139l-492 -1436h-92l-330 938l-342 -938h-94zM995 1575q64 105 88 293h222q-29 -76 -100.5 -159t-151.5 -134h-58z" />
    <glyph glyph-name="wacute" unicode="&#x1e83;" horiz-adv-x="1660" 
d="M1071 -18l-233 581l-222 -581h-98l-403 940h-86v75h454v-75h-143l281 -670h12l158 428l-99 242h-102v75h495v-75h-170l259 -668h10l262 668h-170v75h356v-75h-96l-365 -940h-100zM752 1159q41 54 74.5 151.5t41.5 184.5h209q-27 -97 -104.5 -188.5t-165.5 -147.5h-55z
" />
    <glyph glyph-name="Wdieresis" unicode="&#x1e84;" horiz-adv-x="2213" 
d="M688 -37l-510 1436h-141v76h565v-76h-166l377 -1088h8l262 711l-133 377h-147v76h573v-76h-176l371 -1088h10l365 1088h-222v76h453v-76h-139l-492 -1436h-92l-330 938l-342 -938h-94zM879 1825q54 0 87 -33.5t33 -87.5t-33 -88.5t-87 -34.5q-51 0 -86 34.5t-35 88.5
q0 53 34.5 87t86.5 34zM1305 1825q54 0 87 -33.5t33 -87.5t-33 -88.5t-87 -34.5q-51 0 -86 34.5t-35 88.5q0 53 34.5 87t86.5 34z" />
    <glyph glyph-name="wdieresis" unicode="&#x1e85;" horiz-adv-x="1660" 
d="M1071 -18l-233 581l-222 -581h-98l-403 940h-86v75h454v-75h-143l281 -670h12l158 428l-99 242h-102v75h495v-75h-170l259 -668h10l262 668h-170v75h356v-75h-96l-365 -940h-100zM651 1448q54 0 87.5 -33.5t33.5 -87.5t-33.5 -88.5t-87.5 -34.5q-50 0 -84.5 35t-34.5 88
t34.5 87t84.5 34zM1034 1448q54 0 87.5 -33.5t33.5 -87.5t-33.5 -88.5t-87.5 -34.5q-50 0 -84.5 35t-34.5 88t34.5 87t84.5 34z" />
    <glyph glyph-name="Ygrave" unicode="&#x1ef2;" horiz-adv-x="1394" 
d="M1065 0h-709v76h230v583l-430 740h-121v76h563v-76h-172l365 -627l360 627h-205v76h414v-76h-119l-405 -705v-618h229v-76zM780 1868q5 -63 29.5 -149.5t58.5 -143.5h-57q-81 49 -152.5 132.5t-99.5 160.5h221z" />
    <glyph glyph-name="ygrave" unicode="&#x1ef3;" horiz-adv-x="1118" 
d="M211 -516q-95 0 -148 41.5t-53 105.5q0 52 32.5 85.5t86.5 33.5q49 0 82 -30t33 -78q0 -45 -37 -66q11 -8 26 -8q77 0 142 78t137 264l31 78l-420 934h-94v75h475v-75h-156l295 -668l254 668h-166v75h359v-75h-103l-395 -1035q-86 -224 -171.5 -313.5t-209.5 -89.5z
M582 1495q8 -87 41.5 -184.5t74.5 -151.5h-55q-88 53 -165 145t-105 191h209z" />
    <glyph glyph-name="uni2009" unicode="&#x2009;" horiz-adv-x="131" 
 />
    <glyph glyph-name="endash" unicode="&#x2013;" horiz-adv-x="1009" 
d="M94 637h821v-80h-821v80z" />
    <glyph glyph-name="emdash" unicode="&#x2014;" horiz-adv-x="1603" 
d="M84 637h1436v-80h-1436v80z" />
    <glyph glyph-name="quoteleft" unicode="&#x2018;" horiz-adv-x="538" 
d="M283 983q-76 0 -125 49.5t-49 132.5q0 63 20.5 116.5t59 95.5t80 73t96.5 61l30 -55q-81 -44 -130.5 -108t-49.5 -134q0 -10 4 -30q39 39 90 39q45 0 81 -31t36 -84q0 -54 -41.5 -89.5t-101.5 -35.5z" />
    <glyph glyph-name="quoteright" unicode="&#x2019;" horiz-adv-x="538" 
d="M174 971l-31 55q82 45 131.5 108t49.5 134q0 5 -5 30q-35 -41 -90 -41q-45 0 -79.5 30.5t-34.5 84.5q0 55 40.5 91t100.5 36q76 0 125 -50.5t49 -133.5q0 -62 -20.5 -115.5t-59 -95t-80 -72.5t-96.5 -61z" />
    <glyph glyph-name="quotesinglbase" unicode="&#x201a;" horiz-adv-x="538" 
d="M174 -293l-31 55q82 45 131.5 108t49.5 134q0 6 -5 31q-35 -41 -90 -41q-45 0 -79.5 30.5t-34.5 84.5q0 55 40.5 91t100.5 36q76 0 125 -50.5t49 -134.5q0 -62 -20.5 -115.5t-59 -95t-80 -72.5t-96.5 -61z" />
    <glyph glyph-name="quotedblleft" unicode="&#x201c;" horiz-adv-x="950" 
d="M283 983q-76 0 -125 49.5t-49 132.5q0 63 20.5 116.5t59 95.5t80 73t96.5 61l30 -55q-81 -44 -130.5 -108t-49.5 -134q0 -10 4 -30q39 39 90 39q45 0 81 -31t36 -84q0 -54 -41.5 -89.5t-101.5 -35.5zM696 983q-79 0 -127.5 49t-48.5 133q0 63 20.5 116.5t59 95.5t80 73
t96.5 61l31 -55q-79 -45 -128.5 -109t-49.5 -133q0 -8 1 -17.5t1 -12.5q39 39 92 39q45 0 80 -30.5t35 -84.5t-41 -89.5t-101 -35.5z" />
    <glyph glyph-name="quotedblright" unicode="&#x201d;" horiz-adv-x="950" 
d="M174 971l-31 55q82 45 131.5 108t49.5 134q0 5 -5 30q-35 -41 -90 -41q-45 0 -79.5 30.5t-34.5 84.5q0 55 40.5 91t100.5 36q76 0 125 -50.5t49 -133.5q0 -62 -20.5 -115.5t-59 -95t-80 -72.5t-96.5 -61zM586 971l-29 55q80 45 129 108.5t49 133.5q0 12 -4 28
q-33 -39 -90 -39q-45 0 -80 30.5t-35 84.5q0 55 41 91t101 36q76 0 125 -50.5t49 -133.5q0 -62 -20.5 -115.5t-59 -95t-80 -72.5t-96.5 -61z" />
    <glyph glyph-name="quotedblbase" unicode="&#x201e;" horiz-adv-x="950" 
d="M174 -293l-31 55q82 45 131.5 108t49.5 134q0 6 -5 31q-35 -41 -90 -41q-45 0 -79.5 30.5t-34.5 84.5q0 55 40.5 91t100.5 36q76 0 125 -50.5t49 -134.5q0 -62 -20.5 -115.5t-59 -95t-80 -72.5t-96.5 -61zM586 -293l-29 55q80 45 129 108.5t49 133.5q0 13 -4 29
q-33 -39 -90 -39q-45 0 -80 30.5t-35 84.5q0 55 41 91t101 36q76 0 125 -50.5t49 -134.5q0 -62 -20.5 -115.5t-59 -95t-80 -72.5t-96.5 -61z" />
    <glyph glyph-name="dagger" unicode="&#x2020;" horiz-adv-x="897" 
d="M485 1090q47 3 90.5 24t82 40.5t77.5 19.5q51 0 83 -30t32 -79q0 -48 -32 -80.5t-85 -32.5q-46 0 -117.5 37.5t-130.5 40.5q0 -117 22.5 -175t100.5 -136v-17q-75 -75 -98 -177t-23 -328v-197h-77v197q0 227 -22 328.5t-97 176.5v17q78 78 100.5 136t22.5 175
q-59 -3 -130.5 -40.5t-117.5 -37.5q-53 0 -86 32.5t-33 80.5q0 49 32.5 79t84.5 30q39 0 77.5 -19.5t82 -40.5t90.5 -24q-3 57 -38.5 159t-35.5 144q0 48 30 78t79 30q50 0 79 -30t29 -78q0 -43 -34.5 -145t-37.5 -158z" />
    <glyph glyph-name="daggerdbl" unicode="&#x2021;" horiz-adv-x="901" 
d="M485 438q59 3 131 40.5t119 37.5q51 0 84 -31.5t33 -78.5q0 -49 -32.5 -79t-82.5 -30q-41 0 -79.5 19.5t-81.5 40.5t-91 24q3 -56 38.5 -156t35.5 -143q0 -48 -29 -78.5t-79 -30.5t-79.5 30.5t-29.5 78.5q0 43 35.5 143t38.5 156q-38 -2 -74.5 -15.5t-60 -28.5t-55 -27.5
t-62.5 -12.5q-50 0 -82.5 30t-32.5 79q0 47 33 78.5t84 31.5q46 0 119 -37.5t131 -40.5q0 95 -27 158t-102 133v16q75 70 102 133t27 158q-58 -3 -131 -40.5t-119 -37.5q-51 0 -84 32.5t-33 80.5q0 47 32.5 78t82.5 31q31 0 62.5 -12.5t55 -28t60 -29.5t74.5 -16
q-3 59 -38.5 157.5t-35.5 141.5q0 48 29.5 78t79.5 30t79 -30t29 -78q0 -43 -35.5 -141.5t-38.5 -157.5q48 3 91 24.5t81.5 41.5t79.5 20q50 0 82.5 -31t32.5 -78q0 -48 -33 -80.5t-84 -32.5q-47 0 -119 37.5t-131 40.5q0 -96 27 -157t104 -134v-16q-77 -73 -104 -134
t-27 -157z" />
    <glyph glyph-name="bullet" unicode="&#x2022;" horiz-adv-x="751" 
d="M377 903q113 0 188.5 -76.5t75.5 -187.5q0 -108 -76 -187t-188 -79q-109 0 -186.5 79.5t-77.5 186.5q0 110 77 187t187 77z" />
    <glyph glyph-name="ellipsis" unicode="&#x2026;" horiz-adv-x="1650" 
d="M823 256q61 0 102.5 -40.5t41.5 -98.5t-41.5 -99t-102.5 -41q-57 0 -97 41.5t-40 98.5t40 98t97 41zM303 256q61 0 102 -40.5t41 -98.5t-41 -99t-102 -41q-57 0 -97 41.5t-40 98.5t40 98t97 41zM1341 256q61 0 102.5 -40.5t41.5 -98.5t-41.5 -99t-102.5 -41
q-57 0 -97 41.5t-40 98.5t40 98t97 41z" />
    <glyph glyph-name="perthousand" unicode="&#x2030;" horiz-adv-x="2293" 
d="M410 1503q57 0 115.5 -28t106.5 -77t78.5 -122t30.5 -156t-29.5 -153t-77 -114t-106 -68.5t-118.5 -24.5t-118.5 25.5t-106.5 71.5t-77.5 117t-29.5 154t30 155.5t78 119.5t107 73.5t117 26.5zM1251 1501h115l-1077 -1548h-115zM410 1434q-73 0 -113.5 -74t-40.5 -213
v-43q0 -140 41.5 -206.5t112.5 -66.5t112 66.5t41 206.5v43q0 140 -40 213.5t-113 73.5zM1135 727q58 0 116.5 -28t106.5 -77t78 -123t30 -157t-29.5 -152.5t-77 -113.5t-106 -68t-118.5 -24q-61 0 -119.5 25t-105.5 70.5t-76 116.5t-29 154t30 155t77.5 120t106 75
t116.5 27zM1882 727q58 0 117 -28t107 -77t78 -123t30 -157t-29.5 -152.5t-77.5 -113.5t-106.5 -68t-118.5 -24q-61 0 -119.5 25t-105.5 70.5t-76 116.5t-29 154t30 155t77.5 120t106 75t116.5 27zM1135 655q-73 0 -112.5 -73t-39.5 -213v-43q0 -137 41.5 -205t110.5 -68
q71 0 113 68t42 205v43q0 139 -41 212.5t-114 73.5zM1882 655q-73 0 -112 -73t-39 -213v-43q0 -137 41 -205t110 -68q71 0 112.5 68t41.5 205v43q0 139 -40.5 212.5t-113.5 73.5z" />
    <glyph glyph-name="uni2032" unicode="&#x2032;" horiz-adv-x="405" 
d="M147 950h-59l33 418q6 70 36 101.5t85 31.5q45 0 72.5 -27.5t27.5 -74.5q0 -44 -31 -111z" />
    <glyph glyph-name="uni2033" unicode="&#x2033;" horiz-adv-x="739" 
d="M147 950h-59l33 418q6 70 36 101.5t85 31.5q45 0 72.5 -27.5t27.5 -74.5q0 -44 -31 -111zM481 950h-61l35 418q6 71 34.5 102t83.5 31q47 0 75 -27.5t28 -74.5q0 -44 -31 -111z" />
    <glyph glyph-name="guilsinglleft" unicode="&#x2039;" horiz-adv-x="516" 
d="M375 842h82l-172 -359v-10l172 -356h-82l-295 346v31z" />
    <glyph glyph-name="guilsinglright" unicode="&#x203a;" horiz-adv-x="516" 
d="M141 842l295 -348v-31l-295 -346h-82l174 356v10l-174 359h82z" />
    <glyph glyph-name="fraction" unicode="&#x2044;" horiz-adv-x="387" 
d="M780 1544h92l-1259 -1657h-92z" />
    <glyph glyph-name="zero.sup" unicode="&#x2070;" horiz-adv-x="907" 
d="M455 1657q156 0 269.5 -135.5t113.5 -329.5q0 -193 -111.5 -314.5t-271.5 -121.5q-163 0 -275 124t-112 318q0 195 113 327t274 132zM455 1585q-87 0 -135 -80.5t-48 -277.5v-66q0 -101 14 -169.5t41 -103.5t57.5 -49t70.5 -14q39 0 68.5 14t55 49t39 103.5t13.5 169.5
v66q0 102 -12.5 173t-37 111t-55 57t-71.5 17z" />
    <glyph glyph-name="four.sup" unicode="&#x2074;" horiz-adv-x="800" 
d="M741 856v-70h-444v70h129v125h-375v53l49 105q139 286 289 444q37 39 63.5 54.5t55.5 15.5q36 0 57 -25.5t21 -58.5q0 -31 -19.5 -53.5t-72.5 -51.5q-95 -51 -187 -146t-151 -218l-25 -49h295v227h190v-227h123v-70h-123v-125h125z" />
    <glyph glyph-name="five.sup" unicode="&#x2075;" horiz-adv-x="731" 
d="M670 1061q0 -123 -102 -214t-261 -91q-115 0 -187.5 53.5t-72.5 128.5q0 49 29 80t74 31q43 0 67.5 -25.5t24.5 -62.5q0 -34 -16.5 -56t-41.5 -28q5 -21 36 -36.5t81 -15.5q79 0 122.5 51t43.5 175v24q0 89 -42.5 134.5t-96.5 45.5q-97 0 -144 -88h-78v492h74
q52 -45 98.5 -61.5t110.5 -16.5q75 0 115 18t67 52l54 -25q-36 -92 -108.5 -136t-197.5 -44q-75 0 -135 29v-222q24 29 69.5 50.5t108.5 21.5q147 0 227.5 -74.5t80.5 -189.5z" />
    <glyph glyph-name="six.sup" unicode="&#x2076;" horiz-adv-x="833" 
d="M512 1587q-106 0 -173 -90.5t-67 -247.5v-14h9q55 84 188 84q144 0 222.5 -78.5t78.5 -200.5q0 -114 -89.5 -199t-242.5 -85q-149 0 -257.5 114t-108.5 299q0 132 58 243.5t162 178t230 66.5q94 0 144.5 -36.5t50.5 -98.5q0 -42 -25 -68.5t-67 -26.5q-40 0 -65 25.5
t-25 54.5q0 47 30 62q0 6 -16.5 12t-36.5 6zM438 823q68 0 105 52t37 153v37q0 88 -36 136t-104 48q-74 0 -117.5 -44t-43.5 -142v-29q0 -99 45 -155t114 -56z" />
    <glyph glyph-name="seven.sup" unicode="&#x2077;" horiz-adv-x="677" 
d="M352 786h-211v19q81 81 155 175t143.5 221.5t97.5 244.5l12 49h-252q-97 0 -131.5 -24t-46.5 -113h-64v276h582v-43l-35 -151q-85 -369 -250 -654z" />
    <glyph glyph-name="eight.sup" unicode="&#x2078;" horiz-adv-x="833" 
d="M418 756q-152 0 -254.5 70t-102.5 184q0 85 68 148.5t182 88.5q-95 22 -143.5 73.5t-48.5 117.5q0 84 83.5 151.5t215.5 67.5q129 0 214 -67t85 -150q0 -66 -49 -118.5t-144 -74.5q112 -30 179 -94t67 -149q0 -113 -100 -180.5t-252 -67.5zM418 1589q-57 0 -91 -37
t-34 -108v-25q0 -143 125 -143t125 141v27q0 72 -33 108.5t-92 36.5zM418 1217q-71 0 -110.5 -43.5t-39.5 -133.5v-28q0 -102 37.5 -146.5t112.5 -44.5q74 0 110.5 44t36.5 147v28q0 177 -147 177z" />
    <glyph glyph-name="nine.sup" unicode="&#x2079;" horiz-adv-x="833" 
d="M393 1161q73 0 117.5 45t44.5 142v30q0 99 -44.5 154t-113.5 55q-143 0 -143 -201v-34q0 -92 36 -141.5t103 -49.5zM311 756q-97 0 -155 39.5t-58 101.5q0 42 25 67t67 25q41 0 65 -23.5t24 -54.5q0 -43 -33 -61q3 -27 76 -27q120 0 179.5 90t59.5 248v17h-8
q-57 -86 -186 -86q-146 0 -223.5 77.5t-77.5 200.5q0 54 21.5 104.5t62 91.5t105 66t142.5 25q154 0 259.5 -113.5t105.5 -298.5q0 -142 -51.5 -251.5t-155 -173.5t-244.5 -64z" />
    <glyph glyph-name="zero.sub" unicode="&#x2080;" horiz-adv-x="907" 
d="M455 645q156 0 269.5 -135.5t113.5 -329.5q0 -193 -111.5 -314.5t-271.5 -121.5q-163 0 -275 124t-112 318q0 195 113 327t274 132zM455 573q-87 0 -135 -80.5t-48 -277.5v-65q0 -101 14 -169.5t41 -103.5t57.5 -49t70.5 -14q39 0 68.5 14t55 49t39 103.5t13.5 169.5v65
q0 102 -12.5 173t-37 111t-55 57t-71.5 17z" />
    <glyph glyph-name="one.sub" unicode="&#x2081;" horiz-adv-x="593" 
d="M61 -225v69h148v592l-162 -184v102l227 269h125v-779h150v-69h-488z" />
    <glyph glyph-name="two.sub" unicode="&#x2082;" horiz-adv-x="714" 
d="M201 -104h161q95 0 137.5 8.5t59 28t29.5 67.5h65v-225h-610v82l141 120q81 74 121.5 115t78.5 93t51.5 100t13.5 110v25q0 78 -38.5 116.5t-107.5 38.5q-54 0 -83 -17t-34 -44q70 -18 70 -88q0 -39 -25.5 -65.5t-72.5 -26.5q-53 0 -82 30.5t-29 81.5q0 81 80.5 140
t206.5 59q140 0 228.5 -67.5t88.5 -190.5q0 -54 -25.5 -105.5t-75 -100.5t-96 -86.5t-116.5 -89.5t-109 -85z" />
    <glyph glyph-name="three.sub" unicode="&#x2083;" horiz-adv-x="729" 
d="M297 -256q-125 0 -196.5 52t-71.5 128q0 52 28.5 80.5t71.5 28.5q41 0 65.5 -24.5t24.5 -63.5q0 -30 -16.5 -52.5t-36.5 -27.5q2 -20 30 -35.5t83 -15.5q87 0 135.5 53t48.5 147v21q0 166 -172 166h-76v69h59q172 0 172 148v24q0 68 -38.5 100.5t-102.5 32.5
q-46 0 -75.5 -14.5t-34.5 -30.5q53 -17 53 -73q0 -35 -22.5 -59.5t-63.5 -24.5q-39 0 -65.5 27.5t-26.5 70.5q0 74 70 124t188 50q134 0 211 -59.5t77 -153.5q0 -72 -56.5 -120t-143.5 -62v-10q250 -29 250 -232q0 -112 -103.5 -188t-265.5 -76z" />
    <glyph glyph-name="four.sub" unicode="&#x2084;" horiz-adv-x="800" 
d="M741 -156v-69h-444v69h129v125h-375v54l49 104q139 286 289 444q37 39 63.5 54.5t55.5 15.5q36 0 57 -25.5t21 -58.5q0 -31 -19 -53t-73 -51q-95 -51 -186.5 -146.5t-151.5 -218.5l-25 -49h295v227h190v-227h123v-70h-123v-125h125z" />
    <glyph glyph-name="five.sub" unicode="&#x2085;" horiz-adv-x="731" 
d="M670 49q0 -123 -102 -214t-261 -91q-115 0 -187.5 53.5t-72.5 128.5q0 49 29 80t74 31q43 0 67.5 -25.5t24.5 -62.5q0 -34 -16.5 -56t-41.5 -28q5 -21 35.5 -36t81.5 -15q79 0 122.5 50.5t43.5 174.5v24q0 89 -42.5 135t-96.5 46q-97 0 -144 -88h-78v491h74
q52 -45 98.5 -61.5t110.5 -16.5q75 0 115 18t67 52l54 -25q-36 -92 -108.5 -136t-197.5 -44q-75 0 -135 29v-221q24 29 69.5 50t108.5 21q147 0 227.5 -74.5t80.5 -189.5z" />
    <glyph glyph-name="six.sub" unicode="&#x2086;" horiz-adv-x="833" 
d="M512 575q-107 0 -173.5 -90t-66.5 -247v-15h9q55 84 188 84q144 0 222.5 -78t78.5 -200q0 -114 -89.5 -199.5t-242.5 -85.5q-149 0 -257.5 114.5t-108.5 299.5q0 202 129.5 344.5t320.5 142.5q94 0 144.5 -36.5t50.5 -98.5q0 -42 -25 -68t-67 -26q-40 0 -65 25.5
t-25 54.5q0 46 30 61q0 6 -16.5 12t-36.5 6zM438 -188q69 0 105.5 51.5t36.5 152.5v37q0 89 -36 137t-104 48q-73 0 -117 -44.5t-44 -142.5v-28q0 -99 45 -155t114 -56z" />
    <glyph glyph-name="seven.sub" unicode="&#x2087;" horiz-adv-x="677" 
d="M352 -225h-211v18q81 81 155 175t143.5 221.5t97.5 244.5l12 49h-252q-97 0 -131.5 -24t-46.5 -113h-64v277h582v-43l-35 -152q-85 -368 -250 -653z" />
    <glyph glyph-name="eight.sub" unicode="&#x2088;" horiz-adv-x="833" 
d="M418 -256q-152 0 -254.5 70t-102.5 184q0 85 68 149t182 89q-95 22 -143.5 73t-48.5 117q0 84 83.5 151.5t215.5 67.5q129 0 214 -67t85 -150q0 -66 -49 -118t-144 -74q112 -30 179 -94.5t67 -149.5q0 -113 -100 -180.5t-252 -67.5zM418 578q-57 0 -91 -37.5t-34 -108.5
v-24q0 -144 125 -144t125 142v26q0 72 -33.5 109t-91.5 37zM418 205q-150 0 -150 -176v-29q0 -102 37.5 -146t112.5 -44t111 43.5t36 146.5v29q0 176 -147 176z" />
    <glyph glyph-name="nine.sub" unicode="&#x2089;" horiz-adv-x="833" 
d="M393 150q73 0 117.5 44.5t44.5 141.5v31q0 99 -44.5 153.5t-113.5 54.5q-143 0 -143 -200v-35q0 -92 36 -141t103 -49zM311 -256q-97 0 -155 39.5t-58 101.5q0 42 25 67t67 25q41 0 65 -23t24 -54q0 -20 -9.5 -37t-23.5 -25q3 -26 76 -26q120 0 179.5 90t59.5 248v16h-8
q-57 -86 -186 -86q-146 0 -223.5 77.5t-77.5 200.5q0 54 21.5 104.5t62 91.5t105 66t142.5 25q154 0 259.5 -113.5t105.5 -298.5q0 -142 -51.5 -251.5t-155 -173.5t-244.5 -64z" />
    <glyph glyph-name="Euro" unicode="&#x20ac;" horiz-adv-x="1302" 
d="M1241 315q-52 -180 -163 -273t-306 -93q-102 0 -190 31t-154.5 85.5t-117 130.5t-81 164.5t-43.5 188.5h-153v76h145q-2 31 -2 84q0 55 6 110h-149v76h162q50 266 227.5 437t413.5 171q179 0 281 -83.5t102 -205.5q0 -72 -38 -115.5t-104 -43.5q-65 0 -105 41t-40 92
t27.5 88t74.5 47q-10 104 -203 104q-155 0 -258 -131.5t-127 -400.5h441v-76h-447v-121q0 -50 2 -73h445v-76h-443q19 -265 106 -390.5t257 -125.5q152 0 236.5 74.5t127.5 224.5z" />
    <glyph glyph-name="trademark" unicode="&#x2122;" horiz-adv-x="1615" 
d="M74 1475h600v-236h-60q-6 104 -37 142t-106 38h-25v-547h95v-51h-338v51h98v547h-25q-78 0 -106.5 -37t-36.5 -143h-59v236zM981 872v-51h-240v51h95v539h-95v64h283l121 -402h10l113 402h282v-64h-94v-539h94v-51h-321v51h82v537l-164 -582h-72l-174 588v-543h80z" />
    <glyph glyph-name="onethird" unicode="&#x2153;" horiz-adv-x="1683" 
d="M1241 -31q-125 0 -196.5 52.5t-71.5 128.5q0 52 28.5 80t71.5 28q41 0 65.5 -24.5t24.5 -63.5q0 -30 -16.5 -52.5t-36.5 -27.5q2 -20 30 -35.5t83 -15.5q87 0 135.5 53.5t48.5 147.5v20q0 166 -172 166h-76v70h60q172 0 172 147v25q0 68 -39 100.5t-103 32.5
q-46 0 -75.5 -14.5t-34.5 -30.5q53 -17 53 -74q0 -35 -22.5 -59.5t-63.5 -24.5q-39 0 -65.5 27.5t-26.5 70.5q0 74 70 124t188 50q134 0 211.5 -59.5t77.5 -153.5q0 -72 -57 -120t-144 -62v-10q250 -29 250 -232q0 -112 -103.5 -188t-265.5 -76zM72 627v69h147v592
l-162 -184v102l228 269h125v-779h149v-69h-487zM1386 1544h93l-1260 -1657h-92z" />
    <glyph glyph-name="twothirds" unicode="&#x2154;" horiz-adv-x="1804" 
d="M1362 -31q-125 0 -196.5 52.5t-71.5 128.5q0 52 28.5 80t71.5 28q41 0 65.5 -24.5t24.5 -63.5q0 -30 -16.5 -52.5t-36.5 -27.5q2 -20 29.5 -35.5t82.5 -15.5q87 0 136 53.5t49 147.5v20q0 166 -172 166h-76v70h59q172 0 172 147v25q0 68 -38.5 100.5t-102.5 32.5
q-46 0 -75.5 -14.5t-34.5 -30.5q53 -17 53 -74q0 -35 -22.5 -59.5t-63.5 -24.5q-39 0 -65.5 27.5t-26.5 70.5q0 74 70 124t188 50q134 0 211 -59.5t77 -153.5q0 -72 -56.5 -120t-143.5 -62v-10q250 -29 250 -232q0 -112 -103.5 -188t-265.5 -76zM211 748h162q95 0 137.5 8.5
t58.5 28t29 67.5h66v-225h-611v82l142 120q65 59 100 93.5t72 77.5t54 77.5t27.5 77t10.5 92.5v25q0 78 -38.5 116.5t-107.5 38.5q-54 0 -82.5 -17t-33.5 -44q69 -18 69 -88q0 -39 -25.5 -65.5t-72.5 -26.5q-53 0 -82 30.5t-29 81.5q0 81 80.5 140t206.5 59
q141 0 229.5 -67.5t88.5 -190.5q0 -54 -25.5 -105.5t-75 -100.5t-96 -86.5t-116.5 -89.5t-109 -85zM1503 1544h92l-1259 -1657h-92z" />
    <glyph glyph-name="oneeighth" unicode="&#x215b;" horiz-adv-x="1738" 
d="M1313 -31q-152 0 -254.5 70t-102.5 184q0 85 68 149t182 89q-95 22 -143.5 73t-48.5 117q0 84 83.5 151.5t215.5 67.5q129 0 214 -67t85 -150q0 -66 -49 -118t-144 -74q112 -30 179 -94.5t67 -149.5q0 -113 -100 -180.5t-252 -67.5zM1313 803q-57 0 -91 -37.5t-34 -108.5
v-24q0 -144 125 -144t125 142v26q0 72 -33.5 109t-91.5 37zM1313 430q-150 0 -150 -176v-29q0 -102 37.5 -146t112.5 -44t111 43.5t36 146.5v29q0 176 -147 176zM72 627v69h147v592l-162 -184v102l228 269h125v-779h149v-69h-487zM1403 1544h92l-1259 -1657h-93z" />
    <glyph glyph-name="threeeighths" unicode="&#x215c;" horiz-adv-x="1744" 
d="M1319 -31q-152 0 -254 70t-102 184q0 85 67.5 149t181.5 89q-95 22 -143.5 73t-48.5 117q0 84 83.5 151.5t215.5 67.5q129 0 214 -67t85 -150q0 -66 -49 -118t-144 -74q112 -30 179 -94.5t67 -149.5q0 -113 -100 -180.5t-252 -67.5zM1319 803q-57 0 -91 -37.5t-34 -108.5
v-24q0 -144 125 -144t125 142v26q0 72 -33.5 109t-91.5 37zM1319 430q-150 0 -150 -176v-29q0 -102 37.5 -146t112.5 -44t111 43.5t36 146.5v29q0 176 -147 176zM1421 1544h92l-1259 -1657h-92zM307 596q-125 0 -196.5 52t-71.5 128q0 52 28.5 80.5t71.5 28.5
q41 0 65.5 -24.5t24.5 -63.5q0 -30 -16.5 -52.5t-36.5 -27.5q2 -20 30 -35.5t83 -15.5q87 0 135.5 53t48.5 147v21q0 166 -172 166h-76v69h60q172 0 172 148v24q0 68 -39 100.5t-103 32.5q-46 0 -75.5 -14.5t-34.5 -30.5q53 -17 53 -73q0 -35 -22.5 -59.5t-63.5 -24.5
q-39 0 -65.5 27.5t-26.5 70.5q0 74 70 124t188 50q134 0 211.5 -59.5t77.5 -153.5q0 -72 -57 -120t-144 -62v-10q250 -29 250 -232q0 -112 -103.5 -188t-265.5 -76z" />
    <glyph glyph-name="fiveeighths" unicode="&#x215d;" horiz-adv-x="1746" 
d="M1321 -31q-152 0 -254 70t-102 184q0 85 67.5 149t181.5 89q-95 22 -143.5 73t-48.5 117q0 84 83.5 151.5t215.5 67.5q129 0 214 -67t85 -150q0 -66 -49 -118t-144 -74q112 -30 179 -94.5t67 -149.5q0 -113 -100 -180.5t-252 -67.5zM1321 803q-57 0 -91 -37.5t-34 -108.5
v-24q0 -144 125 -144t125 142v26q0 72 -33.5 109t-91.5 37zM1321 430q-150 0 -150 -176v-29q0 -102 37.5 -146t112.5 -44t111 43.5t36 146.5v29q0 176 -147 176zM680 901q0 -123 -102 -214t-261 -91q-115 0 -187.5 53.5t-72.5 128.5q0 49 29 80t74 31q43 0 67.5 -25.5
t24.5 -62.5q0 -34 -16 -56t-41 -28q5 -21 35 -36t81 -15q79 0 122.5 50.5t43.5 174.5v24q0 89 -42.5 135t-96.5 46q-96 0 -143 -88h-78v491h73q52 -45 98.5 -61.5t110.5 -16.5q75 0 115.5 18t67.5 52l53 -25q-36 -93 -108 -136.5t-197 -43.5q-75 0 -135 29v-221
q24 29 69.5 50t108.5 21q147 0 227 -74.5t80 -189.5zM1415 1544h92l-1259 -1657h-92z" />
    <glyph glyph-name="seveneighths" unicode="&#x215e;" horiz-adv-x="1681" 
d="M1255 -31q-152 0 -254 70t-102 184q0 85 68 149t182 89q-95 22 -144 73t-49 117q0 84 83.5 151.5t215.5 67.5q129 0 214 -67t85 -150q0 -66 -48.5 -118t-143.5 -74q112 -30 179 -94.5t67 -149.5q0 -113 -100.5 -180.5t-252.5 -67.5zM1255 803q-57 0 -91 -37.5t-34 -108.5
v-24q0 -144 125 -144t125 142v26q0 72 -33.5 109t-91.5 37zM1255 430q-149 0 -149 -176v-29q0 -102 37 -146t112 -44t111.5 44t36.5 146v29q0 176 -148 176zM389 627h-211v18q81 81 154.5 175t143 221.5t97.5 244.5l13 49h-252q-97 0 -131.5 -24t-46.5 -113h-64v277h582v-43
l-35 -152q-85 -368 -250 -653zM1327 1544h92l-1259 -1657h-92z" />
    <glyph glyph-name="minus" unicode="&#x2212;" horiz-adv-x="894" 
d="M78 678h737v-80h-737v80z" />
    <glyph glyph-name="uni24C5" unicode="&#x24c5;" horiz-adv-x="1517" 
d="M84 725q0 182 90 338t246 248t340 92q182 0 338 -92t247 -248t91 -338t-91 -338t-247 -248t-338 -92q-184 0 -340 92t-246 248t-90 338zM1356 725q0 165 -78.5 304.5t-216 221.5t-301.5 82q-166 0 -303.5 -82t-216 -221.5t-78.5 -304.5t78.5 -304.5t216 -221.5t303.5 -82
q164 0 301.5 82t216 221.5t78.5 304.5zM795 705q66 0 93 36t27 113v25q0 82 -34.5 115.5t-110.5 33.5h-59v-311q46 -12 84 -12zM817 426v-53h-354v53h88v602h-88v51h319q131 0 212 -56t81 -165q0 -106 -75 -157.5t-193 -51.5q-46 0 -96 13v-236h106z" />
    <glyph glyph-name="zero.den" unicode="&#xe402;" horiz-adv-x="907" 
d="M455 870q157 0 270 -135.5t113 -328.5t-111.5 -315t-271.5 -122q-163 0 -275 124t-112 319t113 326.5t274 131.5zM455 799q-87 0 -135 -81t-48 -278v-65q0 -101 14 -169.5t41 -103.5t57.5 -49t70.5 -14q39 0 68.5 14t55 49t39 103.5t13.5 169.5v65q0 197 -45.5 278
t-130.5 81z" />
    <glyph glyph-name="one.den" unicode="&#xe403;" horiz-adv-x="593" 
d="M61 0v70h148v592l-162 -185v103l227 268h125v-778h150v-70h-488z" />
    <glyph glyph-name="two.den" unicode="&#xe404;" horiz-adv-x="714" 
d="M201 121h161q95 0 137.5 8.5t59 28t29.5 67.5h65v-225h-610v82l141 121q81 74 121.5 115t78.5 93t51.5 100t13.5 110v24q0 78 -38.5 117t-107.5 39q-54 0 -83 -17.5t-34 -44.5q70 -18 70 -88q0 -39 -25.5 -65.5t-72.5 -26.5q-53 0 -82 31t-29 82q0 81 80 139.5t207 58.5
q140 0 228.5 -67.5t88.5 -190.5q0 -54 -25.5 -105.5t-75 -100.5t-96 -86.5t-116.5 -89.5t-109 -85z" />
    <glyph glyph-name="three.den" unicode="&#xe405;" horiz-adv-x="729" 
d="M297 -31q-125 0 -196.5 52.5t-71.5 128.5q0 52 28.5 80t71.5 28q41 0 65.5 -24.5t24.5 -63.5q0 -30 -16.5 -52.5t-36.5 -27.5q2 -20 30 -35.5t83 -15.5q87 0 135.5 53.5t48.5 147.5v20q0 166 -172 166h-76v70h59q172 0 172 147v25q0 68 -38.5 100.5t-102.5 32.5
q-46 0 -75.5 -14.5t-34.5 -30.5q53 -17 53 -74q0 -35 -22.5 -59.5t-63.5 -24.5q-39 0 -65.5 27.5t-26.5 70.5q0 74 70 124t188 50q134 0 211 -59.5t77 -153.5q0 -72 -56.5 -120t-143.5 -62v-10q250 -29 250 -232q0 -112 -103.5 -188t-265.5 -76z" />
    <glyph glyph-name="four.den" unicode="&#xe406;" horiz-adv-x="800" 
d="M741 70v-70h-444v70h129v125h-375v53l49 104q139 288 289 445q37 38 63.5 53.5t55.5 15.5q36 0 57 -25.5t21 -58.5q0 -31 -19 -53t-73 -51q-95 -51 -186.5 -146.5t-151.5 -218.5l-25 -49h295v228h190v-228h123v-69h-123v-125h125z" />
    <glyph glyph-name="five.den" unicode="&#xe407;" horiz-adv-x="731" 
d="M670 274q0 -123 -102 -214t-261 -91q-115 0 -187.5 54t-72.5 129q0 49 29 79.5t74 30.5q43 0 67.5 -25.5t24.5 -62.5q0 -34 -16.5 -56t-41.5 -28q5 -21 35.5 -36t81.5 -15q79 0 122.5 50.5t43.5 174.5v25q0 89 -42.5 134.5t-96.5 45.5q-97 0 -144 -88h-78v491h74
q51 -45 98 -61t111 -16q75 0 115 17.5t67 51.5l54 -24q-36 -93 -108.5 -137t-197.5 -44q-75 0 -135 29v-221q24 29 69.5 50.5t108.5 21.5q147 0 227.5 -75t80.5 -190z" />
    <glyph glyph-name="six.den" unicode="&#xe408;" horiz-adv-x="833" 
d="M512 801q-106 0 -173 -90.5t-67 -247.5v-14h9q55 83 188 83q144 0 222.5 -78t78.5 -200q0 -114 -89.5 -199.5t-242.5 -85.5q-149 0 -257.5 114.5t-108.5 299.5q0 202 129.5 344.5t320.5 142.5q94 0 144.5 -36.5t50.5 -98.5q0 -42 -25 -68t-67 -26q-40 0 -65 25.5
t-25 54.5q0 46 30 61q0 6 -16.5 12.5t-36.5 6.5zM438 37q68 0 105 52t37 153v37q0 88 -36 136t-104 48q-73 0 -117 -44.5t-44 -142.5v-28q0 -99 45 -155t114 -56z" />
    <glyph glyph-name="seven.den" unicode="&#xe409;" horiz-adv-x="677" 
d="M352 0h-211v18q81 81 155 175t143.5 221.5t97.5 244.5l12 50h-252q-97 0 -131.5 -24.5t-46.5 -113.5h-64v277h582v-43l-35 -152q-85 -368 -250 -653z" />
    <glyph glyph-name="eight.den" unicode="&#xe40a;" horiz-adv-x="833" 
d="M418 -31q-152 0 -254.5 70t-102.5 184q0 85 68 149t182 89q-95 22 -143.5 73t-48.5 117q0 84 83.5 151.5t215.5 67.5q129 0 214 -67t85 -150q0 -66 -49 -118t-144 -74q112 -30 179 -94.5t67 -149.5q0 -113 -100 -180.5t-252 -67.5zM418 803q-57 0 -91 -37.5t-34 -108.5
v-24q0 -144 125 -144t125 142v26q0 72 -33.5 109t-91.5 37zM418 430q-150 0 -150 -176v-29q0 -102 37.5 -146t112.5 -44t111 43.5t36 146.5v29q0 176 -147 176z" />
    <glyph glyph-name="nine.den" unicode="&#xe40b;" horiz-adv-x="833" 
d="M393 375q73 0 117.5 44.5t44.5 141.5v31q0 99 -44.5 154t-113.5 55q-143 0 -143 -201v-35q0 -92 36 -141t103 -49zM311 -31q-97 0 -155 40t-58 102q0 42 25 67t67 25q41 0 65 -23.5t24 -54.5q0 -20 -9.5 -37t-23.5 -25q3 -26 76 -26q120 0 179.5 90t59.5 248v16h-8
q-57 -86 -186 -86q-146 0 -223.5 78t-77.5 201q0 114 88.5 200t242.5 86t259.5 -113t105.5 -298q0 -217 -120 -353.5t-331 -136.5z" />
    <glyph glyph-name="zero.num" unicode="&#xe416;" horiz-adv-x="907" 
d="M455 1497q156 0 269.5 -135.5t113.5 -329.5q0 -193 -111.5 -314.5t-271.5 -121.5q-163 0 -275 124t-112 318q0 195 113 327t274 132zM455 1425q-87 0 -135 -80.5t-48 -277.5v-66q0 -101 14 -169.5t41 -103t57.5 -48.5t70.5 -14q39 0 68.5 13.5t55 48.5t39 103.5
t13.5 169.5v66q0 102 -12.5 173t-37 111t-55 57t-71.5 17z" />
    <glyph glyph-name="one.num" unicode="&#xe417;" horiz-adv-x="593" 
d="M61 627v69h148v592l-162 -184v102l227 269h125v-779h150v-69h-488z" />
    <glyph glyph-name="two.num" unicode="&#xe418;" horiz-adv-x="714" 
d="M201 748h161q95 0 137.5 8.5t59 28t29.5 67.5h65v-225h-610v82l141 120q81 74 121.5 115t78.5 93t51.5 100t13.5 110v25q0 78 -38.5 116.5t-107.5 38.5q-54 0 -83 -17t-34 -44q70 -18 70 -88q0 -39 -25.5 -65.5t-72.5 -26.5q-53 0 -82 30.5t-29 81.5q0 81 80.5 140
t206.5 59q140 0 228.5 -67.5t88.5 -190.5q0 -54 -25.5 -105.5t-75 -100.5t-96 -86.5t-116.5 -89.5t-109 -85z" />
    <glyph glyph-name="three.num" unicode="&#xe419;" horiz-adv-x="729" 
d="M297 596q-125 0 -196.5 52t-71.5 128q0 52 28.5 80.5t71.5 28.5q41 0 65.5 -24.5t24.5 -63.5q0 -30 -16.5 -52.5t-36.5 -27.5q2 -20 30 -35.5t83 -15.5q87 0 135.5 53t48.5 147v21q0 166 -172 166h-76v69h59q172 0 172 148v24q0 68 -38.5 100.5t-102.5 32.5
q-46 0 -75.5 -14.5t-34.5 -30.5q53 -17 53 -73q0 -35 -22.5 -59.5t-63.5 -24.5q-39 0 -65.5 27.5t-26.5 70.5q0 74 70 124t188 50q134 0 211 -59.5t77 -153.5q0 -72 -56.5 -120t-143.5 -62v-10q250 -29 250 -232q0 -112 -103.5 -188t-265.5 -76z" />
    <glyph glyph-name="four.num" unicode="&#xe41a;" horiz-adv-x="800" 
d="M741 696v-69h-444v69h129v125h-375v53l49 105q139 286 289 444q37 39 63.5 54.5t55.5 15.5q36 0 57 -25.5t21 -58.5q0 -31 -19 -53t-73 -51q-95 -51 -186.5 -146.5t-151.5 -218.5l-25 -49h295v227h190v-227h123v-70h-123v-125h125z" />
    <glyph glyph-name="five.num" unicode="&#xe41b;" horiz-adv-x="731" 
d="M670 901q0 -123 -102 -214t-261 -91q-115 0 -187.5 53.5t-72.5 128.5q0 49 29 80t74 31q43 0 67.5 -25.5t24.5 -62.5q0 -34 -16.5 -56t-41.5 -28q5 -21 35.5 -36t81.5 -15q79 0 122.5 50.5t43.5 174.5v24q0 89 -42.5 135t-96.5 46q-97 0 -144 -88h-78v491h74
q52 -45 98.5 -61.5t110.5 -16.5q75 0 115 18t67 52l54 -25q-36 -92 -108.5 -136t-197.5 -44q-75 0 -135 29v-221q24 29 69.5 50t108.5 21q147 0 227.5 -74.5t80.5 -189.5z" />
    <glyph glyph-name="six.num" unicode="&#xe41c;" horiz-adv-x="833" 
d="M512 1427q-107 0 -173.5 -90t-66.5 -247v-15h9q55 84 188 84q144 0 222.5 -78t78.5 -200q0 -114 -89.5 -199.5t-242.5 -85.5q-149 0 -257.5 114.5t-108.5 299.5q0 202 129.5 344.5t320.5 142.5q94 0 144.5 -36.5t50.5 -98.5q0 -42 -25 -68t-67 -26q-40 0 -65 25.5
t-25 54.5q0 46 30 61q0 6 -16.5 12t-36.5 6zM438 664q69 0 105.5 51.5t36.5 152.5v37q0 89 -36 137t-104 48q-73 0 -117 -44.5t-44 -142.5v-29q0 -99 45 -154.5t114 -55.5z" />
    <glyph glyph-name="seven.num" unicode="&#xe41d;" horiz-adv-x="677" 
d="M352 627h-211v18q81 81 155 175t143.5 221.5t97.5 244.5l12 49h-252q-97 0 -131.5 -24t-46.5 -113h-64v277h582v-43l-35 -152q-85 -368 -250 -653z" />
    <glyph glyph-name="eight.num" unicode="&#xe41e;" horiz-adv-x="833" 
d="M418 596q-152 0 -254.5 70t-102.5 184q0 85 68 148.5t182 88.5q-95 22 -143.5 73.5t-48.5 117.5q0 84 83.5 151.5t215.5 67.5q129 0 214 -67t85 -150q0 -66 -49 -118.5t-144 -74.5q112 -30 179 -94t67 -149q0 -113 -100 -180.5t-252 -67.5zM418 1430q-57 0 -91 -37.5
t-34 -108.5v-24q0 -144 125 -144t125 141v27q0 72 -33.5 109t-91.5 37zM418 1057q-150 0 -150 -176v-29q0 -102 37.5 -146t112.5 -44t111 43.5t36 146.5v29q0 176 -147 176z" />
    <glyph glyph-name="nine.num" unicode="&#xe41f;" horiz-adv-x="833" 
d="M393 1001q73 0 117.5 45t44.5 142v31q0 99 -44.5 153.5t-113.5 54.5q-143 0 -143 -200v-35q0 -92 36 -141.5t103 -49.5zM311 596q-97 0 -155 39.5t-58 101.5q0 42 25 67t67 25q41 0 65 -23t24 -54q0 -20 -9.5 -37t-23.5 -25q3 -26 76 -26q121 0 180 89.5t59 247.5v17h-8
q-57 -86 -186 -86q-146 0 -223.5 77.5t-77.5 200.5q0 54 21.5 104.5t62 91.5t105 66t142.5 25q154 0 259.5 -113.5t105.5 -298.5q0 -142 -51.5 -251.5t-155 -173.5t-244.5 -64z" />
    <glyph glyph-name="K.alt" unicode="&#xe48a;" horiz-adv-x="1646" 
d="M766 76v-76h-694v76h221v1323h-221v76h694v-76h-221v-613h141l500 613h-187v76h435v-76h-152l-446 -547l626 -776h144v-76h-607v76h162l-514 635h-102v-635h221z" />
    <glyph glyph-name="paragraph.alt" unicode="&#xe49b;" horiz-adv-x="1224" 
d="M911 354v1045h-141v-1145q0 -188 -86 -270q227 92 227 370zM997 1399v-1051q0 -110 -40.5 -198t-109 -142t-154 -82t-179.5 -28q-137 0 -224 60t-87 167q0 62 36.5 102.5t98.5 40.5q61 0 95 -38t34 -95q0 -43 -24.5 -73.5t-61.5 -38.5q1 -25 35.5 -39.5t81.5 -14.5
q186 0 186 252v459q-73 -21 -141 -21q-64 0 -123.5 11.5t-117.5 40.5t-101 72.5t-69 112.5t-26 155q0 85 29 157t77.5 120.5t112.5 82t133 49t140 15.5h555v-76h-156z" />
    <glyph glyph-name="g.alt" unicode="&#xe4c6;" horiz-adv-x="1107" 
d="M512 969q-81 0 -123.5 -55.5t-42.5 -180.5v-47q0 -138 42.5 -199t123.5 -61t123.5 61t42.5 197v47q0 238 -166 238zM1016 -156q0 -76 -27.5 -137t-73.5 -101t-110 -67t-134.5 -39t-148.5 -12q-213 0 -332.5 87.5t-119.5 221.5q0 45 18.5 80.5t49 57t58.5 34t58 19.5v8
q-31 4 -62 19t-60 41.5t-47.5 70.5t-18.5 98q0 154 163 250q-98 98 -98 223q0 132 112.5 237t268.5 105q172 0 287 -122q19 46 62 79t100 33q66 0 94 -33t28 -75t-26 -67.5t-64 -25.5q-44 0 -66 25t-22 59q0 36 23 56q-36 -10 -59 -38.5t-29 -66.5q49 -81 49 -166
q0 -63 -29 -125t-78 -110.5t-120 -78.5t-150 -30q-135 0 -238 80q-100 -54 -100 -143q0 -55 35.5 -86t105.5 -31h303q195 0 296.5 -85.5t101.5 -244.5zM520 -350h17q399 0 399 180q0 67 -57 98t-185 31h-280q-69 0 -123.5 -12.5t-95.5 -50.5t-41 -99q0 -83 85 -115t281 -32z
" />
    <glyph glyph-name="k.alt" unicode="&#xe4ca;" horiz-adv-x="1230" 
d="M514 537l2 2l-2 2h-2zM578 76v-76h-517v76h146v1388h-174v76h395v-960h115l301 342h-127v75h362v-75h-135l-248 -279l408 -567h102v-76h-483v76h129l-311 428h-113v-428h150z" />
    <glyph glyph-name="at.sc" unicode="&#xf60b;" horiz-adv-x="1945" 
d="M987 -315q-147 0 -280 31t-248.5 96t-200 158.5t-132.5 226t-48 290.5q0 181 59.5 344t162.5 285.5t236.5 212.5t286 136t307.5 46q174 0 316.5 -52.5t235 -143t142.5 -208.5t50 -251q0 -148 -49.5 -279t-134 -223.5t-201.5 -146t-248 -53.5q-107 0 -158 37.5t-51 91.5
q0 42 8 63h-8q-56 -85 -133 -139.5t-164 -54.5q-114 0 -180 74t-66 184q0 96 43 194t113.5 176.5t156 140.5t176 96t167.5 34q136 0 147 -115h11l43 90h210l-272 -614q-47 -89 -47 -125q0 -28 17.5 -38.5t52.5 -10.5q94 0 182.5 46.5t156.5 127t109 197t41 247.5
q0 121 -44 227t-125.5 187.5t-210 128.5t-286.5 47q-179 0 -342 -70.5t-284.5 -194t-193.5 -304.5t-72 -390q0 -181 55 -322t155.5 -231.5t236.5 -137t302 -46.5q206 0 373.5 64t273.5 168l43 -50q-121 -116 -295.5 -181.5t-394.5 -65.5zM1149 981q-93 0 -179.5 -80.5
t-178.5 -261.5q-60 -116 -82.5 -186t-22.5 -127q0 -90 80 -90q101 0 219.5 119.5t192.5 293.5l39 103q42 94 22.5 161.5t-90.5 67.5z" />
    <glyph glyph-name="braceleft.sc" unicode="&#xf60c;" horiz-adv-x="591" 
d="M229 621v-9q89 -26 139 -89t50 -140q0 -61 -47 -232.5t-47 -252.5q0 -151 211 -170v-58q-85 4 -155.5 23.5t-127 56t-88 96t-31.5 136.5q0 67 34.5 165.5t68.5 184t34 121.5q0 125 -170 125h-80v75h80q170 0 170 123q0 37 -34 121.5t-68.5 181.5t-34.5 164q0 77 31.5 137
t87.5 98t127.5 58.5t155.5 24.5v-62q-112 -10 -161.5 -55t-49.5 -121q0 -77 47 -245t47 -232q0 -92 -48 -144.5t-141 -80.5z" />
    <glyph glyph-name="braceright.sc" unicode="&#xf60d;" horiz-adv-x="591" 
d="M174 383q0 78 49.5 141t138.5 88v9q-93 28 -140.5 80.5t-47.5 144.5q0 64 47 232t47 245q0 157 -213 176v62q115 -5 203.5 -39t144.5 -105.5t56 -173.5q0 -67 -34.5 -164t-68.5 -181.5t-34 -121.5q0 -123 170 -123h77v-75h-77q-170 0 -170 -125q0 -36 34 -121.5
t68.5 -184t34.5 -165.5q0 -77 -31.5 -136.5t-88 -96t-127.5 -56t-157 -23.5v58q213 19 213 170q0 81 -47 252.5t-47 232.5z" />
    <glyph glyph-name="bracketleft.sc" unicode="&#xf60e;" horiz-adv-x="620" 
d="M569 -324h-448v1880h448v-75h-266v-1729h266v-76z" />
    <glyph glyph-name="bracketright.sc" unicode="&#xf60f;" horiz-adv-x="620" 
d="M51 -324v76h264v1729h-264v75h447v-1880h-447z" />
    <glyph glyph-name="parenleft.sc" unicode="&#xf618;" horiz-adv-x="667" 
d="M623 1538v-63q-37 -22 -73 -55.5t-76.5 -84.5t-74.5 -122.5t-62.5 -159.5t-44.5 -207t-16 -254v-8q0 -165 23 -303.5t58 -229.5t83.5 -163.5t91.5 -111.5t91 -67v-63q-65 26 -135.5 78t-144 137t-131 189t-94 245t-36.5 293q0 149 36.5 289.5t94 246.5t130.5 193t144 141
t136 80z" />
    <glyph glyph-name="parenright.sc" unicode="&#xf619;" horiz-adv-x="667" 
d="M45 1538q66 -26 137 -79.5t144 -140.5t131 -193t94.5 -246.5t36.5 -290.5q0 -153 -36.5 -294t-94 -244.5t-131 -189t-144.5 -137t-137 -77.5v63q39 23 75 54t77 80t74 118t61 156.5t43.5 207.5t15.5 259v8q0 161 -23.5 299t-59 231t-84 168t-91.5 116.5t-88 68.5v63z" />
    <glyph glyph-name="quotedblleft.sc" unicode="&#xf61c;" horiz-adv-x="950" 
d="M283 805q-76 0 -125 50.5t-49 131.5q0 63 20.5 116.5t59 95.5t80 73t96.5 61l30 -55q-81 -44 -130.5 -108t-49.5 -134q0 -10 4 -30q38 38 90 38q46 0 81.5 -30.5t35.5 -83.5q0 -54 -41.5 -89.5t-101.5 -35.5zM696 805q-78 0 -127 50.5t-49 131.5q0 63 20.5 116.5t59 95.5
t80 73t96.5 61l31 -55q-79 -45 -128.5 -109t-49.5 -133q0 -8 1 -17.5t1 -12.5q38 38 92 38q45 0 80 -30.5t35 -83.5q0 -54 -41 -89.5t-101 -35.5z" />
    <glyph glyph-name="quotedblright.sc" unicode="&#xf61d;" horiz-adv-x="950" 
d="M174 793l-31 53q82 47 131.5 110t49.5 134q0 5 -5 30q-38 -41 -90 -41q-45 0 -79.5 30.5t-34.5 84.5q0 55 40.5 91t100.5 36q76 0 125 -50.5t49 -131.5q0 -63 -20.5 -116.5t-59 -95.5t-80 -73t-96.5 -61zM586 793l-29 53q80 47 129 110.5t49 133.5q0 8 -4 28
q-33 -39 -90 -39q-45 0 -80 30.5t-35 84.5q0 55 41 91t101 36q76 0 125 -50.5t49 -131.5q0 -63 -20.5 -116.5t-59 -95.5t-80 -73t-96.5 -61z" />
    <glyph glyph-name="quoteleft.sc" unicode="&#xf61f;" horiz-adv-x="538" 
d="M283 805q-76 0 -125 50.5t-49 131.5q0 63 20.5 116.5t59 95.5t80 73t96.5 61l30 -55q-81 -44 -130.5 -108t-49.5 -134q0 -10 4 -30q38 38 90 38q46 0 81.5 -30.5t35.5 -83.5q0 -54 -41.5 -89.5t-101.5 -35.5z" />
    <glyph glyph-name="quoteright.sc" unicode="&#xf620;" horiz-adv-x="538" 
d="M174 793l-31 53q82 47 131.5 110t49.5 134q0 5 -5 30q-38 -41 -90 -41q-45 0 -79.5 30.5t-34.5 84.5q0 55 40.5 91t100.5 36q76 0 125 -50.5t49 -131.5q0 -63 -20.5 -116.5t-59 -95.5t-80 -73t-96.5 -61z" />
    <glyph glyph-name="AEacute.sc" unicode="&#xf624;" horiz-adv-x="1789" 
d="M815 1186h-6l-262 -498h268v498zM383 76v-76h-348v76h96l586 1110h-131v78h1024v-361h-70q-13 62 -25.5 103t-33 75t-44.5 52.5t-63.5 31.5t-87 17t-117.5 4h-114v-498h86q35 0 60 3.5t43.5 16t29 24t20 39t14.5 49t13 65.5h68v-439h-68q-10 40 -15.5 58.5t-15.5 42
t-20 32.5t-28.5 18.5t-42 12t-58.5 2.5h-86v-536h127q91 0 153.5 6t110 22.5t76.5 39t50 64t32 87t22 117.5h70v-412h-1067v76h186v536h-309l-283 -536h160zM1030 1384q41 54 75.5 152t41.5 184h209q-27 -97 -105 -188t-166 -148h-55z" />
    <glyph glyph-name="Oslashacute.sc" unicode="&#xf627;" horiz-adv-x="1404" 
d="M360 643v-72q0 -150 23 -268l563 805q-79 104 -244 104t-253.5 -134.5t-88.5 -434.5zM702 33q77 0 136 25t106.5 84t72.5 167t25 262v72q0 273 -61 401l-575 -823q37 -102 109 -145t187 -43zM702 -43q-221 0 -383 143l-124 -178h-78l155 221q-176 191 -176 467
q0 146 52 275t137 216t194.5 137t222.5 50q162 0 302 -96l100 141h80l-127 -180q115 -96 182.5 -239.5t67.5 -315.5q0 -148 -52 -272t-138 -203t-193.5 -122.5t-221.5 -43.5zM606 1384q41 54 75.5 152t41.5 184h209q-27 -97 -104.5 -188.5t-165.5 -147.5h-56z" />
    <glyph glyph-name="Ccircumflex.sc" unicode="&#xf628;" horiz-adv-x="1267" 
d="M719 -43q-127 0 -241 48t-198.5 132t-134 206.5t-49.5 264.5t50 268.5t134.5 216t200.5 141.5t244 52q70 0 132.5 -16.5t102.5 -32.5t56 -16q22 0 31 9.5t14 33.5h67v-406h-69q-31 185 -115.5 268.5t-218.5 83.5q-58 0 -107.5 -15t-98.5 -54t-83 -101t-55 -163t-21 -232
v-55q0 -113 14 -202.5t40.5 -149t59.5 -101t75 -63.5t82.5 -31.5t87.5 -9.5q144 0 238 94t124 295h70v-420h-68q-6 39 -51 39q-21 0 -64.5 -21t-108.5 -42t-140 -21zM813 1384l-137 199l-137 -199h-80l221 322h84l221 -322h-172z" />
    <glyph glyph-name="Cdotaccent.sc" unicode="&#xf629;" horiz-adv-x="1267" 
d="M719 -43q-127 0 -241 48t-198.5 132t-134 206.5t-49.5 264.5t50 268.5t134.5 216t200.5 141.5t244 52q70 0 132.5 -16.5t102.5 -32.5t56 -16q22 0 31 9.5t14 33.5h67v-406h-69q-31 185 -115.5 268.5t-218.5 83.5q-58 0 -107.5 -15t-98.5 -54t-83 -101t-55 -163t-21 -232
v-55q0 -113 14 -202.5t40.5 -149t59.5 -101t75 -63.5t82.5 -31.5t87.5 -9.5q144 0 238 94t124 295h70v-420h-68q-6 39 -51 39q-21 0 -64.5 -21t-108.5 -42t-140 -21zM713 1647q57 0 94 -37t37 -94t-37 -94.5t-94 -37.5q-54 0 -91.5 37.5t-37.5 94.5q0 56 37 93.5t92 37.5z
" />
    <glyph glyph-name="Ebreve.sc" unicode="&#xf62a;" horiz-adv-x="1253" 
d="M1159 412v-412h-1083v76h186v1110h-186v78h985v-361h-72q-15 75 -32.5 121t-42.5 80t-66.5 50.5t-95 24t-136.5 7.5h-114v-498h90q35 0 60 3.5t43.5 16t29 24t20 39t14.5 49t13 65.5h68v-439h-68q-10 39 -15.5 58.5t-15.5 42.5t-20.5 32t-29 18.5t-42 12t-57.5 2.5h-90
v-536h143q91 0 153.5 6t110.5 22.5t77 39t50 64t32 87t22 117.5h69zM629 1397q-94 0 -158.5 68.5t-81.5 195.5l68 16q31 -141 172 -141q142 0 174 141l67 -16q-20 -127 -83.5 -195.5t-157.5 -68.5z" />
    <glyph glyph-name="Eng.sc" unicode="&#xf62b;" horiz-adv-x="1443" 
d="M901 -475q-120 0 -195 56t-75 143q0 56 35.5 95.5t93.5 39.5t90.5 -36.5t32.5 -92.5q0 -31 -17.5 -55t-44.5 -37q3 -37 80 -37q100 0 157.5 65t57.5 205v109l-756 1179h-12v-1083h199v-76h-473v76h188v1110h-188v78h487l549 -867h6v789h-194v78h448v-78h-168v-1315
q0 -158 -76.5 -252t-224.5 -94z" />
    <glyph glyph-name="Gcircumflex.sc" unicode="&#xf62c;" horiz-adv-x="1388" 
d="M1069 49q-26 0 -63.5 -14.5t-73.5 -31.5t-96.5 -31.5t-126.5 -14.5q-125 0 -237 48.5t-194.5 133.5t-131 208t-48.5 265q0 140 50 265.5t135 215t200.5 141.5t241.5 52q59 0 109 -9.5t77.5 -21t55 -21t45.5 -9.5q37 0 47 39h67v-420h-71q-43 198 -121.5 282t-208.5 84
q-56 0 -105 -14t-97.5 -52.5t-83 -99t-56 -162t-21.5 -233.5v-71q0 -132 22.5 -232.5t57 -158.5t82.5 -94t92 -48t93 -12q111 0 183.5 46t72.5 150v172h-209v76h581v-76h-135v-114q0 -78 8.5 -166t16.5 -115h-72q-25 43 -86 43zM807 1384l-137 199l-138 -199h-79l221 322h84
l221 -322h-172z" />
    <glyph glyph-name="Gdotaccent.sc" unicode="&#xf62d;" horiz-adv-x="1388" 
d="M1069 49q-26 0 -63.5 -14.5t-73.5 -31.5t-96.5 -31.5t-126.5 -14.5q-125 0 -237 48.5t-194.5 133.5t-131 208t-48.5 265q0 140 50 265.5t135 215t200.5 141.5t241.5 52q59 0 109 -9.5t77.5 -21t55 -21t45.5 -9.5q37 0 47 39h67v-420h-71q-43 198 -121.5 282t-208.5 84
q-56 0 -105 -14t-97.5 -52.5t-83 -99t-56 -162t-21.5 -233.5v-71q0 -132 22.5 -232.5t57 -158.5t82.5 -94t92 -48t93 -12q111 0 183.5 46t72.5 150v172h-209v76h581v-76h-135v-114q0 -78 8.5 -166t16.5 -115h-72q-25 43 -86 43zM707 1647q57 0 94 -37t37 -94t-37 -94.5
t-94 -37.5q-54 0 -91.5 37.5t-37.5 94.5q0 56 37 93.5t92 37.5z" />
    <glyph glyph-name="Hbar.sc" unicode="&#xf62e;" horiz-adv-x="1501" 
d="M670 76v-76h-594v76h186v801h-184v75h184v234h-186v78h594v-78h-168v-234h495v234h-168v78h596v-78h-188v-234h186v-75h-186v-801h188v-76h-596v76h168v532h-495v-532h168zM502 684h495v193h-495v-193z" />
    <glyph glyph-name="Hcircumflex.sc" unicode="&#xf62f;" horiz-adv-x="1501" 
d="M670 76v-76h-594v76h186v1110h-186v78h594v-78h-168v-502h495v502h-168v78h596v-78h-188v-1110h188v-76h-596v76h168v532h-495v-532h168zM850 1384l-137 199l-138 -199h-79l221 322h84l221 -322h-172z" />
    <glyph glyph-name="Ibreve.sc" unicode="&#xf630;" horiz-adv-x="765" 
d="M76 0v76h186v1110h-186v78h614v-78h-188v-1110h188v-76h-614zM383 1397q-94 0 -158.5 68.5t-81.5 195.5l68 16q31 -141 172 -141q142 0 174 141l68 -16q-20 -127 -84 -195.5t-158 -68.5z" />
    <glyph glyph-name="IJ.sc" unicode="&#xf631;" horiz-adv-x="1646" 
d="M76 0v76h186v1110h-186v78h614v-78h-188v-1110h153v-76h-579zM1399 1186v-797q0 -194 -113.5 -304t-302.5 -110q-122 0 -204.5 57.5t-82.5 153.5q0 56 35.5 94.5t93.5 38.5t89.5 -36.5t31.5 -92.5q0 -71 -59 -98q1 -19 26 -30t62 -11q79 0 130.5 51.5t51.5 157.5v926
h-186v78h612v-78h-184z" />
    <glyph glyph-name="Itilde.sc" unicode="&#xf632;" horiz-adv-x="765" 
d="M76 0v76h186v1110h-186v78h614v-78h-188v-1110h188v-76h-614zM502 1452q-47 0 -137 20.5t-115 20.5q-33 0 -52 -20.5t-36 -75.5l-62 20q17 105 62 164t108 59q46 0 136 -21.5t116 -21.5q32 0 52 18.5t36 76.5l62 -21q-18 -107 -65 -163t-105 -56z" />
    <glyph glyph-name="Jcircumflex.sc" unicode="&#xf633;" horiz-adv-x="993" 
d="M745 358q0 -194 -113 -303.5t-300 -109.5q-123 0 -206 57.5t-83 151.5q0 56 35.5 94.5t93.5 38.5t90.5 -36t32.5 -93q0 -72 -59 -99q1 -18 24.5 -28.5t61.5 -10.5q79 0 130.5 50.5t51.5 156.5v959h-185v78h611v-78h-185v-828zM721 1384l-137 199l-138 -199h-79l221 322
h84l221 -322h-172z" />
    <glyph glyph-name="Ldot.sc" unicode="&#xf634;" horiz-adv-x="1265" 
d="M76 0v76h186v1110h-186v78h618v-78h-192v-1110h162q68 0 112 1.5t87.5 7t68.5 13.5t51 26t40 38.5t29 55.5t24.5 73t21.5 96h69v-387h-1091zM1116 850q61 0 101 -40.5t40 -98.5t-40 -99t-101 -41q-57 0 -98 41.5t-41 98.5t41 98t98 41z" />
    <glyph glyph-name="Obreve.sc" unicode="&#xf635;" horiz-adv-x="1404" 
d="M702 1288q112 0 221 -51.5t194 -140.5t137.5 -218.5t52.5 -275.5q0 -148 -52 -272.5t-138 -204.5t-193.5 -124t-221.5 -44t-222.5 46t-194 128t-137.5 208t-52 275q0 117 33.5 223.5t92.5 187.5t135.5 141t165.5 91t179 31zM702 1212q-81 0 -142 -30.5t-107 -96
t-69.5 -176t-23.5 -264.5v-72q0 -153 25 -261t72.5 -167.5t107 -85.5t137.5 -26q77 0 136 26t106.5 85.5t72.5 167.5t25 261v72q0 154 -23.5 264.5t-69 176t-106.5 96t-141 30.5zM700 1397q-94 0 -158 68.5t-81 195.5l67 16q31 -141 172 -141q142 0 174 141l68 -16
q-20 -127 -84 -195.5t-158 -68.5z" />
    <glyph glyph-name="Scircumflex.sc" unicode="&#xf636;" horiz-adv-x="1089" 
d="M516 1286q72 0 125.5 -15t84.5 -29.5t48 -14.5q33 0 43 37h68v-357h-70q-28 151 -106.5 227t-190.5 76q-103 0 -167 -49t-64 -139q0 -88 70 -145t233 -117q78 -29 129 -51t108.5 -57.5t90.5 -74t55 -94.5t22 -125q0 -181 -115 -289t-321 -108q-78 0 -147.5 21.5t-115 43
t-65.5 21.5q-46 0 -63 -47h-68v446h70q23 -192 126 -300.5t263 -108.5q118 0 187 59.5t69 163.5q0 54 -16.5 93t-58.5 71.5t-96 58t-146 58.5q-59 23 -105 44.5t-97 56.5t-84 73.5t-55 93.5t-22 119q0 115 53 197.5t138 121.5t190 39zM639 1384l-137 199l-137 -199h-80
l221 322h84l221 -322h-172z" />
    <glyph glyph-name="Tbar.sc" unicode="&#xf637;" horiz-adv-x="1325" 
d="M96 1264h1133v-410h-70q-32 195 -100 263.5t-232 68.5h-45v-457h293v-76h-293v-577h197v-76h-633v76h199v577h-293v76h293v457h-56q-82 0 -135 -14t-92 -52t-60 -101t-34 -165h-72v410z" />
    <glyph glyph-name="Ubreve.sc" unicode="&#xf638;" horiz-adv-x="1460" 
d="M496 362q0 -97 20.5 -162t63 -100t97 -49t132.5 -14q171 0 247.5 97t76.5 284v768h-187v78h447v-78h-174v-768q0 -101 -24 -182.5t-73.5 -144.5t-132.5 -97.5t-194 -34.5q-139 0 -245 36t-169.5 100t-95 145.5t-31.5 179.5v766h-186v78h614v-78h-186v-824zM805 1397
q-94 0 -158.5 68.5t-81.5 195.5l68 16q31 -141 172 -141q142 0 174 141l68 -16q-20 -127 -84 -195.5t-158 -68.5z" />
    <glyph glyph-name="Utilde.sc" unicode="&#xf639;" horiz-adv-x="1460" 
d="M496 362q0 -97 20.5 -162t63 -100t97 -49t132.5 -14q171 0 247.5 97t76.5 284v768h-187v78h447v-78h-174v-768q0 -101 -24 -182.5t-73.5 -144.5t-132.5 -97.5t-194 -34.5q-139 0 -245 36t-169.5 100t-95 145.5t-31.5 179.5v766h-186v78h614v-78h-186v-824zM924 1452
q-47 0 -137 20.5t-115 20.5q-33 0 -52 -20.5t-36 -75.5l-62 20q17 105 62 164t108 59q46 0 136 -21.5t116 -21.5q32 0 52 18.5t36 76.5l62 -21q-18 -107 -65 -163t-105 -56z" />
    <glyph glyph-name="Wacute.sc" unicode="&#xf63a;" horiz-adv-x="1959" 
d="M602 -29l-434 1215h-121v78h500v-78h-135l317 -901h8l217 575l-116 326h-123v78h508v-78h-144l312 -901h6l307 901h-182v78h391v-78h-117l-420 -1215h-106l-275 770l-284 -770h-109zM879 1384q41 54 74.5 151.5t41.5 184.5h209q-27 -97 -104.5 -188.5t-165.5 -147.5h-55z
" />
    <glyph glyph-name="Wcircumflex.sc" unicode="&#xf63b;" horiz-adv-x="1959" 
d="M602 -29l-434 1215h-121v78h500v-78h-135l317 -901h8l217 575l-116 326h-123v78h508v-78h-144l312 -901h6l307 901h-182v78h391v-78h-117l-420 -1215h-106l-275 770l-284 -770h-109zM1071 1384l-137 199l-137 -199h-80l221 322h84l221 -322h-172z" />
    <glyph glyph-name="Wdieresis.sc" unicode="&#xf63c;" horiz-adv-x="1959" 
d="M602 -29l-434 1215h-121v78h500v-78h-135l317 -901h8l217 575l-116 326h-123v78h508v-78h-144l312 -901h6l307 901h-182v78h391v-78h-117l-420 -1215h-106l-275 770l-284 -770h-109zM778 1638q54 0 87.5 -33t33.5 -87t-33.5 -88.5t-87.5 -34.5q-50 0 -84.5 35t-34.5 88
t34.5 86.5t84.5 33.5zM1161 1638q54 0 87.5 -33t33.5 -87t-33.5 -88.5t-87.5 -34.5q-50 0 -84.5 35t-34.5 88t34.5 86.5t84.5 33.5z" />
    <glyph glyph-name="Wgrave.sc" unicode="&#xf63d;" horiz-adv-x="1959" 
d="M602 -29l-434 1215h-121v78h500v-78h-135l317 -901h8l217 575l-116 326h-123v78h508v-78h-144l312 -901h6l307 901h-182v78h391v-78h-117l-420 -1215h-106l-275 770l-284 -770h-109zM952 1720q7 -86 41.5 -184t75.5 -152h-55q-88 53 -165.5 145t-105.5 191h209z" />
    <glyph glyph-name="Ycircumflex.sc" unicode="&#xf63e;" horiz-adv-x="1241" 
d="M942 0h-620v76h190v497l-369 613h-100v78h506v-78h-148l306 -510l303 510h-179v78h367v-78h-100l-346 -586v-524h190v-76zM793 1384l-138 199l-137 -199h-80l221 322h84l222 -322h-172z" />
    <glyph glyph-name="Ygrave.sc" unicode="&#xf63f;" horiz-adv-x="1241" 
d="M942 0h-620v76h190v497l-369 613h-100v78h506v-78h-148l306 -510l303 510h-179v78h367v-78h-100l-346 -586v-524h190v-76zM657 1720q7 -86 41.5 -184t75.5 -152h-55q-88 53 -165 145t-105 191h208z" />
    <glyph glyph-name="Abreve.sc" unicode="&#xf640;" horiz-adv-x="1300" 
d="M465 76v-76h-418v76h127l444 1210h76l428 -1210h131v-76h-540v76h168l-103 295h-405l-107 -295h199zM575 928l-174 -482h351l-166 482h-11zM653 1397q-94 0 -158 68.5t-81 195.5l67 16q31 -141 172 -141q142 0 174 141l68 -16q-20 -127 -84 -195.5t-158 -68.5z" />
    <glyph glyph-name="Amacron.sc" unicode="&#xf641;" horiz-adv-x="1300" 
d="M465 76v-76h-418v76h127l444 1210h76l428 -1210h131v-76h-540v76h168l-103 295h-405l-107 -295h199zM575 928l-174 -482h351l-166 482h-11zM403 1532h500v-102h-500v102z" />
    <glyph glyph-name="Aogonek.sc" unicode="&#xf642;" horiz-adv-x="1300" 
d="M918 -397l43 -39q-27 -36 -77 -64t-110 -28q-99 0 -156 45.5t-57 134.5q0 42 18 81.5t55 80.5t71.5 73t91.5 81.5t92 82.5l-111 320h-405l-107 -295h199v-76h-418v76h127l444 1210h76l428 -1210h131v-76h-325q-91 -108 -131.5 -181t-40.5 -153v-8q0 -98 78 -98
q41 0 84 43zM575 928l-174 -482h351l-166 482h-11z" />
    <glyph glyph-name="Cacute.sc" unicode="&#xf643;" horiz-adv-x="1267" 
d="M719 -43q-127 0 -241 48t-198.5 132t-134 206.5t-49.5 264.5t50 268.5t134.5 216t200.5 141.5t244 52q70 0 132.5 -16.5t102.5 -32.5t56 -16q22 0 31 9.5t14 33.5h67v-406h-69q-31 185 -115.5 268.5t-218.5 83.5q-58 0 -107.5 -15t-98.5 -54t-83 -101t-55 -163t-21 -232
v-55q0 -113 14 -202.5t40.5 -149t59.5 -101t75 -63.5t82.5 -31.5t87.5 -9.5q144 0 238 94t124 295h70v-420h-68q-6 39 -51 39q-21 0 -64.5 -21t-108.5 -42t-140 -21zM621 1384q41 54 74.5 151.5t41.5 184.5h209q-27 -97 -104.5 -188.5t-165.5 -147.5h-55z" />
    <glyph glyph-name="Ccaron.sc" unicode="&#xf644;" horiz-adv-x="1267" 
d="M719 -43q-127 0 -241 48t-198.5 132t-134 206.5t-49.5 264.5t50 268.5t134.5 216t200.5 141.5t244 52q70 0 132.5 -16.5t102.5 -32.5t56 -16q22 0 31 9.5t14 33.5h67v-406h-69q-31 185 -115.5 268.5t-218.5 83.5q-58 0 -107.5 -15t-98.5 -54t-83 -101t-55 -163t-21 -232
v-55q0 -113 14 -202.5t40.5 -149t59.5 -101t75 -63.5t82.5 -31.5t87.5 -9.5q144 0 238 94t124 295h70v-420h-68q-6 39 -51 39q-21 0 -64.5 -21t-108.5 -42t-140 -21zM666 1382l-222 322h172l138 -199l137 199h80l-221 -322h-84z" />
    <glyph glyph-name="Dcaron.sc" unicode="&#xf645;" horiz-adv-x="1378" 
d="M76 1264h508q111 0 213.5 -26t191 -79.5t153.5 -130t102.5 -183.5t37.5 -233q0 -128 -38.5 -232t-103 -174t-152.5 -117t-184.5 -68t-201.5 -21h-526v76h186v1110h-186v78zM578 1186h-76v-1110h94q420 0 420 512v69q0 147 -30 250.5t-89 164t-137 87.5t-182 27zM600 1382
l-221 322h172l137 -199l137 199h80l-221 -322h-84z" />
    <glyph glyph-name="Dcroat.sc" unicode="&#xf646;" horiz-adv-x="1380" 
d="M602 0h-526v76h186v545h-180v75h180v490h-186v78h508q111 0 213.5 -26t191 -79.5t153.5 -130t102.5 -183.5t37.5 -233q0 -128 -38.5 -232t-103 -174t-152.5 -117t-184.5 -68t-201.5 -21zM502 76h94q420 0 420 512v69q0 147 -30 250.5t-89 164t-137 87.5t-182 27h-76v-490
h278v-75h-278v-545z" />
    <glyph glyph-name="Ecaron.sc" unicode="&#xf647;" horiz-adv-x="1253" 
d="M1159 412v-412h-1083v76h186v1110h-186v78h985v-361h-72q-15 75 -32.5 121t-42.5 80t-66.5 50.5t-95 24t-136.5 7.5h-114v-498h90q35 0 60 3.5t43.5 16t29 24t20 39t14.5 49t13 65.5h68v-439h-68q-10 39 -15.5 58.5t-15.5 42.5t-20.5 32t-29 18.5t-42 12t-57.5 2.5h-90
v-536h143q91 0 153.5 6t110.5 22.5t77 39t50 64t32 87t22 117.5h69zM582 1382l-222 322h172l138 -199l137 199h80l-221 -322h-84z" />
    <glyph glyph-name="Edotaccent.sc" unicode="&#xf648;" horiz-adv-x="1253" 
d="M1159 412v-412h-1083v76h186v1110h-186v78h985v-361h-72q-15 75 -32.5 121t-42.5 80t-66.5 50.5t-95 24t-136.5 7.5h-114v-498h90q35 0 60 3.5t43.5 16t29 24t20 39t14.5 49t13 65.5h68v-439h-68q-10 39 -15.5 58.5t-15.5 42.5t-20.5 32t-29 18.5t-42 12t-57.5 2.5h-90
v-536h143q91 0 153.5 6t110.5 22.5t77 39t50 64t32 87t22 117.5h69zM627 1647q57 0 94 -37t37 -94t-37 -94.5t-94 -37.5q-54 0 -91.5 37.5t-37.5 94.5q0 56 37 93.5t92 37.5z" />
    <glyph glyph-name="Emacron.sc" unicode="&#xf649;" horiz-adv-x="1253" 
d="M1159 412v-412h-1083v76h186v1110h-186v78h985v-361h-72q-15 75 -32.5 121t-42.5 80t-66.5 50.5t-95 24t-136.5 7.5h-114v-498h90q35 0 60 3.5t43.5 16t29 24t20 39t14.5 49t13 65.5h68v-439h-68q-10 39 -15.5 58.5t-15.5 42.5t-20.5 32t-29 18.5t-42 12t-57.5 2.5h-90
v-536h143q91 0 153.5 6t110.5 22.5t77 39t50 64t32 87t22 117.5h69zM379 1532h500v-102h-500v102z" />
    <glyph glyph-name="Eogonek.sc" unicode="&#xf64a;" horiz-adv-x="1253" 
d="M1159 412v-412h-1083v76h186v1110h-186v78h985v-361h-72q-15 75 -32.5 121t-42.5 80t-66.5 50.5t-95 24t-136.5 7.5h-114v-498h90q35 0 60 3.5t43.5 16t29 24t20 39t14.5 49t13 65.5h68v-439h-68q-10 39 -15.5 58.5t-15.5 42.5t-20.5 32t-29 18.5t-42 12t-57.5 2.5h-90
v-536h143q91 0 153.5 6t110.5 22.5t77 39t50 64t32 87t22 117.5h69zM606 -348q0 43 20 84t55 78t69.5 66t78.5 64t66 56h78q-91 -108 -131.5 -181t-40.5 -153v-8q0 -98 78 -98q41 0 84 43l43 -39q-28 -36 -77.5 -64t-111.5 -28q-97 0 -154 46t-57 134z" />
    <glyph glyph-name="Gbreve.sc" unicode="&#xf64b;" horiz-adv-x="1388" 
d="M1069 49q-26 0 -63.5 -14.5t-73.5 -31.5t-96.5 -31.5t-126.5 -14.5q-125 0 -237 48.5t-194.5 133.5t-131 208t-48.5 265q0 140 50 265.5t135 215t200.5 141.5t241.5 52q59 0 109 -9.5t77.5 -21t55 -21t45.5 -9.5q37 0 47 39h67v-420h-71q-43 198 -121.5 282t-208.5 84
q-56 0 -105 -14t-97.5 -52.5t-83 -99t-56 -162t-21.5 -233.5v-71q0 -132 22.5 -232.5t57 -158.5t82.5 -94t92 -48t93 -12q111 0 183.5 46t72.5 150v172h-209v76h581v-76h-135v-114q0 -78 8.5 -166t16.5 -115h-72q-25 43 -86 43zM707 1397q-94 0 -158.5 68.5t-81.5 195.5
l68 16q31 -141 172 -141q142 0 174 141l67 -16q-20 -127 -83.5 -195.5t-157.5 -68.5z" />
    <glyph glyph-name="Gcommaaccent.sc" unicode="&#xf64c;" horiz-adv-x="1388" 
d="M1069 49q-26 0 -63.5 -14.5t-73.5 -31.5t-96.5 -31.5t-126.5 -14.5q-125 0 -237 48.5t-194.5 133.5t-131 208t-48.5 265q0 140 50 265.5t135 215t200.5 141.5t241.5 52q59 0 109 -9.5t77.5 -21t55 -21t45.5 -9.5q37 0 47 39h67v-420h-71q-43 198 -121.5 282t-208.5 84
q-56 0 -105 -14t-97.5 -52.5t-83 -99t-56 -162t-21.5 -233.5v-71q0 -132 22.5 -232.5t57 -158.5t82.5 -94t92 -48t93 -12q111 0 183.5 46t72.5 150v172h-209v76h581v-76h-135v-114q0 -78 8.5 -166t16.5 -115h-72q-25 43 -86 43zM596 -504l-21 58q87 30 119.5 66.5t32.5 94.5
v9q-28 -31 -65 -31q-43 0 -70 24t-27 70t33 74t82 28q62 0 100.5 -41.5t38.5 -117.5q0 -178 -223 -234z" />
    <glyph glyph-name="Imacron.sc" unicode="&#xf64d;" horiz-adv-x="765" 
d="M76 0v76h186v1110h-186v78h614v-78h-188v-1110h188v-76h-614zM133 1532h500v-102h-500v102z" />
    <glyph glyph-name="Iogonek.sc" unicode="&#xf64e;" horiz-adv-x="765" 
d="M76 0v76h186v1110h-186v78h614v-78h-188v-1110h188v-76h-196q-81 -108 -116.5 -181t-35.5 -153v-8q0 -98 78 -98q50 0 84 43l45 -39q-30 -37 -79 -64.5t-110 -27.5q-96 0 -153 47t-57 133q0 54 31 107.5t69 88t90.5 81t75.5 71.5h-340z" />
    <glyph glyph-name="Kcommaaccent.sc" unicode="&#xf64f;" horiz-adv-x="1445" 
d="M688 76v-76h-612v76h186v1110h-186v78h612v-78h-186v-596l545 596h-154v78h387v-78h-133l-371 -404l516 -706h105v-76h-518v76h129l-390 534l-116 -127v-407h186zM651 -504l-20 58q87 30 119 66.5t32 94.5v9q-28 -31 -65 -31q-43 0 -69.5 24t-26.5 70t32.5 74t81.5 28
q62 0 100.5 -41.5t38.5 -117.5q0 -178 -223 -234z" />
    <glyph glyph-name="Lacute.sc" unicode="&#xf650;" horiz-adv-x="1265" 
d="M76 0v76h186v1110h-186v78h618v-78h-192v-1110h162q69 0 112 1.5t87 8t69 15t51 28.5t39.5 43t29 62.5t25 83t21.5 108.5h69v-426h-1091zM281 1384q41 54 74.5 151.5t41.5 184.5h209q-27 -97 -104.5 -188.5t-165.5 -147.5h-55z" />
    <glyph glyph-name="Lcaron.sc" unicode="&#xf651;" horiz-adv-x="1265" 
d="M762 950l35 359h168v-21l-162 -338h-41zM76 0v76h186v1110h-186v78h618v-78h-192v-1110h162q69 0 112 1.5t87 8t69 15t51 28.5t39.5 43t29 62.5t25 83t21.5 108.5h69v-426h-1091z" />
    <glyph glyph-name="Lcommaaccent.sc" unicode="&#xf652;" horiz-adv-x="1265" 
d="M76 0v76h186v1110h-186v78h618v-78h-192v-1110h162q69 0 112 1.5t87 8t69 15t51 28.5t39.5 43t29 62.5t25 83t21.5 108.5h69v-426h-1091zM516 -504l-20 58q87 30 119 66.5t32 94.5v9q-28 -31 -65 -31q-43 0 -70 24t-27 70t33 74t82 28q62 0 100.5 -41.5t38.5 -117.5
q0 -178 -223 -234z" />
    <glyph glyph-name="Nacute.sc" unicode="&#xf653;" horiz-adv-x="1443" 
d="M1204 -8h-102l-742 1167h-10v-1083h199v-76h-473v76h188v1110h-188v78h485l551 -879h6v801h-194v78h448v-78h-168v-1194zM678 1384q41 54 75.5 152t41.5 184h209q-27 -97 -105 -188t-166 -148h-55z" />
    <glyph glyph-name="Ncaron.sc" unicode="&#xf654;" horiz-adv-x="1443" 
d="M1204 -8h-102l-742 1167h-10v-1083h199v-76h-473v76h188v1110h-188v78h485l551 -879h6v801h-194v78h448v-78h-168v-1194zM725 1382l-221 322h172l137 -199l137 199h80l-221 -322h-84z" />
    <glyph glyph-name="Ncommaaccent.sc" unicode="&#xf655;" horiz-adv-x="1443" 
d="M1204 -8h-102l-742 1167h-10v-1083h199v-76h-473v76h188v1110h-188v78h485l551 -879h6v801h-194v78h448v-78h-168v-1194zM676 -504l-21 58q87 30 119.5 66.5t32.5 94.5v9q-28 -31 -66 -31q-43 0 -69.5 24t-26.5 70t33 74t82 28q62 0 100.5 -41.5t38.5 -117.5
q0 -178 -223 -234z" />
    <glyph glyph-name="Ohungarumlaut.sc" unicode="&#xf656;" horiz-adv-x="1404" 
d="M702 1288q112 0 221 -51.5t194 -140.5t137.5 -218.5t52.5 -275.5q0 -148 -52 -272.5t-138 -204.5t-193.5 -124t-221.5 -44t-222.5 46t-194 128t-137.5 208t-52 275q0 117 33.5 223.5t92.5 187.5t135.5 141t165.5 91t179 31zM702 1212q-81 0 -142 -30.5t-107 -96
t-69.5 -176t-23.5 -264.5v-72q0 -153 25 -261t72.5 -167.5t107 -85.5t137.5 -26q77 0 136 26t106.5 85.5t72.5 167.5t25 261v72q0 154 -23.5 264.5t-69 176t-106.5 96t-141 30.5zM563 1384h-49q29 55 53.5 151.5t32.5 184.5h178q-21 -96 -83 -190t-132 -146zM846 1384h-49
q29 55 53.5 151.5t32.5 184.5h178q-21 -96 -83 -190t-132 -146z" />
    <glyph glyph-name="Omacron.sc" unicode="&#xf657;" horiz-adv-x="1404" 
d="M702 1288q112 0 221 -51.5t194 -140.5t137.5 -218.5t52.5 -275.5q0 -148 -52 -272.5t-138 -204.5t-193.5 -124t-221.5 -44t-222.5 46t-194 128t-137.5 208t-52 275q0 117 33.5 223.5t92.5 187.5t135.5 141t165.5 91t179 31zM702 1212q-81 0 -142 -30.5t-107 -96
t-69.5 -176t-23.5 -264.5v-72q0 -153 25 -261t72.5 -167.5t107 -85.5t137.5 -26q77 0 136 26t106.5 85.5t72.5 167.5t25 261v72q0 154 -23.5 264.5t-69 176t-106.5 96t-141 30.5zM451 1532h499v-102h-499v102z" />
    </font>
</defs>
</svg>
