<?xml version="1.0" standalone="no"?>
<!DOCTYPE svg PUBLIC "-//W3C//DTD SVG 1.1//EN" "http://www.w3.org/Graphics/SVG/1.1/DTD/svg11.dtd" >
<svg xmlns="http://www.w3.org/2000/svg" xmlns:xlink="http://www.w3.org/1999/xlink" version="1.1">
<metadata>
Created by FontForge 20170731 at Tue Jun  1 13:45:17 2021
 By Aleksey,,,
(URW)++, Copyright (c) 2000 by (URW)++ Design &#38; Development
</metadata>
<defs>
<font id="NimbusSansDOT-ReguExte" horiz-adv-x="1024" >
  <font-face 
    font-family="Nimbus Sans D OT Extended"
    font-weight="400"
    font-stretch="expanded"
    units-per-em="2048"
    panose-1="2 0 0 0 0 0 0 0 0 0"
    ascent="1638"
    descent="-410"
    x-height="1006"
    cap-height="1366"
    bbox="-270 -512 2400 1829"
    underline-thickness="118"
    underline-position="-319"
    unicode-range="U+0020-FB02"
  />
<missing-glyph horiz-adv-x="512" 
 />
    <glyph glyph-name="fi" unicode="fi" horiz-adv-x="1181" 
d="M1040 1006v-1006h-176v868h-487v-868h-176v868h-174v138h174v53q0 109 12 157t49 80q54 48 133.5 67t227.5 19q25 0 139 -4v-164l-63 3t-62 2q-158 0 -209 -30t-51 -124v-59h663zM864 1174v192h176v-192h-176z" />
    <glyph glyph-name="fl" unicode="fl" horiz-adv-x="1179" 
d="M201 0v868h-174v138h174v53q0 109 12 157t49 80q54 48 133.5 67t227.5 19q25 0 139 -4v-164l-63 3t-62 2q-158 0 -209 -30t-51 -124v-59h385v-138h-385v-868h-176zM864 0v1366h176v-1366h-176z" />
    <glyph glyph-name=".notdef" horiz-adv-x="512" 
 />
    <glyph glyph-name=".null" horiz-adv-x="0" 
 />
    <glyph glyph-name="nonmarkingreturn" horiz-adv-x="682" 
 />
    <glyph glyph-name="space" unicode=" " horiz-adv-x="512" 
 />
    <glyph glyph-name="space" unicode="&#xa0;" horiz-adv-x="512" 
 />
    <glyph glyph-name="exclam" unicode="!" horiz-adv-x="495" 
d="M152 0v193h192v-193h-192zM203 342l-51 610v414h192v-414l-43 -610h-98z" />
    <glyph glyph-name="quotedbl" unicode="&#x22;" horiz-adv-x="690" 
d="M268 791h-149l-27 575h205zM569 791h-149l-27 575h203z" />
    <glyph glyph-name="numbersign" unicode="#" horiz-adv-x="1228" 
d="M1130 575l-22 -157h-225l-66 -418h-182l70 418h-254l-68 -418h-174l67 418h-225l23 157h225l43 252h-225l22 158h226l59 381h178l-61 -381h254l59 381h180l-63 -381h221l-23 -158h-221l-39 -252h221zM768 827h-252l-39 -252h254z" />
    <glyph glyph-name="dollar" unicode="$" horiz-adv-x="1349" 
d="M59 432h185q12 -133 103 -211t243 -86v475q-205 25 -326 82q-86 43 -136 123.5t-50 175.5q0 103 57 190.5t160 141.5q67 36 133 53t162 23v207h147v-209q222 -9 352 -115.5t150 -294.5h-190q-15 101 -97.5 164.5t-214.5 73.5v-447q211 -25 346 -76q100 -40 154.5 -119
t54.5 -186q0 -118 -63 -212.5t-180 -151.5q-128 -61 -312 -72v-235h-147v235q-263 20 -393.5 135t-137.5 336zM737 586v-455q173 7 261.5 68t88.5 172q0 66 -33 107.5t-104 64.5q-53 19 -213 43zM590 803v426q-150 -13 -228.5 -70.5t-78.5 -152.5q0 -86 70.5 -133t236.5 -70
z" />
    <glyph glyph-name="percent" unicode="%" horiz-adv-x="1720" 
d="M381 1384q148 0 226.5 -95t78.5 -275q0 -168 -78.5 -259t-224.5 -91q-148 0 -226.5 91t-78.5 263q0 175 79 270.5t224 95.5zM383 1292q-92 0 -140 -70t-48 -204q0 -262 188 -262q186 0 186 258q0 136 -47.5 207t-138.5 71zM492 0l610 1366h135l-619 -1366h-126zM1335 702
q149 0 228 -95t79 -275q0 -168 -79 -259t-226 -91q-148 0 -226.5 91t-78.5 263q0 175 79 270.5t224 95.5zM1337 610q-92 0 -140 -70t-48 -204q0 -262 188 -262q189 0 189 258q0 136 -48.5 207t-140.5 71z" />
    <glyph glyph-name="ampersand" unicode="&#x26;" horiz-adv-x="1568" 
d="M1194 645h180q-12 -111 -38.5 -186t-80.5 -150l338 -309h-262l-186 166q-119 -110 -236.5 -157.5t-273.5 -47.5q-113 0 -216.5 28t-176.5 79q-72 50 -116 135.5t-44 177.5q0 98 47 182.5t133 141.5q73 47 195 98q-88 64 -127 133t-39 158q0 138 101.5 224.5t264.5 86.5
q160 0 259.5 -85t99.5 -222q0 -101 -60 -175t-211 -157l392 -348q25 38 36.5 84.5t20.5 142.5zM1028 274l-465 420q-144 -54 -213 -125.5t-69 -167.5q0 -127 98.5 -204.5t261.5 -77.5q250 0 387 155zM635 860q105 59 153 112t48 113q0 68 -53.5 115t-129.5 47
q-74 0 -126 -44t-52 -107q0 -52 30.5 -97t129.5 -139z" />
    <glyph glyph-name="quotesingle" unicode="'" horiz-adv-x="389" 
d="M268 791h-147l-29 575h205z" />
    <glyph glyph-name="parenleft" unicode="(" horiz-adv-x="716" 
d="M465 1366h135q-118 -124 -217 -326q-94 -201 -94 -467q0 -281 112 -499q87 -178 199 -293h-135q-116 116 -215 276q-150 244 -150 516q0 149 41 281.5t129 267.5q90 139 195 244z" />
    <glyph glyph-name="parenright" unicode=")" horiz-adv-x="716" 
d="M252 -219h-135q122 125 217 325q94 201 94 467q0 278 -111 500q-51 99 -96 166t-104 127h135q114 -112 215 -276q149 -242 149 -517q0 -211 -92.5 -412t-271.5 -380z" />
    <glyph glyph-name="asterisk" unicode="*" horiz-adv-x="880" 
d="M522 1366v-217l209 65l43 -151l-205 -66l133 -178l-129 -90l-131 176l-137 -176l-125 92l135 176l-209 66l48 147l213 -65v221h155z" />
    <glyph glyph-name="plus" unicode="+" horiz-adv-x="1349" 
d="M1124 760v-144h-379v-405h-143v405h-379v144h379v405h143v-405h379z" />
    <glyph glyph-name="comma" unicode="," horiz-adv-x="481" 
d="M137 0v201h205v-197q0 -81 -12.5 -129t-44.5 -86q-54 -63 -138 -82v82q57 17 81.5 65t25.5 146h-117z" />
    <glyph glyph-name="hyphen" unicode="-" horiz-adv-x="579" 
d="M0 432v160h580v-160h-580z" />
    <glyph glyph-name="hyphen" unicode="&#xad;" horiz-adv-x="579" 
d="M0 432v160h580v-160h-580z" />
    <glyph glyph-name="period" unicode="." horiz-adv-x="481" 
d="M137 0v201h205v-201h-205z" />
    <glyph glyph-name="slash" unicode="/" horiz-adv-x="991" 
d="M717 1366h182l-725 -1585h-174z" />
    <glyph glyph-name="zero" unicode="0" horiz-adv-x="1349" 
d="M674 1405q128 0 241 -48t183 -132q75 -87 115 -234.5t40 -331.5q0 -402 -204 -573q-67 -58 -167.5 -91.5t-205.5 -33.5q-106 0 -207 33.5t-168 91.5q-205 170 -205 584q0 174 41 319.5t115 235.5q67 83 180.5 131.5t241.5 48.5zM676 1239q-183 0 -279 -146.5t-96 -424.5
q0 -541 375 -541q184 0 278.5 135.5t94.5 399.5q0 283 -95 430t-278 147z" />
    <glyph glyph-name="one" unicode="1" horiz-adv-x="1349" 
d="M684 0v985h-408v133q18 -2 43 -2q197 0 293 55q51 29 79.5 73.5t47.5 121.5h129v-1366h-184z" />
    <glyph glyph-name="two" unicode="2" horiz-adv-x="1349" 
d="M1217 176v-176h-1088q9 137 66.5 237t180.5 191.5t343 196.5q177 89 242 161.5t65 180.5q0 122 -92.5 197t-243.5 75q-161 0 -251 -85.5t-101 -246.5h-188q6 119 34 198t88 140q151 160 424 160q237 0 381 -120t144 -318q0 -127 -54 -218.5t-174 -168.5
q-83 -53 -344 -185q-239 -124 -287 -219h855z" />
    <glyph glyph-name="three" unicode="3" horiz-adv-x="1349" 
d="M115 430h190q3 -146 96.5 -224.5t262.5 -78.5q178 0 277 71t99 199q0 246 -360 246q-55 0 -102 -4v164q77 -6 112 -6q134 0 201 34q43 23 69.5 71.5t26.5 105.5q0 103 -86.5 167t-224.5 64q-154 0 -239.5 -73.5t-94.5 -213.5h-178q3 211 143 332t379 121
q221 0 358.5 -108.5t137.5 -282.5q0 -223 -224 -295q277 -38 277 -307q0 -204 -152.5 -327.5t-404.5 -123.5q-267 0 -412 121t-151 348z" />
    <glyph glyph-name="four" unicode="4" horiz-adv-x="1349" 
d="M827 0v330h-723v162l727 874h181v-887h221v-149h-221v-330h-185zM827 479v662l-553 -662h553z" />
    <glyph glyph-name="five" unicode="5" horiz-adv-x="1349" 
d="M117 350h186q28 -115 112.5 -169t237.5 -54q193 0 289 84q44 40 70 100.5t26 124.5q0 137 -104 219t-277 82q-108 0 -180.5 -26t-134.5 -86h-182l143 741h832v-176h-697l-96 -410q149 123 371 123q238 0 379 -122.5t141 -331.5q0 -223 -154 -355.5t-415 -132.5
q-134 0 -246 36t-185 103q-52 47 -79.5 106t-36.5 144z" />
    <glyph glyph-name="six" unicode="6" horiz-adv-x="1349" 
d="M1219 1055h-195q-37 95 -108.5 139.5t-188.5 44.5q-126 0 -217.5 -51t-138.5 -146q-25 -51 -41.5 -132.5t-16.5 -153.5q0 -25 2 -45q66 109 168 159t256 50q239 0 377.5 -124t138.5 -339q0 -232 -151 -359q-161 -137 -408 -137q-330 0 -471 236q-104 177 -104 442
q0 184 44 338t122 248q72 86 190 133t264 47q240 0 369 -129q44 -43 69 -93t40 -128zM713 754q-167 0 -279 -95q-92 -77 -92 -206q0 -146 98 -236t256 -90t256.5 87.5t98.5 227.5q0 146 -90 229t-248 83z" />
    <glyph glyph-name="seven" unicode="7" horiz-adv-x="1349" 
d="M152 1190v176h1058v-172q-63 -90 -157 -219q-142 -211 -270 -504.5t-154 -470.5h-215q29 138 103.5 321.5t160.5 329.5q265 445 379 539h-905z" />
    <glyph glyph-name="eight" unicode="8" horiz-adv-x="1349" 
d="M414 750q-250 67 -250 288q0 169 137.5 268t372.5 99q236 0 374 -99t138 -268q0 -221 -250 -288q144 -29 232.5 -131t88.5 -236q0 -92 -49 -181.5t-127 -140.5q-155 -100 -407 -100q-251 0 -406 100q-78 51 -127 140.5t-49 181.5q0 135 89.5 236.5t232.5 130.5zM676 662
q-180 0 -284.5 -68.5t-104.5 -185.5q0 -126 107 -203.5t282 -77.5q172 0 279.5 76.5t107.5 199.5q0 120 -103.5 189.5t-283.5 69.5zM676 1239q-143 0 -230.5 -55t-87.5 -146q0 -98 87.5 -158.5t230.5 -60.5q140 0 227.5 60t87.5 155q0 94 -85 149.5t-230 55.5z" />
    <glyph glyph-name="nine" unicode="9" horiz-adv-x="1349" 
d="M131 311h195q37 -95 108.5 -139.5t188.5 -44.5q126 0 217.5 51t138.5 146q25 51 41 132.5t16 153.5q0 25 -2 45q-66 -109 -168 -159t-256 -50q-239 0 -377.5 124t-138.5 339q0 231 152 359q161 137 407 137q330 0 471 -236q105 -179 105 -442q0 -184 -44 -338t-122 -248
q-72 -86 -190.5 -133t-264.5 -47q-239 0 -368 129q-44 43 -69 93t-40 128zM653 1239q-158 0 -256 -87.5t-98 -227.5q0 -146 90 -229t248 -83q169 0 278 95q49 41 71 89.5t22 116.5q0 146 -98.5 236t-256.5 90z" />
    <glyph glyph-name="colon" unicode=":" horiz-adv-x="481" 
d="M137 0v201h205v-201h-205zM137 805v201h205v-201h-205z" />
    <glyph glyph-name="semicolon" unicode=";" horiz-adv-x="481" 
d="M137 0v201h205v-197q0 -81 -12.5 -129t-44.5 -86q-54 -63 -138 -82v82q57 17 81.5 65t25.5 146h-117zM137 805v201h205v-201h-205z" />
    <glyph glyph-name="less" unicode="&#x3c;" 
d="M954 1190v-184l-690 -324l690 -322v-184l-886 428v158z" />
    <glyph glyph-name="equal" unicode="=" horiz-adv-x="1349" 
d="M1124 936v-143h-901v143h901zM1124 608v-143h-901v143h901z" />
    <glyph glyph-name="greater" unicode="&#x3e;" 
d="M70 1190l886 -428v-158l-886 -428v184l690 322l-690 324v184z" />
    <glyph glyph-name="question" unicode="?" horiz-adv-x="1130" 
d="M453 0v193h192v-193h-192zM242 934h-183q11 104 37 171t78 124q140 155 408 155q245 0 372 -124q115 -112 115 -279q0 -152 -104 -262q-63 -63 -215 -176q-77 -59 -94.5 -89.5t-18.5 -111.5h-174q3 128 49.5 199t198.5 176q89 65 129.5 126.5t40.5 133.5q0 114 -79.5 179
t-217.5 65q-149 0 -232.5 -70t-109.5 -217z" />
    <glyph glyph-name="at" unicode="@" horiz-adv-x="1583" 
d="M1053 1024h135l-88 -436q-13 -60 -13 -92q0 -40 18.5 -63t49.5 -23q83 0 148 115.5t65 260.5q0 220 -151.5 360t-387.5 140q-166 0 -304.5 -79.5t-218 -218t-79.5 -304.5q0 -118 43 -227t121 -191q166 -172 451 -172q128 0 228 21t216 73l37 -118q-223 -97 -477 -97
q-338 0 -549 199q-101 98 -158 233.5t-57 280.5q0 198 98.5 363.5t269.5 260.5t377 95q143 0 268.5 -47t215 -128t141 -195t51.5 -244q0 -128 -49 -242t-131 -182t-174 -68q-61 0 -104.5 33t-55.5 90q-44 -61 -113.5 -97t-144.5 -36q-132 0 -218.5 95.5t-86.5 242.5
q0 173 111 297.5t266 124.5q160 0 229 -134zM817 913q-97 0 -166 -83.5t-69 -200.5q0 -93 49.5 -151t128.5 -58q92 0 156.5 88t64.5 215q0 88 -44.5 139t-119.5 51z" />
    <glyph glyph-name="A" unicode="A" horiz-adv-x="1476" 
d="M14 0l598 1366h224l628 -1366h-207l-180 389h-692l-170 -389h-201zM459 557h549l-285 623z" />
    <glyph glyph-name="B" unicode="B" horiz-adv-x="1492" 
d="M154 0v1366h702q114 0 181.5 -10.5t121.5 -36.5q89 -43 139 -125t50 -186q0 -114 -54.5 -181.5t-173.5 -101.5q76 -17 118 -37t75 -55q90 -93 90 -240q0 -110 -52 -203.5t-139 -140.5q-56 -29 -116 -39t-185 -10h-757zM338 166h520q97 0 141 4.5t82 19.5q117 46 117 207
q0 138 -82 189q-49 29 -101.5 37t-189.5 8h-487v-465zM338 791h485q107 0 141.5 3t69.5 15q109 38 109 190q0 114 -66 157.5t-237 43.5h-502v-409z" />
    <glyph glyph-name="C" unicode="C" horiz-adv-x="1595" 
d="M1337 506h197q-24 -214 -193 -367q-193 -178 -493 -178q-168 0 -307 47.5t-234 138.5q-98 92 -153.5 234.5t-55.5 302.5q0 170 63.5 317.5t178.5 245.5q189 158 489 158q391 0 582 -238q107 -133 119 -288h-201q-34 166 -165.5 261t-327.5 95q-249 0 -391 -150.5
t-142 -414.5q0 -255 142.5 -397t398.5 -142q204 0 328.5 95t164.5 280z" />
    <glyph glyph-name="D" unicode="D" horiz-adv-x="1552" 
d="M154 0v1366h651q164 0 258.5 -22.5t167.5 -79.5q107 -82 164 -228.5t57 -341.5q0 -209 -62 -367t-176 -241q-68 -48 -161.5 -67t-259.5 -19h-639zM338 166h465q109 0 174.5 17t116.5 59q153 129 153 440q0 267 -114.5 392.5t-360.5 125.5h-434v-1034z" />
    <glyph glyph-name="E" unicode="E" horiz-adv-x="1347" 
d="M154 0v1366h1081v-166h-897v-422h860v-160h-860v-452h917v-166h-1101z" />
    <glyph glyph-name="F" unicode="F" horiz-adv-x="1169" 
d="M154 0v1366h954v-166h-770v-424h770v-160h-770v-616h-184z" />
    <glyph glyph-name="G" unicode="G" horiz-adv-x="1658" 
d="M1532 721v-721h-129l-27 215q-40 -51 -68 -80t-63 -55q-78 -57 -187 -88t-231 -31q-156 0 -293 51.5t-233 145.5q-94 94 -148.5 231.5t-54.5 284.5q0 160 65 310t175 247q195 174 504 174q354 0 549 -213q113 -121 133 -252h-199q-51 141 -173.5 218t-297.5 77
q-254 0 -402.5 -149t-148.5 -404q0 -252 148 -401.5t397 -149.5q288 0 434 193q48 65 69 117.5t25 119.5h-454v160h610z" />
    <glyph glyph-name="H" unicode="H" horiz-adv-x="1552" 
d="M154 0v1366h186v-567h872v567h185v-1366h-185v639h-872v-639h-186z" />
    <glyph glyph-name="I" unicode="I" horiz-adv-x="493" 
d="M154 0v1366h184v-1366h-184z" />
    <glyph glyph-name="J" unicode="J" horiz-adv-x="1097" 
d="M33 467h188q0 -86 7.5 -131t27.5 -80q67 -125 238 -125q150 0 223 86q29 35 41 84t12 133v932h186v-932q0 -136 -22 -211t-80 -133q-126 -129 -362 -129q-115 0 -208.5 32.5t-150.5 92.5q-52 54 -76 137t-24 209v35z" />
    <glyph glyph-name="K" unicode="K" horiz-adv-x="1409" 
d="M154 0v1366h184v-725l795 725h276l-666 -584l666 -782h-248l-559 664l-264 -228v-436h-184z" />
    <glyph glyph-name="L" unicode="L" horiz-adv-x="1214" 
d="M154 0v1366h184v-1200h842v-166h-1026z" />
    <glyph glyph-name="M" unicode="M" horiz-adv-x="1996" 
d="M154 0v1366h280l559 -1161l570 1161h278v-1366h-184v1184l-582 -1184h-168l-569 1184v-1184h-184z" />
    <glyph glyph-name="N" unicode="N" horiz-adv-x="1642" 
d="M154 0v1366h223l928 -1151v1151h184v-1366h-229l-922 1145v-1145h-184z" />
    <glyph glyph-name="O" unicode="O" horiz-adv-x="1695" 
d="M866 1405q215 0 381 -89.5t258 -251.5t92 -372q0 -211 -96 -378t-268.5 -260t-390.5 -93q-222 0 -391 89.5t-261 253t-92 378.5q0 209 98 374t273 257t397 92zM862 1235q-120 0 -224 -41.5t-177.5 -113.5t-115.5 -173.5t-42 -218.5q0 -249 150 -403t393 -154
q245 0 396 151.5t151 397.5q0 247 -147.5 401t-383.5 154z" />
    <glyph glyph-name="P" unicode="P" horiz-adv-x="1366" 
d="M154 0v1366h579q142 0 211 -6t123 -23q110 -34 176 -135.5t66 -238.5q0 -95 -35 -181t-96 -141q-63 -58 -149 -77t-288 -19h-403v-545h-184zM338 705h393q163 0 246 26q59 20 93 79t34 142q0 92 -42 152t-120 82q-57 14 -213 14h-391v-495z" />
    <glyph glyph-name="Q" unicode="Q" horiz-adv-x="1724" 
d="M1626 -41l-102 -127l-273 236q-195 -107 -420 -107q-212 0 -379.5 90.5t-260.5 253t-93 369.5q0 161 56.5 297t157 231.5t244 149t312.5 53.5q327 0 529 -196.5t202 -514.5q0 -322 -215 -528zM1042 455l199 -172q83 86 118.5 176t35.5 215q0 253 -146.5 407t-384.5 154
q-244 0 -403.5 -155.5t-159.5 -393.5q0 -243 151 -397t388 -154q131 0 266 53l-166 142z" />
    <glyph glyph-name="R" unicode="R" horiz-adv-x="1513" 
d="M154 0v1366h731q135 0 197 -8t112 -31q88 -41 137 -129t49 -205q0 -276 -260 -342q61 -15 97 -31.5t64 -41.5t42.5 -68.5t23 -99.5t13.5 -148q7 -139 20.5 -183.5t55.5 -78.5h-246q-22 117 -27 262q-4 97 -18.5 154.5t-51.5 93.5t-93.5 48.5t-151.5 12.5h-510v-571h-184z
M338 731h504q137 0 198 19q65 20 100.5 80t35.5 149q0 156 -127 203q-45 18 -172 18h-539v-469z" />
    <glyph glyph-name="S" unicode="S" horiz-adv-x="1411" 
d="M88 436h188q22 -161 126.5 -233t316.5 -72q195 0 296 62t101 182q0 121 -131 170q-60 20 -297 57q-183 28 -257 45.5t-136 48.5q-89 44 -137.5 121t-48.5 174q0 187 156.5 300.5t416.5 113.5q536 0 588 -418h-191q-26 126 -126.5 187t-280.5 61q-166 0 -262.5 -61.5
t-96.5 -167.5q0 -60 35 -100t109 -66q50 -16 109.5 -28.5t213.5 -35.5q269 -39 371 -84q82 -38 126 -113t44 -176q0 -203 -162.5 -322.5t-437.5 -119.5q-309 0 -466.5 118t-166.5 357z" />
    <glyph glyph-name="T" unicode="T" horiz-adv-x="1296" 
d="M553 0v1200h-518v166h1229v-166h-527v-1200h-184z" />
    <glyph glyph-name="U" unicode="U" horiz-adv-x="1507" 
d="M1182 1366h186v-817q0 -150 -18.5 -232t-65.5 -147q-75 -100 -213.5 -154.5t-316.5 -54.5q-194 0 -340 65t-213 183q-33 58 -46.5 134t-13.5 206v817h187v-829q0 -162 51 -248q43 -72 145.5 -115t231.5 -43q143 0 247 49.5t144 136.5q35 77 35 220v829z" />
    <glyph glyph-name="V" unicode="V" horiz-adv-x="1462" 
d="M14 1366h217l506 -1186l510 1186h201l-614 -1366h-201z" />
    <glyph glyph-name="W" unicode="W" horiz-adv-x="2168" 
d="M14 1366h203l356 -1169l396 1169h219l379 -1169l379 1169h208l-471 -1366h-221l-387 1161l-401 -1161h-219z" />
    <glyph glyph-name="X" unicode="X" horiz-adv-x="1351" 
d="M18 0l537 680l-537 686h252l408 -547l412 547h245l-534 -686l534 -680h-256l-401 532l-412 -532h-248z" />
    <glyph glyph-name="Y" unicode="Y" horiz-adv-x="1390" 
d="M1389 1366l-601 -801v-565h-184v565l-604 801h244l456 -639l455 639h234z" />
    <glyph glyph-name="Z" unicode="Z" horiz-adv-x="1361" 
d="M61 0v164l990 1036h-938v166h1171v-168l-985 -1032h1014v-166h-1252z" />
    <glyph glyph-name="bracketleft" unicode="[" horiz-adv-x="618" 
d="M141 1366h357v-143h-181v-1299h181v-143h-357v1585z" />
    <glyph glyph-name="backslash" unicode="\" horiz-adv-x="991" 
d="M264 1366l717 -1585h-174l-725 1585h182z" />
    <glyph glyph-name="bracketright" unicode="]" horiz-adv-x="618" 
d="M479 -219h-356v143h180v1299h-180v143h356v-1585z" />
    <glyph glyph-name="asciicircum" unicode="^" 
d="M231 758h-172l349 612h208l351 -612h-172l-283 485z" />
    <glyph glyph-name="underscore" unicode="_" 
d="M0 -141h1024v-119h-1024v119z" />
    <glyph glyph-name="grave" unicode="`" 
d="M637 1161h-150l-264 232h287z" />
    <glyph glyph-name="a" unicode="a" horiz-adv-x="1236" 
d="M1239 141v-127q-49 -20 -119 -20q-96 0 -147.5 41.5t-63.5 130.5q-130 -201 -434 -201q-186 0 -296.5 84.5t-110.5 226.5q0 239 317 295q24 3 367 41q82 9 117.5 36t35.5 81q0 77 -76 118.5t-215 41.5q-162 0 -235.5 -44.5t-87.5 -150.5h-187q23 178 145.5 262t358.5 84
q267 0 379 -86q58 -44 78 -104.5t20 -192.5v-407q0 -66 22.5 -89.5t86.5 -23.5q4 0 9.5 0.5t15.5 1.5zM913 530q-77 -31 -129 -42.5t-288 -51.5q-77 -12 -116.5 -24.5t-64.5 -32.5q-24 -19 -38.5 -47t-14.5 -56q0 -69 71 -115t177 -46q126 0 238 61.5t143 147.5
q22 61 22 206z" />
    <glyph glyph-name="b" unicode="b" horiz-adv-x="1363" 
d="M313 1366v-551q136 219 424 219q238 0 389.5 -148t151.5 -382q0 -233 -152.5 -383t-390.5 -150q-141 0 -252 55.5t-170 153.5v-180h-176v1366h176zM700 885q-172 0 -284.5 -110t-112.5 -277q0 -164 112 -270.5t285 -106.5q170 0 276.5 107.5t106.5 277.5q0 168 -98 266
q-113 113 -285 113z" />
    <glyph glyph-name="c" unicode="c" horiz-adv-x="1230" 
d="M979 360h188q-55 -189 -193 -292t-333 -103q-250 0 -401.5 146.5t-151.5 386.5q0 247 154.5 394.5t412.5 147.5q196 0 328.5 -97t183.5 -277h-196q-65 223 -312 223q-168 0 -272 -106t-104 -277q0 -178 98.5 -284.5t261.5 -106.5q126 0 211 62.5t125 182.5z" />
    <glyph glyph-name="d" unicode="d" horiz-adv-x="1363" 
d="M1051 1366h176v-1366h-176v180q-147 -209 -424 -209q-236 0 -388.5 150.5t-152.5 382.5q0 234 151.5 382t389.5 148q288 0 424 -219v551zM662 885q-167 0 -274 -104t-107 -265q0 -180 104.5 -287.5t278.5 -107.5q173 0 284 106t111 271q0 167 -112.5 277t-284.5 110z" />
    <glyph glyph-name="e" unicode="e" horiz-adv-x="1277" 
d="M967 293h192q-59 -155 -195 -241.5t-323 -86.5q-249 0 -401 143.5t-152 376.5q0 242 157 398.5t400 156.5q177 0 309.5 -84t192.5 -235q24 -61 33 -115t12 -160h-920q46 -331 381 -331q239 0 314 178zM272 584h732q-23 141 -121 224t-242 83q-89 0 -166 -35t-123 -96
q-41 -54 -80 -176z" />
    <glyph glyph-name="f" unicode="f" horiz-adv-x="665" 
d="M201 0v868h-174v138h174v53q0 107 9.5 156t35.5 81q39 49 98 67.5t172 18.5q17 0 111 -4v-164q-17 1 -47.5 3t-44.5 2q-97 0 -127.5 -30t-30.5 -124v-59h250v-138h-250v-868h-176z" />
    <glyph glyph-name="g" unicode="g" horiz-adv-x="1363" 
d="M1049 1006h178v-828q0 -144 -15.5 -215t-60.5 -131q-69 -95 -189.5 -139.5t-306.5 -44.5q-242 0 -361.5 69.5t-150.5 229.5h193q26 -80 97.5 -115t209.5 -35q306 0 375 172q15 39 21.5 91t9.5 161q-31 -52 -59 -80.5t-75 -54.5q-117 -66 -272 -66q-250 0 -402.5 135
t-152.5 355q0 236 148.5 380t392.5 144q143 0 238.5 -44.5t181.5 -151.5v168zM668 885q-173 0 -279 -97.5t-106 -257.5q0 -172 99.5 -266t279.5 -94q170 0 279.5 102t109.5 260t-105.5 255.5t-277.5 97.5z" />
    <glyph glyph-name="h" unicode="h" horiz-adv-x="1277" 
d="M137 0v1378h176v-555q72 109 172 160t240 51q142 0 242.5 -51.5t140.5 -144.5q19 -43 25 -91.5t6 -160.5v-586h-176v580q0 305 -289 305q-109 0 -200.5 -49t-129.5 -127q-31 -70 -31 -187v-522h-176z" />
    <glyph glyph-name="i" unicode="i" horiz-adv-x="452" 
d="M139 0v1006h176v-1006h-176zM139 1174v192h176v-192h-176z" />
    <glyph glyph-name="j" unicode="j" horiz-adv-x="464" 
d="M326 1006v-998q0 -127 -14.5 -184.5t-55.5 -97.5q-78 -72 -242 -72q-4 0 -98 4v152q34 -5 68 -5q101 0 133.5 39t32.5 160v1002h176zM150 1174v192h176v-192h-176z" />
    <glyph glyph-name="k" unicode="k" horiz-adv-x="1193" 
d="M137 0v1366h176v-805l549 445h279l-490 -385l527 -621h-248l-426 504l-191 -146v-358h-176z" />
    <glyph glyph-name="l" unicode="l" horiz-adv-x="450" 
d="M137 0v1366h176v-1366h-176z" />
    <glyph glyph-name="m" unicode="m" horiz-adv-x="2015" 
d="M137 0v1006h178v-179q154 207 400 207q127 0 219.5 -55t138.5 -158q82 116 174 164.5t228 48.5q131 0 231 -52t141 -144q31 -66 31 -213v-625h-176v565q0 113 -14 168q-15 70 -87.5 111t-181.5 41q-91 0 -163.5 -31t-112.5 -88q-47 -64 -47 -201v-565h-176v571
q0 129 -21 185q-22 60 -88.5 94.5t-161.5 34.5q-152 0 -243 -82q-91 -79 -91 -242v-561h-178z" />
    <glyph glyph-name="n" unicode="n" horiz-adv-x="1263" 
d="M137 0v1006h178v-183q86 117 178 164t234 47q140 0 235.5 -47t133.5 -135q18 -40 24 -95t6 -177v-580h-176v559q0 85 -4.5 124.5t-17.5 72.5q-48 129 -260 129q-237 0 -318 -152q-35 -71 -35 -233v-500h-178z" />
    <glyph glyph-name="o" unicode="o" horiz-adv-x="1335" 
d="M672 1040q261 0 419 -151t158 -400q0 -232 -161.5 -378t-417.5 -146q-260 0 -421 150t-161 393q0 236 163 384t421 148zM676 891q-175 0 -284 -108t-109 -281q0 -186 106 -283q110 -104 287 -104q172 0 275.5 105t103.5 280q0 177 -104 284t-275 107z" />
    <glyph glyph-name="p" unicode="p" horiz-adv-x="1363" 
d="M313 -332h-176v1338h176v-177q147 205 422 205q238 0 390.5 -149.5t152.5 -382.5q0 -234 -151.5 -382.5t-389.5 -148.5q-288 0 -424 219v-522zM700 885q-173 0 -284 -106t-111 -271q0 -167 112.5 -277t284.5 -110q167 0 274 103.5t107 264.5q0 180 -105 288t-278 108z
" />
    <glyph glyph-name="q" unicode="q" horiz-adv-x="1363" 
d="M1051 -332v522q-136 -219 -424 -219q-238 0 -389.5 148.5t-151.5 382.5q0 233 152.5 382.5t390.5 149.5q275 0 422 -203v175h176v-1338h-176zM664 885q-170 0 -276.5 -106.5t-106.5 -278.5q0 -170 105.5 -274.5t277.5 -104.5t284.5 110t112.5 277q0 164 -112 270.5
t-285 106.5z" />
    <glyph glyph-name="r" unicode="r" horiz-adv-x="800" 
d="M137 0v1006h178v-236q63 126 125 180q90 84 236 84q43 0 92 -10v-180q-71 14 -119 14q-158 0 -262 -113q-38 -43 -55 -99.5t-17 -143.5v-502h-178z" />
    <glyph glyph-name="s" unicode="s" horiz-adv-x="1153" 
d="M70 307h182q8 -44 20.5 -70t38.5 -49q38 -34 114 -53.5t171 -19.5q140 0 218.5 40.5t78.5 112.5q0 78 -88 111q-62 20 -266 47q-145 21 -203.5 34.5t-104.5 39.5q-63 35 -97 90.5t-34 124.5q0 74 39 141t105 107q128 77 334 77q249 0 378 -120q45 -43 66 -93t27 -127
h-172q-10 50 -28 78.5t-52 50.5q-91 60 -232 60q-125 0 -197.5 -39.5t-72.5 -106.5q0 -66 56.5 -95.5t217.5 -49.5q236 -32 326 -63q192 -67 192 -242q0 -151 -133.5 -239.5t-359.5 -88.5q-249 0 -383.5 88t-140.5 254z" />
    <glyph glyph-name="t" unicode="t" horiz-adv-x="653" 
d="M598 133v-147q-88 -15 -156 -15q-104 0 -163 23t-82 72q-12 23 -14.5 48.5t-4.5 123.5v630h-170v138h170v272h176v-272h250v-138h-250v-626q0 -75 24 -98t99 -23q69 0 121 12z" />
    <glyph glyph-name="u" unicode="u" horiz-adv-x="1263" 
d="M1126 1006v-1006h-178v182q-88 -118 -178.5 -164.5t-232.5 -46.5q-140 0 -234.5 47t-134.5 136q-20 45 -25.5 93.5t-5.5 178.5v580h176v-560q0 -140 25 -200q52 -125 258 -125q238 0 315 151q21 38 29 89t8 145v500h178z" />
    <glyph glyph-name="v" unicode="v" horiz-adv-x="1126" 
d="M6 1006h203l350 -799l365 799h196l-475 -1006h-182z" />
    <glyph glyph-name="w" unicode="w" horiz-adv-x="1720" 
d="M6 1006h205l276 -797l263 797h208l259 -797l284 797h211l-389 -1006h-213l-260 795l-258 -795h-213z" />
    <glyph glyph-name="x" unicode="x" horiz-adv-x="1150" 
d="M0 0l446 516l-423 490h241l305 -357l297 357h246l-422 -490l461 -516h-260l-322 383l-315 -383h-254z" />
    <glyph glyph-name="y" unicode="y" horiz-adv-x="1142" 
d="M6 1006h211l358 -820l361 820h199l-533 -1160q-49 -109 -124.5 -153.5t-207.5 -44.5q-56 0 -137 8v164q60 -23 117 -23q98 0 142.5 37.5t94.5 159.5z" />
    <glyph glyph-name="z" unicode="z" horiz-adv-x="1124" 
d="M1077 162v-162h-1001v164l715 680h-678v162h934v-160l-742 -684h772z" />
    <glyph glyph-name="braceleft" unicode="{" horiz-adv-x="651" 
d="M342 1047v-234q0 -97 -25 -151t-86 -89q61 -37 86 -91.5t25 -151.5v-221q0 -61 9 -94.5t32 -51.5q36 -29 121 -29h31v-153h-48q-96 0 -148.5 14t-92.5 49q-82 73 -82 246v234q0 87 -25.5 127t-91.5 57v141q65 17 91 56t26 118v254q0 158 73 223.5t250 65.5h48v-152h-31
q-88 0 -127 -34q-35 -35 -35 -133z" />
    <glyph glyph-name="bar" unicode="|" 
d="M420 1366h186v-1708h-186v1708z" />
    <glyph glyph-name="braceright" unicode="}" horiz-adv-x="651" 
d="M309 100v234q0 97 25 150.5t86 88.5q-61 37 -86 92t-25 152v221q0 61 -9 94.5t-32 51.5q-35 28 -121 28h-30v154h47q96 0 149 -14t93 -49q81 -72 81 -246v-234q0 -87 25.5 -127t91.5 -57v-141q-65 -17 -91 -56t-26 -118v-254q0 -158 -73 -223.5t-250 -65.5h-47v151h30
q87 0 127 35q35 35 35 133z" />
    <glyph glyph-name="asciitilde" unicode="~" horiz-adv-x="1366" 
d="M289 1180l-96 75q57 124 124.5 182t155.5 58q42 0 93.5 -17.5t140.5 -60.5q86 -42 121 -54.5t71 -12.5q51 0 91.5 34t86.5 115l99 -78q-60 -125 -127.5 -182t-155.5 -57q-38 0 -84 16t-145 64q-85 41 -122.5 53t-74.5 12q-51 0 -91 -33t-87 -114z" />
    <glyph glyph-name="exclamdown" unicode="&#xa1;" horiz-adv-x="483" 
d="M330 1128v-192h-193v192h193zM279 784l51 -610v-412h-193v412l43 610h99z" />
    <glyph glyph-name="cent" unicode="&#xa2;" horiz-adv-x="1349" 
d="M1026 553h188q-50 -165 -168 -269.5t-276 -121.5v-234h-147v234q-110 15 -180.5 42.5t-133.5 80.5q-82 71 -127 176.5t-45 228.5q0 141 55.5 257.5t153.5 182.5q60 41 121.5 63.5t155.5 35.5v205h147v-205q358 -35 444 -371h-196q-26 100 -83.5 150t-164.5 67v-758
q94 15 162 78t94 158zM623 315v758q-78 -19 -122.5 -43t-80.5 -67q-90 -107 -90 -265q0 -80 26 -156.5t70 -125.5q35 -40 78.5 -62t118.5 -39z" />
    <glyph glyph-name="sterling" unicode="&#xa3;" horiz-adv-x="1349" 
d="M842 729v-131h-379q39 -100 39 -152q0 -67 -34.5 -130t-119.5 -154q90 22 178 22q66 0 111.5 -6.5t173.5 -34.5q52 -10 100 -10q122 0 281 90l59 -162q-146 -100 -317 -100q-56 0 -100.5 7.5t-163.5 37.5q-110 27 -215 27q-154 0 -273 -72l-86 148q116 78 166.5 150.5
t50.5 162.5q0 81 -49 176h-168v131h113q-40 94 -48.5 125.5t-8.5 83.5q0 206 156.5 336.5t402.5 130.5q156 0 273.5 -48.5t182.5 -139.5q34 -50 53 -108.5t31 -152.5h-190q-41 279 -352 279q-157 0 -259 -85.5t-102 -217.5q0 -96 64 -203h430z" />
    <glyph glyph-name="currency" unicode="&#xa4;" horiz-adv-x="1366" 
d="M272 1004l-131 131l92 92l138 -137q130 81 315 81q176 0 309 -81l133 133l93 -90l-127 -127q110 -144 110 -330q0 -174 -112 -307l133 -133l-92 -93l-142 142q-130 -80 -309 -80q-178 0 -305 82l-139 -140l-93 93l131 131q-116 134 -116 317q0 177 112 316zM688 1036
q-157 0 -254.5 -96.5t-97.5 -253.5q0 -168 94 -252q102 -94 258 -94q154 0 247 94.5t93 251.5q0 158 -93 254t-247 96z" />
    <glyph glyph-name="yen" unicode="&#xa5;" horiz-adv-x="1349" 
d="M993 961h150v-132h-236l-139 -211h375v-131h-375v-487h-184v487h-379v131h379l-140 211h-239v132h151l-268 405h244l348 -586l346 586h234z" />
    <glyph glyph-name="brokenbar" unicode="&#xa6;" 
d="M420 1366h186v-692h-186v692zM420 313h186v-655h-186v655z" />
    <glyph glyph-name="section" unicode="&#xa7;" horiz-adv-x="1226" 
d="M121 150h160q13 -72 30 -107t51 -61q91 -72 267 -72q295 0 295 186q0 142 -172 176l-375 78q-145 31 -205.5 86t-60.5 156q0 77 30 135t99 115q-60 38 -84.5 83.5t-24.5 116.5q0 347 479 347q159 0 250.5 -30t143.5 -99.5t81 -200.5h-167q-19 87 -64 127q-72 59 -238 59
q-148 0 -234.5 -48.5t-86.5 -131.5q0 -58 47.5 -91t163.5 -56l309 -64q164 -30 225 -88q76 -73 76 -184q0 -63 -28 -115t-97 -115q56 -50 78.5 -103t22.5 -136q0 -178 -114 -268.5t-337 -90.5q-273 0 -416 131q-51 47 -74.5 107t-29.5 158zM436 506l322 -68q88 -18 143 -43
q37 40 52.5 73.5t15.5 74.5q0 81 -56 108q-38 20 -127 37l-327 70q-77 14 -133 41q-34 -42 -48 -74.5t-14 -73.5q0 -64 35 -93.5t137 -51.5z" />
    <glyph glyph-name="dieresis" unicode="&#xa8;" 
d="M184 1182v184h185v-184h-185zM655 1182v184h185v-184h-185z" />
    <glyph glyph-name="copyright" unicode="&#xa9;" horiz-adv-x="1550" 
d="M1059 600h127q-6 -57 -17.5 -88.5t-40.5 -71.5q-115 -161 -337 -161q-197 0 -313 111t-116 300q0 186 114.5 299t303.5 113q173 0 283 -85.5t121 -228.5h-131q-19 97 -89 149t-180 52q-135 0 -211.5 -81t-76.5 -226q0 -138 77 -214.5t218 -76.5q114 0 178.5 50.5
t89.5 158.5zM784 1393q140 0 269 -57t222.5 -152.5t149.5 -227t56 -274.5q0 -192 -95 -355.5t-257.5 -258.5t-352.5 -95q-143 0 -274 56.5t-226 151.5t-151.5 226.5t-56.5 274.5q0 195 95 358.5t260 258t361 94.5zM782 1294q-167 0 -307 -81t-220.5 -222t-80.5 -309
q0 -165 80.5 -305.5t219 -222.5t300.5 -82q163 0 301.5 82t218.5 222.5t80 305.5q0 164 -80 305.5t-216.5 224t-295.5 82.5z" />
    <glyph glyph-name="ordfeminine" unicode="&#xaa;" horiz-adv-x="835" 
d="M813 649v-92q-36 -14 -80 -14q-58 0 -91 20.5t-48 65.5q-82 -105 -262 -105q-121 0 -192.5 52.5t-71.5 140.5q0 74 51.5 120.5t152.5 61.5q32 5 228 25q48 5 68 18t20 41q0 40 -44.5 62t-125.5 22q-102 0 -143 -24.5t-50 -90.5h-135q15 117 92 169.5t232 52.5
q169 0 239 -52q40 -29 53 -65.5t13 -116.5v-240q0 -32 11 -42.5t46 -10.5q19 0 37 2zM594 852q-5 -2 -11.5 -4t-10 -3t-5.5 -1q-54 -17 -223 -43q-74 -10 -105.5 -30t-31.5 -54q0 -37 41.5 -61.5t101.5 -24.5q75 0 143 35t87 82q14 35 14 104z" />
    <glyph glyph-name="guillemotleft" unicode="&#xab;" horiz-adv-x="907" 
d="M401 182l-319 246v170l319 231v-147l-231 -172l231 -158v-170zM803 182l-320 246v170l320 231v-147l-232 -172l232 -158v-170z" />
    <glyph glyph-name="logicalnot" unicode="&#xac;" 
d="M774 0v410h-706v161h886v-571h-180z" />
    <glyph glyph-name="registered" unicode="&#xae;" horiz-adv-x="1550" 
d="M397 301v778h420q78 0 113.5 -4.5t62.5 -17.5q53 -25 82 -76.5t29 -118.5q0 -144 -121 -190q63 -23 83 -62.5t26 -152.5q4 -64 8.5 -85.5t14 -35.5t38.5 -35h-174q-10 56 -16 154q-4 100 -36 130.5t-130 30.5h-277v-315h-123zM520 725h273q77 0 108 10q70 22 70 119
q0 64 -35 89.5t-123 25.5h-293v-244zM784 1393q140 0 269 -57t222.5 -152.5t149.5 -227t56 -274.5q0 -192 -95 -355.5t-257.5 -258.5t-352.5 -95q-143 0 -274 56.5t-226 151.5t-151.5 226.5t-56.5 274.5q0 195 95 358.5t260 258t361 94.5zM782 1294q-167 0 -307 -81
t-220.5 -222t-80.5 -309q0 -165 80.5 -305.5t219 -222.5t300.5 -82q163 0 301.5 82t218.5 222.5t80 305.5q0 164 -80 305.5t-216.5 224t-295.5 82.5z" />
    <glyph glyph-name="macron" unicode="&#xaf;" 
d="M846 1335v-123h-668v123h668z" />
    <glyph glyph-name="macron" unicode="&#x2c9;" 
d="M846 1335v-123h-668v123h668z" />
    <glyph glyph-name="degree" unicode="&#xb0;" horiz-adv-x="845" 
d="M422 1393q126 0 213.5 -88.5t87.5 -214.5q0 -121 -88.5 -209t-210.5 -88q-124 0 -212.5 88.5t-88.5 212.5q0 123 88 211t211 88zM422 1262q-69 0 -118.5 -49.5t-49.5 -118.5q0 -70 50 -120t120 -50q68 0 118 49.5t50 118.5q0 70 -50 120t-120 50z" />
    <glyph glyph-name="plusminus" unicode="&#xb1;" horiz-adv-x="1349" 
d="M1124 827v-143h-379v-405h-143v405h-379v143h379v406h143v-406h379zM1124 143v-143h-901v143h901z" />
    <glyph glyph-name="twosuperior" unicode="&#xb2;" horiz-adv-x="905" 
d="M799 668v-123h-695q6 127 85.5 208t287.5 177q108 51 146.5 91t38.5 101q0 66 -55 108t-144 42q-94 0 -148.5 -46t-60.5 -132v-17h-135q3 57 9.5 87t21.5 63q37 75 122 118.5t195 43.5q150 0 242 -74t92 -195q0 -76 -34.5 -131.5t-111.5 -101.5q-51 -32 -215 -109
q-120 -60 -164 -110h523z" />
    <glyph glyph-name="threesuperior" unicode="&#xb3;" horiz-adv-x="905" 
d="M96 817h137q3 -178 213 -178q106 0 165 39.5t59 109.5q0 136 -211 136l-76 -2v114h14l11 -2q18 -2 53 -2q91 0 133.5 27.5t42.5 85.5q0 57 -50.5 92t-133.5 35q-185 0 -197 -168h-129v16q3 123 93 196t239 73q141 0 229 -67t88 -173q0 -114 -108 -168q74 -22 108.5 -66.5
t34.5 -117.5q0 -124 -97 -199.5t-257 -75.5q-352 0 -361 295z" />
    <glyph glyph-name="acute" unicode="&#xb4;" 
d="M387 1161l127 232h287l-264 -232h-150z" />
    <glyph glyph-name="mu" unicode="&#xb5;" horiz-adv-x="1349" 
d="M180 1006h176v-584q0 -82 10 -129.5t33 -81.5q60 -90 240 -90q238 0 315 151q21 38 29 89t8 145v500h178v-1006h-178v182q-57 -80 -117 -127q-54 -40 -128 -63t-146 -23q-73 0 -130.5 26t-113.5 85v-412h-176v1338z" />
    <glyph glyph-name="mu" unicode="&#x3bc;" horiz-adv-x="1349" 
d="M180 1006h176v-584q0 -82 10 -129.5t33 -81.5q60 -90 240 -90q238 0 315 151q21 38 29 89t8 145v500h178v-1006h-178v182q-57 -80 -117 -127q-54 -40 -128 -63t-146 -23q-73 0 -130.5 26t-113.5 85v-412h-176v1338z" />
    <glyph glyph-name="paragraph" unicode="&#xb6;" horiz-adv-x="1366" 
d="M1208 1366v-1585h-192v1431h-148v-1431h-192v788h-37q-247 0 -360 45q-121 47 -184.5 136.5t-63.5 212.5q0 134 76.5 233.5t211.5 140.5q96 29 324 29h565z" />
    <glyph glyph-name="periodcentered" unicode="&#xb7;" horiz-adv-x="481" 
d="M137 412v200h205v-200h-205z" />
    <glyph glyph-name="periodcentered" unicode="&#x2219;" horiz-adv-x="481" 
d="M137 412v200h205v-200h-205z" />
    <glyph glyph-name="cedilla" unicode="&#xb8;" 
d="M481 0h94l-73 -127q47 8 71 8q77 0 118.5 -33t41.5 -94q0 -69 -58.5 -113t-150.5 -44q-124 0 -231 45l35 77q90 -32 157 -32q76 0 76 61q0 27 -18 42t-51 15q-25 0 -68 -14l-47 39z" />
    <glyph glyph-name="onesuperior" unicode="&#xb9;" horiz-adv-x="905" 
d="M449 547v575h-254v99q27 -2 36 -2q123 0 178.5 32t75.5 115h97v-819h-133z" />
    <glyph glyph-name="ordmasculine" unicode="&#xba;" horiz-adv-x="894" 
d="M451 1174q166 0 266 -90.5t100 -241.5q0 -140 -102.5 -228t-265.5 -88q-166 0 -268.5 91t-102.5 237q0 141 104.5 230.5t268.5 89.5zM453 1067q-105 0 -170.5 -60.5t-65.5 -158.5q0 -100 63.5 -157.5t172.5 -57.5q102 0 163.5 59t61.5 156q0 99 -61.5 159t-163.5 60z" />
    <glyph glyph-name="guillemotright" unicode="&#xbb;" horiz-adv-x="907" 
d="M506 829l319 -245v-170l-319 -232v148l231 172l-231 157v170zM104 829l320 -245v-170l-320 -232v148l232 172l-232 157v170z" />
    <glyph glyph-name="onequarter" unicode="&#xbc;" horiz-adv-x="2013" 
d="M446 547v575h-251v99q27 -2 36 -2q122 0 177 32t75 115h97v-819h-134zM633 0l610 1366h135l-618 -1366h-127zM1645 0v193h-447v108l455 518h125v-520h137v-106h-137v-193h-133zM1645 299v352l-312 -352h312z" />
    <glyph glyph-name="onehalf" unicode="&#xbd;" horiz-adv-x="2013" 
d="M446 547v575h-251v99q27 -2 36 -2q122 0 177 32t75 115h97v-819h-134zM633 0l610 1366h135l-618 -1366h-127zM1907 123v-123h-695q6 126 86 207.5t287 175.5q107 51 145.5 91.5t38.5 100.5q0 66 -54.5 108t-143.5 42q-94 0 -148.5 -46t-60.5 -132v-17h-135q3 58 9 88
t21 62q37 75 122.5 118.5t195.5 43.5q149 0 241.5 -73.5t92.5 -193.5q0 -76 -34.5 -132t-111.5 -103q-35 -22 -215 -107q-122 -63 -164 -110h523z" />
    <glyph glyph-name="threequarters" unicode="&#xbe;" horiz-adv-x="2013" 
d="M96 817h137q3 -178 213 -178q106 0 165 39.5t59 109.5q0 136 -211 136l-76 -2v114h14l11 -2q18 -2 53 -2q91 0 133.5 27.5t42.5 85.5q0 57 -50.5 92t-133.5 35q-185 0 -197 -168h-129v16q3 123 93 196t239 73q141 0 229 -67t88 -173q0 -114 -108 -168q74 -22 108.5 -66.5
t34.5 -117.5q0 -124 -97 -199.5t-257 -75.5q-352 0 -361 295zM635 0l610 1366h135l-618 -1366h-127zM1647 0v193h-447v108l455 518h125v-520h137v-106h-137v-193h-133zM1647 299v352l-312 -352h312z" />
    <glyph glyph-name="questiondown" unicode="&#xbf;" horiz-adv-x="1130" 
d="M678 1128v-192h-193v192h193zM889 193h182q-11 -103 -37 -170t-78 -125q-142 -154 -407 -154q-245 0 -373 125q-115 112 -115 276q0 152 105 263q60 60 215 176q77 59 94.5 89t18.5 111h174q-3 -128 -49.5 -198t-198.5 -176q-89 -63 -129.5 -125t-40.5 -133
q0 -114 79.5 -179t217.5 -65q149 0 232.5 69.5t109.5 215.5z" />
    <glyph glyph-name="Agrave" unicode="&#xc0;" horiz-adv-x="1476" 
d="M14 0l598 1366h224l628 -1366h-207l-180 389h-692l-170 -389h-201zM459 557h549l-285 623zM809 1503h-150l-264 232h287z" />
    <glyph glyph-name="Aacute" unicode="&#xc1;" horiz-adv-x="1476" 
d="M14 0l598 1366h224l628 -1366h-207l-180 389h-692l-170 -389h-201zM459 557h549l-285 623zM655 1503l127 232h287l-264 -232h-150z" />
    <glyph glyph-name="Acircumflex" unicode="&#xc2;" horiz-adv-x="1476" 
d="M14 0l598 1366h224l628 -1366h-207l-180 389h-692l-170 -389h-201zM459 557h549l-285 623zM371 1503l241 232h246l236 -232h-230l-137 139l-137 -139h-219z" />
    <glyph glyph-name="Atilde" unicode="&#xc3;" horiz-adv-x="1476" 
d="M14 0l598 1366h224l628 -1366h-207l-180 389h-692l-170 -389h-201zM459 557h549l-285 623zM516 1509h-139q9 94 62.5 150.5t131.5 56.5q69 0 289 -69q21 -7 33 -7q45 0 63 60h146q-7 -87 -63 -143t-134 -56q-30 0 -64 8t-157 43q-70 19 -98 19q-32 0 -47.5 -13.5
t-22.5 -48.5z" />
    <glyph glyph-name="Adieresis" unicode="&#xc4;" horiz-adv-x="1476" 
d="M14 0l598 1366h224l628 -1366h-207l-180 389h-692l-170 -389h-201zM459 557h549l-285 623zM412 1522v184h184v-184h-184zM883 1522v184h184v-184h-184z" />
    <glyph glyph-name="Aring" unicode="&#xc5;" horiz-adv-x="1476" 
d="M14 0l598 1366h224l628 -1366h-207l-180 389h-692l-170 -389h-201zM459 557h549l-285 623zM741 1829q88 0 148.5 -53.5t60.5 -130.5t-60.5 -127t-152.5 -50q-94 0 -152.5 49.5t-58.5 129.5q0 75 63 128.5t152 53.5zM739 1755q-57 0 -91 -29.5t-34 -78.5q0 -50 33 -78.5
t90 -28.5q55 0 90 30.5t35 78.5q0 47 -34 76.5t-89 29.5z" />
    <glyph glyph-name="AE" unicode="&#xc6;" horiz-adv-x="2238" 
d="M0 0l721 1366h1427v-166h-919v-428h858v-160h-858v-446h919v-166h-1106v395h-618l-211 -395h-213zM502 555h540v645h-202z" />
    <glyph glyph-name="Ccedilla" unicode="&#xc7;" horiz-adv-x="1595" 
d="M1337 506h197q-15 -152 -110.5 -279t-245 -198.5t-316.5 -67.5l-51 -88q46 10 82 10q83 0 128.5 -36.5t45.5 -102.5q0 -77 -64 -125.5t-165 -48.5q-137 0 -256 49l39 86q99 -37 176 -37q38 0 60 18t22 50q0 63 -78 63q-25 0 -74 -14l-51 41l84 135q-194 17 -357 115
q-141 82 -223 245.5t-82 362.5q0 170 63.5 317.5t178.5 245.5q189 158 489 158q391 0 582 -238q107 -133 119 -288h-201q-34 166 -165.5 261t-327.5 95q-249 0 -391 -150.5t-142 -414.5q0 -255 142.5 -397t398.5 -142q204 0 328.5 95t164.5 280z" />
    <glyph glyph-name="Egrave" unicode="&#xc8;" horiz-adv-x="1347" 
d="M154 0v1366h1081v-166h-897v-422h860v-160h-860v-452h917v-166h-1101zM881 1503h-150l-264 232h287z" />
    <glyph glyph-name="Eacute" unicode="&#xc9;" horiz-adv-x="1347" 
d="M154 0v1366h1081v-166h-897v-422h860v-160h-860v-452h917v-166h-1101zM467 1503l127 232h287l-265 -232h-149z" />
    <glyph glyph-name="Ecircumflex" unicode="&#xca;" horiz-adv-x="1347" 
d="M154 0v1366h1081v-166h-897v-422h860v-160h-860v-452h917v-166h-1101zM305 1503l242 232h246l235 -232h-229l-137 139l-138 -139h-219z" />
    <glyph glyph-name="Edieresis" unicode="&#xcb;" horiz-adv-x="1347" 
d="M154 0v1366h1081v-166h-897v-422h860v-160h-860v-452h917v-166h-1101zM346 1522v184h184v-184h-184zM817 1522v184h184v-184h-184z" />
    <glyph glyph-name="Igrave" unicode="&#xcc;" horiz-adv-x="493" 
d="M154 0v1366h184v-1366h-184zM344 1503h-149l-224 232h246z" />
    <glyph glyph-name="Iacute" unicode="&#xcd;" horiz-adv-x="493" 
d="M154 0v1366h184v-1366h-184zM176 1503l127 232h246l-223 -232h-150z" />
    <glyph glyph-name="Icircumflex" unicode="&#xce;" horiz-adv-x="493" 
d="M156 0v1366h184v-1366h-184zM-121 1503l242 232h246l235 -232h-229l-137 139l-138 -139h-219z" />
    <glyph glyph-name="Idieresis" unicode="&#xcf;" horiz-adv-x="493" 
d="M156 0v1366h184v-1366h-184zM12 1522v184h185v-184h-185zM305 1522v184h178v-184h-178z" />
    <glyph glyph-name="Eth" unicode="&#xd0;" horiz-adv-x="1579" 
d="M182 793v573h652q164 0 258.5 -22.5t167.5 -79.5q107 -82 164 -228t57 -340q0 -210 -62 -368.5t-176 -241.5q-68 -47 -162 -66.5t-260 -19.5h-639v629h-137v164h137zM367 793h360v-164h-360v-463h464q108 0 174 17.5t117 58.5q154 129 154 440q0 267 -114.5 392.5
t-360.5 125.5h-434v-407z" />
    <glyph glyph-name="Ntilde" unicode="&#xd1;" horiz-adv-x="1642" 
d="M154 0v1366h223l928 -1151v1151h184v-1366h-229l-922 1145v-1145h-184zM598 1509h-139q9 94 62.5 150.5t131.5 56.5q69 0 289 -69q21 -7 33 -7q45 0 63 60h146q-7 -87 -63 -143t-134 -56q-30 0 -64 8t-157 43q-70 19 -98 19q-32 0 -47.5 -13.5t-22.5 -48.5z" />
    <glyph glyph-name="Ograve" unicode="&#xd2;" horiz-adv-x="1695" 
d="M866 1405q215 0 381 -89.5t258 -251.5t92 -372q0 -211 -96 -378t-268.5 -260t-390.5 -93q-222 0 -391 89.5t-261 253t-92 378.5q0 209 98 374t273 257t397 92zM862 1235q-120 0 -224 -41.5t-177.5 -113.5t-115.5 -173.5t-42 -218.5q0 -249 150 -403t393 -154
q245 0 396 151.5t151 397.5q0 247 -147.5 401t-383.5 154zM999 1503h-149l-264 232h286z" />
    <glyph glyph-name="Oacute" unicode="&#xd3;" horiz-adv-x="1695" 
d="M866 1405q215 0 381 -89.5t258 -251.5t92 -372q0 -211 -96 -378t-268.5 -260t-390.5 -93q-222 0 -391 89.5t-261 253t-92 378.5q0 209 98 374t273 257t397 92zM862 1235q-120 0 -224 -41.5t-177.5 -113.5t-115.5 -173.5t-42 -218.5q0 -249 150 -403t393 -154
q245 0 396 151.5t151 397.5q0 247 -147.5 401t-383.5 154zM696 1503l127 232h287l-264 -232h-150z" />
    <glyph glyph-name="Ocircumflex" unicode="&#xd4;" horiz-adv-x="1695" 
d="M866 1405q215 0 381 -89.5t258 -251.5t92 -372q0 -211 -96 -378t-268.5 -260t-390.5 -93q-222 0 -391 89.5t-261 253t-92 378.5q0 209 98 374t273 257t397 92zM862 1235q-120 0 -224 -41.5t-177.5 -113.5t-115.5 -173.5t-42 -218.5q0 -249 150 -403t393 -154
q245 0 396 151.5t151 397.5q0 247 -147.5 401t-383.5 154zM479 1503l242 232h246l235 -232h-229l-137 139l-138 -139h-219z" />
    <glyph glyph-name="Otilde" unicode="&#xd5;" horiz-adv-x="1695" 
d="M866 1405q215 0 381 -89.5t258 -251.5t92 -372q0 -211 -96 -378t-268.5 -260t-390.5 -93q-222 0 -391 89.5t-261 253t-92 378.5q0 209 98 374t273 257t397 92zM862 1235q-120 0 -224 -41.5t-177.5 -113.5t-115.5 -173.5t-42 -218.5q0 -249 150 -403t393 -154
q245 0 396 151.5t151 397.5q0 247 -147.5 401t-383.5 154zM625 1509h-140q9 93 63 150t132 57q69 0 289 -69q21 -7 32 -7q46 0 64 60h145q-7 -88 -62.5 -143.5t-133.5 -55.5q-30 0 -64 8t-157 43q-70 19 -99 19q-32 0 -46.5 -13.5t-22.5 -48.5z" />
    <glyph glyph-name="Odieresis" unicode="&#xd6;" horiz-adv-x="1695" 
d="M866 1405q215 0 381 -89.5t258 -251.5t92 -372q0 -211 -96 -378t-268.5 -260t-390.5 -93q-222 0 -391 89.5t-261 253t-92 378.5q0 209 98 374t273 257t397 92zM862 1235q-120 0 -224 -41.5t-177.5 -113.5t-115.5 -173.5t-42 -218.5q0 -249 150 -403t393 -154
q245 0 396 151.5t151 397.5q0 247 -147.5 401t-383.5 154zM520 1522v184h185v-184h-185zM991 1522v184h185v-184h-185z" />
    <glyph glyph-name="multiply" unicode="&#xd7;" horiz-adv-x="1349" 
d="M995 1108l101 -100l-320 -320l334 -334l-100 -102l-334 334l-322 -320l-100 103l319 319l-333 334l102 100l334 -334z" />
    <glyph glyph-name="Oslash" unicode="&#xd8;" horiz-adv-x="1693" 
d="M45 94l172 162q-63 105 -91 201.5t-28 212.5q0 216 96.5 383t272 259.5t401.5 92.5q127 0 230.5 -28.5t210.5 -94.5l178 170l112 -123l-167 -155q163 -198 163 -478q0 -211 -96 -379t-268 -262t-389 -94q-294 0 -516 174l-168 -164zM369 399l796 748q-127 88 -301 88
q-249 0 -406 -156.5t-157 -402.5q0 -77 15.5 -139t52.5 -138zM1288 1036l-819 -768q82 -69 171.5 -101t201.5 -32q246 0 398.5 151t152.5 394q0 210 -105 356z" />
    <glyph glyph-name="Ugrave" unicode="&#xd9;" horiz-adv-x="1507" 
d="M1182 1366h186v-817q0 -150 -18.5 -232t-65.5 -147q-75 -100 -213.5 -154.5t-316.5 -54.5q-194 0 -340 65t-213 183q-33 58 -46.5 134t-13.5 206v817h187v-829q0 -162 51 -248q43 -72 145.5 -115t231.5 -43q143 0 247 49.5t144 136.5q35 77 35 220v829zM922 1503h-150
l-264 232h287z" />
    <glyph glyph-name="Uacute" unicode="&#xda;" horiz-adv-x="1507" 
d="M1182 1366h186v-817q0 -150 -18.5 -232t-65.5 -147q-75 -100 -213.5 -154.5t-316.5 -54.5q-194 0 -340 65t-213 183q-33 58 -46.5 134t-13.5 206v817h187v-829q0 -162 51 -248q43 -72 145.5 -115t231.5 -43q143 0 247 49.5t144 136.5q35 77 35 220v829zM602 1503l127 232
h287l-264 -232h-150z" />
    <glyph glyph-name="Ucircumflex" unicode="&#xdb;" horiz-adv-x="1507" 
d="M1182 1366h186v-817q0 -150 -18.5 -232t-65.5 -147q-75 -100 -213.5 -154.5t-316.5 -54.5q-194 0 -340 65t-213 183q-33 58 -46.5 134t-13.5 206v817h187v-829q0 -162 51 -248q43 -72 145.5 -115t231.5 -43q143 0 247 49.5t144 136.5q35 77 35 220v829zM385 1503l242 232
h245l236 -232h-229l-138 139l-137 -139h-219z" />
    <glyph glyph-name="Udieresis" unicode="&#xdc;" horiz-adv-x="1507" 
d="M1182 1366h186v-817q0 -150 -18.5 -232t-65.5 -147q-75 -100 -213.5 -154.5t-316.5 -54.5q-194 0 -340 65t-213 183q-33 58 -46.5 134t-13.5 206v817h187v-829q0 -162 51 -248q43 -72 145.5 -115t231.5 -43q143 0 247 49.5t144 136.5q35 77 35 220v829zM428 1522v184h184
v-184h-184zM899 1522v184h184v-184h-184z" />
    <glyph glyph-name="Yacute" unicode="&#xdd;" horiz-adv-x="1390" 
d="M1389 1366l-601 -801v-565h-184v565l-604 801h244l456 -639l455 639h234zM543 1503l127 232h286l-264 -232h-149z" />
    <glyph glyph-name="Thorn" unicode="&#xde;" horiz-adv-x="1366" 
d="M154 0v1366h184v-192h395q142 0 211 -6t123 -23q110 -34 176 -136t66 -239q0 -122 -57.5 -227t-145.5 -142q-62 -26 -142.5 -36.5t-222.5 -10.5h-403v-354h-184zM338 514h393q160 0 246 27q59 20 93 79t34 140q0 92 -42 151.5t-120 81.5q-64 15 -213 15h-391v-494z" />
    <glyph glyph-name="germandbls" unicode="&#xdf;" horiz-adv-x="1251" 
d="M139 0v946q0 119 17 181.5t65 119.5q59 68 165 108t230 40q218 0 350 -100.5t132 -266.5q0 -109 -60 -180t-164 -86q289 -73 289 -348q0 -105 -42 -201.5t-113 -153.5q-109 -86 -291 -86q-72 0 -191 27v129q69 -14 131 -14q141 0 226.5 80t85.5 213q0 129 -88 197.5
t-252 68.5q-24 0 -92 -2v147q35 -4 77 -4q152 0 220.5 48t68.5 155q0 106 -75 166.5t-207 60.5q-78 0 -142.5 -23.5t-101.5 -64.5q-37 -40 -50.5 -88t-13.5 -139v-930h-174z" />
    <glyph glyph-name="agrave" unicode="&#xe0;" horiz-adv-x="1236" 
d="M1239 141v-127q-49 -20 -119 -20q-96 0 -147.5 41.5t-63.5 130.5q-130 -201 -434 -201q-186 0 -296.5 84.5t-110.5 226.5q0 239 317 295q24 3 367 41q82 9 117.5 36t35.5 81q0 77 -76 118.5t-215 41.5q-162 0 -235.5 -44.5t-87.5 -150.5h-187q23 178 145.5 262t358.5 84
q267 0 379 -86q58 -44 78 -104.5t20 -192.5v-407q0 -66 22.5 -89.5t86.5 -23.5q4 0 9.5 0.5t15.5 1.5zM913 530q-77 -31 -129 -42.5t-288 -51.5q-77 -12 -116.5 -24.5t-64.5 -32.5q-24 -19 -38.5 -47t-14.5 -56q0 -69 71 -115t177 -46q126 0 238 61.5t143 147.5
q22 61 22 206zM743 1161h-149l-264 232h286z" />
    <glyph glyph-name="aacute" unicode="&#xe1;" horiz-adv-x="1236" 
d="M1239 141v-127q-49 -20 -119 -20q-96 0 -147.5 41.5t-63.5 130.5q-130 -201 -434 -201q-186 0 -296.5 84.5t-110.5 226.5q0 239 317 295q24 3 367 41q82 9 117.5 36t35.5 81q0 77 -76 118.5t-215 41.5q-162 0 -235.5 -44.5t-87.5 -150.5h-187q23 178 145.5 262t358.5 84
q267 0 379 -86q58 -44 78 -104.5t20 -192.5v-407q0 -66 22.5 -89.5t86.5 -23.5q4 0 9.5 0.5t15.5 1.5zM913 530q-77 -31 -129 -42.5t-288 -51.5q-77 -12 -116.5 -24.5t-64.5 -32.5q-24 -19 -38.5 -47t-14.5 -56q0 -69 71 -115t177 -46q126 0 238 61.5t143 147.5
q22 61 22 206zM494 1161l127 232h286l-264 -232h-149z" />
    <glyph glyph-name="acircumflex" unicode="&#xe2;" horiz-adv-x="1236" 
d="M1239 141v-127q-49 -20 -119 -20q-96 0 -147.5 41.5t-63.5 130.5q-130 -201 -434 -201q-186 0 -296.5 84.5t-110.5 226.5q0 239 317 295q24 3 367 41q82 9 117.5 36t35.5 81q0 77 -76 118.5t-215 41.5q-162 0 -235.5 -44.5t-87.5 -150.5h-187q23 178 145.5 262t358.5 84
q267 0 379 -86q58 -44 78 -104.5t20 -192.5v-407q0 -66 22.5 -89.5t86.5 -23.5q4 0 9.5 0.5t15.5 1.5zM913 530q-77 -31 -129 -42.5t-288 -51.5q-77 -12 -116.5 -24.5t-64.5 -32.5q-24 -19 -38.5 -47t-14.5 -56q0 -69 71 -115t177 -46q126 0 238 61.5t143 147.5
q22 61 22 206zM274 1167l230 219h233l226 -219h-220l-129 131l-133 -131h-207z" />
    <glyph glyph-name="atilde" unicode="&#xe3;" horiz-adv-x="1236" 
d="M1239 141v-127q-49 -20 -119 -20q-96 0 -147.5 41.5t-63.5 130.5q-130 -201 -434 -201q-186 0 -296.5 84.5t-110.5 226.5q0 239 317 295q24 3 367 41q82 9 117.5 36t35.5 81q0 77 -76 118.5t-215 41.5q-162 0 -235.5 -44.5t-87.5 -150.5h-187q23 178 145.5 262t358.5 84
q267 0 379 -86q58 -44 78 -104.5t20 -192.5v-407q0 -66 22.5 -89.5t86.5 -23.5q4 0 9.5 0.5t15.5 1.5zM913 530q-77 -31 -129 -42.5t-288 -51.5q-77 -12 -116.5 -24.5t-64.5 -32.5q-24 -19 -38.5 -47t-14.5 -56q0 -69 71 -115t177 -46q126 0 238 61.5t143 147.5
q22 61 22 206zM395 1167h-139q9 93 63 150t132 57q64 0 288 -69q21 -7 33 -7q49 0 64 68h145q-4 -90 -60.5 -148.5t-136.5 -58.5q-32 0 -67 8t-154 43q-70 19 -98 19q-32 0 -47.5 -13.5t-22.5 -48.5z" />
    <glyph glyph-name="adieresis" unicode="&#xe4;" horiz-adv-x="1236" 
d="M1239 141v-127q-49 -20 -119 -20q-96 0 -147.5 41.5t-63.5 130.5q-130 -201 -434 -201q-186 0 -296.5 84.5t-110.5 226.5q0 239 317 295q24 3 367 41q82 9 117.5 36t35.5 81q0 77 -76 118.5t-215 41.5q-162 0 -235.5 -44.5t-87.5 -150.5h-187q23 178 145.5 262t358.5 84
q267 0 379 -86q58 -44 78 -104.5t20 -192.5v-407q0 -66 22.5 -89.5t86.5 -23.5q4 0 9.5 0.5t15.5 1.5zM913 530q-77 -31 -129 -42.5t-288 -51.5q-77 -12 -116.5 -24.5t-64.5 -32.5q-24 -19 -38.5 -47t-14.5 -56q0 -69 71 -115t177 -46q126 0 238 61.5t143 147.5
q22 61 22 206zM291 1182v184h184v-184h-184zM762 1182v184h184v-184h-184z" />
    <glyph glyph-name="aring" unicode="&#xe5;" horiz-adv-x="1236" 
d="M1239 141v-127q-49 -20 -119 -20q-96 0 -147.5 41.5t-63.5 130.5q-130 -201 -434 -201q-186 0 -296.5 84.5t-110.5 226.5q0 239 317 295q24 3 367 41q82 9 117.5 36t35.5 81q0 77 -76 118.5t-215 41.5q-162 0 -235.5 -44.5t-87.5 -150.5h-187q23 178 145.5 262t358.5 84
q267 0 379 -86q58 -44 78 -104.5t20 -192.5v-407q0 -66 22.5 -89.5t86.5 -23.5q4 0 9.5 0.5t15.5 1.5zM913 530q-77 -31 -129 -42.5t-288 -51.5q-77 -12 -116.5 -24.5t-64.5 -32.5q-24 -19 -38.5 -47t-14.5 -56q0 -69 71 -115t177 -46q126 0 238 61.5t143 147.5
q22 61 22 206zM612 1520q92 0 154.5 -52t62.5 -129t-61.5 -127.5t-155.5 -50.5q-92 0 -149 51t-57 131q0 75 59 126t147 51zM618 1444q-57 0 -93 -29t-36 -74q0 -46 34.5 -75t88.5 -29q57 0 93 30t36 76q0 44 -34.5 72.5t-88.5 28.5z" />
    <glyph glyph-name="ae" unicode="&#xe6;" horiz-adv-x="2054" 
d="M287 698h-174q41 342 495 342q168 0 265 -45.5t141 -146.5q88 106 180 149t231 43q263 0 402.5 -152t138.5 -437h-901q19 -164 110.5 -249t251.5 -85q229 0 334 180h191q-62 -160 -196.5 -246t-323.5 -86q-365 0 -471 240q-58 -117 -178 -178.5t-287 -61.5
q-204 0 -316 80.5t-112 228.5q0 98 55.5 171.5t152.5 101.5q58 17 116.5 24.5t205.5 16.5q76 5 120 8.5t82 10.5t55 14t29 21t14.5 29.5t2.5 41.5q0 176 -301 176q-146 0 -218.5 -44.5t-94.5 -146.5zM1063 588h719q-15 143 -111 223t-252 80q-155 0 -249.5 -80.5
t-106.5 -222.5zM901 508l-10 -4q-7 -2 -17 -6q-54 -22 -108 -31t-180 -18q-197 -15 -254 -48q-70 -42 -70 -120q0 -164 248 -164q126 0 224 42t132 111q35 69 35 238z" />
    <glyph glyph-name="ccedilla" unicode="&#xe7;" horiz-adv-x="1230" 
d="M657 -35l-53 -92q47 8 72 8q77 0 118.5 -33t41.5 -94q0 -69 -58.5 -113t-150.5 -44q-125 0 -232 45l35 77q90 -32 158 -32q76 0 76 61q0 27 -18.5 42t-51.5 15q-25 0 -66 -14l-47 39l86 139q-229 29 -354 167.5t-125 361.5q0 247 154.5 394.5t412.5 147.5
q196 0 328.5 -97t183.5 -277h-196q-65 223 -312 223q-169 0 -272.5 -105.5t-103.5 -277.5q0 -177 98.5 -283t261.5 -106q256 0 336 243h188q-47 -177 -186 -284.5t-324 -110.5z" />
    <glyph glyph-name="egrave" unicode="&#xe8;" horiz-adv-x="1277" 
d="M967 293h192q-59 -155 -195 -241.5t-323 -86.5q-249 0 -401 143.5t-152 376.5q0 242 157 398.5t400 156.5q177 0 309.5 -84t192.5 -235q24 -61 33 -115t12 -160h-920q46 -331 381 -331q239 0 314 178zM272 584h732q-23 141 -121 224t-242 83q-89 0 -166 -35t-123 -96
q-41 -54 -80 -176zM793 1161h-150l-264 232h287z" />
    <glyph glyph-name="eacute" unicode="&#xe9;" horiz-adv-x="1277" 
d="M967 293h192q-59 -155 -195 -241.5t-323 -86.5q-249 0 -401 143.5t-152 376.5q0 242 157 398.5t400 156.5q177 0 309.5 -84t192.5 -235q24 -61 33 -115t12 -160h-920q46 -331 381 -331q239 0 314 178zM272 584h732q-23 141 -121 224t-242 83q-89 0 -166 -35t-123 -96
q-41 -54 -80 -176zM487 1161l127 232h287l-264 -232h-150z" />
    <glyph glyph-name="ecircumflex" unicode="&#xea;" horiz-adv-x="1277" 
d="M967 293h192q-59 -155 -195 -241.5t-323 -86.5q-249 0 -401 143.5t-152 376.5q0 242 157 398.5t400 156.5q177 0 309.5 -84t192.5 -235q24 -61 33 -115t12 -160h-920q46 -331 381 -331q239 0 314 178zM272 584h732q-23 141 -121 224t-242 83q-89 0 -166 -35t-123 -96
q-41 -54 -80 -176zM297 1167l229 219h234l225 -219h-219l-129 131l-133 -131h-207z" />
    <glyph glyph-name="edieresis" unicode="&#xeb;" horiz-adv-x="1277" 
d="M967 293h192q-59 -155 -195 -241.5t-323 -86.5q-249 0 -401 143.5t-152 376.5q0 242 157 398.5t400 156.5q177 0 309.5 -84t192.5 -235q24 -61 33 -115t12 -160h-920q46 -331 381 -331q239 0 314 178zM272 584h732q-23 141 -121 224t-242 83q-89 0 -166 -35t-123 -96
q-41 -54 -80 -176zM313 1182v184h185v-184h-185zM784 1182v184h185v-184h-185z" />
    <glyph glyph-name="igrave" unicode="&#xec;" horiz-adv-x="452" 
d="M141 0v1006h176v-1006h-176zM352 1161h-149l-223 232h245z" />
    <glyph glyph-name="iacute" unicode="&#xed;" horiz-adv-x="452" 
d="M141 0v1006h176v-1006h-176zM102 1161l127 232h246l-223 -232h-150z" />
    <glyph glyph-name="icircumflex" unicode="&#xee;" horiz-adv-x="452" 
d="M141 0v1006h176v-1006h-176zM-117 1167l230 219h233l225 -219h-219l-129 131l-133 -131h-207z" />
    <glyph glyph-name="idieresis" unicode="&#xef;" horiz-adv-x="452" 
d="M139 0v1006h176v-1006h-176zM4 1182v184h172v-184h-172zM276 1182v184h173v-184h-173z" />
    <glyph glyph-name="eth" unicode="&#xf0;" horiz-adv-x="1335" 
d="M414 1180l118 104q-31 36 -83 86l67 70l100 -82l134 119l61 -66l-125 -113q156 -130 283 -260q156 -161 218 -282t62 -264q0 -235 -161 -381t-420 -146q-255 0 -417.5 150.5t-162.5 386.5q0 241 161.5 389.5t422.5 148.5q32 0 88 -6q-9 9 -166 183l-121 -109zM676 891
q-175 0 -284 -108t-109 -281q0 -186 106 -283q110 -104 287 -104q172 0 275.5 105t103.5 280q0 177 -104 284t-275 107z" />
    <glyph glyph-name="ntilde" unicode="&#xf1;" horiz-adv-x="1263" 
d="M137 0v1006h178v-183q86 117 178 164t234 47q140 0 235.5 -47t133.5 -135q18 -40 24 -95t6 -177v-580h-176v559q0 85 -4.5 124.5t-17.5 72.5q-48 129 -260 129q-237 0 -318 -152q-35 -71 -35 -233v-500h-178zM408 1167h-140q9 93 63 150t132 57q65 0 289 -69q21 -7 32 -7
q49 0 64 68h145q-4 -90 -60 -148.5t-136 -58.5q-33 0 -68 8t-154 43q-70 19 -98 19q-32 0 -46.5 -13.5t-22.5 -48.5z" />
    <glyph glyph-name="ograve" unicode="&#xf2;" horiz-adv-x="1335" 
d="M672 1040q261 0 419 -151t158 -400q0 -232 -161.5 -378t-417.5 -146q-260 0 -421 150t-161 393q0 236 163 384t421 148zM676 891q-175 0 -284 -108t-109 -281q0 -186 106 -283q110 -104 287 -104q172 0 275.5 105t103.5 280q0 177 -104 284t-275 107zM834 1161h-150
l-264 232h287z" />
    <glyph glyph-name="oacute" unicode="&#xf3;" horiz-adv-x="1335" 
d="M672 1040q261 0 419 -151t158 -400q0 -232 -161.5 -378t-417.5 -146q-260 0 -421 150t-161 393q0 236 163 384t421 148zM676 891q-175 0 -284 -108t-109 -281q0 -186 106 -283q110 -104 287 -104q172 0 275.5 105t103.5 280q0 177 -104 284t-275 107zM516 1161l127 232
h287l-264 -232h-150z" />
    <glyph glyph-name="ocircumflex" unicode="&#xf4;" horiz-adv-x="1335" 
d="M672 1040q261 0 419 -151t158 -400q0 -232 -161.5 -378t-417.5 -146q-260 0 -421 150t-161 393q0 236 163 384t421 148zM676 891q-175 0 -284 -108t-109 -281q0 -186 106 -283q110 -104 287 -104q172 0 275.5 105t103.5 280q0 177 -104 284t-275 107zM324 1167l229 219
h233l226 -219h-219l-129 131l-134 -131h-206z" />
    <glyph glyph-name="otilde" unicode="&#xf5;" horiz-adv-x="1335" 
d="M672 1040q261 0 419 -151t158 -400q0 -232 -161.5 -378t-417.5 -146q-260 0 -421 150t-161 393q0 236 163 384t421 148zM676 891q-175 0 -284 -108t-109 -281q0 -186 106 -283q110 -104 287 -104q172 0 275.5 105t103.5 280q0 177 -104 284t-275 107zM444 1167h-139
q9 93 63 150t132 57q64 0 288 -69q21 -7 33 -7q49 0 64 68h145q-4 -90 -60 -148.5t-136 -58.5q-33 0 -68 8t-154 43q-70 19 -98 19q-32 0 -47.5 -13.5t-22.5 -48.5z" />
    <glyph glyph-name="odieresis" unicode="&#xf6;" horiz-adv-x="1335" 
d="M672 1040q261 0 419 -151t158 -400q0 -232 -161.5 -378t-417.5 -146q-260 0 -421 150t-161 393q0 236 163 384t421 148zM676 891q-175 0 -284 -108t-109 -281q0 -186 106 -283q110 -104 287 -104q172 0 275.5 105t103.5 280q0 177 -104 284t-275 107zM340 1182v184h184
v-184h-184zM811 1182v184h184v-184h-184z" />
    <glyph glyph-name="divide" unicode="&#xf7;" horiz-adv-x="1349" 
d="M1124 760v-144h-901v144h901zM674 438q41 0 72.5 -31.5t31.5 -74.5t-31 -75t-75 -32t-75.5 32t-31.5 75q0 44 32 75t77 31zM674 1151q41 0 72.5 -32t31.5 -75t-31.5 -74.5t-74.5 -31.5q-44 0 -75.5 31.5t-31.5 74.5q0 44 32.5 75.5t76.5 31.5z" />
    <glyph glyph-name="oslash" unicode="&#xf8;" horiz-adv-x="1335" 
d="M31 74l143 131q-49 84 -67.5 148t-18.5 145q0 244 160.5 393t423.5 149q181 0 338 -88l153 138l111 -119l-144 -125q117 -159 117 -359q0 -231 -160 -376.5t-415 -145.5q-120 0 -210 28.5t-175 92.5l-148 -135zM311 328l568 508q-80 55 -205 55q-175 0 -283 -109.5
t-108 -287.5q0 -81 28 -166zM995 721l-581 -520q111 -86 260 -86q170 0 273.5 105t103.5 280q0 125 -56 221z" />
    <glyph glyph-name="ugrave" unicode="&#xf9;" horiz-adv-x="1263" 
d="M1126 1006v-1006h-178v182q-88 -118 -178.5 -164.5t-232.5 -46.5q-140 0 -234.5 47t-134.5 136q-20 45 -25.5 93.5t-5.5 178.5v580h176v-560q0 -140 25 -200q52 -125 258 -125q238 0 315 151q21 38 29 89t8 145v500h178zM799 1161h-150l-264 232h287z" />
    <glyph glyph-name="uacute" unicode="&#xfa;" horiz-adv-x="1263" 
d="M1126 1006v-1006h-178v182q-88 -118 -178.5 -164.5t-232.5 -46.5q-140 0 -234.5 47t-134.5 136q-20 45 -25.5 93.5t-5.5 178.5v580h176v-560q0 -140 25 -200q52 -125 258 -125q238 0 315 151q21 38 29 89t8 145v500h178zM479 1161l127 232h287l-264 -232h-150z" />
    <glyph glyph-name="ucircumflex" unicode="&#xfb;" horiz-adv-x="1263" 
d="M1126 1006v-1006h-178v182q-88 -118 -178.5 -164.5t-232.5 -46.5q-140 0 -234.5 47t-134.5 136q-20 45 -25.5 93.5t-5.5 178.5v580h176v-560q0 -140 25 -200q52 -125 258 -125q238 0 315 151q21 38 29 89t8 145v500h178zM289 1167l229 219h234l225 -219h-219l-129 131
l-133 -131h-207z" />
    <glyph glyph-name="udieresis" unicode="&#xfc;" horiz-adv-x="1263" 
d="M1126 1006v-1006h-178v182q-88 -118 -178.5 -164.5t-232.5 -46.5q-140 0 -234.5 47t-134.5 136q-20 45 -25.5 93.5t-5.5 178.5v580h176v-560q0 -140 25 -200q52 -125 258 -125q238 0 315 151q21 38 29 89t8 145v500h178zM303 1182v184h184v-184h-184zM774 1182v184h184
v-184h-184z" />
    <glyph glyph-name="yacute" unicode="&#xfd;" horiz-adv-x="1142" 
d="M6 1006h211l358 -820l361 820h199l-533 -1160q-49 -109 -124.5 -153.5t-207.5 -44.5q-56 0 -137 8v164q60 -23 117 -23q98 0 142.5 37.5t94.5 159.5zM418 1161l127 232h286l-264 -232h-149z" />
    <glyph glyph-name="thorn" unicode="&#xfe;" horiz-adv-x="1363" 
d="M313 -332h-176v1698h176v-539q62 98 172.5 152.5t249.5 54.5q238 0 390.5 -149.5t152.5 -382.5q0 -234 -151.5 -382.5t-389.5 -148.5q-288 0 -424 219v-522zM700 885q-173 0 -284 -106t-111 -271q0 -167 112.5 -277t284.5 -110q167 0 274 103.5t107 264.5q0 180 -105 288
t-278 108z" />
    <glyph glyph-name="ydieresis" unicode="&#xff;" horiz-adv-x="1142" 
d="M6 1006h211l358 -820l361 820h199l-533 -1160q-49 -109 -124.5 -153.5t-207.5 -44.5q-56 0 -137 8v164q60 -23 117 -23q98 0 142.5 37.5t94.5 159.5zM244 1182v184h184v-184h-184zM715 1182v184h184v-184h-184z" />
    <glyph glyph-name="Amacron" unicode="&#x100;" horiz-adv-x="1476" 
d="M14 0l598 1366h224l628 -1366h-207l-180 389h-692l-170 -389h-201zM459 557h549l-285 623zM1090 1667v-131h-703v131h703z" />
    <glyph glyph-name="amacron" unicode="&#x101;" horiz-adv-x="1236" 
d="M1239 141v-127q-49 -20 -119 -20q-96 0 -147.5 41.5t-63.5 130.5q-130 -201 -434 -201q-186 0 -296.5 84.5t-110.5 226.5q0 239 317 295q24 3 367 41q82 9 117.5 36t35.5 81q0 77 -76 118.5t-215 41.5q-162 0 -235.5 -44.5t-87.5 -150.5h-187q23 178 145.5 262t358.5 84
q267 0 379 -86q58 -44 78 -104.5t20 -192.5v-407q0 -66 22.5 -89.5t86.5 -23.5q4 0 9.5 0.5t15.5 1.5zM913 530q-77 -31 -129 -42.5t-288 -51.5q-77 -12 -116.5 -24.5t-64.5 -32.5q-24 -19 -38.5 -47t-14.5 -56q0 -69 71 -115t177 -46q126 0 238 61.5t143 147.5
q22 61 22 206zM952 1335v-123h-667v123h667z" />
    <glyph glyph-name="Abreve" unicode="&#x102;" horiz-adv-x="1476" 
d="M14 0l598 1366h224l628 -1366h-207l-180 389h-692l-170 -389h-201zM459 557h549l-285 623zM393 1724h187q20 -53 56 -74.5t103 -21.5q66 0 102 22t56 74h186q-26 -119 -108.5 -174t-233.5 -55q-149 0 -234.5 56t-113.5 173z" />
    <glyph glyph-name="abreve" unicode="&#x103;" horiz-adv-x="1236" 
d="M1239 141v-127q-49 -20 -119 -20q-96 0 -147.5 41.5t-63.5 130.5q-130 -201 -434 -201q-186 0 -296.5 84.5t-110.5 226.5q0 239 317 295q24 3 367 41q82 9 117.5 36t35.5 81q0 77 -76 118.5t-215 41.5q-162 0 -235.5 -44.5t-87.5 -150.5h-187q23 178 145.5 262t358.5 84
q267 0 379 -86q58 -44 78 -104.5t20 -192.5v-407q0 -66 22.5 -89.5t86.5 -23.5q4 0 9.5 0.5t15.5 1.5zM913 530q-77 -31 -129 -42.5t-288 -51.5q-77 -12 -116.5 -24.5t-64.5 -32.5q-24 -19 -38.5 -47t-14.5 -56q0 -69 71 -115t177 -46q126 0 238 61.5t143 147.5
q22 61 22 206zM272 1384h160q23 -56 65.5 -79t120.5 -23q77 0 118.5 22.5t66.5 79.5h160q-26 -119 -108.5 -174t-233.5 -55q-150 0 -235.5 56t-113.5 173z" />
    <glyph glyph-name="Aogonek" unicode="&#x104;" horiz-adv-x="1476" 
d="M838 1366l626 -1366q-44 -6 -72 -19.5t-65 -46.5q-72 -63 -72 -114q0 -29 26.5 -51.5t61.5 -22.5q25 0 95 23v-117q-91 -29 -150 -29q-76 0 -128 45t-52 111q0 60 34.5 109.5t117.5 111.5l-183 389h-690l-170 -389h-203l598 1366h226zM459 557h549l-283 623z" />
    <glyph glyph-name="aogonek" unicode="&#x105;" horiz-adv-x="1236" 
d="M1239 141v-127q-32 -11 -47 -19.5t-41 -31.5q-65 -56 -82.5 -79.5t-17.5 -53.5q0 -29 25 -50.5t59 -21.5q25 0 90 21v-111q-91 -26 -144 -26q-74 0 -123 42t-49 105q0 117 152 209q-60 8 -103 55t-49 113q-130 -201 -434 -201q-186 0 -296.5 84.5t-110.5 226.5
q0 239 317 295q24 3 367 41q82 9 117.5 36t35.5 81q0 77 -76 118.5t-215 41.5q-162 0 -235.5 -44.5t-87.5 -150.5h-187q23 178 145.5 262t358.5 84q267 0 379 -86q58 -44 78 -104.5t20 -192.5v-407q0 -66 22 -88.5t87 -22.5q22 0 45 2zM913 530q-77 -31 -129 -42.5
t-288 -51.5q-77 -12 -116.5 -24.5t-64.5 -32.5q-24 -19 -38.5 -47t-14.5 -56q0 -69 71 -115t177 -46q126 0 238 61.5t143 147.5q22 61 22 206z" />
    <glyph glyph-name="Cacute" unicode="&#x106;" horiz-adv-x="1595" 
d="M1337 506h197q-24 -214 -193 -367q-193 -178 -493 -178q-168 0 -307 47.5t-234 138.5q-98 92 -153.5 234.5t-55.5 302.5q0 170 63.5 317.5t178.5 245.5q189 158 489 158q391 0 582 -238q107 -133 119 -288h-201q-34 166 -165.5 261t-327.5 95q-249 0 -391 -150.5
t-142 -414.5q0 -255 142.5 -397t398.5 -142q204 0 328.5 95t164.5 280zM727 1503l127 232h287l-264 -232h-150z" />
    <glyph glyph-name="cacute" unicode="&#x107;" horiz-adv-x="1230" 
d="M979 360h188q-55 -189 -193 -292t-333 -103q-250 0 -401.5 146.5t-151.5 386.5q0 247 154.5 394.5t412.5 147.5q196 0 328.5 -97t183.5 -277h-196q-65 223 -312 223q-168 0 -272 -106t-104 -277q0 -178 98.5 -284.5t261.5 -106.5q126 0 211 62.5t125 182.5zM492 1161
l126 232h287l-264 -232h-149z" />
    <glyph glyph-name="Ccaron" unicode="&#x10c;" horiz-adv-x="1595" 
d="M1337 506h197q-24 -214 -193 -367q-193 -178 -493 -178q-168 0 -307 47.5t-234 138.5q-98 92 -153.5 234.5t-55.5 302.5q0 170 63.5 317.5t178.5 245.5q189 158 489 158q391 0 582 -238q107 -133 119 -288h-201q-34 166 -165.5 261t-327.5 95q-249 0 -391 -150.5
t-142 -414.5q0 -255 142.5 -397t398.5 -142q204 0 328.5 95t164.5 280zM1180 1735l-242 -232h-244l-237 232h231l135 -140l140 140h217z" />
    <glyph glyph-name="ccaron" unicode="&#x10d;" horiz-adv-x="1230" 
d="M979 360h188q-55 -189 -193 -292t-333 -103q-250 0 -401.5 146.5t-151.5 386.5q0 247 154.5 394.5t412.5 147.5q196 0 328.5 -97t183.5 -277h-196q-65 223 -312 223q-168 0 -272 -106t-104 -277q0 -178 98.5 -284.5t261.5 -106.5q126 0 211 62.5t125 182.5zM961 1386
l-230 -219h-233l-226 219h220l129 -131l131 131h209z" />
    <glyph glyph-name="Dcaron" unicode="&#x10e;" horiz-adv-x="1552" 
d="M154 0v1366h651q164 0 258.5 -22.5t167.5 -79.5q107 -82 164 -228.5t57 -341.5q0 -209 -62 -367t-176 -241q-68 -48 -161.5 -67t-259.5 -19h-639zM338 166h465q109 0 174.5 17t116.5 59q153 129 153 440q0 267 -114.5 392.5t-360.5 125.5h-434v-1034zM1090 1735
l-242 -232h-244l-237 232h231l135 -140l139 140h218z" />
    <glyph glyph-name="dcaron" unicode="&#x10f;" horiz-adv-x="1609" 
d="M1051 1366h176v-1366h-176v180q-147 -209 -424 -209q-236 0 -388.5 150.5t-152.5 382.5q0 234 151.5 382t389.5 148q288 0 424 -219v551zM662 885q-167 0 -274 -104t-107 -265q0 -180 104.5 -287.5t278.5 -107.5q173 0 284 106t111 271q0 167 -112.5 277t-284.5 110z
M1296 1024l99 342h219l-182 -342h-136z" />
    <glyph glyph-name="Dcroat" unicode="&#x110;" horiz-adv-x="1579" 
d="M182 793v573h652q164 0 258.5 -22.5t167.5 -79.5q107 -82 164 -228t57 -340q0 -210 -62 -368.5t-176 -241.5q-68 -47 -162 -66.5t-260 -19.5h-639v629h-137v164h137zM367 793h360v-164h-360v-463h464q108 0 174 17.5t117 58.5q154 129 154 440q0 267 -114.5 392.5
t-360.5 125.5h-434v-407z" />
    <glyph glyph-name="dcroat" unicode="&#x111;" horiz-adv-x="1378" 
d="M1227 1229h139v-109h-139v-1120h-176v180q-147 -209 -424 -209q-236 0 -388.5 150.5t-152.5 382.5q0 234 151.5 382t389.5 148q288 0 424 -219v305h-353v109h353v137h176v-137zM662 885q-167 0 -274 -104t-107 -265q0 -180 104.5 -287.5t278.5 -107.5q173 0 284 106
t111 271q0 167 -112.5 277t-284.5 110z" />
    <glyph glyph-name="Emacron" unicode="&#x112;" horiz-adv-x="1347" 
d="M154 0v1366h1081v-166h-897v-422h860v-160h-860v-452h917v-166h-1101zM1024 1667v-131h-702v131h702z" />
    <glyph glyph-name="emacron" unicode="&#x113;" horiz-adv-x="1277" 
d="M967 293h192q-59 -155 -195 -241.5t-323 -86.5q-249 0 -401 143.5t-152 376.5q0 242 157 398.5t400 156.5q177 0 309.5 -84t192.5 -235q24 -61 33 -115t12 -160h-920q46 -331 381 -331q239 0 314 178zM272 584h732q-23 141 -121 224t-242 83q-89 0 -166 -35t-123 -96
q-41 -54 -80 -176zM975 1335v-123h-668v123h668z" />
    <glyph glyph-name="Edotaccent" unicode="&#x116;" horiz-adv-x="1347" 
d="M154 0v1366h1081v-166h-897v-422h860v-160h-860v-452h917v-166h-1101zM580 1522v184h186v-184h-186z" />
    <glyph glyph-name="edotaccent" unicode="&#x117;" horiz-adv-x="1277" 
d="M967 293h192q-59 -155 -195 -241.5t-323 -86.5q-249 0 -401 143.5t-152 376.5q0 242 157 398.5t400 156.5q177 0 309.5 -84t192.5 -235q24 -61 33 -115t12 -160h-920q46 -331 381 -331q239 0 314 178zM272 584h732q-23 141 -121 224t-242 83q-89 0 -166 -35t-123 -96
q-41 -54 -80 -176zM547 1182v184h184v-184h-184z" />
    <glyph glyph-name="Eogonek" unicode="&#x118;" horiz-adv-x="1347" 
d="M338 166h917v-166q-45 -6 -74 -19.5t-65 -46.5q-72 -63 -72 -114q0 -29 27 -51.5t62 -22.5q24 0 94 23v-117q-91 -29 -150 -29q-76 0 -128 44.5t-52 109.5q0 64 38 117t122 106h-903v1366h1081v-166h-897v-422h860v-160h-860v-452z" />
    <glyph glyph-name="eogonek" unicode="&#x119;" horiz-adv-x="1277" 
d="M1192 446h-920q46 -331 381 -331q239 0 314 178h192q-23 -62 -40 -88t-79 -94q-157 -176 -157 -256q0 -28 25 -49t57 -21q26 0 90 20v-108q-88 -29 -144 -29q-72 0 -121 42.5t-49 105.5q0 100 107 182q-95 -33 -207 -33q-249 0 -401 143.5t-152 376.5q0 242 157 398.5
t400 156.5q177 0 309.5 -84t192.5 -235q24 -61 33 -115t12 -160zM272 584h732q-23 141 -121 224t-242 83q-89 0 -166 -35t-123 -96q-41 -54 -80 -176z" />
    <glyph glyph-name="Ecaron" unicode="&#x11a;" horiz-adv-x="1347" 
d="M154 0v1366h1081v-166h-897v-422h860v-160h-860v-452h917v-166h-1101zM1028 1735l-242 -232h-243l-238 232h232l135 -140l139 140h217z" />
    <glyph glyph-name="ecaron" unicode="&#x11b;" horiz-adv-x="1277" 
d="M967 293h192q-59 -155 -195 -241.5t-323 -86.5q-249 0 -401 143.5t-152 376.5q0 242 157 398.5t400 156.5q177 0 309.5 -84t192.5 -235q24 -61 33 -115t12 -160h-920q46 -331 381 -331q239 0 314 178zM272 584h732q-23 141 -121 224t-242 83q-89 0 -166 -35t-123 -96
q-41 -54 -80 -176zM985 1386l-229 -219h-234l-225 219h219l129 -131l131 131h209z" />
    <glyph glyph-name="Gbreve" unicode="&#x11e;" horiz-adv-x="1658" 
d="M1532 721v-721h-129l-27 215q-40 -51 -68 -80t-63 -55q-78 -57 -187 -88t-231 -31q-156 0 -293 51.5t-233 145.5q-94 94 -148.5 231.5t-54.5 284.5q0 160 65 310t175 247q195 174 504 174q354 0 549 -213q113 -121 133 -252h-199q-51 141 -173.5 218t-297.5 77
q-254 0 -402.5 -149t-148.5 -404q0 -252 148 -401.5t397 -149.5q288 0 434 193q48 65 69 117.5t25 119.5h-454v160h610zM498 1724h186q20 -53 56.5 -74.5t103.5 -21.5q66 0 101.5 21.5t55.5 74.5h187q-26 -119 -108.5 -174t-233.5 -55q-149 0 -234.5 56t-113.5 173z" />
    <glyph glyph-name="gbreve" unicode="&#x11f;" horiz-adv-x="1363" 
d="M1049 1006h178v-828q0 -144 -15.5 -215t-60.5 -131q-69 -95 -189.5 -139.5t-306.5 -44.5q-242 0 -361.5 69.5t-150.5 229.5h193q26 -80 97.5 -115t209.5 -35q306 0 375 172q15 39 21.5 91t9.5 161q-31 -52 -59 -80.5t-75 -54.5q-117 -66 -272 -66q-250 0 -402.5 135
t-152.5 355q0 236 148.5 380t392.5 144q143 0 238.5 -44.5t181.5 -151.5v168zM668 885q-173 0 -279 -97.5t-106 -257.5q0 -172 99.5 -266t279.5 -94q170 0 279.5 102t109.5 260t-105.5 255.5t-277.5 97.5zM309 1384h160q23 -56 65.5 -79t120.5 -23q77 0 118.5 22.5
t66.5 79.5h159q-26 -119 -108.5 -174t-233.5 -55q-149 0 -234.5 56t-113.5 173z" />
    <glyph glyph-name="Gcommaaccent" unicode="&#x122;" horiz-adv-x="1658" 
d="M1532 721v-721h-129l-27 215q-40 -51 -68 -80t-63 -55q-78 -57 -187 -88t-231 -31q-156 0 -293 51.5t-233 145.5q-94 94 -148.5 231.5t-54.5 284.5q0 160 65 310t175 247q195 174 504 174q354 0 549 -213q113 -121 133 -252h-199q-51 141 -173.5 218t-297.5 77
q-254 0 -402.5 -149t-148.5 -404q0 -252 148 -401.5t397 -149.5q288 0 434 193q48 65 69 117.5t25 119.5h-454v160h610zM569 -422l127 285h287l-250 -285h-164z" />
    <glyph glyph-name="gcommaaccent" unicode="&#x123;" horiz-adv-x="1363" 
d="M1049 1006h178v-828q0 -144 -15.5 -215t-60.5 -131q-69 -95 -189.5 -139.5t-306.5 -44.5q-242 0 -361.5 69.5t-150.5 229.5h193q26 -80 97.5 -115t209.5 -35q306 0 375 172q15 39 21.5 91t9.5 161q-31 -52 -59 -80.5t-75 -54.5q-117 -66 -272 -66q-250 0 -402.5 135
t-152.5 355q0 236 148.5 380t392.5 144q143 0 238.5 -44.5t181.5 -151.5v168zM668 885q-173 0 -279 -97.5t-106 -257.5q0 -172 99.5 -266t279.5 -94q170 0 279.5 102t109.5 260t-105.5 255.5t-277.5 97.5zM889 1393l-127 -232h-287l264 232h150z" />
    <glyph glyph-name="Imacron" unicode="&#x12a;" horiz-adv-x="493" 
d="M154 0v1366h184v-1366h-184zM494 1667v-131h-494v131h494z" />
    <glyph glyph-name="imacron" unicode="&#x12b;" horiz-adv-x="452" 
d="M139 0v1006h176v-1006h-176zM465 1335v-123h-477v123h477z" />
    <glyph glyph-name="Iogonek" unicode="&#x12e;" horiz-adv-x="493" 
d="M338 1366v-1366q-30 -4 -50 -15.5t-48 -39.5q-72 -66 -72 -125q0 -29 26 -51.5t60 -22.5q20 0 96 23v-117q-96 -29 -149 -29q-77 0 -129 45.5t-52 112.5q0 47 31.5 98.5t102.5 120.5v1366h184z" />
    <glyph glyph-name="iogonek" unicode="&#x12f;" horiz-adv-x="452" 
d="M315 1006v-1006q-83 -64 -114 -101t-31 -69q0 -29 24 -50.5t58 -21.5q22 0 90 21v-111q-91 -26 -143 -26q-72 0 -121 42t-49 105q0 60 36 110t115 101h-39v1006h174zM141 1174v192h176v-192h-176z" />
    <glyph glyph-name="Idotaccent" unicode="&#x130;" horiz-adv-x="493" 
d="M154 0v1366h184v-1366h-184zM154 1522v184h186v-184h-186z" />
    <glyph glyph-name="dotlessi" unicode="&#x131;" horiz-adv-x="452" 
d="M139 0v1006h176v-1006h-176z" />
    <glyph glyph-name="Kcommaaccent" unicode="&#x136;" horiz-adv-x="1409" 
d="M154 0v1366h184v-725l795 725h276l-666 -584l666 -782h-248l-559 664l-264 -228v-436h-184zM498 -422l127 285h286l-249 -285h-164z" />
    <glyph glyph-name="kcommaaccent" unicode="&#x137;" horiz-adv-x="1193" 
d="M137 0v1366h176v-805l549 445h279l-490 -385l527 -621h-248l-426 504l-191 -146v-358h-176zM401 -416l121 273h273l-238 -273h-156z" />
    <glyph glyph-name="Lacute" unicode="&#x139;" horiz-adv-x="1214" 
d="M154 0v1366h184v-1200h842v-166h-1026zM197 1503l127 232h286l-264 -232h-149z" />
    <glyph glyph-name="lacute" unicode="&#x13a;" horiz-adv-x="450" 
d="M137 0v1366h176v-1366h-176zM141 1503l127 232h287l-264 -232h-150z" />
    <glyph glyph-name="Lcommaaccent" unicode="&#x13b;" horiz-adv-x="1214" 
d="M154 0v1366h184v-1200h842v-166h-1026zM401 -422l127 285h287l-250 -285h-164z" />
    <glyph glyph-name="lcommaaccent" unicode="&#x13c;" horiz-adv-x="450" 
d="M137 0v1366h176v-1366h-176zM-12 -416l121 273h272l-238 -273h-155z" />
    <glyph glyph-name="Lcaron" unicode="&#x13d;" horiz-adv-x="1214" 
d="M154 0v1366h184v-1200h842v-166h-1026zM510 1053l127 313h246l-224 -313h-149z" />
    <glyph glyph-name="lcaron" unicode="&#x13e;" horiz-adv-x="724" 
d="M137 0v1366h176v-1366h-176zM401 1024l99 342h219l-182 -342h-136z" />
    <glyph glyph-name="Lslash" unicode="&#x141;" horiz-adv-x="1214" 
d="M156 481l-129 -75v176l129 77v707h184v-596l477 285v-176l-477 -285v-428h842v-166h-1026v481z" />
    <glyph glyph-name="lslash" unicode="&#x142;" horiz-adv-x="532" 
d="M178 657l-158 -90v154l158 90v555h176v-455l158 90v-153l-158 -90v-758h-176v657z" />
    <glyph glyph-name="Nacute" unicode="&#x143;" horiz-adv-x="1642" 
d="M154 0v1366h223l928 -1151v1151h184v-1366h-229l-922 1145v-1145h-184zM614 1503l127 232h287l-264 -232h-150z" />
    <glyph glyph-name="nacute" unicode="&#x144;" horiz-adv-x="1263" 
d="M137 0v1006h178v-183q86 117 178 164t234 47q140 0 235.5 -47t133.5 -135q18 -40 24 -95t6 -177v-580h-176v559q0 85 -4.5 124.5t-17.5 72.5q-48 129 -260 129q-237 0 -318 -152q-35 -71 -35 -233v-500h-178zM479 1161l127 232h287l-264 -232h-150z" />
    <glyph glyph-name="Ncommaaccent" unicode="&#x145;" horiz-adv-x="1642" 
d="M154 0v1366h223l928 -1151v1151h184v-1366h-229l-922 1145v-1145h-184zM614 -422l127 285h287l-250 -285h-164z" />
    <glyph glyph-name="ncommaaccent" unicode="&#x146;" horiz-adv-x="1263" 
d="M137 0v1006h178v-183q86 117 178 164t234 47q140 0 235.5 -47t133.5 -135q18 -40 24 -95t6 -177v-580h-176v559q0 85 -4.5 124.5t-17.5 72.5q-48 129 -260 129q-237 0 -318 -152q-35 -71 -35 -233v-500h-178zM436 -416l121 273h272l-237 -273h-156z" />
    <glyph glyph-name="Ncaron" unicode="&#x147;" horiz-adv-x="1642" 
d="M154 0v1366h223l928 -1151v1151h184v-1366h-229l-922 1145v-1145h-184zM1176 1735l-242 -232h-244l-237 232h231l135 -140l139 140h218z" />
    <glyph glyph-name="ncaron" unicode="&#x148;" horiz-adv-x="1263" 
d="M137 0v1006h178v-183q86 117 178 164t234 47q140 0 235.5 -47t133.5 -135q18 -40 24 -95t6 -177v-580h-176v559q0 85 -4.5 124.5t-17.5 72.5q-48 129 -260 129q-237 0 -318 -152q-35 -71 -35 -233v-500h-178zM975 1386l-230 -219h-233l-225 219h219l129 -131l131 131h209
z" />
    <glyph glyph-name="Omacron" unicode="&#x14c;" horiz-adv-x="1695" 
d="M866 1405q215 0 381 -89.5t258 -251.5t92 -372q0 -211 -96 -378t-268.5 -260t-390.5 -93q-222 0 -391 89.5t-261 253t-92 378.5q0 209 98 374t273 257t397 92zM862 1235q-120 0 -224 -41.5t-177.5 -113.5t-115.5 -173.5t-42 -218.5q0 -249 150 -403t393 -154
q245 0 396 151.5t151 397.5q0 247 -147.5 401t-383.5 154zM1198 1667v-131h-702v131h702z" />
    <glyph glyph-name="omacron" unicode="&#x14d;" horiz-adv-x="1335" 
d="M672 1040q261 0 419 -151t158 -400q0 -232 -161.5 -378t-417.5 -146q-260 0 -421 150t-161 393q0 236 163 384t421 148zM676 891q-175 0 -284 -108t-109 -281q0 -186 106 -283q110 -104 287 -104q172 0 275.5 105t103.5 280q0 177 -104 284t-275 107zM1001 1335v-123
h-667v123h667z" />
    <glyph glyph-name="Ohungarumlaut" unicode="&#x150;" horiz-adv-x="1695" 
d="M866 1405q215 0 381 -89.5t258 -251.5t92 -372q0 -211 -96 -378t-268.5 -260t-390.5 -93q-222 0 -391 89.5t-261 253t-92 378.5q0 209 98 374t273 257t397 92zM862 1235q-120 0 -224 -41.5t-177.5 -113.5t-115.5 -173.5t-42 -218.5q0 -249 150 -403t393 -154
q245 0 396 151.5t151 397.5q0 247 -147.5 401t-383.5 154zM975 1503l127 232h246l-236 -232h-137zM565 1503l127 232h246l-236 -232h-137z" />
    <glyph glyph-name="ohungarumlaut" unicode="&#x151;" horiz-adv-x="1335" 
d="M672 1040q261 0 419 -151t158 -400q0 -232 -161.5 -378t-417.5 -146q-260 0 -421 150t-161 393q0 236 163 384t421 148zM676 891q-175 0 -284 -108t-109 -281q0 -186 106 -283q110 -104 287 -104q172 0 275.5 105t103.5 280q0 177 -104 284t-275 107zM811 1161l125 232
h246l-236 -232h-135zM387 1161l127 232h246l-238 -232h-135z" />
    <glyph glyph-name="OE" unicode="&#x152;" horiz-adv-x="2385" 
d="M2296 166v-166h-1079v158q-82 -103 -188.5 -150t-258.5 -47q-306 0 -489 193.5t-183 517.5q0 213 84 380.5t235.5 260t344.5 92.5q152 0 261 -48.5t194 -154.5v154h1079v-166h-905v-418h837v-160h-837v-446h905zM1206 379v614q-141 242 -409 242q-221 0 -357.5 -156.5
t-136.5 -410.5q0 -246 133 -392.5t357 -146.5q283 0 413 250z" />
    <glyph glyph-name="oe" unicode="&#x153;" horiz-adv-x="2179" 
d="M1878 289h190q-145 -324 -522 -324q-159 0 -262.5 55.5t-177.5 180.5q-118 -236 -440 -236q-265 0 -421.5 142.5t-156.5 384.5q0 116 40.5 219.5t113.5 175.5q150 153 411 153q318 0 457 -233q62 94 121 137q129 96 317 96q240 0 392.5 -154t152.5 -397v-45h-903
q12 -159 106.5 -244t259.5 -85q113 0 183 38t139 136zM655 891q-169 0 -270.5 -105t-101.5 -280q0 -186 96.5 -288.5t273.5 -102.5t280 106.5t103 290.5q0 167 -106 273t-275 106zM1192 582h719q-17 140 -115 224.5t-244 84.5q-149 0 -247 -84.5t-113 -224.5z" />
    <glyph glyph-name="Racute" unicode="&#x154;" horiz-adv-x="1513" 
d="M154 0v1366h731q135 0 197 -8t112 -31q88 -41 137 -129t49 -205q0 -276 -260 -342q61 -15 97 -31.5t64 -41.5t42.5 -68.5t23 -99.5t13.5 -148q7 -139 20.5 -183.5t55.5 -78.5h-246q-22 117 -27 262q-4 97 -18.5 154.5t-51.5 93.5t-93.5 48.5t-151.5 12.5h-510v-571h-184z
M338 731h504q137 0 198 19q65 20 100.5 80t35.5 149q0 156 -127 203q-45 18 -172 18h-539v-469zM549 1503l127 232h287l-265 -232h-149z" />
    <glyph glyph-name="racute" unicode="&#x155;" horiz-adv-x="800" 
d="M137 0v1006h178v-236q63 126 125 180q90 84 236 84q43 0 92 -10v-180q-71 14 -119 14q-158 0 -262 -113q-38 -43 -55 -99.5t-17 -143.5v-502h-178zM193 1161l126 232h287l-264 -232h-149z" />
    <glyph glyph-name="Rcommaaccent" unicode="&#x156;" horiz-adv-x="1513" 
d="M154 0v1366h731q135 0 197 -8t112 -31q88 -41 137 -129t49 -205q0 -276 -260 -342q61 -15 97 -31.5t64 -41.5t42.5 -68.5t23 -99.5t13.5 -148q7 -139 20.5 -183.5t55.5 -78.5h-246q-22 117 -27 262q-4 97 -18.5 154.5t-51.5 93.5t-93.5 48.5t-151.5 12.5h-510v-571h-184z
M338 731h504q137 0 198 19q65 20 100.5 80t35.5 149q0 156 -127 203q-45 18 -172 18h-539v-469zM549 -422l127 285h287l-250 -285h-164z" />
    <glyph glyph-name="rcommaaccent" unicode="&#x157;" horiz-adv-x="800" 
d="M139 0v1006h178v-236q63 126 125 180q90 84 236 84q43 0 92 -10v-180q-71 14 -119 14q-158 0 -262 -113q-38 -43 -55 -99.5t-17 -143.5v-502h-178zM-41 -416l121 273h272l-237 -273h-156z" />
    <glyph glyph-name="Rcaron" unicode="&#x158;" horiz-adv-x="1513" 
d="M154 0v1366h731q135 0 197 -8t112 -31q88 -41 137 -129t49 -205q0 -276 -260 -342q61 -15 97 -31.5t64 -41.5t42.5 -68.5t23 -99.5t13.5 -148q7 -139 20.5 -183.5t55.5 -78.5h-246q-22 117 -27 262q-4 97 -18.5 154.5t-51.5 93.5t-93.5 48.5t-151.5 12.5h-510v-571h-184z
M338 731h504q137 0 198 19q65 20 100.5 80t35.5 149q0 156 -127 203q-45 18 -172 18h-539v-469zM1110 1735l-242 -232h-243l-238 232h231l136 -140l139 140h217z" />
    <glyph glyph-name="rcaron" unicode="&#x159;" horiz-adv-x="800" 
d="M139 0v1006h178v-236q63 126 125 180q90 84 236 84q43 0 92 -10v-180q-71 14 -119 14q-158 0 -262 -113q-38 -43 -55 -99.5t-17 -143.5v-502h-178zM745 1386l-229 -219h-233l-226 219h219l130 -131l131 131h208z" />
    <glyph glyph-name="Sacute" unicode="&#x15a;" horiz-adv-x="1411" 
d="M88 436h188q22 -161 126.5 -233t316.5 -72q195 0 296 62t101 182q0 121 -131 170q-60 20 -297 57q-183 28 -257 45.5t-136 48.5q-89 44 -137.5 121t-48.5 174q0 187 156.5 300.5t416.5 113.5q536 0 588 -418h-191q-26 126 -126.5 187t-280.5 61q-166 0 -262.5 -61.5
t-96.5 -167.5q0 -60 35 -100t109 -66q50 -16 109.5 -28.5t213.5 -35.5q269 -39 371 -84q82 -38 126 -113t44 -176q0 -203 -162.5 -322.5t-437.5 -119.5q-309 0 -466.5 118t-166.5 357zM553 1503l127 232h287l-265 -232h-149z" />
    <glyph glyph-name="sacute" unicode="&#x15b;" horiz-adv-x="1153" 
d="M70 307h182q8 -44 20.5 -70t38.5 -49q38 -34 114 -53.5t171 -19.5q140 0 218.5 40.5t78.5 112.5q0 78 -88 111q-62 20 -266 47q-145 21 -203.5 34.5t-104.5 39.5q-63 35 -97 90.5t-34 124.5q0 74 39 141t105 107q128 77 334 77q249 0 378 -120q45 -43 66 -93t27 -127
h-172q-10 50 -28 78.5t-52 50.5q-91 60 -232 60q-125 0 -197.5 -39.5t-72.5 -106.5q0 -66 56.5 -95.5t217.5 -49.5q236 -32 326 -63q192 -67 192 -242q0 -151 -133.5 -239.5t-359.5 -88.5q-249 0 -383.5 88t-140.5 254zM424 1161l127 232h287l-265 -232h-149z" />
    <glyph glyph-name="Scedilla" unicode="&#x15e;" horiz-adv-x="1411" 
d="M741 -39l-49 -88q44 10 82 10q82 0 127 -36.5t45 -102.5q0 -77 -64 -125.5t-165 -48.5q-138 0 -254 49l39 86q101 -37 174 -37q38 0 60 18t22 50q0 63 -78 63q-23 0 -72 -14l-53 41l84 137q-276 20 -409 134.5t-142 338.5h188q22 -161 126.5 -233t316.5 -72q195 0 296 62
t101 182q0 121 -131 170q-60 20 -297 57q-183 28 -257 45.5t-136 48.5q-89 44 -137.5 121t-48.5 174q0 187 156.5 300.5t416.5 113.5q536 0 588 -418h-191q-26 126 -126.5 187t-280.5 61q-166 0 -262.5 -61.5t-96.5 -167.5q0 -60 35 -100t109 -66q47 -15 104 -26.5
t219 -37.5q279 -42 371 -84q82 -38 126 -113t44 -176q0 -200 -155 -318t-425 -124z" />
    <glyph glyph-name="Scedilla" unicode="&#xf6c1;" horiz-adv-x="1411" 
d="M741 -39l-49 -88q44 10 82 10q82 0 127 -36.5t45 -102.5q0 -77 -64 -125.5t-165 -48.5q-138 0 -254 49l39 86q101 -37 174 -37q38 0 60 18t22 50q0 63 -78 63q-23 0 -72 -14l-53 41l84 137q-276 20 -409 134.5t-142 338.5h188q22 -161 126.5 -233t316.5 -72q195 0 296 62
t101 182q0 121 -131 170q-60 20 -297 57q-183 28 -257 45.5t-136 48.5q-89 44 -137.5 121t-48.5 174q0 187 156.5 300.5t416.5 113.5q536 0 588 -418h-191q-26 126 -126.5 187t-280.5 61q-166 0 -262.5 -61.5t-96.5 -167.5q0 -60 35 -100t109 -66q47 -15 104 -26.5
t219 -37.5q279 -42 371 -84q82 -38 126 -113t44 -176q0 -200 -155 -318t-425 -124z" />
    <glyph glyph-name="scedilla" unicode="&#x15f;" horiz-adv-x="1153" 
d="M618 -35l-53 -92q47 8 72 8q77 0 118.5 -33t41.5 -94q0 -69 -58.5 -113t-150.5 -44q-125 0 -232 45l35 77q90 -32 158 -32q76 0 76 61q0 27 -18.5 42t-51.5 15q-25 0 -66 -14l-47 39l84 137q-223 15 -336 99t-120 241h182q8 -44 20.5 -70t38.5 -47q79 -73 285 -73
q140 0 218.5 40.5t78.5 112.5q0 78 -88 111q-58 20 -266 47q-140 18 -200 32.5t-108 39.5q-131 73 -131 217q0 72 39 139.5t105 108.5q129 75 334 75q249 0 378 -120q45 -43 66 -93t27 -127h-172q-10 50 -28 78.5t-52 50.5q-91 60 -232 60q-125 0 -197.5 -39.5t-72.5 -106.5
q0 -64 57 -94.5t217 -50.5q236 -32 326 -63q192 -67 192 -240q0 -147 -123.5 -234t-345.5 -96z" />
    <glyph glyph-name="scedilla" unicode="&#xf6c2;" horiz-adv-x="1153" 
d="M618 -35l-53 -92q47 8 72 8q77 0 118.5 -33t41.5 -94q0 -69 -58.5 -113t-150.5 -44q-125 0 -232 45l35 77q90 -32 158 -32q76 0 76 61q0 27 -18.5 42t-51.5 15q-25 0 -66 -14l-47 39l84 137q-223 15 -336 99t-120 241h182q8 -44 20.5 -70t38.5 -47q79 -73 285 -73
q140 0 218.5 40.5t78.5 112.5q0 78 -88 111q-58 20 -266 47q-140 18 -200 32.5t-108 39.5q-131 73 -131 217q0 72 39 139.5t105 108.5q129 75 334 75q249 0 378 -120q45 -43 66 -93t27 -127h-172q-10 50 -28 78.5t-52 50.5q-91 60 -232 60q-125 0 -197.5 -39.5t-72.5 -106.5
q0 -64 57 -94.5t217 -50.5q236 -32 326 -63q192 -67 192 -240q0 -147 -123.5 -234t-345.5 -96z" />
    <glyph glyph-name="Scaron" unicode="&#x160;" horiz-adv-x="1411" 
d="M88 436h188q22 -161 126.5 -233t316.5 -72q195 0 296 62t101 182q0 121 -131 170q-60 20 -297 57q-183 28 -257 45.5t-136 48.5q-89 44 -137.5 121t-48.5 174q0 187 156.5 300.5t416.5 113.5q536 0 588 -418h-191q-26 126 -126.5 187t-280.5 61q-166 0 -262.5 -61.5
t-96.5 -167.5q0 -60 35 -100t109 -66q50 -16 109.5 -28.5t213.5 -35.5q269 -39 371 -84q82 -38 126 -113t44 -176q0 -203 -162.5 -322.5t-437.5 -119.5q-309 0 -466.5 118t-166.5 357zM1059 1735l-242 -232h-244l-237 232h231l135 -140l140 140h217z" />
    <glyph glyph-name="scaron" unicode="&#x161;" horiz-adv-x="1153" 
d="M70 307h182q8 -44 20.5 -70t38.5 -49q38 -34 114 -53.5t171 -19.5q140 0 218.5 40.5t78.5 112.5q0 78 -88 111q-62 20 -266 47q-145 21 -203.5 34.5t-104.5 39.5q-63 35 -97 90.5t-34 124.5q0 74 39 141t105 107q128 77 334 77q249 0 378 -120q45 -43 66 -93t27 -127
h-172q-10 50 -28 78.5t-52 50.5q-91 60 -232 60q-125 0 -197.5 -39.5t-72.5 -106.5q0 -66 56.5 -95.5t217.5 -49.5q236 -32 326 -63q192 -67 192 -242q0 -151 -133.5 -239.5t-359.5 -88.5q-249 0 -383.5 88t-140.5 254zM922 1386l-230 -219h-233l-226 219h220l129 -131
l131 131h209z" />
    <glyph glyph-name="Tcommaaccent" unicode="&#x162;" horiz-adv-x="1296" 
d="M553 0v1200h-518v166h1229v-166h-527v-1200h-184zM401 -422l127 285h287l-250 -285h-164z" />
    <glyph glyph-name="Tcommaaccent" unicode="&#x21a;" horiz-adv-x="1296" 
d="M553 0v1200h-518v166h1229v-166h-527v-1200h-184zM401 -422l127 285h287l-250 -285h-164z" />
    <glyph glyph-name="tcommaaccent" unicode="&#x163;" horiz-adv-x="653" 
d="M598 133v-147q-88 -15 -156 -15q-104 0 -163 23t-82 72q-12 23 -14.5 48.5t-4.5 123.5v630h-170v138h170v272h176v-272h250v-138h-250v-626q0 -75 24 -98t99 -23q69 0 121 12zM131 -416l121 273h272l-237 -273h-156z" />
    <glyph glyph-name="tcommaaccent" unicode="&#x21b;" horiz-adv-x="653" 
d="M598 133v-147q-88 -15 -156 -15q-104 0 -163 23t-82 72q-12 23 -14.5 48.5t-4.5 123.5v630h-170v138h170v272h176v-272h250v-138h-250v-626q0 -75 24 -98t99 -23q69 0 121 12zM131 -416l121 273h272l-237 -273h-156z" />
    <glyph glyph-name="Tcaron" unicode="&#x164;" horiz-adv-x="1296" 
d="M553 0v1200h-518v166h1229v-166h-527v-1200h-184zM1004 1735l-242 -232h-244l-237 232h231l135 -140l139 140h218z" />
    <glyph glyph-name="tcaron" unicode="&#x165;" horiz-adv-x="735" 
d="M598 133v-147q-88 -15 -156 -15q-104 0 -163 23t-82 72q-12 23 -14.5 48.5t-4.5 123.5v630h-170v138h170v272h176v-272h250v-138h-250v-626q0 -75 24 -98t99 -23q69 0 121 12zM475 1120l98 342h220l-183 -342h-135z" />
    <glyph glyph-name="Umacron" unicode="&#x16a;" horiz-adv-x="1507" 
d="M1182 1366h186v-817q0 -150 -18.5 -232t-65.5 -147q-75 -100 -213.5 -154.5t-316.5 -54.5q-194 0 -340 65t-213 183q-33 58 -46.5 134t-13.5 206v817h187v-829q0 -162 51 -248q43 -72 145.5 -115t231.5 -43q143 0 247 49.5t144 136.5q35 77 35 220v829zM1106 1667v-131
h-703v131h703z" />
    <glyph glyph-name="umacron" unicode="&#x16b;" horiz-adv-x="1263" 
d="M1126 1006v-1006h-178v182q-88 -118 -178.5 -164.5t-232.5 -46.5q-140 0 -234.5 47t-134.5 136q-20 45 -25.5 93.5t-5.5 178.5v580h176v-560q0 -140 25 -200q52 -125 258 -125q238 0 315 151q21 38 29 89t8 145v500h178zM965 1335v-123h-668v123h668z" />
    <glyph glyph-name="Uring" unicode="&#x16e;" horiz-adv-x="1507" 
d="M1182 1366h186v-817q0 -150 -18.5 -232t-65.5 -147q-75 -100 -213.5 -154.5t-316.5 -54.5q-194 0 -340 65t-213 183q-33 58 -46.5 134t-13.5 206v817h187v-829q0 -162 51 -248q43 -72 145.5 -115t231.5 -43q143 0 247 49.5t144 136.5q35 77 35 220v829zM758 1829
q88 0 148.5 -53.5t60.5 -130.5t-60.5 -127t-152.5 -50q-94 0 -152.5 49.5t-58.5 129.5q0 75 63 128.5t152 53.5zM756 1755q-57 0 -91 -29.5t-34 -78.5q0 -50 33 -78.5t90 -28.5q55 0 90 30.5t35 78.5q0 47 -34 76.5t-89 29.5z" />
    <glyph glyph-name="uring" unicode="&#x16f;" horiz-adv-x="1263" 
d="M1126 1006v-1006h-178v182q-88 -118 -178.5 -164.5t-232.5 -46.5q-140 0 -234.5 47t-134.5 136q-20 45 -25.5 93.5t-5.5 178.5v580h176v-560q0 -140 25 -200q52 -125 258 -125q238 0 315 151q21 38 29 89t8 145v500h178zM627 1520q92 0 154.5 -52t62.5 -129t-61.5 -127.5
t-155.5 -50.5q-92 0 -149.5 51t-57.5 131q0 75 59.5 126t147.5 51zM633 1444q-57 0 -93 -29t-36 -74q0 -46 34.5 -75t88.5 -29q57 0 93 30t36 76q0 44 -34.5 72.5t-88.5 28.5z" />
    <glyph glyph-name="Uhungarumlaut" unicode="&#x170;" horiz-adv-x="1507" 
d="M1182 1366h186v-817q0 -150 -18.5 -232t-65.5 -147q-75 -100 -213.5 -154.5t-316.5 -54.5q-194 0 -340 65t-213 183q-33 58 -46.5 134t-13.5 206v817h187v-829q0 -162 51 -248q43 -72 145.5 -115t231.5 -43q143 0 247 49.5t144 136.5q35 77 35 220v829zM891 1503l125 232
h246l-236 -232h-135zM467 1503l127 232h246l-238 -232h-135z" />
    <glyph glyph-name="uhungarumlaut" unicode="&#x171;" horiz-adv-x="1263" 
d="M1126 1006v-1006h-178v182q-88 -118 -178.5 -164.5t-232.5 -46.5q-140 0 -234.5 47t-134.5 136q-20 45 -25.5 93.5t-5.5 178.5v580h176v-560q0 -140 25 -200q52 -125 258 -125q238 0 315 151q21 38 29 89t8 145v500h178zM774 1161l125 232h246l-236 -232h-135zM350 1161
l127 232h246l-238 -232h-135z" />
    <glyph glyph-name="Uogonek" unicode="&#x172;" horiz-adv-x="1507" 
d="M1182 1366h186v-817q0 -163 -19 -234t-96 -196q-112 -182 -112 -256q0 -31 26 -53.5t62 -22.5q24 0 94 20v-114q-91 -29 -149 -29q-77 0 -129 45t-52 111q0 103 84 196q-154 -55 -327 -55q-191 0 -337 65.5t-212 182.5q-33 58 -46.5 134t-13.5 206v817h187v-829
q0 -162 51 -248q43 -72 145.5 -115t231.5 -43q143 0 247 49.5t144 136.5q35 77 35 220v829z" />
    <glyph glyph-name="uogonek" unicode="&#x173;" horiz-adv-x="1263" 
d="M1126 1006v-1006q-36 -6 -59 -16.5t-51 -34.5q-33 -28 -53.5 -61.5t-20.5 -59.5q0 -28 25 -49t57 -21q26 0 90 21v-111q-88 -26 -141 -26q-74 0 -123 42t-49 105q0 118 147 211v182q-88 -118 -178.5 -164.5t-232.5 -46.5q-140 0 -234.5 47t-134.5 136q-20 45 -25.5 93.5
t-5.5 178.5v580h176v-560q0 -140 25 -200q52 -125 258 -125q238 0 315 151q21 38 29 89t8 145v500h178z" />
    <glyph glyph-name="Ydieresis" unicode="&#x178;" horiz-adv-x="1390" 
d="M1389 1366l-601 -801v-565h-184v565l-604 801h244l456 -639l455 639h234zM367 1522v184h184v-184h-184zM838 1522v184h184v-184h-184z" />
    <glyph glyph-name="Zacute" unicode="&#x179;" horiz-adv-x="1361" 
d="M61 0v164l990 1036h-938v166h1171v-168l-985 -1032h1014v-166h-1252zM528 1503l127 232h287l-264 -232h-150z" />
    <glyph glyph-name="zacute" unicode="&#x17a;" horiz-adv-x="1124" 
d="M1077 162v-162h-1001v164l715 680h-678v162h934v-160l-742 -684h772zM412 1161l127 232h286l-264 -232h-149z" />
    <glyph glyph-name="Zdotaccent" unicode="&#x17b;" horiz-adv-x="1361" 
d="M61 0v164l990 1036h-938v166h1171v-168l-985 -1032h1014v-166h-1252zM588 1522v184h186v-184h-186z" />
    <glyph glyph-name="zdotaccent" unicode="&#x17c;" horiz-adv-x="1124" 
d="M1077 162v-162h-1001v164l715 680h-678v162h934v-160l-742 -684h772zM471 1182v184h184v-184h-184z" />
    <glyph glyph-name="Zcaron" unicode="&#x17d;" horiz-adv-x="1361" 
d="M61 0v164l990 1036h-938v166h1171v-168l-985 -1032h1014v-166h-1252zM1034 1735l-241 -232h-244l-238 232h232l135 -140l139 140h217z" />
    <glyph glyph-name="zcaron" unicode="&#x17e;" horiz-adv-x="1124" 
d="M1077 162v-162h-1001v164l715 680h-678v162h934v-160l-742 -684h772zM907 1386l-229 -219h-234l-225 219h219l129 -131l131 131h209z" />
    <glyph glyph-name="florin" unicode="&#x192;" horiz-adv-x="897" 
d="M-57 -272l24 139q77 -14 119 -14q33 0 50.5 6t33.5 30t26 62t25 112l144 723h-211l22 117h213l55 281q29 152 95 221.5t180 69.5q55 0 174 -25l-31 -131q-88 16 -125 16q-57 0 -82 -36t-47 -148l-49 -248h223l-24 -117h-223l-160 -813q-29 -146 -86.5 -209t-163.5 -63
q-35 0 -182 27z" />
    <glyph glyph-name="Scommaaccent" unicode="&#x218;" horiz-adv-x="1411" 
d="M88 436h188q22 -161 126.5 -233t316.5 -72q195 0 296 62t101 182q0 121 -131 170q-60 20 -297 57q-183 28 -257 45.5t-136 48.5q-89 44 -137.5 121t-48.5 174q0 187 156.5 300.5t416.5 113.5q536 0 588 -418h-191q-26 126 -126.5 187t-280.5 61q-166 0 -262.5 -61.5
t-96.5 -167.5q0 -60 35 -100t109 -66q50 -16 109.5 -28.5t213.5 -35.5q269 -39 371 -84q82 -38 126 -113t44 -176q0 -203 -162.5 -322.5t-437.5 -119.5q-309 0 -466.5 118t-166.5 357zM471 -422l127 285h287l-250 -285h-164z" />
    <glyph glyph-name="scommaaccent" unicode="&#x219;" horiz-adv-x="1153" 
d="M70 307h182q8 -44 20.5 -70t38.5 -49q38 -34 114 -53.5t171 -19.5q140 0 218.5 40.5t78.5 112.5q0 78 -88 111q-62 20 -266 47q-145 21 -203.5 34.5t-104.5 39.5q-63 35 -97 90.5t-34 124.5q0 74 39 141t105 107q128 77 334 77q249 0 378 -120q45 -43 66 -93t27 -127
h-172q-10 50 -28 78.5t-52 50.5q-91 60 -232 60q-125 0 -197.5 -39.5t-72.5 -106.5q0 -66 56.5 -95.5t217.5 -49.5q236 -32 326 -63q192 -67 192 -242q0 -151 -133.5 -239.5t-359.5 -88.5q-249 0 -383.5 88t-140.5 254zM340 -416l121 273h272l-237 -273h-156z" />
    <glyph glyph-name="circumflex" unicode="&#x2c6;" 
d="M168 1167l229 219h234l225 -219h-219l-129 131l-133 -131h-207z" />
    <glyph glyph-name="caron" unicode="&#x2c7;" 
d="M856 1386l-229 -219h-234l-225 219h219l129 -131l131 131h209z" />
    <glyph glyph-name="breve" unicode="&#x2d8;" 
d="M166 1384h160q23 -56 65.5 -79t120.5 -23q77 0 118 22.5t66 79.5h160q-26 -119 -108.5 -174t-233.5 -55q-149 0 -234.5 56t-113.5 173z" />
    <glyph glyph-name="dotaccent" unicode="&#x2d9;" 
d="M420 1182v184h184v-184h-184z" />
    <glyph glyph-name="ring" unicode="&#x2da;" 
d="M506 1520q92 0 154.5 -52t62.5 -129t-61.5 -127.5t-155.5 -50.5q-92 0 -149.5 51t-57.5 131q0 75 59.5 126t147.5 51zM512 1444q-57 0 -93 -29t-36 -74q0 -46 34.5 -75t88.5 -29q57 0 93 30t36 76q0 44 -34.5 72.5t-88.5 28.5z" />
    <glyph glyph-name="ogonek" unicode="&#x2db;" 
d="M901 0h139q-149 -106 -149 -170q0 -29 24 -50.5t58 -21.5q25 0 90 21v-111q-88 -26 -143 -26q-72 0 -121 42t-49 105q0 60 36.5 110.5t114.5 100.5z" />
    <glyph glyph-name="tilde" unicode="&#x2dc;" 
d="M289 1167h-139q9 94 62.5 150.5t131.5 56.5q65 0 289 -69q21 -7 33 -7q48 0 63 68h145q-4 -90 -60 -148.5t-136 -58.5q-32 0 -67 8t-154 43q-70 19 -99 19q-32 0 -46.5 -13.5t-22.5 -48.5z" />
    <glyph glyph-name="hungarumlaut" unicode="&#x2dd;" 
d="M655 1161l125 232h246l-235 -232h-136zM231 1161l127 232h246l-237 -232h-136z" />
    <glyph glyph-name="Delta" unicode="&#x394;" horiz-adv-x="1282" 
d="M12 0l537 1366h180l539 -1366h-1256zM240 154h796l-395 1024z" />
    <glyph glyph-name="Delta" unicode="&#x2206;" horiz-adv-x="1282" 
d="M12 0l537 1366h180l539 -1366h-1256zM240 154h796l-395 1024z" />
    <glyph glyph-name="endash" unicode="&#x2013;" horiz-adv-x="1263" 
d="M137 432v160h989v-160h-989z" />
    <glyph glyph-name="emdash" unicode="&#x2014;" horiz-adv-x="1740" 
d="M0 432v160h1741v-160h-1741z" />
    <glyph glyph-name="quoteleft" unicode="&#x2018;" horiz-adv-x="481" 
d="M342 1114v-201h-205v197q0 80 13 128.5t45 86.5q54 63 137 82v-82q-57 -17 -81.5 -65t-25.5 -146h117z" />
    <glyph glyph-name="quoteright" unicode="&#x2019;" horiz-adv-x="481" 
d="M147 1182v180h185v-176q0 -118 -41.5 -181.5t-134.5 -86.5v73q51 17 73 59.5t23 131.5h-105z" />
    <glyph glyph-name="quotesinglbase" unicode="&#x201a;" horiz-adv-x="481" 
d="M147 -4v180h185v-176q0 -118 -41.5 -181.5t-134.5 -86.5v73q51 17 73 59.5t23 131.5h-105z" />
    <glyph glyph-name="quotedblleft" unicode="&#x201c;" horiz-adv-x="780" 
d="M137 1165v201h205v-197q0 -81 -12.5 -129t-44.5 -86q-54 -63 -138 -82v82q57 17 81.5 65t25.5 146h-117zM438 1165v201h205v-197q0 -81 -12.5 -129t-44.5 -86q-54 -63 -137 -82v82q57 17 80.5 64.5t25.5 146.5h-117z" />
    <glyph glyph-name="quotedblright" unicode="&#x201d;" horiz-adv-x="780" 
d="M137 0v201h205v-197q0 -81 -12.5 -129t-44.5 -86q-54 -63 -138 -82v82q57 17 81.5 65t25.5 146h-117zM438 0v201h205v-197q0 -81 -12.5 -129t-44.5 -86q-54 -63 -137 -82v82q57 17 80.5 64.5t25.5 146.5h-117z" />
    <glyph glyph-name="quotedblbase" unicode="&#x201e;" horiz-adv-x="780" 
d="M643 1114v-201h-205v197q0 80 13 128.5t45 86.5q54 63 137 82v-82q-57 -17 -81.5 -65t-25.5 -146h117zM342 1114v-201h-205v197q0 80 13 128.5t45 86.5q54 63 137 82v-82q-57 -17 -81.5 -65t-25.5 -146h117z" />
    <glyph glyph-name="dagger" unicode="&#x2020;" horiz-adv-x="1341" 
d="M586 -219v989h-436v158h436v438h170v-438h438v-158h-438v-989h-170z" />
    <glyph glyph-name="daggerdbl" unicode="&#x2021;" horiz-adv-x="1341" 
d="M586 770h-436v158h436v438h170v-438h438v-158h-438v-393h438v-158h-438v-438h-170v438h-436v158h436v393z" />
    <glyph glyph-name="bullet" unicode="&#x2022;" horiz-adv-x="1366" 
d="M688 979q115 0 198 -84t83 -201t-83 -199.5t-200 -82.5q-118 0 -201.5 82.5t-83.5 199.5q0 120 83.5 202.5t203.5 82.5z" />
    <glyph glyph-name="ellipsis" unicode="&#x2026;" horiz-adv-x="1441" 
d="M137 0v201h205v-201h-205zM618 0v201h205v-201h-205zM1098 0v201h205v-201h-205z" />
    <glyph glyph-name="perthousand" unicode="&#x2030;" horiz-adv-x="2476" 
d="M381 1384q148 0 226.5 -95t78.5 -275q0 -168 -78.5 -259t-224.5 -91q-148 0 -226.5 91t-78.5 263q0 175 79 270.5t224 95.5zM383 1292q-92 0 -140 -70t-48 -204q0 -262 188 -262q186 0 186 258q0 136 -47.5 207t-138.5 71zM492 0l610 1366h135l-619 -1366h-126zM1335 702
q149 0 228 -95t79 -275q0 -168 -79 -259t-226 -91q-148 0 -226.5 91t-78.5 263q0 175 79 270.5t224 95.5zM1337 610q-92 0 -140 -70t-48 -204q0 -262 188 -262q189 0 189 258q0 136 -48.5 207t-140.5 71zM2093 702q149 0 228 -95t79 -275q0 -168 -79 -259t-226 -91
q-148 0 -226.5 91t-78.5 263q0 175 79 270.5t224 95.5zM2095 610q-92 0 -140 -70t-48 -204q0 -262 188 -262q189 0 189 258q0 136 -48.5 207t-140.5 71z" />
    <glyph glyph-name="guilsinglleft" unicode="&#x2039;" horiz-adv-x="505" 
d="M401 182l-319 246v170l319 231v-147l-231 -172l231 -158v-170z" />
    <glyph glyph-name="guilsinglright" unicode="&#x203a;" horiz-adv-x="505" 
d="M104 829l320 -245v-170l-320 -232v148l232 172l-232 157v170z" />
    <glyph glyph-name="fraction" unicode="&#x2044;" horiz-adv-x="204" 
d="M-270 0l610 1366h135l-618 -1366h-127z" />
    <glyph glyph-name="fraction" unicode="&#x2215;" horiz-adv-x="204" 
d="M-270 0l610 1366h135l-618 -1366h-127z" />
    <glyph glyph-name="trademark" unicode="&#x2122;" horiz-adv-x="1843" 
d="M301 588v667h-291v111h707v-111h-293v-667h-123zM803 588v778h174l305 -633l313 633h172v-778h-122v626l-310 -626h-106l-303 624v-624h-123z" />
    <glyph glyph-name="partialdiff" unicode="&#x2202;" 
d="M168 1229l20 141q178 -25 297 -74.5t217 -140.5q125 -116 193 -285.5t68 -367.5q0 -224 -105 -359q-63 -80 -155.5 -124t-196.5 -44q-187 0 -317 136t-130 333q0 188 125 316.5t308 128.5q94 0 167 -39q33 -16 105 -88q3 -4 18 -19l-10 23q-47 131 -101 201.5t-161 140.5
q-84 52 -160.5 79t-181.5 42zM524 756q-129 0 -216 -92.5t-87 -227.5q0 -132 86 -225.5t209 -93.5q122 0 203.5 94t81.5 233q0 134 -78.5 223t-198.5 89z" />
    <glyph glyph-name="summation" unicode="&#x2211;" horiz-adv-x="1366" 
d="M1231 1536v-477h-160l-18 313h-787l508 -821l-508 -901h807l8 317h168v-479h-1179v188l497 875l-497 799v186h1161z" />
    <glyph glyph-name="minus" unicode="&#x2212;" horiz-adv-x="1349" 
d="M1124 760v-144h-901v144h901z" />
    <glyph glyph-name="radical" unicode="&#x221a;" horiz-adv-x="1366" 
d="M1366 1694v-148h-387l-451 -1546h-194l-168 590h-166v147h270l82 -276q3 -11 6.5 -22t6 -21.5t6.5 -28.5q29 -131 47 -207h8l10 43q23 101 66 262l20 86q45 148 96 328l230 793h518z" />
    <glyph glyph-name="notequal" unicode="&#x2260;" 
d="M553 934l113 229l114 -51l-88 -178h264v-154h-333l-86 -180h419v-151h-489l-111 -228l-114 49l84 179h-258v151h327l88 180h-415v154h485z" />
    <glyph glyph-name="lessequal" unicode="&#x2264;" 
d="M954 1235v-174l-684 -262l684 -262v-175l-886 357v160zM954 303v-162h-886v162h886z" />
    <glyph glyph-name="greaterequal" unicode="&#x2265;" 
d="M68 1235l886 -356v-160l-886 -357v175l684 262l-684 262v174zM68 303h886v-162h-886v162z" />
    <glyph glyph-name="lozenge" unicode="&#x25ca;" horiz-adv-x="1366" 
d="M684 1419l530 -737l-530 -735l-532 735zM684 1237l-403 -555l403 -553l403 553z" />
    <glyph glyph-name="middot" unicode="&#xe000;" horiz-adv-x="481" 
d="M137 412v200h205v-200h-205z" />
    <glyph glyph-name="nbspace" unicode="&#xe001;" horiz-adv-x="512" 
 />
    <glyph glyph-name="commaaccent" unicode="&#xf6c3;" 
d="M315 -416l121 273h273l-238 -273h-156z" />
    </font>
</defs>
</svg>
