<svg width="16" height="16" viewBox="0 0 16 16" fill="none" xmlns="http://www.w3.org/2000/svg">
<path d="M15.977 6.16285C15.9219 5.99313 15.7752 5.86945 15.5987 5.84382L10.6386 5.12304L8.42034 0.628468C8.3414 0.468468 8.17843 0.367188 8.00003 0.367188C7.82159 0.367188 7.65865 0.468468 7.57968 0.628468L5.36132 5.12304L0.401338 5.84382C0.224807 5.86945 0.0780893 5.99313 0.0229645 6.16282C-0.0321915 6.33254 0.0138083 6.51882 0.141589 6.64335L3.73057 10.1419L2.88345 15.082C2.85327 15.2578 2.92558 15.4355 3.06992 15.5404C3.15158 15.5998 3.2483 15.6299 3.34548 15.6299C3.42011 15.6299 3.49498 15.6122 3.56354 15.5761L8 13.2437L12.4363 15.5761C12.5942 15.6591 12.7856 15.6453 12.9299 15.5404C13.0743 15.4355 13.1466 15.2578 13.1164 15.0819L12.269 10.1419L15.8584 6.64332C15.9862 6.51882 16.0322 6.33254 15.977 6.16285Z" fill="black"/>
</svg>
