<svg width="16" height="16" viewBox="0 0 16 16" fill="none" xmlns="http://www.w3.org/2000/svg">
<path d="M15.977 6.16286C15.9219 5.99315 15.7752 5.86949 15.5987 5.84383L10.6386 5.12305L8.42036 0.628468C8.34139 0.468469 8.17845 0.367188 8.00001 0.367188C7.82161 0.367188 7.65864 0.4685 7.57967 0.628468L5.3613 5.12309L0.40134 5.84383C0.224777 5.86949 0.0780902 5.99318 0.0229653 6.16286C-0.0321909 6.33255 0.013809 6.51883 0.141559 6.64336L3.73055 10.142L2.88343 15.082C2.85327 15.2579 2.92559 15.4356 3.06993 15.5405C3.21424 15.6453 3.40555 15.6592 3.56358 15.5762L7.99998 13.2438L12.4363 15.5762C12.5048 15.6123 12.5797 15.63 12.6543 15.63C12.7515 15.63 12.8483 15.5998 12.9299 15.5405C13.0743 15.4356 13.1466 15.2579 13.1164 15.082L12.269 10.142L15.8584 6.64339C15.9862 6.51883 16.0322 6.33255 15.977 6.16286ZM11.4382 9.64261C11.3277 9.75029 11.2773 9.90548 11.3034 10.0575L12.0318 14.3043L8.21817 12.2993C8.08161 12.2275 7.91845 12.2275 7.78189 12.2993L3.96799 14.3044L4.69624 10.0575C4.7223 9.90545 4.67189 9.75033 4.56146 9.64264L1.47612 6.63502L5.74002 6.01536C5.8927 5.99318 6.02464 5.8973 6.09295 5.75896L7.99998 1.89503L9.90695 5.75893C9.97526 5.89727 10.1072 5.99318 10.2599 6.01536L14.5238 6.63499L11.4382 9.64261Z" fill="black"/>
</svg>
